<?xml version="1.0" encoding="utf-8" standalone="no"?>
<!DOCTYPE svg PUBLIC "-//W3C//DTD SVG 1.1//EN"
  "http://www.w3.org/Graphics/SVG/1.1/DTD/svg11.dtd">
<!-- Created with matplotlib (https://matplotlib.org/) -->
<svg height="396pt" version="1.1" viewBox="0 0 576 396" width="576pt" xmlns="http://www.w3.org/2000/svg" xmlns:xlink="http://www.w3.org/1999/xlink">
 <defs>
  <style type="text/css">
*{stroke-linecap:butt;stroke-linejoin:round;}
  </style>
 </defs>
 <g id="figure_1">
  <g id="patch_1">
   <path d="M 0 396 
L 576 396 
L 576 0 
L 0 0 
z
" style="fill:#ffffff;"/>
  </g>
  <g id="axes_1">
   <g id="patch_2">
    <path d="M 72 352.44 
L 518.4 352.44 
L 518.4 47.52 
L 72 47.52 
z
" style="fill:#eaeaf2;"/>
   </g>
   <g id="matplotlib.axis_1">
    <g id="xtick_1">
     <g id="line2d_1">
      <path clip-path="url(#p690887fb4b)" d="M 92.290909 352.44 
L 92.290909 47.52 
" style="fill:none;stroke:#ffffff;stroke-linecap:round;"/>
     </g>
     <g id="line2d_2"/>
     <g id="text_1">
      <!-- 0:00:00 -->
      <defs>
       <path d="M 4.15625 35.296875 
Q 4.15625 48 6.765625 55.734375 
Q 9.375 63.484375 14.515625 67.671875 
Q 19.671875 71.875 27.484375 71.875 
Q 33.25 71.875 37.59375 69.546875 
Q 41.9375 67.234375 44.765625 62.859375 
Q 47.609375 58.5 49.21875 52.21875 
Q 50.828125 45.953125 50.828125 35.296875 
Q 50.828125 22.703125 48.234375 14.96875 
Q 45.65625 7.234375 40.5 3 
Q 35.359375 -1.21875 27.484375 -1.21875 
Q 17.140625 -1.21875 11.234375 6.203125 
Q 4.15625 15.140625 4.15625 35.296875 
z
M 13.1875 35.296875 
Q 13.1875 17.671875 17.3125 11.828125 
Q 21.4375 6 27.484375 6 
Q 33.546875 6 37.671875 11.859375 
Q 41.796875 17.71875 41.796875 35.296875 
Q 41.796875 52.984375 37.671875 58.78125 
Q 33.546875 64.59375 27.390625 64.59375 
Q 21.34375 64.59375 17.71875 59.46875 
Q 13.1875 52.9375 13.1875 35.296875 
z
" id="ArialMT-48"/>
       <path d="M 9.03125 41.84375 
L 9.03125 51.859375 
L 19.046875 51.859375 
L 19.046875 41.84375 
z
M 9.03125 0 
L 9.03125 10.015625 
L 19.046875 10.015625 
L 19.046875 0 
z
" id="ArialMT-58"/>
      </defs>
      <g style="fill:#262626;" transform="translate(75.61044 366.597813)scale(0.1 -0.1)">
       <use xlink:href="#ArialMT-48"/>
       <use x="55.615234" xlink:href="#ArialMT-58"/>
       <use x="83.398438" xlink:href="#ArialMT-48"/>
       <use x="139.013672" xlink:href="#ArialMT-48"/>
       <use x="194.628906" xlink:href="#ArialMT-58"/>
       <use x="222.412109" xlink:href="#ArialMT-48"/>
       <use x="278.027344" xlink:href="#ArialMT-48"/>
      </g>
     </g>
    </g>
    <g id="xtick_2">
     <g id="line2d_3">
      <path clip-path="url(#p690887fb4b)" d="M 186.262932 352.44 
L 186.262932 47.52 
" style="fill:none;stroke:#ffffff;stroke-linecap:round;"/>
     </g>
     <g id="line2d_4"/>
     <g id="text_2">
      <!-- 5:33:20 -->
      <defs>
       <path d="M 4.15625 18.75 
L 13.375 19.53125 
Q 14.40625 12.796875 18.140625 9.390625 
Q 21.875 6 27.15625 6 
Q 33.5 6 37.890625 10.78125 
Q 42.28125 15.578125 42.28125 23.484375 
Q 42.28125 31 38.0625 35.34375 
Q 33.84375 39.703125 27 39.703125 
Q 22.75 39.703125 19.328125 37.765625 
Q 15.921875 35.84375 13.96875 32.765625 
L 5.71875 33.84375 
L 12.640625 70.609375 
L 48.25 70.609375 
L 48.25 62.203125 
L 19.671875 62.203125 
L 15.828125 42.96875 
Q 22.265625 47.46875 29.34375 47.46875 
Q 38.71875 47.46875 45.15625 40.96875 
Q 51.609375 34.46875 51.609375 24.265625 
Q 51.609375 14.546875 45.953125 7.46875 
Q 39.0625 -1.21875 27.15625 -1.21875 
Q 17.390625 -1.21875 11.203125 4.25 
Q 5.03125 9.71875 4.15625 18.75 
z
" id="ArialMT-53"/>
       <path d="M 4.203125 18.890625 
L 12.984375 20.0625 
Q 14.5 12.59375 18.140625 9.296875 
Q 21.78125 6 27 6 
Q 33.203125 6 37.46875 10.296875 
Q 41.75 14.59375 41.75 20.953125 
Q 41.75 27 37.796875 30.921875 
Q 33.84375 34.859375 27.734375 34.859375 
Q 25.25 34.859375 21.53125 33.890625 
L 22.515625 41.609375 
Q 23.390625 41.5 23.921875 41.5 
Q 29.546875 41.5 34.03125 44.421875 
Q 38.53125 47.359375 38.53125 53.46875 
Q 38.53125 58.296875 35.25 61.46875 
Q 31.984375 64.65625 26.8125 64.65625 
Q 21.6875 64.65625 18.265625 61.421875 
Q 14.84375 58.203125 13.875 51.765625 
L 5.078125 53.328125 
Q 6.6875 62.15625 12.390625 67.015625 
Q 18.109375 71.875 26.609375 71.875 
Q 32.46875 71.875 37.390625 69.359375 
Q 42.328125 66.84375 44.9375 62.5 
Q 47.5625 58.15625 47.5625 53.265625 
Q 47.5625 48.640625 45.0625 44.828125 
Q 42.578125 41.015625 37.703125 38.765625 
Q 44.046875 37.3125 47.5625 32.6875 
Q 51.078125 28.078125 51.078125 21.140625 
Q 51.078125 11.765625 44.234375 5.25 
Q 37.40625 -1.265625 26.953125 -1.265625 
Q 17.53125 -1.265625 11.296875 4.34375 
Q 5.078125 9.96875 4.203125 18.890625 
z
" id="ArialMT-51"/>
       <path d="M 50.34375 8.453125 
L 50.34375 0 
L 3.03125 0 
Q 2.9375 3.171875 4.046875 6.109375 
Q 5.859375 10.9375 9.828125 15.625 
Q 13.8125 20.3125 21.34375 26.46875 
Q 33.015625 36.03125 37.109375 41.625 
Q 41.21875 47.21875 41.21875 52.203125 
Q 41.21875 57.421875 37.46875 61 
Q 33.734375 64.59375 27.734375 64.59375 
Q 21.390625 64.59375 17.578125 60.78125 
Q 13.765625 56.984375 13.71875 50.25 
L 4.6875 51.171875 
Q 5.609375 61.28125 11.65625 66.578125 
Q 17.71875 71.875 27.9375 71.875 
Q 38.234375 71.875 44.234375 66.15625 
Q 50.25 60.453125 50.25 52 
Q 50.25 47.703125 48.484375 43.546875 
Q 46.734375 39.40625 42.65625 34.8125 
Q 38.578125 30.21875 29.109375 22.21875 
Q 21.1875 15.578125 18.9375 13.203125 
Q 16.703125 10.84375 15.234375 8.453125 
z
" id="ArialMT-50"/>
      </defs>
      <g style="fill:#262626;" transform="translate(169.582463 366.597813)scale(0.1 -0.1)">
       <use xlink:href="#ArialMT-53"/>
       <use x="55.615234" xlink:href="#ArialMT-58"/>
       <use x="83.398438" xlink:href="#ArialMT-51"/>
       <use x="139.013672" xlink:href="#ArialMT-51"/>
       <use x="194.628906" xlink:href="#ArialMT-58"/>
       <use x="222.412109" xlink:href="#ArialMT-50"/>
       <use x="278.027344" xlink:href="#ArialMT-48"/>
      </g>
     </g>
    </g>
    <g id="xtick_3">
     <g id="line2d_5">
      <path clip-path="url(#p690887fb4b)" d="M 280.234955 352.44 
L 280.234955 47.52 
" style="fill:none;stroke:#ffffff;stroke-linecap:round;"/>
     </g>
     <g id="line2d_6"/>
     <g id="text_3">
      <!-- 11:06:40 -->
      <defs>
       <path d="M 37.25 0 
L 28.46875 0 
L 28.46875 56 
Q 25.296875 52.984375 20.140625 49.953125 
Q 14.984375 46.921875 10.890625 45.40625 
L 10.890625 53.90625 
Q 18.265625 57.375 23.78125 62.296875 
Q 29.296875 67.234375 31.59375 71.875 
L 37.25 71.875 
z
" id="ArialMT-49"/>
       <path d="M 49.75 54.046875 
L 41.015625 53.375 
Q 39.84375 58.546875 37.703125 60.890625 
Q 34.125 64.65625 28.90625 64.65625 
Q 24.703125 64.65625 21.53125 62.3125 
Q 17.390625 59.28125 14.984375 53.46875 
Q 12.59375 47.65625 12.5 36.921875 
Q 15.671875 41.75 20.265625 44.09375 
Q 24.859375 46.4375 29.890625 46.4375 
Q 38.671875 46.4375 44.84375 39.96875 
Q 51.03125 33.5 51.03125 23.25 
Q 51.03125 16.5 48.125 10.71875 
Q 45.21875 4.9375 40.140625 1.859375 
Q 35.0625 -1.21875 28.609375 -1.21875 
Q 17.625 -1.21875 10.6875 6.859375 
Q 3.765625 14.9375 3.765625 33.5 
Q 3.765625 54.25 11.421875 63.671875 
Q 18.109375 71.875 29.4375 71.875 
Q 37.890625 71.875 43.28125 67.140625 
Q 48.6875 62.40625 49.75 54.046875 
z
M 13.875 23.1875 
Q 13.875 18.65625 15.796875 14.5 
Q 17.71875 10.359375 21.1875 8.171875 
Q 24.65625 6 28.46875 6 
Q 34.03125 6 38.03125 10.484375 
Q 42.046875 14.984375 42.046875 22.703125 
Q 42.046875 30.125 38.078125 34.390625 
Q 34.125 38.671875 28.125 38.671875 
Q 22.171875 38.671875 18.015625 34.390625 
Q 13.875 30.125 13.875 23.1875 
z
" id="ArialMT-54"/>
       <path d="M 32.328125 0 
L 32.328125 17.140625 
L 1.265625 17.140625 
L 1.265625 25.203125 
L 33.9375 71.578125 
L 41.109375 71.578125 
L 41.109375 25.203125 
L 50.78125 25.203125 
L 50.78125 17.140625 
L 41.109375 17.140625 
L 41.109375 0 
z
M 32.328125 25.203125 
L 32.328125 57.46875 
L 9.90625 25.203125 
z
" id="ArialMT-52"/>
      </defs>
      <g style="fill:#262626;" transform="translate(260.779487 366.597813)scale(0.1 -0.1)">
       <use xlink:href="#ArialMT-49"/>
       <use x="55.505859" xlink:href="#ArialMT-49"/>
       <use x="111.121094" xlink:href="#ArialMT-58"/>
       <use x="138.904297" xlink:href="#ArialMT-48"/>
       <use x="194.519531" xlink:href="#ArialMT-54"/>
       <use x="250.134766" xlink:href="#ArialMT-58"/>
       <use x="277.917969" xlink:href="#ArialMT-52"/>
       <use x="333.533203" xlink:href="#ArialMT-48"/>
      </g>
     </g>
    </g>
    <g id="xtick_4">
     <g id="line2d_7">
      <path clip-path="url(#p690887fb4b)" d="M 374.206978 352.44 
L 374.206978 47.52 
" style="fill:none;stroke:#ffffff;stroke-linecap:round;"/>
     </g>
     <g id="line2d_8"/>
     <g id="text_4">
      <!-- 16:40:00 -->
      <g style="fill:#262626;" transform="translate(354.746041 366.597813)scale(0.1 -0.1)">
       <use xlink:href="#ArialMT-49"/>
       <use x="55.615234" xlink:href="#ArialMT-54"/>
       <use x="111.230469" xlink:href="#ArialMT-58"/>
       <use x="139.013672" xlink:href="#ArialMT-52"/>
       <use x="194.628906" xlink:href="#ArialMT-48"/>
       <use x="250.244141" xlink:href="#ArialMT-58"/>
       <use x="278.027344" xlink:href="#ArialMT-48"/>
       <use x="333.642578" xlink:href="#ArialMT-48"/>
      </g>
     </g>
    </g>
    <g id="xtick_5">
     <g id="line2d_9">
      <path clip-path="url(#p690887fb4b)" d="M 468.179002 352.44 
L 468.179002 47.52 
" style="fill:none;stroke:#ffffff;stroke-linecap:round;"/>
     </g>
     <g id="line2d_10"/>
     <g id="text_5">
      <!-- 22:13:20 -->
      <g style="fill:#262626;" transform="translate(448.718064 366.597813)scale(0.1 -0.1)">
       <use xlink:href="#ArialMT-50"/>
       <use x="55.615234" xlink:href="#ArialMT-50"/>
       <use x="111.230469" xlink:href="#ArialMT-58"/>
       <use x="139.013672" xlink:href="#ArialMT-49"/>
       <use x="194.628906" xlink:href="#ArialMT-51"/>
       <use x="250.244141" xlink:href="#ArialMT-58"/>
       <use x="278.027344" xlink:href="#ArialMT-50"/>
       <use x="333.642578" xlink:href="#ArialMT-48"/>
      </g>
     </g>
    </g>
    <g id="text_6">
     <!-- Time of day -->
     <defs>
      <path d="M 25.921875 0 
L 25.921875 63.140625 
L 2.34375 63.140625 
L 2.34375 71.578125 
L 59.078125 71.578125 
L 59.078125 63.140625 
L 35.40625 63.140625 
L 35.40625 0 
z
" id="ArialMT-84"/>
      <path d="M 6.640625 61.46875 
L 6.640625 71.578125 
L 15.4375 71.578125 
L 15.4375 61.46875 
z
M 6.640625 0 
L 6.640625 51.859375 
L 15.4375 51.859375 
L 15.4375 0 
z
" id="ArialMT-105"/>
      <path d="M 6.59375 0 
L 6.59375 51.859375 
L 14.453125 51.859375 
L 14.453125 44.578125 
Q 16.890625 48.390625 20.9375 50.703125 
Q 25 53.03125 30.171875 53.03125 
Q 35.9375 53.03125 39.625 50.640625 
Q 43.3125 48.25 44.828125 43.953125 
Q 50.984375 53.03125 60.84375 53.03125 
Q 68.5625 53.03125 72.703125 48.75 
Q 76.859375 44.484375 76.859375 35.59375 
L 76.859375 0 
L 68.109375 0 
L 68.109375 32.671875 
Q 68.109375 37.9375 67.25 40.25 
Q 66.40625 42.578125 64.15625 43.984375 
Q 61.921875 45.40625 58.890625 45.40625 
Q 53.421875 45.40625 49.796875 41.765625 
Q 46.1875 38.140625 46.1875 30.125 
L 46.1875 0 
L 37.40625 0 
L 37.40625 33.6875 
Q 37.40625 39.546875 35.25 42.46875 
Q 33.109375 45.40625 28.21875 45.40625 
Q 24.515625 45.40625 21.359375 43.453125 
Q 18.21875 41.5 16.796875 37.734375 
Q 15.375 33.984375 15.375 26.90625 
L 15.375 0 
z
" id="ArialMT-109"/>
      <path d="M 42.09375 16.703125 
L 51.171875 15.578125 
Q 49.03125 7.625 43.21875 3.21875 
Q 37.40625 -1.171875 28.375 -1.171875 
Q 17 -1.171875 10.328125 5.828125 
Q 3.65625 12.84375 3.65625 25.484375 
Q 3.65625 38.578125 10.390625 45.796875 
Q 17.140625 53.03125 27.875 53.03125 
Q 38.28125 53.03125 44.875 45.953125 
Q 51.46875 38.875 51.46875 26.03125 
Q 51.46875 25.25 51.421875 23.6875 
L 12.75 23.6875 
Q 13.234375 15.140625 17.578125 10.59375 
Q 21.921875 6.0625 28.421875 6.0625 
Q 33.25 6.0625 36.671875 8.59375 
Q 40.09375 11.140625 42.09375 16.703125 
z
M 13.234375 30.90625 
L 42.1875 30.90625 
Q 41.609375 37.453125 38.875 40.71875 
Q 34.671875 45.796875 27.984375 45.796875 
Q 21.921875 45.796875 17.796875 41.75 
Q 13.671875 37.703125 13.234375 30.90625 
z
" id="ArialMT-101"/>
      <path id="ArialMT-32"/>
      <path d="M 3.328125 25.921875 
Q 3.328125 40.328125 11.328125 47.265625 
Q 18.015625 53.03125 27.640625 53.03125 
Q 38.328125 53.03125 45.109375 46.015625 
Q 51.90625 39.015625 51.90625 26.65625 
Q 51.90625 16.65625 48.90625 10.90625 
Q 45.90625 5.171875 40.15625 2 
Q 34.421875 -1.171875 27.640625 -1.171875 
Q 16.75 -1.171875 10.03125 5.8125 
Q 3.328125 12.796875 3.328125 25.921875 
z
M 12.359375 25.921875 
Q 12.359375 15.96875 16.703125 11.015625 
Q 21.046875 6.0625 27.640625 6.0625 
Q 34.1875 6.0625 38.53125 11.03125 
Q 42.875 16.015625 42.875 26.21875 
Q 42.875 35.84375 38.5 40.796875 
Q 34.125 45.75 27.640625 45.75 
Q 21.046875 45.75 16.703125 40.8125 
Q 12.359375 35.890625 12.359375 25.921875 
z
" id="ArialMT-111"/>
      <path d="M 8.6875 0 
L 8.6875 45.015625 
L 0.921875 45.015625 
L 0.921875 51.859375 
L 8.6875 51.859375 
L 8.6875 57.375 
Q 8.6875 62.59375 9.625 65.140625 
Q 10.890625 68.5625 14.078125 70.671875 
Q 17.28125 72.796875 23.046875 72.796875 
Q 26.765625 72.796875 31.25 71.921875 
L 29.9375 64.265625 
Q 27.203125 64.75 24.75 64.75 
Q 20.75 64.75 19.09375 63.03125 
Q 17.4375 61.328125 17.4375 56.640625 
L 17.4375 51.859375 
L 27.546875 51.859375 
L 27.546875 45.015625 
L 17.4375 45.015625 
L 17.4375 0 
z
" id="ArialMT-102"/>
      <path d="M 40.234375 0 
L 40.234375 6.546875 
Q 35.296875 -1.171875 25.734375 -1.171875 
Q 19.53125 -1.171875 14.328125 2.25 
Q 9.125 5.671875 6.265625 11.796875 
Q 3.421875 17.921875 3.421875 25.875 
Q 3.421875 33.640625 6 39.96875 
Q 8.59375 46.296875 13.765625 49.65625 
Q 18.953125 53.03125 25.34375 53.03125 
Q 30.03125 53.03125 33.6875 51.046875 
Q 37.359375 49.078125 39.65625 45.90625 
L 39.65625 71.578125 
L 48.390625 71.578125 
L 48.390625 0 
z
M 12.453125 25.875 
Q 12.453125 15.921875 16.640625 10.984375 
Q 20.84375 6.0625 26.5625 6.0625 
Q 32.328125 6.0625 36.34375 10.765625 
Q 40.375 15.484375 40.375 25.140625 
Q 40.375 35.796875 36.265625 40.765625 
Q 32.171875 45.75 26.171875 45.75 
Q 20.3125 45.75 16.375 40.96875 
Q 12.453125 36.1875 12.453125 25.875 
z
" id="ArialMT-100"/>
      <path d="M 40.4375 6.390625 
Q 35.546875 2.25 31.03125 0.53125 
Q 26.515625 -1.171875 21.34375 -1.171875 
Q 12.796875 -1.171875 8.203125 3 
Q 3.609375 7.171875 3.609375 13.671875 
Q 3.609375 17.484375 5.34375 20.625 
Q 7.078125 23.78125 9.890625 25.6875 
Q 12.703125 27.59375 16.21875 28.5625 
Q 18.796875 29.25 24.03125 29.890625 
Q 34.671875 31.15625 39.703125 32.90625 
Q 39.75 34.71875 39.75 35.203125 
Q 39.75 40.578125 37.25 42.78125 
Q 33.890625 45.75 27.25 45.75 
Q 21.046875 45.75 18.09375 43.578125 
Q 15.140625 41.40625 13.71875 35.890625 
L 5.125 37.0625 
Q 6.296875 42.578125 8.984375 45.96875 
Q 11.671875 49.359375 16.75 51.1875 
Q 21.828125 53.03125 28.515625 53.03125 
Q 35.15625 53.03125 39.296875 51.46875 
Q 43.453125 49.90625 45.40625 47.53125 
Q 47.359375 45.171875 48.140625 41.546875 
Q 48.578125 39.3125 48.578125 33.453125 
L 48.578125 21.734375 
Q 48.578125 9.46875 49.140625 6.21875 
Q 49.703125 2.984375 51.375 0 
L 42.1875 0 
Q 40.828125 2.734375 40.4375 6.390625 
z
M 39.703125 26.03125 
Q 34.90625 24.078125 25.34375 22.703125 
Q 19.921875 21.921875 17.671875 20.9375 
Q 15.4375 19.96875 14.203125 18.09375 
Q 12.984375 16.21875 12.984375 13.921875 
Q 12.984375 10.40625 15.640625 8.0625 
Q 18.3125 5.71875 23.4375 5.71875 
Q 28.515625 5.71875 32.46875 7.9375 
Q 36.421875 10.15625 38.28125 14.015625 
Q 39.703125 17 39.703125 22.796875 
z
" id="ArialMT-97"/>
      <path d="M 6.203125 -19.96875 
L 5.21875 -11.71875 
Q 8.109375 -12.5 10.25 -12.5 
Q 13.1875 -12.5 14.9375 -11.515625 
Q 16.703125 -10.546875 17.828125 -8.796875 
Q 18.65625 -7.46875 20.515625 -2.25 
Q 20.75 -1.515625 21.296875 -0.09375 
L 1.609375 51.859375 
L 11.078125 51.859375 
L 21.875 21.828125 
Q 23.96875 16.109375 25.640625 9.8125 
Q 27.15625 15.875 29.25 21.625 
L 40.328125 51.859375 
L 49.125 51.859375 
L 29.390625 -0.875 
Q 26.21875 -9.421875 24.46875 -12.640625 
Q 22.125 -17 19.09375 -19.015625 
Q 16.0625 -21.046875 11.859375 -21.046875 
Q 9.328125 -21.046875 6.203125 -19.96875 
z
" id="ArialMT-121"/>
     </defs>
     <g style="fill:#262626;" transform="translate(248.190469 385.68875)scale(0.18 -0.18)">
      <use xlink:href="#ArialMT-84"/>
      <use x="61.037109" xlink:href="#ArialMT-105"/>
      <use x="83.253906" xlink:href="#ArialMT-109"/>
      <use x="166.554688" xlink:href="#ArialMT-101"/>
      <use x="222.169922" xlink:href="#ArialMT-32"/>
      <use x="249.953125" xlink:href="#ArialMT-111"/>
      <use x="305.568359" xlink:href="#ArialMT-102"/>
      <use x="333.351562" xlink:href="#ArialMT-32"/>
      <use x="361.134766" xlink:href="#ArialMT-100"/>
      <use x="416.75" xlink:href="#ArialMT-97"/>
      <use x="472.365234" xlink:href="#ArialMT-121"/>
     </g>
    </g>
   </g>
   <g id="matplotlib.axis_2">
    <g id="ytick_1">
     <g id="line2d_11">
      <path clip-path="url(#p690887fb4b)" d="M 72 338.58 
L 518.4 338.58 
" style="fill:none;stroke:#ffffff;stroke-linecap:round;"/>
     </g>
     <g id="line2d_12"/>
     <g id="text_7">
      <!-- −10 -->
      <defs>
       <path d="M 52.828125 31.203125 
L 5.5625 31.203125 
L 5.5625 39.40625 
L 52.828125 39.40625 
z
" id="ArialMT-8722"/>
      </defs>
      <g style="fill:#262626;" transform="translate(48.0375 342.158906)scale(0.1 -0.1)">
       <use xlink:href="#ArialMT-8722"/>
       <use x="58.398438" xlink:href="#ArialMT-49"/>
       <use x="114.013672" xlink:href="#ArialMT-48"/>
      </g>
     </g>
    </g>
    <g id="ytick_2">
     <g id="line2d_13">
      <path clip-path="url(#p690887fb4b)" d="M 72 301.496758 
L 518.4 301.496758 
" style="fill:none;stroke:#ffffff;stroke-linecap:round;"/>
     </g>
     <g id="line2d_14"/>
     <g id="text_8">
      <!-- 0 -->
      <g style="fill:#262626;" transform="translate(59.439062 305.075665)scale(0.1 -0.1)">
       <use xlink:href="#ArialMT-48"/>
      </g>
     </g>
    </g>
    <g id="ytick_3">
     <g id="line2d_15">
      <path clip-path="url(#p690887fb4b)" d="M 72 264.413517 
L 518.4 264.413517 
" style="fill:none;stroke:#ffffff;stroke-linecap:round;"/>
     </g>
     <g id="line2d_16"/>
     <g id="text_9">
      <!-- 10 -->
      <g style="fill:#262626;" transform="translate(53.878125 267.992423)scale(0.1 -0.1)">
       <use xlink:href="#ArialMT-49"/>
       <use x="55.615234" xlink:href="#ArialMT-48"/>
      </g>
     </g>
    </g>
    <g id="ytick_4">
     <g id="line2d_17">
      <path clip-path="url(#p690887fb4b)" d="M 72 227.330275 
L 518.4 227.330275 
" style="fill:none;stroke:#ffffff;stroke-linecap:round;"/>
     </g>
     <g id="line2d_18"/>
     <g id="text_10">
      <!-- 20 -->
      <g style="fill:#262626;" transform="translate(53.878125 230.909182)scale(0.1 -0.1)">
       <use xlink:href="#ArialMT-50"/>
       <use x="55.615234" xlink:href="#ArialMT-48"/>
      </g>
     </g>
    </g>
    <g id="ytick_5">
     <g id="line2d_19">
      <path clip-path="url(#p690887fb4b)" d="M 72 190.247034 
L 518.4 190.247034 
" style="fill:none;stroke:#ffffff;stroke-linecap:round;"/>
     </g>
     <g id="line2d_20"/>
     <g id="text_11">
      <!-- 30 -->
      <g style="fill:#262626;" transform="translate(53.878125 193.82594)scale(0.1 -0.1)">
       <use xlink:href="#ArialMT-51"/>
       <use x="55.615234" xlink:href="#ArialMT-48"/>
      </g>
     </g>
    </g>
    <g id="ytick_6">
     <g id="line2d_21">
      <path clip-path="url(#p690887fb4b)" d="M 72 153.163792 
L 518.4 153.163792 
" style="fill:none;stroke:#ffffff;stroke-linecap:round;"/>
     </g>
     <g id="line2d_22"/>
     <g id="text_12">
      <!-- 40 -->
      <g style="fill:#262626;" transform="translate(53.878125 156.742698)scale(0.1 -0.1)">
       <use xlink:href="#ArialMT-52"/>
       <use x="55.615234" xlink:href="#ArialMT-48"/>
      </g>
     </g>
    </g>
    <g id="ytick_7">
     <g id="line2d_23">
      <path clip-path="url(#p690887fb4b)" d="M 72 116.080551 
L 518.4 116.080551 
" style="fill:none;stroke:#ffffff;stroke-linecap:round;"/>
     </g>
     <g id="line2d_24"/>
     <g id="text_13">
      <!-- 50 -->
      <g style="fill:#262626;" transform="translate(53.878125 119.659457)scale(0.1 -0.1)">
       <use xlink:href="#ArialMT-53"/>
       <use x="55.615234" xlink:href="#ArialMT-48"/>
      </g>
     </g>
    </g>
    <g id="ytick_8">
     <g id="line2d_25">
      <path clip-path="url(#p690887fb4b)" d="M 72 78.997309 
L 518.4 78.997309 
" style="fill:none;stroke:#ffffff;stroke-linecap:round;"/>
     </g>
     <g id="line2d_26"/>
     <g id="text_14">
      <!-- 60 -->
      <g style="fill:#262626;" transform="translate(53.878125 82.576215)scale(0.1 -0.1)">
       <use xlink:href="#ArialMT-54"/>
       <use x="55.615234" xlink:href="#ArialMT-48"/>
      </g>
     </g>
    </g>
    <g id="text_15">
     <!-- Temperature (C°) -->
     <defs>
      <path d="M 6.59375 -19.875 
L 6.59375 51.859375 
L 14.59375 51.859375 
L 14.59375 45.125 
Q 17.4375 49.078125 21 51.046875 
Q 24.5625 53.03125 29.640625 53.03125 
Q 36.28125 53.03125 41.359375 49.609375 
Q 46.4375 46.1875 49.015625 39.953125 
Q 51.609375 33.734375 51.609375 26.3125 
Q 51.609375 18.359375 48.75 11.984375 
Q 45.90625 5.609375 40.453125 2.21875 
Q 35.015625 -1.171875 29 -1.171875 
Q 24.609375 -1.171875 21.109375 0.6875 
Q 17.625 2.546875 15.375 5.375 
L 15.375 -19.875 
z
M 14.546875 25.640625 
Q 14.546875 15.625 18.59375 10.84375 
Q 22.65625 6.0625 28.421875 6.0625 
Q 34.28125 6.0625 38.453125 11.015625 
Q 42.625 15.96875 42.625 26.375 
Q 42.625 36.28125 38.546875 41.203125 
Q 34.46875 46.140625 28.8125 46.140625 
Q 23.1875 46.140625 18.859375 40.890625 
Q 14.546875 35.640625 14.546875 25.640625 
z
" id="ArialMT-112"/>
      <path d="M 6.5 0 
L 6.5 51.859375 
L 14.40625 51.859375 
L 14.40625 44 
Q 17.4375 49.515625 20 51.265625 
Q 22.5625 53.03125 25.640625 53.03125 
Q 30.078125 53.03125 34.671875 50.203125 
L 31.640625 42.046875 
Q 28.421875 43.953125 25.203125 43.953125 
Q 22.3125 43.953125 20.015625 42.21875 
Q 17.71875 40.484375 16.75 37.40625 
Q 15.28125 32.71875 15.28125 27.15625 
L 15.28125 0 
z
" id="ArialMT-114"/>
      <path d="M 25.78125 7.859375 
L 27.046875 0.09375 
Q 23.34375 -0.6875 20.40625 -0.6875 
Q 15.625 -0.6875 12.984375 0.828125 
Q 10.359375 2.34375 9.28125 4.8125 
Q 8.203125 7.28125 8.203125 15.1875 
L 8.203125 45.015625 
L 1.765625 45.015625 
L 1.765625 51.859375 
L 8.203125 51.859375 
L 8.203125 64.703125 
L 16.9375 69.96875 
L 16.9375 51.859375 
L 25.78125 51.859375 
L 25.78125 45.015625 
L 16.9375 45.015625 
L 16.9375 14.703125 
Q 16.9375 10.9375 17.40625 9.859375 
Q 17.875 8.796875 18.921875 8.15625 
Q 19.96875 7.515625 21.921875 7.515625 
Q 23.390625 7.515625 25.78125 7.859375 
z
" id="ArialMT-116"/>
      <path d="M 40.578125 0 
L 40.578125 7.625 
Q 34.515625 -1.171875 24.125 -1.171875 
Q 19.53125 -1.171875 15.546875 0.578125 
Q 11.578125 2.34375 9.640625 5 
Q 7.71875 7.671875 6.9375 11.53125 
Q 6.390625 14.109375 6.390625 19.734375 
L 6.390625 51.859375 
L 15.1875 51.859375 
L 15.1875 23.09375 
Q 15.1875 16.21875 15.71875 13.8125 
Q 16.546875 10.359375 19.234375 8.375 
Q 21.921875 6.390625 25.875 6.390625 
Q 29.828125 6.390625 33.296875 8.421875 
Q 36.765625 10.453125 38.203125 13.9375 
Q 39.65625 17.4375 39.65625 24.078125 
L 39.65625 51.859375 
L 48.4375 51.859375 
L 48.4375 0 
z
" id="ArialMT-117"/>
      <path d="M 23.390625 -21.046875 
Q 16.109375 -11.859375 11.078125 0.4375 
Q 6.0625 12.75 6.0625 25.921875 
Q 6.0625 37.546875 9.8125 48.1875 
Q 14.203125 60.546875 23.390625 72.796875 
L 29.6875 72.796875 
Q 23.78125 62.640625 21.875 58.296875 
Q 18.890625 51.5625 17.1875 44.234375 
Q 15.09375 35.109375 15.09375 25.875 
Q 15.09375 2.390625 29.6875 -21.046875 
z
" id="ArialMT-40"/>
      <path d="M 58.796875 25.09375 
L 68.265625 22.703125 
Q 65.28125 11.03125 57.546875 4.90625 
Q 49.8125 -1.21875 38.625 -1.21875 
Q 27.046875 -1.21875 19.796875 3.484375 
Q 12.546875 8.203125 8.765625 17.140625 
Q 4.984375 26.078125 4.984375 36.328125 
Q 4.984375 47.515625 9.25 55.828125 
Q 13.53125 64.15625 21.40625 68.46875 
Q 29.296875 72.796875 38.765625 72.796875 
Q 49.515625 72.796875 56.828125 67.328125 
Q 64.15625 61.859375 67.046875 51.953125 
L 57.71875 49.75 
Q 55.21875 57.5625 50.484375 61.125 
Q 45.75 64.703125 38.578125 64.703125 
Q 30.328125 64.703125 24.78125 60.734375 
Q 19.234375 56.78125 16.984375 50.109375 
Q 14.75 43.453125 14.75 36.375 
Q 14.75 27.25 17.40625 20.4375 
Q 20.0625 13.625 25.671875 10.25 
Q 31.296875 6.890625 37.84375 6.890625 
Q 45.796875 6.890625 51.3125 11.46875 
Q 56.84375 16.0625 58.796875 25.09375 
z
" id="ArialMT-67"/>
      <path d="M 6.25 59.28125 
Q 6.25 64.890625 10.21875 68.84375 
Q 14.203125 72.796875 19.78125 72.796875 
Q 25.4375 72.796875 29.390625 68.84375 
Q 33.34375 64.890625 33.34375 59.28125 
Q 33.34375 53.65625 29.359375 49.671875 
Q 25.390625 45.703125 19.78125 45.703125 
Q 14.203125 45.703125 10.21875 49.65625 
Q 6.25 53.609375 6.25 59.28125 
z
M 11.578125 59.28125 
Q 11.578125 55.859375 13.984375 53.4375 
Q 16.40625 51.03125 19.828125 51.03125 
Q 23.1875 51.03125 25.609375 53.4375 
Q 28.03125 55.859375 28.03125 59.28125 
Q 28.03125 62.703125 25.609375 65.109375 
Q 23.1875 67.53125 19.828125 67.53125 
Q 16.40625 67.53125 13.984375 65.109375 
Q 11.578125 62.703125 11.578125 59.28125 
z
" id="ArialMT-176"/>
      <path d="M 12.359375 -21.046875 
L 6.0625 -21.046875 
Q 20.65625 2.390625 20.65625 25.875 
Q 20.65625 35.0625 18.5625 44.09375 
Q 16.890625 51.421875 13.921875 58.15625 
Q 12.015625 62.546875 6.0625 72.796875 
L 12.359375 72.796875 
Q 21.53125 60.546875 25.921875 48.1875 
Q 29.6875 37.546875 29.6875 25.921875 
Q 29.6875 12.75 24.625 0.4375 
Q 19.578125 -11.859375 12.359375 -21.046875 
z
" id="ArialMT-41"/>
     </defs>
     <g style="fill:#262626;" transform="translate(40.249062 270.073125)rotate(-90)scale(0.18 -0.18)">
      <use xlink:href="#ArialMT-84"/>
      <use x="60.912109" xlink:href="#ArialMT-101"/>
      <use x="116.527344" xlink:href="#ArialMT-109"/>
      <use x="199.828125" xlink:href="#ArialMT-112"/>
      <use x="255.443359" xlink:href="#ArialMT-101"/>
      <use x="311.058594" xlink:href="#ArialMT-114"/>
      <use x="344.359375" xlink:href="#ArialMT-97"/>
      <use x="399.974609" xlink:href="#ArialMT-116"/>
      <use x="427.757812" xlink:href="#ArialMT-117"/>
      <use x="483.373047" xlink:href="#ArialMT-114"/>
      <use x="516.673828" xlink:href="#ArialMT-101"/>
      <use x="572.289062" xlink:href="#ArialMT-32"/>
      <use x="600.072266" xlink:href="#ArialMT-40"/>
      <use x="633.373047" xlink:href="#ArialMT-67"/>
      <use x="705.589844" xlink:href="#ArialMT-176"/>
      <use x="745.580078" xlink:href="#ArialMT-41"/>
     </g>
    </g>
   </g>
   <g id="line2d_27">
    <path clip-path="url(#p690887fb4b)" d="M 72 227.330275 
L 518.4 227.330275 
" style="fill:none;stroke:#ffff00;stroke-dasharray:2,3.3;stroke-dashoffset:0;stroke-width:2;"/>
   </g>
   <g id="line2d_28">
    <path clip-path="url(#p690887fb4b)" d="M 92.290909 327.455028 
L 109.064915 327.455028 
L 109.205873 331.163352 
L 176.724772 331.163352 
L 176.86573 334.871676 
L 193.639736 334.871676 
L 193.780694 338.58 
L 210.5547 338.58 
L 210.695658 334.871676 
L 227.469664 334.871676 
L 227.610622 331.163352 
L 244.384629 331.163352 
L 244.525587 327.455028 
L 261.299593 327.455028 
L 261.440551 316.330055 
L 278.214557 316.330055 
L 278.355515 308.913407 
L 295.129521 308.913407 
L 295.270479 312.621731 
L 312.044485 312.621731 
L 312.185443 308.913407 
L 345.874413 308.913407 
L 346.015371 305.205083 
L 362.789378 305.205083 
L 362.930336 308.913407 
L 379.704342 308.913407 
L 379.8453 312.621731 
L 413.53427 312.621731 
L 413.675228 316.330055 
L 498.109091 316.330055 
L 498.109091 316.330055 
" style="fill:none;stroke:#c44e52;stroke-linecap:round;stroke-width:1.75;"/>
   </g>
   <g id="line2d_29">
    <path clip-path="url(#p690887fb4b)" d="M 92.290909 235.083452 
L 92.431867 235.418759 
L 93.418573 224.849241 
L 93.700489 224.005473 
L 93.841447 224.177284 
L 96.942524 232.118116 
L 98.211147 235.187912 
L 99.197853 224.624197 
L 99.479769 223.782059 
L 99.620727 223.954681 
L 102.721804 231.912629 
L 104.131384 235.324692 
L 105.11809 224.757538 
L 105.400006 223.914434 
L 105.540964 224.086576 
L 108.642041 232.034383 
L 109.910663 235.186912 
L 110.89737 224.71643 
L 111.179286 223.900497 
L 111.320244 224.086151 
L 114.421321 232.319116 
L 115.548985 235.153332 
L 116.535691 224.683694 
L 116.817607 223.867998 
L 116.958565 224.053769 
L 120.059642 232.289225 
L 121.187306 235.124298 
L 122.174012 224.655389 
L 122.455929 223.839899 
L 122.596887 224.025772 
L 125.697963 232.26338 
L 126.825628 235.099194 
L 127.812334 224.630916 
L 128.09425 223.815603 
L 128.235208 224.001565 
L 131.336285 232.241034 
L 132.604907 235.426278 
L 133.732571 223.365619 
L 134.014487 222.559475 
L 134.155445 222.749997 
L 137.256522 231.085697 
L 138.948019 235.359065 
L 139.934725 224.884256 
L 140.216641 224.067107 
L 140.357599 224.252156 
L 143.458676 232.472357 
L 144.58634 235.302179 
L 145.573046 224.828799 
L 145.854962 224.012052 
L 145.99592 224.197301 
L 149.096997 232.42172 
L 150.224661 235.252994 
L 151.211368 224.780851 
L 151.493284 223.964451 
L 151.634242 224.149872 
L 154.735318 232.377939 
L 155.862983 235.210468 
L 156.849689 224.739393 
L 157.131605 223.923294 
L 157.272563 224.108865 
L 160.37364 232.340084 
L 161.501304 235.173698 
L 162.48801 224.703548 
L 162.769926 223.887709 
L 162.910884 224.073408 
L 166.011961 232.307354 
L 167.139626 235.141907 
L 168.126332 224.672555 
L 168.408248 223.856941 
L 168.549206 224.042752 
L 171.650283 232.279055 
L 172.777947 235.114419 
L 173.764653 224.645759 
L 174.046569 223.830338 
L 174.187527 224.016246 
L 177.711478 233.421 
L 178.416268 235.249 
L 179.402975 224.870165 
L 179.684891 224.079992 
L 179.825849 224.278455 
L 182.926925 232.781761 
L 183.913632 235.347772 
L 185.041296 223.395694 
L 185.323212 222.616206 
L 185.46417 222.819982 
L 188.565247 231.435428 
L 189.974827 235.129399 
L 190.961533 224.753571 
L 191.243449 223.964242 
L 191.384407 224.163125 
L 195.049316 234.283555 
L 195.47219 235.415219 
L 196.599855 223.567539 
L 196.881771 222.813679 
L 197.163687 223.449643 
L 200.264764 232.301801 
L 201.392428 235.349174 
L 202.520092 223.503388 
L 202.802008 222.749992 
L 203.083924 223.386418 
L 206.185001 232.243437 
L 207.312665 235.292484 
L 208.44033 223.448323 
L 208.722246 222.695327 
L 209.004162 223.332149 
L 211.541406 230.541286 
L 213.373861 235.358795 
L 214.501525 223.406401 
L 214.783441 222.626835 
L 214.924399 222.830573 
L 218.025476 231.445204 
L 219.435056 235.138827 
L 220.421763 224.762761 
L 220.703679 223.973366 
L 220.844637 224.172216 
L 223.945713 232.68369 
L 224.93242 235.252166 
L 225.919126 224.873252 
L 226.201042 224.083056 
L 226.342 224.281508 
L 228.738287 230.791953 
L 230.570741 235.426653 
L 231.698405 223.365983 
L 231.980321 222.559836 
L 232.121279 222.750356 
L 235.222356 231.086029 
L 236.913853 235.359383 
L 237.900559 224.884566 
L 238.182475 224.067415 
L 238.323433 224.252462 
L 241.42451 232.472641 
L 242.552174 235.302454 
L 243.53888 224.829067 
L 243.820796 224.012318 
L 243.961754 224.197566 
L 246.076125 229.717782 
L 248.331453 235.242374 
L 249.31816 224.677289 
L 249.600076 223.834767 
L 249.741034 224.007198 
L 252.842111 231.961108 
L 254.251691 235.371439 
L 255.238397 224.80311 
L 255.520313 223.959676 
L 255.661271 224.131654 
L 258.762348 232.075995 
L 260.03097 235.147147 
L 261.017677 224.584456 
L 261.299593 223.742606 
L 261.440551 223.874988 
L 264.541627 230.983685 
L 266.51504 235.220097 
L 267.501746 224.375949 
L 267.783662 223.45499 
L 267.92462 223.588416 
L 271.025697 230.719147 
L 273.140068 235.26403 
L 274.126774 224.418777 
L 274.40869 223.497508 
L 274.549648 223.630779 
L 277.650725 230.758253 
L 279.201263 233.927355 
L 279.906053 235.278499 
L 280.892759 224.246466 
L 281.174676 223.272699 
L 281.315634 223.379864 
L 284.41671 229.956379 
L 287.094913 235.227713 
L 288.081619 224.196957 
L 288.363535 223.223548 
L 288.504493 223.330892 
L 291.60557 229.911172 
L 294.283773 235.185525 
L 295.270479 224.16929 
L 295.552395 223.222955 
L 295.693353 223.343762 
L 298.79443 230.208178 
L 301.190716 235.148849 
L 302.177423 224.213283 
L 302.459339 223.266629 
L 302.600297 223.387278 
L 305.701374 230.248348 
L 308.09766 235.18661 
L 309.084366 224.250095 
L 309.366282 223.303175 
L 309.507241 223.423691 
L 312.326401 229.654034 
L 315.145562 235.214056 
L 316.132268 224.183643 
L 316.414184 223.21033 
L 316.555142 223.317722 
L 319.656219 229.899014 
L 322.334422 235.174179 
L 323.321128 224.144768 
L 323.603044 223.171738 
L 323.744002 223.27927 
L 326.845079 229.863518 
L 329.523281 235.141053 
L 330.509988 224.112475 
L 330.791904 223.139678 
L 330.932862 223.247326 
L 334.033939 229.834031 
L 336.712141 235.113534 
L 337.698847 224.085648 
L 337.980764 223.113046 
L 338.121722 223.220791 
L 341.222798 229.809536 
L 343.901001 235.090674 
L 344.887707 224.063362 
L 345.169623 223.090922 
L 345.310581 223.198747 
L 347.424952 227.603724 
L 350.526029 233.570347 
L 351.371777 235.116453 
L 352.358483 223.995285 
L 352.640399 222.996464 
L 352.781357 223.091171 
L 355.882434 229.404756 
L 358.983511 235.232902 
L 359.970217 224.108807 
L 360.252133 223.109164 
L 360.393091 223.203462 
L 364.339916 231.287602 
L 366.313328 235.140782 
L 367.300035 224.11221 
L 367.581951 223.139416 
L 367.722909 223.247065 
L 370.823986 229.83379 
L 373.502188 235.113309 
L 374.488895 224.085428 
L 374.770811 223.112828 
L 374.911769 223.220574 
L 378.012845 229.809335 
L 380.691048 235.183695 
L 381.677754 224.247253 
L 381.95967 223.300353 
L 382.100628 223.42088 
L 385.201705 230.279366 
L 387.597992 235.215769 
L 388.584698 224.278521 
L 388.866614 223.331395 
L 389.007572 223.451808 
L 392.108649 230.307917 
L 394.504935 235.242608 
L 395.491642 224.304685 
L 395.773558 223.357369 
L 395.914516 223.477689 
L 399.015593 230.331807 
L 401.411879 235.265066 
L 402.398585 224.326579 
L 402.680501 223.379104 
L 402.821459 223.499345 
L 405.922536 230.351798 
L 408.318823 235.283859 
L 409.305529 224.344899 
L 409.587445 223.397292 
L 409.728403 223.517466 
L 412.82948 230.368527 
L 415.084808 235.163298 
L 416.071515 224.320577 
L 416.353431 223.400019 
L 416.494389 223.533645 
L 419.595466 230.668587 
L 421.709836 235.216154 
L 422.696542 224.372105 
L 422.978458 223.451174 
L 423.119416 223.584613 
L 426.220493 230.715637 
L 428.334864 235.260707 
L 429.32157 224.415537 
L 429.603486 223.494291 
L 429.744444 223.627575 
L 432.845521 230.755295 
L 434.959891 235.298259 
L 435.946598 224.452146 
L 436.228514 223.530635 
L 436.369472 223.663786 
L 439.470548 230.788722 
L 441.584919 235.329912 
L 442.571625 224.483003 
L 442.853541 223.561268 
L 442.994499 223.694308 
L 446.095576 230.816898 
L 448.068989 235.061589 
L 449.055695 224.221424 
L 449.337611 223.301585 
L 449.478569 223.435568 
L 452.579646 230.578051 
L 454.694016 235.130425 
L 455.680722 224.28853 
L 455.962639 223.368204 
L 456.103597 223.501945 
L 459.204673 230.639325 
L 461.319044 235.188446 
L 462.30575 224.345093 
L 462.587666 223.424357 
L 462.728624 223.557894 
L 465.829701 230.690972 
L 467.944071 235.237351 
L 468.930778 224.392769 
L 469.212694 223.471688 
L 469.353652 223.605053 
L 472.454729 230.734505 
L 474.569099 235.278573 
L 475.555805 224.432955 
L 475.837721 223.511583 
L 475.978679 223.644803 
L 479.079756 230.771199 
L 481.194127 235.313319 
L 482.180833 224.466827 
L 482.462749 223.545209 
L 482.603707 223.678308 
L 485.704784 230.802127 
L 487.678196 235.047551 
L 488.664903 224.20774 
L 488.946819 223.288 
L 489.087777 223.422032 
L 492.188853 230.565556 
L 494.303224 235.118593 
L 495.28993 224.276996 
L 495.571846 223.356754 
L 495.712804 223.490536 
L 498.109091 229.056241 
L 498.109091 229.056241 
" style="fill:none;stroke:#0000ff;stroke-dasharray:6.475,2.8;stroke-dashoffset:0;stroke-width:1.75;"/>
   </g>
   <g id="line2d_30">
    <path clip-path="url(#p690887fb4b)" d="M 92.290909 235.083452 
L 92.572825 232.59036 
L 92.854741 231.690493 
L 92.995699 231.834408 
L 93.418573 232.871935 
L 93.841447 228.777482 
L 94.123364 227.905246 
L 94.264322 228.062901 
L 94.687196 229.141351 
L 94.969112 226.69132 
L 95.251028 225.834202 
L 95.391986 225.999375 
L 95.955818 227.464502 
L 96.378692 223.428721 
L 96.660608 222.595247 
L 96.801566 222.772177 
L 97.365398 224.283908 
L 98.070189 217.127016 
L 98.352105 216.339209 
L 98.493063 216.538849 
L 99.197853 218.537404 
L 99.479769 216.164217 
L 99.761685 215.383387 
L 99.902643 215.586496 
L 100.889349 218.398291 
L 101.171265 216.026112 
L 101.453181 215.246283 
L 101.594139 215.44989 
L 102.29893 217.468067 
L 102.721804 213.540752 
L 103.00372 212.778934 
L 103.144678 212.991497 
L 103.426594 213.82099 
L 103.70851 211.481982 
L 103.990426 210.735083 
L 104.272342 211.377958 
L 104.554258 212.219143 
L 105.259048 205.279642 
L 105.540964 204.57769 
L 105.82288 205.265186 
L 105.963838 205.708733 
L 106.245755 203.428513 
L 106.527671 202.739975 
L 106.809587 203.440789 
L 107.232461 204.7864 
L 107.796293 199.486016 
L 108.078209 198.826049 
L 108.360125 199.555226 
L 108.923957 201.402233 
L 109.205873 199.166683 
L 109.487789 198.535903 
L 109.769705 199.294057 
L 109.910663 199.772739 
L 110.192579 197.56241 
L 110.474496 196.943256 
L 110.756412 197.712951 
L 111.743118 201.067202 
L 112.025034 198.847491 
L 112.30695 198.219025 
L 112.588866 198.979475 
L 112.729824 199.4593 
L 113.01174 197.251241 
L 113.293656 196.634343 
L 113.575572 197.406276 
L 113.857488 198.375585 
L 114.703237 190.288689 
L 114.844195 189.807342 
L 114.985153 189.722247 
L 115.267069 190.544271 
L 115.689943 192.070052 
L 115.971859 189.915542 
L 116.112817 189.435549 
L 116.253775 189.351804 
L 116.535691 190.176512 
L 116.958565 191.706284 
L 117.240481 189.55441 
L 117.381439 189.075727 
L 117.522397 188.993288 
L 117.804313 189.820595 
L 118.086229 190.844875 
L 118.650062 185.799373 
L 118.79102 185.334321 
L 118.931978 185.265463 
L 119.213894 186.119785 
L 119.49581 187.170884 
L 119.777726 185.051877 
L 119.918684 184.589539 
L 120.059642 184.523385 
L 120.341558 185.383083 
L 120.482516 185.912263 
L 121.046348 180.937993 
L 121.187306 180.490588 
L 121.328264 180.439313 
L 121.61018 181.328608 
L 121.892096 182.414428 
L 122.455929 177.49067 
L 122.596887 177.055779 
L 122.737845 177.016972 
L 123.019761 177.931068 
L 123.301677 179.041509 
L 123.865509 174.16646 
L 124.006467 173.743636 
L 124.147425 173.716852 
L 124.429341 174.654863 
L 124.570299 175.222986 
L 124.993173 171.794287 
L 125.134131 171.380074 
L 125.275089 171.36187 
L 125.557005 172.316947 
L 125.697963 172.893556 
L 125.979879 170.878014 
L 126.120837 170.467127 
L 126.261795 170.452237 
L 126.543712 171.413906 
L 126.68467 171.993793 
L 126.966586 169.984772 
L 127.107544 169.577127 
L 127.248502 169.565467 
L 127.530418 170.533563 
L 128.517124 174.570963 
L 128.79904 172.543265 
L 128.939998 172.126333 
L 129.080956 172.10542 
L 129.362872 173.055109 
L 129.926704 175.338358 
L 130.20862 173.305098 
L 130.349578 172.885401 
L 130.490536 172.861732 
L 130.772453 173.805941 
L 131.054369 174.946276 
L 131.477243 171.520579 
L 131.618201 171.10736 
L 131.759159 171.090145 
L 132.041075 172.047192 
L 132.182033 172.624781 
L 132.604907 169.224274 
L 132.745865 168.819389 
L 132.886823 168.81048 
L 133.168739 169.784047 
L 133.309697 170.369851 
L 134.296403 161.528533 
L 134.437361 161.151584 
L 134.578319 161.170509 
L 134.860236 162.199441 
L 135.001194 162.812777 
L 135.28311 160.870288 
L 135.424068 160.495729 
L 135.565026 160.517034 
L 135.846942 161.550702 
L 135.9879 162.166393 
L 136.974606 153.531267 
L 137.115564 153.183348 
L 137.256522 153.231198 
L 137.538438 154.317664 
L 137.961312 156.236521 
L 138.243228 154.341689 
L 138.384186 153.990828 
L 138.525144 154.035746 
L 138.807061 155.116382 
L 139.088977 156.392157 
L 139.370893 154.496196 
L 139.511851 154.144775 
L 139.652809 154.189134 
L 139.934725 155.268659 
L 140.075683 155.907153 
L 140.498557 152.68804 
L 140.639515 152.343182 
L 140.780473 152.394081 
L 141.062389 153.486614 
L 141.344305 154.774199 
L 141.626221 152.889964 
L 141.767179 152.544373 
L 141.908137 152.594542 
L 142.190053 153.685622 
L 142.331011 154.329863 
L 142.612927 152.448848 
L 142.753886 152.104858 
L 142.894844 152.156622 
L 143.17676 153.250876 
L 143.317718 153.896695 
L 143.599634 152.018819 
L 143.740592 151.67639 
L 143.88155 151.72971 
L 144.163466 152.827057 
L 144.58634 154.762087 
L 145.150172 150.237658 
L 145.29113 149.901695 
L 145.432088 149.961457 
L 145.714004 151.071619 
L 146.277836 153.672332 
L 146.559752 151.796082 
L 146.70071 151.454462 
L 146.841669 151.508587 
L 147.123585 152.607537 
L 147.405501 153.901492 
L 147.687417 152.023581 
L 147.828375 151.681135 
L 147.969333 151.734438 
L 148.251249 152.831751 
L 148.392207 153.479091 
L 148.674123 151.604241 
L 148.815081 151.263318 
L 148.956039 151.318137 
L 149.237955 152.418467 
L 149.660829 154.357931 
L 150.365619 148.527827 
L 150.506577 148.19807 
L 150.647535 148.264016 
L 150.929452 149.386479 
L 151.352326 151.358841 
L 152.057116 145.582777 
L 152.198074 145.263711 
L 152.339032 145.340308 
L 152.620948 146.483958 
L 153.043822 148.487814 
L 153.88957 141.477656 
L 154.030528 141.173491 
L 154.171486 141.264936 
L 154.453402 142.43812 
L 154.59436 143.123189 
L 154.876276 141.323386 
L 155.017235 141.019781 
L 155.158193 141.111784 
L 155.440109 142.286078 
L 155.862983 144.335482 
L 156.144899 142.526894 
L 156.285857 142.218921 
L 156.426815 142.306571 
L 156.708731 143.472206 
L 157.272563 146.182663 
L 157.554479 144.360689 
L 157.695437 144.046059 
L 157.836395 144.127077 
L 158.118311 145.279519 
L 158.682143 147.963877 
L 158.964059 146.128994 
L 159.105018 145.807945 
L 159.245976 145.882568 
L 159.527892 147.022288 
L 159.66885 147.690716 
L 160.37364 141.980747 
L 160.514598 141.674756 
L 160.655556 141.764381 
L 160.937472 142.933945 
L 161.501304 145.652176 
L 162.065136 141.259303 
L 162.206094 140.955931 
L 162.347052 141.048166 
L 162.628968 142.22292 
L 162.910884 143.592131 
L 163.192801 141.78893 
L 163.333759 141.483635 
L 163.474717 141.573954 
L 163.756633 142.744898 
L 164.038549 144.110326 
L 164.320465 142.30337 
L 164.461423 141.996208 
L 164.602381 142.084666 
L 164.884297 143.251909 
L 165.589087 146.637812 
L 166.011961 143.519276 
L 166.152919 143.2077 
L 166.293877 143.291761 
L 166.575793 144.450256 
L 166.716751 145.128021 
L 167.985374 134.396506 
L 168.126332 134.118046 
L 168.26729 134.235102 
L 168.690164 136.169631 
L 169.253996 131.913697 
L 169.394954 131.644249 
L 169.535912 131.770285 
L 169.958786 133.731559 
L 170.240702 131.999815 
L 170.38166 131.730055 
L 170.522618 131.855779 
L 170.945492 133.816125 
L 171.227409 132.083769 
L 171.368367 131.813704 
L 171.509325 131.939125 
L 171.932199 133.898566 
L 172.355073 130.918256 
L 172.496031 130.652422 
L 172.636989 130.782058 
L 173.059863 132.754055 
L 173.200821 133.474276 
L 173.905611 128.020467 
L 174.046569 127.765152 
L 174.187527 127.905269 
L 174.610401 129.90848 
L 174.892317 131.36693 
L 175.315192 128.414089 
L 175.45615 128.157345 
L 175.597108 128.296039 
L 176.019982 130.295009 
L 176.301898 131.750659 
L 176.724772 128.793655 
L 176.86573 128.548994 
L 177.006688 128.699727 
L 177.429562 130.734554 
L 177.57052 131.475568 
L 177.852436 129.787046 
L 177.993394 129.538779 
L 178.134352 129.685919 
L 178.557226 131.710046 
L 179.121058 134.643913 
L 179.402975 132.932431 
L 179.543933 132.672747 
L 179.684891 132.808511 
L 180.107765 134.798756 
L 180.389681 133.086152 
L 180.530639 132.825909 
L 180.671597 132.961117 
L 181.094471 134.949707 
L 181.517345 137.118951 
L 181.940219 134.143936 
L 182.081177 133.879854 
L 182.222135 134.011236 
L 182.645009 135.988431 
L 182.926925 134.267206 
L 183.067883 134.002676 
L 183.208841 134.133612 
L 183.631716 136.109479 
L 184.195548 131.907966 
L 184.336506 131.652 
L 184.477464 131.791469 
L 184.900338 133.79275 
L 185.182254 135.249925 
L 185.46417 133.534051 
L 185.605128 133.272183 
L 185.746086 133.405771 
L 186.16896 135.389536 
L 186.450876 133.67265 
L 186.591834 133.410279 
L 186.732792 133.543366 
L 187.155666 135.525637 
L 187.437582 133.807766 
L 187.578541 133.544904 
L 187.719499 133.677502 
L 188.142373 135.658318 
L 188.424289 133.939485 
L 188.565247 133.676145 
L 188.706205 133.808266 
L 189.129079 135.787664 
L 190.961533 144.980469 
L 191.243449 143.19408 
L 191.384407 142.897146 
L 191.525365 142.995795 
L 191.94824 144.875504 
L 192.371114 146.937049 
L 192.65303 145.136482 
L 192.793988 144.832497 
L 192.934946 144.924121 
L 193.216862 146.09766 
L 193.780694 148.837216 
L 194.06261 147.049752 
L 194.203568 146.752283 
L 194.344526 146.8504 
L 194.7674 148.728521 
L 195.049316 150.104334 
L 195.331232 148.307687 
L 195.47219 148.005651 
L 195.613149 148.099218 
L 195.895065 149.276622 
L 196.176981 150.648462 
L 196.599855 147.566883 
L 196.740813 147.267536 
L 196.881771 147.363783 
L 197.304645 149.236334 
L 197.727519 151.290799 
L 198.573267 144.380218 
L 198.714225 144.092439 
L 198.855183 144.200211 
L 199.278057 146.107088 
L 199.419015 146.805761 
L 199.84189 143.765876 
L 199.982848 143.480328 
L 200.123806 143.590321 
L 200.54668 145.503816 
L 200.828596 143.740508 
L 200.969554 143.455052 
L 201.110512 143.565137 
L 201.533386 145.478905 
L 202.66105 136.210018 
L 202.802008 135.951898 
L 202.942966 136.089219 
L 203.36584 138.084104 
L 203.788715 135.138854 
L 203.929673 134.884621 
L 204.070631 135.025817 
L 204.493505 137.03224 
L 207.453623 111.897592 
L 207.735539 110.377821 
L 207.876498 110.213471 
L 208.017456 110.444222 
L 208.44033 112.717367 
L 208.581288 113.537244 
L 210.413742 99.027768 
L 210.695658 98.37538 
L 210.836616 98.635642 
L 211.25949 100.996679 
L 211.400448 101.845641 
L 211.682364 100.371841 
L 211.823322 100.23035 
L 211.964281 100.483879 
L 212.387155 102.824862 
L 212.669071 104.506455 
L 213.232903 100.761322 
L 213.373861 100.618418 
L 213.514819 100.870538 
L 213.937693 103.207325 
L 214.219609 101.723657 
L 214.360567 101.57726 
L 214.501525 101.8259 
L 214.924399 104.15232 
L 215.911105 109.951408 
L 216.193022 108.418868 
L 216.33398 108.248167 
L 216.474938 108.472592 
L 216.897812 110.726893 
L 217.461644 113.963779 
L 217.74356 112.402161 
L 217.884518 112.217001 
L 218.025476 112.427019 
L 218.44835 114.638413 
L 219.435056 120.173935 
L 219.85793 117.38278 
L 219.998889 117.179541 
L 220.139847 117.371545 
L 220.562721 119.529288 
L 221.549427 124.941879 
L 221.831343 123.300705 
L 221.972301 123.075984 
L 222.113259 123.246584 
L 222.536133 125.34058 
L 223.663797 116.5428 
L 223.804755 116.34261 
L 223.945713 116.537652 
L 224.368588 118.704443 
L 225.073378 113.583584 
L 225.214336 113.394136 
L 225.355294 113.599881 
L 225.778168 115.798548 
L 226.623916 109.573966 
L 226.764874 109.399072 
L 226.905832 109.619319 
L 227.328706 111.861178 
L 227.610622 113.463825 
L 228.456371 107.209596 
L 228.597329 107.029823 
L 228.738287 107.245209 
L 229.161161 109.472591 
L 230.429783 99.889161 
L 230.570741 99.735962 
L 230.711699 99.977825 
L 231.134573 102.284061 
L 231.980321 107.224004 
L 232.262238 105.684355 
L 232.403196 105.510119 
L 232.544154 105.731021 
L 232.967028 107.974833 
L 233.248944 106.429743 
L 233.389902 106.252801 
L 233.53086 106.471008 
L 233.953734 108.70679 
L 234.23565 110.318884 
L 234.517566 108.756807 
L 234.658524 108.571418 
L 234.799482 108.781208 
L 235.222356 110.991924 
L 235.927146 114.959107 
L 236.209062 113.363403 
L 236.350021 113.161292 
L 236.490979 113.354421 
L 236.913853 115.515515 
L 237.195769 113.915779 
L 237.336727 113.711664 
L 237.477685 113.902795 
L 237.900559 116.057939 
L 238.887265 121.464573 
L 239.169181 119.821726 
L 239.310139 119.596172 
L 239.451097 119.765942 
L 239.873971 121.857468 
L 240.71972 126.374955 
L 241.142594 123.47628 
L 241.283552 123.23746 
L 241.42451 123.394012 
L 241.847384 125.446172 
L 242.411216 128.416944 
L 242.83409 125.496112 
L 242.975048 125.24996 
L 243.116006 125.399207 
L 243.53888 127.42961 
L 243.679838 128.169159 
L 244.384629 122.810941 
L 244.525587 122.561075 
L 244.666545 122.706622 
L 245.089419 124.726003 
L 245.935167 129.10154 
L 246.217083 127.376476 
L 246.358041 127.110037 
L 246.498999 127.239071 
L 246.921873 129.209273 
L 247.062831 129.928901 
L 247.626663 125.709538 
L 247.767621 125.44915 
L 247.908579 125.584213 
L 248.331453 127.572371 
L 248.754328 129.741189 
L 249.036244 128.011489 
L 249.177202 127.742745 
L 249.31816 127.869483 
L 249.741034 129.832845 
L 250.163908 126.856413 
L 250.304866 126.591862 
L 250.445824 126.722777 
L 250.868698 128.698581 
L 251.291572 130.855179 
L 251.573488 129.117407 
L 251.714446 128.844648 
L 251.855404 128.967386 
L 252.278278 130.918835 
L 252.560195 129.180601 
L 252.701153 128.907613 
L 252.842111 129.030122 
L 253.264985 130.980891 
L 253.687859 133.112725 
L 253.969775 131.358592 
L 254.110733 131.077699 
L 254.251691 131.19233 
L 254.674565 133.119638 
L 255.661271 138.004222 
L 255.943187 136.214641 
L 256.084145 135.91612 
L 256.225103 136.013188 
L 256.647978 137.888187 
L 257.21181 140.625732 
L 257.493726 138.817154 
L 257.634684 138.509186 
L 257.775642 138.596841 
L 258.057558 139.762486 
L 258.339474 141.122653 
L 258.62139 139.310474 
L 258.762348 139.000715 
L 258.903306 139.086587 
L 259.185222 140.248683 
L 259.467138 141.605326 
L 259.890012 138.501158 
L 260.03097 138.194336 
L 260.171928 138.283135 
L 260.453844 139.451053 
L 260.594802 140.133504 
L 260.876719 138.328493 
L 261.017677 138.022299 
L 261.158635 138.111722 
L 261.581509 139.88333 
L 262.427257 132.738734 
L 262.568215 132.412447 
L 262.709173 132.48185 
L 262.991089 133.611189 
L 263.132047 134.274455 
L 263.413963 132.431283 
L 263.554921 132.106112 
L 263.695879 132.176627 
L 263.977795 133.308178 
L 264.400669 135.294049 
L 264.964502 130.836551 
L 265.10546 130.517168 
L 265.246418 130.593451 
L 265.528334 131.736475 
L 265.81025 133.074184 
L 266.233124 129.941871 
L 266.374082 129.625737 
L 266.51504 129.705256 
L 266.796956 130.854716 
L 267.078872 132.198815 
L 267.501746 129.076 
L 267.642704 128.763009 
L 267.783662 128.845659 
L 268.065578 130.001349 
L 268.488452 132.023101 
L 268.770368 130.196244 
L 268.911327 129.879186 
L 269.052285 129.957785 
L 269.334201 131.105415 
L 269.616117 132.447698 
L 270.320907 126.745111 
L 270.461865 126.44058 
L 270.602823 126.531661 
L 270.884739 127.70412 
L 271.025697 128.388828 
L 271.589529 124.031048 
L 271.730487 123.73637 
L 271.871445 123.837267 
L 272.294319 125.723669 
L 272.576235 127.104952 
L 272.858152 125.313736 
L 272.99911 125.014402 
L 273.140068 125.110659 
L 273.562942 126.983245 
L 274.267732 121.37912 
L 274.40869 121.094068 
L 274.549648 121.204556 
L 274.972522 123.119525 
L 275.536354 118.837839 
L 275.677312 118.562012 
L 275.81827 118.681692 
L 276.241144 120.624034 
L 276.804976 116.378386 
L 276.945935 116.111487 
L 277.086893 116.240062 
L 277.509767 118.208898 
L 277.791683 116.48215 
L 277.932641 116.214874 
L 278.073599 116.343073 
L 278.496473 118.257044 
L 278.778389 116.4762 
L 278.919347 116.182024 
L 279.060305 116.283421 
L 279.483179 118.171312 
L 280.328927 122.288133 
L 280.610843 120.478077 
L 280.751801 120.169373 
L 280.892759 120.256296 
L 281.174676 121.420484 
L 281.315634 122.101079 
L 281.59755 120.292379 
L 281.738508 119.984349 
L 281.879466 120.071944 
L 282.161382 121.237468 
L 282.725214 123.947705 
L 283.00713 122.125622 
L 283.148088 121.810938 
L 283.289046 121.891902 
L 283.570962 123.044238 
L 285.544375 132.270387 
L 285.967249 129.066322 
L 286.108207 128.726443 
L 286.249165 128.782304 
L 286.531081 129.884706 
L 286.812997 131.182088 
L 287.094913 129.307579 
L 287.235871 128.966825 
L 287.376829 129.021813 
L 287.658745 130.122479 
L 287.799703 130.771487 
L 288.363535 126.272194 
L 288.504493 125.942458 
L 288.645451 126.008425 
L 288.927367 127.130929 
L 289.209284 128.448267 
L 289.4912 126.593569 
L 289.632158 126.262667 
L 289.773116 126.327471 
L 290.055032 127.447663 
L 290.336948 128.762705 
L 290.618864 126.905729 
L 290.759822 126.573694 
L 290.90078 126.637369 
L 291.182696 127.755315 
L 291.323654 128.412915 
L 291.746528 125.250705 
L 291.887486 124.924677 
L 292.028444 124.994338 
L 292.31036 126.12419 
L 292.451318 126.787712 
L 292.733234 124.945048 
L 292.874192 124.620129 
L 293.01515 124.690896 
L 293.297067 125.822948 
L 293.719941 127.809563 
L 294.283773 123.353044 
L 294.424731 123.033904 
L 294.565689 123.110429 
L 294.847605 124.253934 
L 295.129521 125.592121 
L 295.834311 119.946243 
L 295.975269 119.652931 
L 296.116227 119.75519 
L 296.539101 121.645647 
L 296.821017 119.86712 
L 296.961975 119.574096 
L 297.102933 119.676641 
L 297.525808 121.567951 
L 298.371556 114.738622 
L 298.512514 114.464213 
L 298.653472 114.585307 
L 299.076346 116.53186 
L 299.217304 117.243663 
L 299.922094 111.748212 
L 300.063052 111.484659 
L 300.20401 111.616568 
L 300.626884 113.595334 
L 300.767842 114.317796 
L 301.190716 111.348761 
L 301.331675 111.086658 
L 301.472633 111.220012 
L 301.895507 113.20308 
L 302.177423 111.485735 
L 302.318381 111.223135 
L 302.459339 111.355993 
L 302.882213 113.337586 
L 303.164129 111.619266 
L 303.305087 111.356181 
L 303.446045 111.488557 
L 303.868919 113.468711 
L 304.009877 114.191632 
L 304.432751 111.223967 
L 304.573709 110.962317 
L 304.714667 111.096122 
L 305.137541 113.080535 
L 305.278499 113.804865 
L 305.701374 110.841396 
L 305.842332 110.581135 
L 305.98329 110.716324 
L 306.406164 112.704857 
L 306.547122 113.430552 
L 306.969996 110.471144 
L 307.110954 110.212227 
L 307.251912 110.348755 
L 307.674786 112.341277 
L 308.09766 114.514411 
L 308.379576 112.787563 
L 308.520534 112.520237 
L 308.661492 112.648387 
L 309.084366 114.615957 
L 309.648199 110.40352 
L 309.789157 110.144848 
L 309.930115 110.28162 
L 310.352989 112.274871 
L 310.775863 109.328003 
L 310.916821 109.073235 
L 311.057779 109.213898 
L 311.480653 111.218733 
L 311.903527 108.283325 
L 312.044485 108.032349 
L 312.185443 108.163329 
L 312.608317 110.139327 
L 314.017898 98.607291 
L 314.158856 98.377978 
L 314.299814 98.544003 
L 314.722688 100.624375 
L 315.004604 98.971311 
L 315.145562 98.740677 
L 315.28652 98.905386 
L 315.709394 100.981836 
L 315.99131 99.326182 
L 316.132268 99.09426 
L 316.273226 99.257685 
L 316.6961 101.330313 
L 316.837058 102.083835 
L 317.118974 100.420195 
L 317.259932 100.184301 
L 317.40089 100.34377 
L 317.823765 102.404613 
L 318.246639 99.524605 
L 318.387597 99.291962 
L 318.528555 99.45467 
L 318.951429 101.52516 
L 319.233345 99.865569 
L 319.374303 99.631688 
L 319.515261 99.793162 
L 319.938135 101.85998 
L 320.501967 104.850049 
L 320.783883 103.166363 
L 320.924841 102.920501 
L 321.065799 103.070036 
L 321.488673 105.101299 
L 321.77059 103.415792 
L 321.911548 103.169024 
L 322.052506 103.317658 
L 322.47538 105.346233 
L 322.757296 103.658951 
L 322.898254 103.411301 
L 323.039212 103.559055 
L 323.462086 105.585011 
L 323.744002 103.895999 
L 323.88496 103.647488 
L 324.025918 103.794385 
L 324.448792 105.817788 
L 324.730708 104.127089 
L 324.871666 103.877739 
L 325.012624 104.0238 
L 325.435498 106.044714 
L 325.858373 103.125209 
L 325.999331 102.879496 
L 326.140289 103.029181 
L 326.563163 105.060886 
L 326.845079 103.375672 
L 326.986037 103.12905 
L 327.126995 103.277829 
L 327.549869 105.306836 
L 327.690827 106.045924 
L 328.536575 99.471572 
L 328.677533 99.239122 
L 328.818491 99.402021 
L 329.241365 101.473083 
L 330.087114 94.997428 
L 330.228072 94.781218 
L 330.36903 94.9603 
L 330.791904 97.079556 
L 331.214778 94.257327 
L 331.355736 94.043805 
L 331.496694 94.225563 
L 331.919568 96.352792 
L 332.201484 94.730683 
L 332.342442 94.515442 
L 332.4834 94.695488 
L 332.906274 96.817618 
L 333.18819 95.192141 
L 333.329148 94.975225 
L 333.470106 95.153603 
L 333.892981 97.270762 
L 334.174897 95.642001 
L 334.315855 95.423452 
L 334.456813 95.600202 
L 334.879687 97.712515 
L 335.020645 98.47917 
L 335.866393 92.068133 
L 336.007351 91.862557 
L 336.148309 92.052233 
L 336.571183 94.203044 
L 337.557889 86.716916 
L 337.698847 86.530765 
L 337.839805 86.739795 
L 338.26268 88.948248 
L 338.403638 89.746717 
L 339.249386 83.524154 
L 339.390344 83.349593 
L 339.531302 83.57017 
L 339.954176 85.813015 
L 340.095134 86.622865 
L 341.222798 78.190943 
L 341.363756 78.035741 
L 341.504714 78.275609 
L 341.927588 80.575902 
L 342.350463 77.932745 
L 342.491421 77.77848 
L 342.632379 78.019281 
L 343.055253 80.322356 
L 344.182917 71.486482 
L 344.464833 70.832153 
L 344.605791 71.098169 
L 345.028665 73.476341 
L 345.169623 74.330973 
L 345.451539 72.868451 
L 345.592497 72.73257 
L 345.733455 72.991687 
L 346.15633 75.32244 
L 347.143036 68.217665 
L 347.283994 68.085205 
L 347.424952 68.347731 
L 347.847826 70.715509 
L 347.988784 71.566702 
L 348.2707 70.097339 
L 348.411658 69.958056 
L 348.552616 70.213783 
L 348.97549 72.561314 
L 349.116448 73.405806 
L 349.68028 69.681382 
L 349.821238 69.543609 
L 349.962196 69.800841 
L 350.385071 72.152852 
L 350.807945 69.560852 
L 350.948903 69.423516 
L 351.089861 69.681184 
L 351.512735 72.034494 
L 351.653693 72.880899 
L 352.076567 70.280999 
L 352.217525 70.141049 
L 352.358483 70.396112 
L 352.781357 72.741665 
L 353.063273 71.263787 
L 353.204231 71.12027 
L 353.345189 71.371779 
L 353.768063 73.706745 
L 354.190938 76.218607 
L 354.613812 73.582492 
L 354.75477 73.430558 
L 354.895728 73.67368 
L 355.318602 75.983669 
L 356.023392 80.11392 
L 356.446266 77.435539 
L 356.587224 77.269618 
L 356.728182 77.498805 
L 357.151056 79.76729 
L 357.432972 78.2385 
L 357.57393 78.069664 
L 357.714888 78.295947 
L 358.137762 80.555782 
L 359.688301 89.36493 
L 359.970217 87.766588 
L 360.111175 87.563165 
L 360.252133 87.754987 
L 360.675007 89.912188 
L 360.956923 91.472368 
L 361.238839 89.858754 
L 361.379797 89.647737 
L 361.520755 89.831991 
L 361.943629 91.966656 
L 362.366504 94.28039 
L 362.64842 92.646426 
L 362.789378 92.42529 
L 362.930336 92.612923 
L 363.35321 94.75765 
L 363.776084 97.081338 
L 364.058 95.45395 
L 364.198958 95.236083 
L 364.339916 95.413513 
L 364.76279 97.527852 
L 364.903748 98.295178 
L 365.185664 96.658993 
L 365.326622 96.436753 
L 365.46758 96.609824 
L 365.890454 98.711183 
L 366.17237 97.071984 
L 366.313328 96.848244 
L 366.454287 97.019822 
L 366.877161 99.116732 
L 367.018119 99.878289 
L 367.863867 93.437055 
L 368.004825 93.22651 
L 368.145783 93.411234 
L 368.568657 95.547299 
L 368.991531 92.741696 
L 369.132489 92.533675 
L 369.273447 92.720915 
L 369.696321 94.86447 
L 370.119195 92.066276 
L 370.260153 91.860706 
L 370.401111 92.050389 
L 370.823986 94.20122 
L 371.387818 90.230041 
L 371.528776 90.031137 
L 371.669734 90.227461 
L 372.092608 92.398071 
L 374.206978 75.235363 
L 374.488895 74.553867 
L 374.629853 74.806373 
L 375.052727 77.144309 
L 376.462307 66.205999 
L 376.744223 65.589937 
L 376.885181 65.874982 
L 377.308055 68.309828 
L 378.294761 61.474522 
L 378.435719 61.38 
L 378.576678 61.680327 
L 378.999552 64.160687 
L 379.281468 62.771867 
L 379.422426 62.672636 
L 379.563384 62.968271 
L 379.986258 65.461529 
L 380.409132 63.022607 
L 380.55009 62.935927 
L 380.691048 63.244067 
L 381.113922 65.747697 
L 381.395838 64.37425 
L 381.536796 64.282664 
L 381.677754 64.585915 
L 382.100628 67.074985 
L 382.805419 62.483504 
L 382.946377 62.398781 
L 383.087335 62.708871 
L 383.510209 65.218307 
L 384.074041 68.791072 
L 384.637873 65.240394 
L 384.778831 65.145664 
L 384.919789 65.445783 
L 385.342663 67.925522 
L 388.302782 85.916822 
L 390.135236 96.385036 
L 390.417152 94.789567 
L 390.55811 94.587574 
L 390.699068 94.780819 
L 391.121943 96.94226 
L 393.377271 109.133528 
L 393.659187 107.445674 
L 393.800145 107.197739 
L 393.941103 107.34521 
L 394.363977 109.370322 
L 395.6326 115.914905 
L 396.196432 111.68371 
L 396.33739 111.420391 
L 396.478348 111.552534 
L 396.901222 113.531994 
L 397.183138 111.812265 
L 397.324096 111.548479 
L 397.465054 111.680157 
L 397.887928 113.658232 
L 399.015593 104.557442 
L 399.156551 104.319991 
L 399.297509 104.477908 
L 399.720383 106.534131 
L 401.975711 87.658407 
L 402.257627 86.913757 
L 402.398585 87.134859 
L 402.821459 89.379262 
L 404.090082 79.261186 
L 404.371998 78.577389 
L 404.512956 78.828751 
L 404.93583 81.163279 
L 405.217746 79.678119 
L 405.358704 79.53098 
L 405.499662 79.778881 
L 405.922536 82.1031 
L 407.895949 66.763168 
L 408.177865 66.169942 
L 408.318823 66.466343 
L 408.741697 68.935009 
L 409.164571 66.458398 
L 409.305529 66.359246 
L 409.446487 66.65496 
L 409.869361 69.121579 
L 410.010319 70.00548 
L 410.433193 67.517254 
L 410.574151 67.414259 
L 410.715109 67.706143 
L 411.137984 70.161356 
L 411.4199 68.755925 
L 411.560858 68.648433 
L 411.701816 68.935837 
L 412.12469 71.377708 
L 412.406606 73.125951 
L 412.82948 70.603866 
L 412.970438 70.489666 
L 413.111396 70.770387 
L 413.53427 73.192352 
L 413.816186 74.954318 
L 414.098102 73.541027 
L 414.23906 73.429626 
L 414.380018 73.713135 
L 414.802892 76.143407 
L 414.94385 77.01528 
L 415.225767 75.587053 
L 415.366725 75.468226 
L 415.507683 75.744335 
L 415.930557 78.152568 
L 416.494389 74.520252 
L 416.635347 74.405297 
L 416.776305 74.685265 
L 417.199179 77.104989 
L 417.622053 79.70069 
L 418.044927 77.147504 
L 418.185885 77.023012 
L 418.326843 77.293477 
L 418.749717 79.684901 
L 419.031633 78.237328 
L 419.172591 78.10888 
L 419.31355 78.375404 
L 419.736424 80.755088 
L 420.01834 79.299759 
L 420.159298 79.167455 
L 420.300256 79.430136 
L 420.72313 81.798376 
L 421.146004 79.222429 
L 421.286962 79.090405 
L 421.42792 79.353366 
L 421.850794 81.722439 
L 421.991752 82.57406 
L 422.273668 81.10555 
L 422.414626 80.96669 
L 422.555584 81.22284 
L 422.978458 83.571628 
L 423.401333 80.976441 
L 423.542291 80.83805 
L 423.683249 81.094667 
L 424.106123 83.444846 
L 424.951871 77.518372 
L 425.092829 77.392533 
L 425.233787 77.661658 
L 425.656661 80.049086 
L 425.938577 78.598874 
L 426.079535 78.469114 
L 426.220493 78.73433 
L 426.643367 81.11012 
L 428.334864 68.141496 
L 428.61678 67.565155 
L 428.757738 67.869952 
L 429.180612 70.363626 
L 429.462528 68.983602 
L 429.603486 68.888745 
L 429.744444 69.188737 
L 430.167318 71.668101 
L 430.308276 72.556219 
L 430.872108 69.004721 
L 431.013066 68.909787 
L 431.154024 69.209703 
L 431.576899 71.68884 
L 432.140731 68.149867 
L 432.281689 68.058036 
L 432.422647 68.361044 
L 432.845521 70.849389 
L 433.127437 69.465845 
L 433.268395 69.369237 
L 433.409353 69.667486 
L 433.832227 72.141655 
L 434.255101 69.670488 
L 434.396059 69.573137 
L 434.537017 69.870646 
L 434.959891 72.34261 
L 435.241807 70.948245 
L 435.382765 70.846257 
L 435.523724 71.139144 
L 435.946598 73.597345 
L 436.087556 74.478459 
L 436.369472 73.068616 
L 436.51043 72.958931 
L 436.651388 73.244149 
L 437.074262 75.679509 
L 437.92001 80.873514 
L 438.201926 79.417327 
L 438.342884 79.284596 
L 438.483842 79.546852 
L 438.906716 81.913825 
L 439.188632 80.4501 
L 439.32959 80.313619 
L 439.470548 80.57214 
L 439.893423 82.927989 
L 441.162045 90.443407 
L 441.725877 86.633599 
L 441.866835 86.474672 
L 442.007793 86.710828 
L 442.430667 89.00007 
L 442.712583 90.647481 
L 442.994499 89.120464 
L 443.135457 88.95251 
L 443.276415 89.179672 
L 443.69929 91.442125 
L 443.981206 93.071839 
L 444.545038 89.224074 
L 444.685996 89.055744 
L 444.826954 89.282531 
L 445.249828 91.543868 
L 445.531744 93.172845 
L 445.81366 91.627527 
L 445.954618 91.450473 
L 446.095576 91.668567 
L 446.51845 93.904015 
L 447.646114 85.475978 
L 447.787073 85.321254 
L 447.928031 85.561597 
L 448.350905 87.863308 
L 449.901443 75.70469 
L 450.183359 75.07354 
L 450.324317 75.351082 
L 450.747191 77.763582 
L 451.451981 73.046326 
L 451.592939 72.936721 
L 451.733898 73.22202 
L 452.156772 75.657621 
L 452.438688 74.239233 
L 452.579646 74.125298 
L 452.720604 74.406282 
L 453.143478 76.829033 
L 453.284436 77.698417 
L 454.694016 67.005186 
L 454.834974 66.523004 
L 454.975932 66.437079 
L 455.11689 66.745971 
L 455.539764 69.25184 
L 455.821681 71.042362 
L 456.103597 69.65742 
L 456.244555 69.560117 
L 456.385513 69.857672 
L 456.808387 72.329778 
L 457.372219 68.78155 
L 457.513177 68.687426 
L 457.654135 68.988149 
L 458.077009 71.46969 
L 458.358925 70.08165 
L 458.499883 69.982807 
L 458.640841 70.278829 
L 459.063715 72.746364 
L 459.486589 70.268636 
L 459.627547 70.169114 
L 459.768505 70.464459 
L 460.19138 72.929981 
L 460.332338 73.813518 
L 461.037128 69.167437 
L 461.178086 69.071913 
L 461.319044 69.37124 
L 461.741918 71.848624 
L 462.023834 70.457839 
L 462.164792 70.35763 
L 462.30575 70.652291 
L 462.728624 73.115774 
L 462.869582 73.998637 
L 463.292456 71.507321 
L 463.433414 71.403303 
L 463.574372 71.694168 
L 463.997247 74.146346 
L 464.561079 70.571885 
L 464.702037 70.471262 
L 464.842995 70.76551 
L 465.265869 73.227766 
L 465.547785 74.989475 
L 465.829701 73.575929 
L 465.970659 73.464401 
L 466.111617 73.747785 
L 466.534491 76.177681 
L 466.816407 77.918013 
L 467.098323 76.483244 
L 467.239281 76.361163 
L 467.380239 76.634031 
L 467.803113 79.03261 
L 468.225988 76.486673 
L 468.366946 76.36458 
L 468.507904 76.637435 
L 468.930778 79.035977 
L 470.058442 85.840042 
L 470.340358 84.347864 
L 470.481316 84.197235 
L 470.622274 84.441658 
L 471.045148 86.755521 
L 471.468022 89.246509 
L 471.749938 87.729645 
L 471.890896 87.56674 
L 472.031854 87.798932 
L 472.454729 90.076367 
L 473.441435 95.763212 
L 473.723351 94.199122 
L 473.864309 94.012733 
L 474.005267 94.221527 
L 474.428141 96.429273 
L 475.132931 100.391579 
L 475.414847 98.793949 
L 475.555805 98.590881 
L 475.696763 98.783056 
L 476.119638 100.941308 
L 476.965386 105.590082 
L 477.38826 102.755984 
L 477.529218 102.538534 
L 477.670176 102.716379 
L 478.09305 104.831952 
L 478.515924 107.126803 
L 478.79784 105.480365 
L 478.938798 105.253025 
L 479.079756 105.421016 
L 479.50263 107.507243 
L 479.784546 105.858048 
L 479.925504 105.629337 
L 480.066462 105.795962 
L 480.489337 107.878121 
L 481.053169 103.816537 
L 481.194127 103.595237 
L 481.335085 103.769246 
L 481.757959 105.873395 
L 482.039875 104.23604 
L 482.180833 104.013217 
L 482.321791 104.185709 
L 482.744665 106.285339 
L 483.026581 104.644999 
L 483.167539 104.420691 
L 483.308497 104.591704 
L 483.731371 106.686929 
L 483.872329 107.44793 
L 484.154245 105.799164 
L 484.295204 105.570667 
L 484.436162 105.737505 
L 484.859036 107.820298 
L 484.999994 108.577184 
L 485.9867 100.916182 
L 486.127658 100.70541 
L 486.268616 100.889909 
L 486.69149 103.0253 
L 486.973406 101.408585 
L 487.114364 101.196025 
L 487.255322 101.378743 
L 487.678196 103.508831 
L 487.819154 104.281368 
L 488.664903 97.905175 
L 488.805861 97.705333 
L 488.946819 97.900722 
L 489.369693 100.068548 
L 489.510651 100.853573 
L 489.792567 99.252595 
L 489.933525 99.047862 
L 490.074483 99.238378 
L 490.497357 101.391689 
L 491.061189 97.423777 
L 491.202147 97.225682 
L 491.343105 97.422812 
L 491.765979 99.595824 
L 491.906937 100.382564 
L 492.329811 97.60497 
L 492.47077 97.406218 
L 492.611728 97.602693 
L 493.034602 99.773753 
L 493.17556 100.559848 
L 493.598434 97.78033 
L 493.739392 97.580941 
L 493.88035 97.776782 
L 494.303224 99.945952 
L 494.444182 100.731422 
L 494.867056 97.950043 
L 495.008014 97.750038 
L 495.148972 97.945265 
L 495.571846 100.112607 
L 495.99472 97.337942 
L 496.135678 97.14016 
L 496.276636 97.3376 
L 496.699511 99.511536 
L 497.122385 96.743393 
L 497.263343 96.547768 
L 497.404301 96.747359 
L 497.827175 98.9277 
L 497.968133 99.716866 
L 498.109091 98.721436 
L 498.109091 98.721436 
" style="fill:none;stroke:#55a868;stroke-linecap:round;stroke-width:1.75;"/>
   </g>
   <g id="patch_3">
    <path d="M 72 352.44 
L 72 47.52 
" style="fill:none;"/>
   </g>
   <g id="patch_4">
    <path d="M 518.4 352.44 
L 518.4 47.52 
" style="fill:none;"/>
   </g>
   <g id="patch_5">
    <path d="M 72 352.44 
L 518.4 352.44 
" style="fill:none;"/>
   </g>
   <g id="patch_6">
    <path d="M 72 47.52 
L 518.4 47.52 
" style="fill:none;"/>
   </g>
   <g id="text_16">
    <!-- 24 Hour HVAC House Temperature -->
    <defs>
     <path d="M 8.015625 0 
L 8.015625 71.578125 
L 17.484375 71.578125 
L 17.484375 42.1875 
L 54.6875 42.1875 
L 54.6875 71.578125 
L 64.15625 71.578125 
L 64.15625 0 
L 54.6875 0 
L 54.6875 33.734375 
L 17.484375 33.734375 
L 17.484375 0 
z
" id="ArialMT-72"/>
     <path d="M 28.171875 0 
L 0.4375 71.578125 
L 10.6875 71.578125 
L 29.296875 19.578125 
Q 31.546875 13.328125 33.0625 7.859375 
Q 34.71875 13.71875 36.921875 19.578125 
L 56.25 71.578125 
L 65.921875 71.578125 
L 37.890625 0 
z
" id="ArialMT-86"/>
     <path d="M -0.140625 0 
L 27.34375 71.578125 
L 37.546875 71.578125 
L 66.84375 0 
L 56.0625 0 
L 47.703125 21.6875 
L 17.78125 21.6875 
L 9.90625 0 
z
M 20.515625 29.390625 
L 44.78125 29.390625 
L 37.3125 49.21875 
Q 33.890625 58.25 32.234375 64.0625 
Q 30.859375 57.171875 28.375 50.390625 
z
" id="ArialMT-65"/>
     <path d="M 3.078125 15.484375 
L 11.765625 16.84375 
Q 12.5 11.625 15.84375 8.84375 
Q 19.1875 6.0625 25.203125 6.0625 
Q 31.25 6.0625 34.171875 8.515625 
Q 37.109375 10.984375 37.109375 14.3125 
Q 37.109375 17.28125 34.515625 19 
Q 32.71875 20.171875 25.53125 21.96875 
Q 15.875 24.421875 12.140625 26.203125 
Q 8.40625 27.984375 6.46875 31.125 
Q 4.546875 34.28125 4.546875 38.09375 
Q 4.546875 41.546875 6.125 44.5 
Q 7.71875 47.46875 10.453125 49.421875 
Q 12.5 50.921875 16.03125 51.96875 
Q 19.578125 53.03125 23.640625 53.03125 
Q 29.734375 53.03125 34.34375 51.265625 
Q 38.96875 49.515625 41.15625 46.5 
Q 43.359375 43.5 44.1875 38.484375 
L 35.59375 37.3125 
Q 35.015625 41.3125 32.203125 43.546875 
Q 29.390625 45.796875 24.265625 45.796875 
Q 18.21875 45.796875 15.625 43.796875 
Q 13.03125 41.796875 13.03125 39.109375 
Q 13.03125 37.40625 14.109375 36.03125 
Q 15.1875 34.625 17.484375 33.6875 
Q 18.796875 33.203125 25.25 31.453125 
Q 34.578125 28.953125 38.25 27.359375 
Q 41.9375 25.78125 44.03125 22.75 
Q 46.140625 19.734375 46.140625 15.234375 
Q 46.140625 10.84375 43.578125 6.953125 
Q 41.015625 3.078125 36.171875 0.953125 
Q 31.34375 -1.171875 25.25 -1.171875 
Q 15.140625 -1.171875 9.84375 3.03125 
Q 4.546875 7.234375 3.078125 15.484375 
z
" id="ArialMT-115"/>
    </defs>
    <g style="fill:#262626;" transform="translate(137.392187 41.52)scale(0.2 -0.2)">
     <use xlink:href="#ArialMT-50"/>
     <use x="55.615234" xlink:href="#ArialMT-52"/>
     <use x="111.230469" xlink:href="#ArialMT-32"/>
     <use x="139.013672" xlink:href="#ArialMT-72"/>
     <use x="211.230469" xlink:href="#ArialMT-111"/>
     <use x="266.845703" xlink:href="#ArialMT-117"/>
     <use x="322.460938" xlink:href="#ArialMT-114"/>
     <use x="355.761719" xlink:href="#ArialMT-32"/>
     <use x="383.544922" xlink:href="#ArialMT-72"/>
     <use x="455.761719" xlink:href="#ArialMT-86"/>
     <use x="522.351562" xlink:href="#ArialMT-65"/>
     <use x="589.050781" xlink:href="#ArialMT-67"/>
     <use x="661.267578" xlink:href="#ArialMT-32"/>
     <use x="689.050781" xlink:href="#ArialMT-72"/>
     <use x="761.267578" xlink:href="#ArialMT-111"/>
     <use x="816.882812" xlink:href="#ArialMT-117"/>
     <use x="872.498047" xlink:href="#ArialMT-115"/>
     <use x="922.498047" xlink:href="#ArialMT-101"/>
     <use x="978.113281" xlink:href="#ArialMT-32"/>
     <use x="1005.880859" xlink:href="#ArialMT-84"/>
     <use x="1066.792969" xlink:href="#ArialMT-101"/>
     <use x="1122.408203" xlink:href="#ArialMT-109"/>
     <use x="1205.708984" xlink:href="#ArialMT-112"/>
     <use x="1261.324219" xlink:href="#ArialMT-101"/>
     <use x="1316.939453" xlink:href="#ArialMT-114"/>
     <use x="1350.240234" xlink:href="#ArialMT-97"/>
     <use x="1405.855469" xlink:href="#ArialMT-116"/>
     <use x="1433.638672" xlink:href="#ArialMT-117"/>
     <use x="1489.253906" xlink:href="#ArialMT-114"/>
     <use x="1522.554688" xlink:href="#ArialMT-101"/>
    </g>
   </g>
   <g id="legend_1">
    <g id="line2d_31">
     <path d="M 328.025 309.54 
L 348.025 309.54 
" style="fill:none;stroke:#c44e52;stroke-linecap:round;stroke-width:1.75;"/>
    </g>
    <g id="line2d_32"/>
    <g id="text_17">
     <!-- Outdoor Temp -->
     <defs>
      <path d="M 4.828125 34.859375 
Q 4.828125 52.6875 14.390625 62.765625 
Q 23.96875 72.859375 39.109375 72.859375 
Q 49.03125 72.859375 56.984375 68.109375 
Q 64.9375 63.375 69.109375 54.90625 
Q 73.296875 46.4375 73.296875 35.6875 
Q 73.296875 24.8125 68.890625 16.21875 
Q 64.5 7.625 56.4375 3.203125 
Q 48.390625 -1.21875 39.0625 -1.21875 
Q 28.953125 -1.21875 20.984375 3.65625 
Q 13.03125 8.546875 8.921875 16.984375 
Q 4.828125 25.4375 4.828125 34.859375 
z
M 14.59375 34.71875 
Q 14.59375 21.78125 21.546875 14.328125 
Q 28.515625 6.890625 39.015625 6.890625 
Q 49.703125 6.890625 56.609375 14.40625 
Q 63.53125 21.921875 63.53125 35.75 
Q 63.53125 44.484375 60.578125 51 
Q 57.625 57.515625 51.921875 61.109375 
Q 46.234375 64.703125 39.15625 64.703125 
Q 29.109375 64.703125 21.84375 57.78125 
Q 14.59375 50.875 14.59375 34.71875 
z
" id="ArialMT-79"/>
     </defs>
     <g style="fill:#262626;" transform="translate(356.025 313.04)scale(0.1 -0.1)">
      <use xlink:href="#ArialMT-79"/>
      <use x="77.783203" xlink:href="#ArialMT-117"/>
      <use x="133.398438" xlink:href="#ArialMT-116"/>
      <use x="161.181641" xlink:href="#ArialMT-100"/>
      <use x="216.796875" xlink:href="#ArialMT-111"/>
      <use x="272.412109" xlink:href="#ArialMT-111"/>
      <use x="328.027344" xlink:href="#ArialMT-114"/>
      <use x="361.328125" xlink:href="#ArialMT-32"/>
      <use x="389.095703" xlink:href="#ArialMT-84"/>
      <use x="450.007812" xlink:href="#ArialMT-101"/>
      <use x="505.623047" xlink:href="#ArialMT-109"/>
      <use x="588.923828" xlink:href="#ArialMT-112"/>
     </g>
    </g>
    <g id="line2d_33">
     <path d="M 328.025 323.807187 
L 348.025 323.807187 
" style="fill:none;stroke:#0000ff;stroke-dasharray:6.475,2.8;stroke-dashoffset:0;stroke-width:1.75;"/>
    </g>
    <g id="line2d_34"/>
    <g id="text_18">
     <!-- Standard Thermostat Indoor Temp -->
     <defs>
      <path d="M 4.5 23 
L 13.421875 23.78125 
Q 14.0625 18.40625 16.375 14.96875 
Q 18.703125 11.53125 23.578125 9.40625 
Q 28.46875 7.28125 34.578125 7.28125 
Q 39.984375 7.28125 44.140625 8.890625 
Q 48.296875 10.5 50.3125 13.296875 
Q 52.34375 16.109375 52.34375 19.4375 
Q 52.34375 22.796875 50.390625 25.3125 
Q 48.4375 27.828125 43.953125 29.546875 
Q 41.0625 30.671875 31.203125 33.03125 
Q 21.34375 35.40625 17.390625 37.5 
Q 12.25 40.1875 9.734375 44.15625 
Q 7.234375 48.140625 7.234375 53.078125 
Q 7.234375 58.5 10.296875 63.203125 
Q 13.375 67.921875 19.28125 70.359375 
Q 25.203125 72.796875 32.421875 72.796875 
Q 40.375 72.796875 46.453125 70.234375 
Q 52.546875 67.671875 55.8125 62.6875 
Q 59.078125 57.71875 59.328125 51.421875 
L 50.25 50.734375 
Q 49.515625 57.515625 45.28125 60.984375 
Q 41.0625 64.453125 32.8125 64.453125 
Q 24.21875 64.453125 20.28125 61.296875 
Q 16.359375 58.15625 16.359375 53.71875 
Q 16.359375 49.859375 19.140625 47.359375 
Q 21.875 44.875 33.421875 42.265625 
Q 44.96875 39.65625 49.265625 37.703125 
Q 55.515625 34.8125 58.484375 30.390625 
Q 61.46875 25.984375 61.46875 20.21875 
Q 61.46875 14.5 58.203125 9.4375 
Q 54.9375 4.390625 48.796875 1.578125 
Q 42.671875 -1.21875 35.015625 -1.21875 
Q 25.296875 -1.21875 18.71875 1.609375 
Q 12.15625 4.4375 8.421875 10.125 
Q 4.6875 15.828125 4.5 23 
z
" id="ArialMT-83"/>
      <path d="M 6.59375 0 
L 6.59375 51.859375 
L 14.5 51.859375 
L 14.5 44.484375 
Q 20.21875 53.03125 31 53.03125 
Q 35.6875 53.03125 39.625 51.34375 
Q 43.5625 49.65625 45.515625 46.921875 
Q 47.46875 44.1875 48.25 40.4375 
Q 48.734375 37.984375 48.734375 31.890625 
L 48.734375 0 
L 39.9375 0 
L 39.9375 31.546875 
Q 39.9375 36.921875 38.90625 39.578125 
Q 37.890625 42.234375 35.28125 43.8125 
Q 32.671875 45.40625 29.15625 45.40625 
Q 23.53125 45.40625 19.453125 41.84375 
Q 15.375 38.28125 15.375 28.328125 
L 15.375 0 
z
" id="ArialMT-110"/>
      <path d="M 6.59375 0 
L 6.59375 71.578125 
L 15.375 71.578125 
L 15.375 45.90625 
Q 21.53125 53.03125 30.90625 53.03125 
Q 36.671875 53.03125 40.921875 50.75 
Q 45.171875 48.484375 47 44.484375 
Q 48.828125 40.484375 48.828125 32.859375 
L 48.828125 0 
L 40.046875 0 
L 40.046875 32.859375 
Q 40.046875 39.453125 37.1875 42.453125 
Q 34.328125 45.453125 29.109375 45.453125 
Q 25.203125 45.453125 21.75 43.421875 
Q 18.3125 41.40625 16.84375 37.9375 
Q 15.375 34.46875 15.375 28.375 
L 15.375 0 
z
" id="ArialMT-104"/>
      <path d="M 9.328125 0 
L 9.328125 71.578125 
L 18.796875 71.578125 
L 18.796875 0 
z
" id="ArialMT-73"/>
     </defs>
     <g style="fill:#262626;" transform="translate(356.025 327.307187)scale(0.1 -0.1)">
      <use xlink:href="#ArialMT-83"/>
      <use x="66.699219" xlink:href="#ArialMT-116"/>
      <use x="94.482422" xlink:href="#ArialMT-97"/>
      <use x="150.097656" xlink:href="#ArialMT-110"/>
      <use x="205.712891" xlink:href="#ArialMT-100"/>
      <use x="261.328125" xlink:href="#ArialMT-97"/>
      <use x="316.943359" xlink:href="#ArialMT-114"/>
      <use x="350.244141" xlink:href="#ArialMT-100"/>
      <use x="405.859375" xlink:href="#ArialMT-32"/>
      <use x="433.626953" xlink:href="#ArialMT-84"/>
      <use x="494.710938" xlink:href="#ArialMT-104"/>
      <use x="550.326172" xlink:href="#ArialMT-101"/>
      <use x="605.941406" xlink:href="#ArialMT-114"/>
      <use x="639.242188" xlink:href="#ArialMT-109"/>
      <use x="722.542969" xlink:href="#ArialMT-111"/>
      <use x="778.158203" xlink:href="#ArialMT-115"/>
      <use x="828.158203" xlink:href="#ArialMT-116"/>
      <use x="855.941406" xlink:href="#ArialMT-97"/>
      <use x="911.556641" xlink:href="#ArialMT-116"/>
      <use x="939.339844" xlink:href="#ArialMT-32"/>
      <use x="967.123047" xlink:href="#ArialMT-73"/>
      <use x="994.90625" xlink:href="#ArialMT-110"/>
      <use x="1050.521484" xlink:href="#ArialMT-100"/>
      <use x="1106.136719" xlink:href="#ArialMT-111"/>
      <use x="1161.751953" xlink:href="#ArialMT-111"/>
      <use x="1217.367188" xlink:href="#ArialMT-114"/>
      <use x="1250.667969" xlink:href="#ArialMT-32"/>
      <use x="1278.435547" xlink:href="#ArialMT-84"/>
      <use x="1339.347656" xlink:href="#ArialMT-101"/>
      <use x="1394.962891" xlink:href="#ArialMT-109"/>
      <use x="1478.263672" xlink:href="#ArialMT-112"/>
     </g>
    </g>
    <g id="line2d_35">
     <path d="M 328.025 337.9525 
L 348.025 337.9525 
" style="fill:none;stroke:#55a868;stroke-linecap:round;stroke-width:1.75;"/>
    </g>
    <g id="line2d_36"/>
    <g id="text_19">
     <!-- RL Indoor Temp -->
     <defs>
      <path d="M 7.859375 0 
L 7.859375 71.578125 
L 39.59375 71.578125 
Q 49.171875 71.578125 54.140625 69.640625 
Q 59.125 67.71875 62.109375 62.828125 
Q 65.09375 57.953125 65.09375 52.046875 
Q 65.09375 44.4375 60.15625 39.203125 
Q 55.21875 33.984375 44.921875 32.5625 
Q 48.6875 30.765625 50.640625 29 
Q 54.78125 25.203125 58.5 19.484375 
L 70.953125 0 
L 59.03125 0 
L 49.5625 14.890625 
Q 45.40625 21.34375 42.71875 24.75 
Q 40.046875 28.171875 37.921875 29.53125 
Q 35.796875 30.90625 33.59375 31.453125 
Q 31.984375 31.78125 28.328125 31.78125 
L 17.328125 31.78125 
L 17.328125 0 
z
M 17.328125 39.984375 
L 37.703125 39.984375 
Q 44.1875 39.984375 47.84375 41.328125 
Q 51.515625 42.671875 53.421875 45.625 
Q 55.328125 48.578125 55.328125 52.046875 
Q 55.328125 57.125 51.640625 60.390625 
Q 47.953125 63.671875 39.984375 63.671875 
L 17.328125 63.671875 
z
" id="ArialMT-82"/>
      <path d="M 7.328125 0 
L 7.328125 71.578125 
L 16.796875 71.578125 
L 16.796875 8.453125 
L 52.046875 8.453125 
L 52.046875 0 
z
" id="ArialMT-76"/>
     </defs>
     <g style="fill:#262626;" transform="translate(356.025 341.4525)scale(0.1 -0.1)">
      <use xlink:href="#ArialMT-82"/>
      <use x="72.216797" xlink:href="#ArialMT-76"/>
      <use x="127.785156" xlink:href="#ArialMT-32"/>
      <use x="155.568359" xlink:href="#ArialMT-73"/>
      <use x="183.351562" xlink:href="#ArialMT-110"/>
      <use x="238.966797" xlink:href="#ArialMT-100"/>
      <use x="294.582031" xlink:href="#ArialMT-111"/>
      <use x="350.197266" xlink:href="#ArialMT-111"/>
      <use x="405.8125" xlink:href="#ArialMT-114"/>
      <use x="439.113281" xlink:href="#ArialMT-32"/>
      <use x="466.880859" xlink:href="#ArialMT-84"/>
      <use x="527.792969" xlink:href="#ArialMT-101"/>
      <use x="583.408203" xlink:href="#ArialMT-109"/>
      <use x="666.708984" xlink:href="#ArialMT-112"/>
     </g>
    </g>
   </g>
  </g>
 </g>
 <defs>
  <clipPath id="p690887fb4b">
   <rect height="304.92" width="446.4" x="72" y="47.52"/>
  </clipPath>
 </defs>
</svg>
