<?xml version="1.0" encoding="utf-8" standalone="no"?>
<!DOCTYPE svg PUBLIC "-//W3C//DTD SVG 1.1//EN"
  "http://www.w3.org/Graphics/SVG/1.1/DTD/svg11.dtd">
<!-- Created with matplotlib (https://matplotlib.org/) -->
<svg height="396pt" version="1.1" viewBox="0 0 576 396" width="576pt" xmlns="http://www.w3.org/2000/svg" xmlns:xlink="http://www.w3.org/1999/xlink">
 <defs>
  <style type="text/css">
*{stroke-linecap:butt;stroke-linejoin:round;}
  </style>
 </defs>
 <g id="figure_1">
  <g id="patch_1">
   <path d="M 0 396 
L 576 396 
L 576 0 
L 0 0 
z
" style="fill:#ffffff;"/>
  </g>
  <g id="axes_1">
   <g id="patch_2">
    <path d="M 72 352.44 
L 518.4 352.44 
L 518.4 47.52 
L 72 47.52 
z
" style="fill:#eaeaf2;"/>
   </g>
   <g id="matplotlib.axis_1">
    <g id="xtick_1">
     <g id="line2d_1">
      <path clip-path="url(#p3209017f6a)" d="M 92.290909 352.44 
L 92.290909 47.52 
" style="fill:none;stroke:#ffffff;stroke-linecap:round;"/>
     </g>
     <g id="line2d_2"/>
     <g id="text_1">
      <!-- 0:00:00 -->
      <defs>
       <path d="M 4.15625 35.296875 
Q 4.15625 48 6.765625 55.734375 
Q 9.375 63.484375 14.515625 67.671875 
Q 19.671875 71.875 27.484375 71.875 
Q 33.25 71.875 37.59375 69.546875 
Q 41.9375 67.234375 44.765625 62.859375 
Q 47.609375 58.5 49.21875 52.21875 
Q 50.828125 45.953125 50.828125 35.296875 
Q 50.828125 22.703125 48.234375 14.96875 
Q 45.65625 7.234375 40.5 3 
Q 35.359375 -1.21875 27.484375 -1.21875 
Q 17.140625 -1.21875 11.234375 6.203125 
Q 4.15625 15.140625 4.15625 35.296875 
z
M 13.1875 35.296875 
Q 13.1875 17.671875 17.3125 11.828125 
Q 21.4375 6 27.484375 6 
Q 33.546875 6 37.671875 11.859375 
Q 41.796875 17.71875 41.796875 35.296875 
Q 41.796875 52.984375 37.671875 58.78125 
Q 33.546875 64.59375 27.390625 64.59375 
Q 21.34375 64.59375 17.71875 59.46875 
Q 13.1875 52.9375 13.1875 35.296875 
z
" id="ArialMT-48"/>
       <path d="M 9.03125 41.84375 
L 9.03125 51.859375 
L 19.046875 51.859375 
L 19.046875 41.84375 
z
M 9.03125 0 
L 9.03125 10.015625 
L 19.046875 10.015625 
L 19.046875 0 
z
" id="ArialMT-58"/>
      </defs>
      <g style="fill:#262626;" transform="translate(75.61044 366.597813)scale(0.1 -0.1)">
       <use xlink:href="#ArialMT-48"/>
       <use x="55.615234" xlink:href="#ArialMT-58"/>
       <use x="83.398438" xlink:href="#ArialMT-48"/>
       <use x="139.013672" xlink:href="#ArialMT-48"/>
       <use x="194.628906" xlink:href="#ArialMT-58"/>
       <use x="222.412109" xlink:href="#ArialMT-48"/>
       <use x="278.027344" xlink:href="#ArialMT-48"/>
      </g>
     </g>
    </g>
    <g id="xtick_2">
     <g id="line2d_3">
      <path clip-path="url(#p3209017f6a)" d="M 186.262932 352.44 
L 186.262932 47.52 
" style="fill:none;stroke:#ffffff;stroke-linecap:round;"/>
     </g>
     <g id="line2d_4"/>
     <g id="text_2">
      <!-- 5:33:20 -->
      <defs>
       <path d="M 4.15625 18.75 
L 13.375 19.53125 
Q 14.40625 12.796875 18.140625 9.390625 
Q 21.875 6 27.15625 6 
Q 33.5 6 37.890625 10.78125 
Q 42.28125 15.578125 42.28125 23.484375 
Q 42.28125 31 38.0625 35.34375 
Q 33.84375 39.703125 27 39.703125 
Q 22.75 39.703125 19.328125 37.765625 
Q 15.921875 35.84375 13.96875 32.765625 
L 5.71875 33.84375 
L 12.640625 70.609375 
L 48.25 70.609375 
L 48.25 62.203125 
L 19.671875 62.203125 
L 15.828125 42.96875 
Q 22.265625 47.46875 29.34375 47.46875 
Q 38.71875 47.46875 45.15625 40.96875 
Q 51.609375 34.46875 51.609375 24.265625 
Q 51.609375 14.546875 45.953125 7.46875 
Q 39.0625 -1.21875 27.15625 -1.21875 
Q 17.390625 -1.21875 11.203125 4.25 
Q 5.03125 9.71875 4.15625 18.75 
z
" id="ArialMT-53"/>
       <path d="M 4.203125 18.890625 
L 12.984375 20.0625 
Q 14.5 12.59375 18.140625 9.296875 
Q 21.78125 6 27 6 
Q 33.203125 6 37.46875 10.296875 
Q 41.75 14.59375 41.75 20.953125 
Q 41.75 27 37.796875 30.921875 
Q 33.84375 34.859375 27.734375 34.859375 
Q 25.25 34.859375 21.53125 33.890625 
L 22.515625 41.609375 
Q 23.390625 41.5 23.921875 41.5 
Q 29.546875 41.5 34.03125 44.421875 
Q 38.53125 47.359375 38.53125 53.46875 
Q 38.53125 58.296875 35.25 61.46875 
Q 31.984375 64.65625 26.8125 64.65625 
Q 21.6875 64.65625 18.265625 61.421875 
Q 14.84375 58.203125 13.875 51.765625 
L 5.078125 53.328125 
Q 6.6875 62.15625 12.390625 67.015625 
Q 18.109375 71.875 26.609375 71.875 
Q 32.46875 71.875 37.390625 69.359375 
Q 42.328125 66.84375 44.9375 62.5 
Q 47.5625 58.15625 47.5625 53.265625 
Q 47.5625 48.640625 45.0625 44.828125 
Q 42.578125 41.015625 37.703125 38.765625 
Q 44.046875 37.3125 47.5625 32.6875 
Q 51.078125 28.078125 51.078125 21.140625 
Q 51.078125 11.765625 44.234375 5.25 
Q 37.40625 -1.265625 26.953125 -1.265625 
Q 17.53125 -1.265625 11.296875 4.34375 
Q 5.078125 9.96875 4.203125 18.890625 
z
" id="ArialMT-51"/>
       <path d="M 50.34375 8.453125 
L 50.34375 0 
L 3.03125 0 
Q 2.9375 3.171875 4.046875 6.109375 
Q 5.859375 10.9375 9.828125 15.625 
Q 13.8125 20.3125 21.34375 26.46875 
Q 33.015625 36.03125 37.109375 41.625 
Q 41.21875 47.21875 41.21875 52.203125 
Q 41.21875 57.421875 37.46875 61 
Q 33.734375 64.59375 27.734375 64.59375 
Q 21.390625 64.59375 17.578125 60.78125 
Q 13.765625 56.984375 13.71875 50.25 
L 4.6875 51.171875 
Q 5.609375 61.28125 11.65625 66.578125 
Q 17.71875 71.875 27.9375 71.875 
Q 38.234375 71.875 44.234375 66.15625 
Q 50.25 60.453125 50.25 52 
Q 50.25 47.703125 48.484375 43.546875 
Q 46.734375 39.40625 42.65625 34.8125 
Q 38.578125 30.21875 29.109375 22.21875 
Q 21.1875 15.578125 18.9375 13.203125 
Q 16.703125 10.84375 15.234375 8.453125 
z
" id="ArialMT-50"/>
      </defs>
      <g style="fill:#262626;" transform="translate(169.582463 366.597813)scale(0.1 -0.1)">
       <use xlink:href="#ArialMT-53"/>
       <use x="55.615234" xlink:href="#ArialMT-58"/>
       <use x="83.398438" xlink:href="#ArialMT-51"/>
       <use x="139.013672" xlink:href="#ArialMT-51"/>
       <use x="194.628906" xlink:href="#ArialMT-58"/>
       <use x="222.412109" xlink:href="#ArialMT-50"/>
       <use x="278.027344" xlink:href="#ArialMT-48"/>
      </g>
     </g>
    </g>
    <g id="xtick_3">
     <g id="line2d_5">
      <path clip-path="url(#p3209017f6a)" d="M 280.234955 352.44 
L 280.234955 47.52 
" style="fill:none;stroke:#ffffff;stroke-linecap:round;"/>
     </g>
     <g id="line2d_6"/>
     <g id="text_3">
      <!-- 11:06:40 -->
      <defs>
       <path d="M 37.25 0 
L 28.46875 0 
L 28.46875 56 
Q 25.296875 52.984375 20.140625 49.953125 
Q 14.984375 46.921875 10.890625 45.40625 
L 10.890625 53.90625 
Q 18.265625 57.375 23.78125 62.296875 
Q 29.296875 67.234375 31.59375 71.875 
L 37.25 71.875 
z
" id="ArialMT-49"/>
       <path d="M 49.75 54.046875 
L 41.015625 53.375 
Q 39.84375 58.546875 37.703125 60.890625 
Q 34.125 64.65625 28.90625 64.65625 
Q 24.703125 64.65625 21.53125 62.3125 
Q 17.390625 59.28125 14.984375 53.46875 
Q 12.59375 47.65625 12.5 36.921875 
Q 15.671875 41.75 20.265625 44.09375 
Q 24.859375 46.4375 29.890625 46.4375 
Q 38.671875 46.4375 44.84375 39.96875 
Q 51.03125 33.5 51.03125 23.25 
Q 51.03125 16.5 48.125 10.71875 
Q 45.21875 4.9375 40.140625 1.859375 
Q 35.0625 -1.21875 28.609375 -1.21875 
Q 17.625 -1.21875 10.6875 6.859375 
Q 3.765625 14.9375 3.765625 33.5 
Q 3.765625 54.25 11.421875 63.671875 
Q 18.109375 71.875 29.4375 71.875 
Q 37.890625 71.875 43.28125 67.140625 
Q 48.6875 62.40625 49.75 54.046875 
z
M 13.875 23.1875 
Q 13.875 18.65625 15.796875 14.5 
Q 17.71875 10.359375 21.1875 8.171875 
Q 24.65625 6 28.46875 6 
Q 34.03125 6 38.03125 10.484375 
Q 42.046875 14.984375 42.046875 22.703125 
Q 42.046875 30.125 38.078125 34.390625 
Q 34.125 38.671875 28.125 38.671875 
Q 22.171875 38.671875 18.015625 34.390625 
Q 13.875 30.125 13.875 23.1875 
z
" id="ArialMT-54"/>
       <path d="M 32.328125 0 
L 32.328125 17.140625 
L 1.265625 17.140625 
L 1.265625 25.203125 
L 33.9375 71.578125 
L 41.109375 71.578125 
L 41.109375 25.203125 
L 50.78125 25.203125 
L 50.78125 17.140625 
L 41.109375 17.140625 
L 41.109375 0 
z
M 32.328125 25.203125 
L 32.328125 57.46875 
L 9.90625 25.203125 
z
" id="ArialMT-52"/>
      </defs>
      <g style="fill:#262626;" transform="translate(260.779487 366.597813)scale(0.1 -0.1)">
       <use xlink:href="#ArialMT-49"/>
       <use x="55.505859" xlink:href="#ArialMT-49"/>
       <use x="111.121094" xlink:href="#ArialMT-58"/>
       <use x="138.904297" xlink:href="#ArialMT-48"/>
       <use x="194.519531" xlink:href="#ArialMT-54"/>
       <use x="250.134766" xlink:href="#ArialMT-58"/>
       <use x="277.917969" xlink:href="#ArialMT-52"/>
       <use x="333.533203" xlink:href="#ArialMT-48"/>
      </g>
     </g>
    </g>
    <g id="xtick_4">
     <g id="line2d_7">
      <path clip-path="url(#p3209017f6a)" d="M 374.206978 352.44 
L 374.206978 47.52 
" style="fill:none;stroke:#ffffff;stroke-linecap:round;"/>
     </g>
     <g id="line2d_8"/>
     <g id="text_4">
      <!-- 16:40:00 -->
      <g style="fill:#262626;" transform="translate(354.746041 366.597813)scale(0.1 -0.1)">
       <use xlink:href="#ArialMT-49"/>
       <use x="55.615234" xlink:href="#ArialMT-54"/>
       <use x="111.230469" xlink:href="#ArialMT-58"/>
       <use x="139.013672" xlink:href="#ArialMT-52"/>
       <use x="194.628906" xlink:href="#ArialMT-48"/>
       <use x="250.244141" xlink:href="#ArialMT-58"/>
       <use x="278.027344" xlink:href="#ArialMT-48"/>
       <use x="333.642578" xlink:href="#ArialMT-48"/>
      </g>
     </g>
    </g>
    <g id="xtick_5">
     <g id="line2d_9">
      <path clip-path="url(#p3209017f6a)" d="M 468.179002 352.44 
L 468.179002 47.52 
" style="fill:none;stroke:#ffffff;stroke-linecap:round;"/>
     </g>
     <g id="line2d_10"/>
     <g id="text_5">
      <!-- 22:13:20 -->
      <g style="fill:#262626;" transform="translate(448.718064 366.597813)scale(0.1 -0.1)">
       <use xlink:href="#ArialMT-50"/>
       <use x="55.615234" xlink:href="#ArialMT-50"/>
       <use x="111.230469" xlink:href="#ArialMT-58"/>
       <use x="139.013672" xlink:href="#ArialMT-49"/>
       <use x="194.628906" xlink:href="#ArialMT-51"/>
       <use x="250.244141" xlink:href="#ArialMT-58"/>
       <use x="278.027344" xlink:href="#ArialMT-50"/>
       <use x="333.642578" xlink:href="#ArialMT-48"/>
      </g>
     </g>
    </g>
    <g id="text_6">
     <!-- Time of day -->
     <defs>
      <path d="M 25.921875 0 
L 25.921875 63.140625 
L 2.34375 63.140625 
L 2.34375 71.578125 
L 59.078125 71.578125 
L 59.078125 63.140625 
L 35.40625 63.140625 
L 35.40625 0 
z
" id="ArialMT-84"/>
      <path d="M 6.640625 61.46875 
L 6.640625 71.578125 
L 15.4375 71.578125 
L 15.4375 61.46875 
z
M 6.640625 0 
L 6.640625 51.859375 
L 15.4375 51.859375 
L 15.4375 0 
z
" id="ArialMT-105"/>
      <path d="M 6.59375 0 
L 6.59375 51.859375 
L 14.453125 51.859375 
L 14.453125 44.578125 
Q 16.890625 48.390625 20.9375 50.703125 
Q 25 53.03125 30.171875 53.03125 
Q 35.9375 53.03125 39.625 50.640625 
Q 43.3125 48.25 44.828125 43.953125 
Q 50.984375 53.03125 60.84375 53.03125 
Q 68.5625 53.03125 72.703125 48.75 
Q 76.859375 44.484375 76.859375 35.59375 
L 76.859375 0 
L 68.109375 0 
L 68.109375 32.671875 
Q 68.109375 37.9375 67.25 40.25 
Q 66.40625 42.578125 64.15625 43.984375 
Q 61.921875 45.40625 58.890625 45.40625 
Q 53.421875 45.40625 49.796875 41.765625 
Q 46.1875 38.140625 46.1875 30.125 
L 46.1875 0 
L 37.40625 0 
L 37.40625 33.6875 
Q 37.40625 39.546875 35.25 42.46875 
Q 33.109375 45.40625 28.21875 45.40625 
Q 24.515625 45.40625 21.359375 43.453125 
Q 18.21875 41.5 16.796875 37.734375 
Q 15.375 33.984375 15.375 26.90625 
L 15.375 0 
z
" id="ArialMT-109"/>
      <path d="M 42.09375 16.703125 
L 51.171875 15.578125 
Q 49.03125 7.625 43.21875 3.21875 
Q 37.40625 -1.171875 28.375 -1.171875 
Q 17 -1.171875 10.328125 5.828125 
Q 3.65625 12.84375 3.65625 25.484375 
Q 3.65625 38.578125 10.390625 45.796875 
Q 17.140625 53.03125 27.875 53.03125 
Q 38.28125 53.03125 44.875 45.953125 
Q 51.46875 38.875 51.46875 26.03125 
Q 51.46875 25.25 51.421875 23.6875 
L 12.75 23.6875 
Q 13.234375 15.140625 17.578125 10.59375 
Q 21.921875 6.0625 28.421875 6.0625 
Q 33.25 6.0625 36.671875 8.59375 
Q 40.09375 11.140625 42.09375 16.703125 
z
M 13.234375 30.90625 
L 42.1875 30.90625 
Q 41.609375 37.453125 38.875 40.71875 
Q 34.671875 45.796875 27.984375 45.796875 
Q 21.921875 45.796875 17.796875 41.75 
Q 13.671875 37.703125 13.234375 30.90625 
z
" id="ArialMT-101"/>
      <path id="ArialMT-32"/>
      <path d="M 3.328125 25.921875 
Q 3.328125 40.328125 11.328125 47.265625 
Q 18.015625 53.03125 27.640625 53.03125 
Q 38.328125 53.03125 45.109375 46.015625 
Q 51.90625 39.015625 51.90625 26.65625 
Q 51.90625 16.65625 48.90625 10.90625 
Q 45.90625 5.171875 40.15625 2 
Q 34.421875 -1.171875 27.640625 -1.171875 
Q 16.75 -1.171875 10.03125 5.8125 
Q 3.328125 12.796875 3.328125 25.921875 
z
M 12.359375 25.921875 
Q 12.359375 15.96875 16.703125 11.015625 
Q 21.046875 6.0625 27.640625 6.0625 
Q 34.1875 6.0625 38.53125 11.03125 
Q 42.875 16.015625 42.875 26.21875 
Q 42.875 35.84375 38.5 40.796875 
Q 34.125 45.75 27.640625 45.75 
Q 21.046875 45.75 16.703125 40.8125 
Q 12.359375 35.890625 12.359375 25.921875 
z
" id="ArialMT-111"/>
      <path d="M 8.6875 0 
L 8.6875 45.015625 
L 0.921875 45.015625 
L 0.921875 51.859375 
L 8.6875 51.859375 
L 8.6875 57.375 
Q 8.6875 62.59375 9.625 65.140625 
Q 10.890625 68.5625 14.078125 70.671875 
Q 17.28125 72.796875 23.046875 72.796875 
Q 26.765625 72.796875 31.25 71.921875 
L 29.9375 64.265625 
Q 27.203125 64.75 24.75 64.75 
Q 20.75 64.75 19.09375 63.03125 
Q 17.4375 61.328125 17.4375 56.640625 
L 17.4375 51.859375 
L 27.546875 51.859375 
L 27.546875 45.015625 
L 17.4375 45.015625 
L 17.4375 0 
z
" id="ArialMT-102"/>
      <path d="M 40.234375 0 
L 40.234375 6.546875 
Q 35.296875 -1.171875 25.734375 -1.171875 
Q 19.53125 -1.171875 14.328125 2.25 
Q 9.125 5.671875 6.265625 11.796875 
Q 3.421875 17.921875 3.421875 25.875 
Q 3.421875 33.640625 6 39.96875 
Q 8.59375 46.296875 13.765625 49.65625 
Q 18.953125 53.03125 25.34375 53.03125 
Q 30.03125 53.03125 33.6875 51.046875 
Q 37.359375 49.078125 39.65625 45.90625 
L 39.65625 71.578125 
L 48.390625 71.578125 
L 48.390625 0 
z
M 12.453125 25.875 
Q 12.453125 15.921875 16.640625 10.984375 
Q 20.84375 6.0625 26.5625 6.0625 
Q 32.328125 6.0625 36.34375 10.765625 
Q 40.375 15.484375 40.375 25.140625 
Q 40.375 35.796875 36.265625 40.765625 
Q 32.171875 45.75 26.171875 45.75 
Q 20.3125 45.75 16.375 40.96875 
Q 12.453125 36.1875 12.453125 25.875 
z
" id="ArialMT-100"/>
      <path d="M 40.4375 6.390625 
Q 35.546875 2.25 31.03125 0.53125 
Q 26.515625 -1.171875 21.34375 -1.171875 
Q 12.796875 -1.171875 8.203125 3 
Q 3.609375 7.171875 3.609375 13.671875 
Q 3.609375 17.484375 5.34375 20.625 
Q 7.078125 23.78125 9.890625 25.6875 
Q 12.703125 27.59375 16.21875 28.5625 
Q 18.796875 29.25 24.03125 29.890625 
Q 34.671875 31.15625 39.703125 32.90625 
Q 39.75 34.71875 39.75 35.203125 
Q 39.75 40.578125 37.25 42.78125 
Q 33.890625 45.75 27.25 45.75 
Q 21.046875 45.75 18.09375 43.578125 
Q 15.140625 41.40625 13.71875 35.890625 
L 5.125 37.0625 
Q 6.296875 42.578125 8.984375 45.96875 
Q 11.671875 49.359375 16.75 51.1875 
Q 21.828125 53.03125 28.515625 53.03125 
Q 35.15625 53.03125 39.296875 51.46875 
Q 43.453125 49.90625 45.40625 47.53125 
Q 47.359375 45.171875 48.140625 41.546875 
Q 48.578125 39.3125 48.578125 33.453125 
L 48.578125 21.734375 
Q 48.578125 9.46875 49.140625 6.21875 
Q 49.703125 2.984375 51.375 0 
L 42.1875 0 
Q 40.828125 2.734375 40.4375 6.390625 
z
M 39.703125 26.03125 
Q 34.90625 24.078125 25.34375 22.703125 
Q 19.921875 21.921875 17.671875 20.9375 
Q 15.4375 19.96875 14.203125 18.09375 
Q 12.984375 16.21875 12.984375 13.921875 
Q 12.984375 10.40625 15.640625 8.0625 
Q 18.3125 5.71875 23.4375 5.71875 
Q 28.515625 5.71875 32.46875 7.9375 
Q 36.421875 10.15625 38.28125 14.015625 
Q 39.703125 17 39.703125 22.796875 
z
" id="ArialMT-97"/>
      <path d="M 6.203125 -19.96875 
L 5.21875 -11.71875 
Q 8.109375 -12.5 10.25 -12.5 
Q 13.1875 -12.5 14.9375 -11.515625 
Q 16.703125 -10.546875 17.828125 -8.796875 
Q 18.65625 -7.46875 20.515625 -2.25 
Q 20.75 -1.515625 21.296875 -0.09375 
L 1.609375 51.859375 
L 11.078125 51.859375 
L 21.875 21.828125 
Q 23.96875 16.109375 25.640625 9.8125 
Q 27.15625 15.875 29.25 21.625 
L 40.328125 51.859375 
L 49.125 51.859375 
L 29.390625 -0.875 
Q 26.21875 -9.421875 24.46875 -12.640625 
Q 22.125 -17 19.09375 -19.015625 
Q 16.0625 -21.046875 11.859375 -21.046875 
Q 9.328125 -21.046875 6.203125 -19.96875 
z
" id="ArialMT-121"/>
     </defs>
     <g style="fill:#262626;" transform="translate(248.190469 385.68875)scale(0.18 -0.18)">
      <use xlink:href="#ArialMT-84"/>
      <use x="61.037109" xlink:href="#ArialMT-105"/>
      <use x="83.253906" xlink:href="#ArialMT-109"/>
      <use x="166.554688" xlink:href="#ArialMT-101"/>
      <use x="222.169922" xlink:href="#ArialMT-32"/>
      <use x="249.953125" xlink:href="#ArialMT-111"/>
      <use x="305.568359" xlink:href="#ArialMT-102"/>
      <use x="333.351562" xlink:href="#ArialMT-32"/>
      <use x="361.134766" xlink:href="#ArialMT-100"/>
      <use x="416.75" xlink:href="#ArialMT-97"/>
      <use x="472.365234" xlink:href="#ArialMT-121"/>
     </g>
    </g>
   </g>
   <g id="matplotlib.axis_2">
    <g id="ytick_1">
     <g id="line2d_11">
      <path clip-path="url(#p3209017f6a)" d="M 72 336.514174 
L 518.4 336.514174 
" style="fill:none;stroke:#ffffff;stroke-linecap:round;"/>
     </g>
     <g id="line2d_12"/>
     <g id="text_7">
      <!-- 0 -->
      <g style="fill:#262626;" transform="translate(59.439062 340.09308)scale(0.1 -0.1)">
       <use xlink:href="#ArialMT-48"/>
      </g>
     </g>
    </g>
    <g id="ytick_2">
     <g id="line2d_13">
      <path clip-path="url(#p3209017f6a)" d="M 72 299.624429 
L 518.4 299.624429 
" style="fill:none;stroke:#ffffff;stroke-linecap:round;"/>
     </g>
     <g id="line2d_14"/>
     <g id="text_8">
      <!-- 10 -->
      <g style="fill:#262626;" transform="translate(53.878125 303.203335)scale(0.1 -0.1)">
       <use xlink:href="#ArialMT-49"/>
       <use x="55.615234" xlink:href="#ArialMT-48"/>
      </g>
     </g>
    </g>
    <g id="ytick_3">
     <g id="line2d_15">
      <path clip-path="url(#p3209017f6a)" d="M 72 262.734683 
L 518.4 262.734683 
" style="fill:none;stroke:#ffffff;stroke-linecap:round;"/>
     </g>
     <g id="line2d_16"/>
     <g id="text_9">
      <!-- 20 -->
      <g style="fill:#262626;" transform="translate(53.878125 266.313589)scale(0.1 -0.1)">
       <use xlink:href="#ArialMT-50"/>
       <use x="55.615234" xlink:href="#ArialMT-48"/>
      </g>
     </g>
    </g>
    <g id="ytick_4">
     <g id="line2d_17">
      <path clip-path="url(#p3209017f6a)" d="M 72 225.844937 
L 518.4 225.844937 
" style="fill:none;stroke:#ffffff;stroke-linecap:round;"/>
     </g>
     <g id="line2d_18"/>
     <g id="text_10">
      <!-- 30 -->
      <g style="fill:#262626;" transform="translate(53.878125 229.423844)scale(0.1 -0.1)">
       <use xlink:href="#ArialMT-51"/>
       <use x="55.615234" xlink:href="#ArialMT-48"/>
      </g>
     </g>
    </g>
    <g id="ytick_5">
     <g id="line2d_19">
      <path clip-path="url(#p3209017f6a)" d="M 72 188.955192 
L 518.4 188.955192 
" style="fill:none;stroke:#ffffff;stroke-linecap:round;"/>
     </g>
     <g id="line2d_20"/>
     <g id="text_11">
      <!-- 40 -->
      <g style="fill:#262626;" transform="translate(53.878125 192.534098)scale(0.1 -0.1)">
       <use xlink:href="#ArialMT-52"/>
       <use x="55.615234" xlink:href="#ArialMT-48"/>
      </g>
     </g>
    </g>
    <g id="ytick_6">
     <g id="line2d_21">
      <path clip-path="url(#p3209017f6a)" d="M 72 152.065446 
L 518.4 152.065446 
" style="fill:none;stroke:#ffffff;stroke-linecap:round;"/>
     </g>
     <g id="line2d_22"/>
     <g id="text_12">
      <!-- 50 -->
      <g style="fill:#262626;" transform="translate(53.878125 155.644352)scale(0.1 -0.1)">
       <use xlink:href="#ArialMT-53"/>
       <use x="55.615234" xlink:href="#ArialMT-48"/>
      </g>
     </g>
    </g>
    <g id="ytick_7">
     <g id="line2d_23">
      <path clip-path="url(#p3209017f6a)" d="M 72 115.1757 
L 518.4 115.1757 
" style="fill:none;stroke:#ffffff;stroke-linecap:round;"/>
     </g>
     <g id="line2d_24"/>
     <g id="text_13">
      <!-- 60 -->
      <g style="fill:#262626;" transform="translate(53.878125 118.754607)scale(0.1 -0.1)">
       <use xlink:href="#ArialMT-54"/>
       <use x="55.615234" xlink:href="#ArialMT-48"/>
      </g>
     </g>
    </g>
    <g id="ytick_8">
     <g id="line2d_25">
      <path clip-path="url(#p3209017f6a)" d="M 72 78.285955 
L 518.4 78.285955 
" style="fill:none;stroke:#ffffff;stroke-linecap:round;"/>
     </g>
     <g id="line2d_26"/>
     <g id="text_14">
      <!-- 70 -->
      <defs>
       <path d="M 4.734375 62.203125 
L 4.734375 70.65625 
L 51.078125 70.65625 
L 51.078125 63.8125 
Q 44.234375 56.546875 37.515625 44.484375 
Q 30.8125 32.421875 27.15625 19.671875 
Q 24.515625 10.6875 23.78125 0 
L 14.75 0 
Q 14.890625 8.453125 18.0625 20.40625 
Q 21.234375 32.375 27.171875 43.484375 
Q 33.109375 54.59375 39.796875 62.203125 
z
" id="ArialMT-55"/>
      </defs>
      <g style="fill:#262626;" transform="translate(53.878125 81.864861)scale(0.1 -0.1)">
       <use xlink:href="#ArialMT-55"/>
       <use x="55.615234" xlink:href="#ArialMT-48"/>
      </g>
     </g>
    </g>
    <g id="text_15">
     <!-- Temperature (C°) -->
     <defs>
      <path d="M 6.59375 -19.875 
L 6.59375 51.859375 
L 14.59375 51.859375 
L 14.59375 45.125 
Q 17.4375 49.078125 21 51.046875 
Q 24.5625 53.03125 29.640625 53.03125 
Q 36.28125 53.03125 41.359375 49.609375 
Q 46.4375 46.1875 49.015625 39.953125 
Q 51.609375 33.734375 51.609375 26.3125 
Q 51.609375 18.359375 48.75 11.984375 
Q 45.90625 5.609375 40.453125 2.21875 
Q 35.015625 -1.171875 29 -1.171875 
Q 24.609375 -1.171875 21.109375 0.6875 
Q 17.625 2.546875 15.375 5.375 
L 15.375 -19.875 
z
M 14.546875 25.640625 
Q 14.546875 15.625 18.59375 10.84375 
Q 22.65625 6.0625 28.421875 6.0625 
Q 34.28125 6.0625 38.453125 11.015625 
Q 42.625 15.96875 42.625 26.375 
Q 42.625 36.28125 38.546875 41.203125 
Q 34.46875 46.140625 28.8125 46.140625 
Q 23.1875 46.140625 18.859375 40.890625 
Q 14.546875 35.640625 14.546875 25.640625 
z
" id="ArialMT-112"/>
      <path d="M 6.5 0 
L 6.5 51.859375 
L 14.40625 51.859375 
L 14.40625 44 
Q 17.4375 49.515625 20 51.265625 
Q 22.5625 53.03125 25.640625 53.03125 
Q 30.078125 53.03125 34.671875 50.203125 
L 31.640625 42.046875 
Q 28.421875 43.953125 25.203125 43.953125 
Q 22.3125 43.953125 20.015625 42.21875 
Q 17.71875 40.484375 16.75 37.40625 
Q 15.28125 32.71875 15.28125 27.15625 
L 15.28125 0 
z
" id="ArialMT-114"/>
      <path d="M 25.78125 7.859375 
L 27.046875 0.09375 
Q 23.34375 -0.6875 20.40625 -0.6875 
Q 15.625 -0.6875 12.984375 0.828125 
Q 10.359375 2.34375 9.28125 4.8125 
Q 8.203125 7.28125 8.203125 15.1875 
L 8.203125 45.015625 
L 1.765625 45.015625 
L 1.765625 51.859375 
L 8.203125 51.859375 
L 8.203125 64.703125 
L 16.9375 69.96875 
L 16.9375 51.859375 
L 25.78125 51.859375 
L 25.78125 45.015625 
L 16.9375 45.015625 
L 16.9375 14.703125 
Q 16.9375 10.9375 17.40625 9.859375 
Q 17.875 8.796875 18.921875 8.15625 
Q 19.96875 7.515625 21.921875 7.515625 
Q 23.390625 7.515625 25.78125 7.859375 
z
" id="ArialMT-116"/>
      <path d="M 40.578125 0 
L 40.578125 7.625 
Q 34.515625 -1.171875 24.125 -1.171875 
Q 19.53125 -1.171875 15.546875 0.578125 
Q 11.578125 2.34375 9.640625 5 
Q 7.71875 7.671875 6.9375 11.53125 
Q 6.390625 14.109375 6.390625 19.734375 
L 6.390625 51.859375 
L 15.1875 51.859375 
L 15.1875 23.09375 
Q 15.1875 16.21875 15.71875 13.8125 
Q 16.546875 10.359375 19.234375 8.375 
Q 21.921875 6.390625 25.875 6.390625 
Q 29.828125 6.390625 33.296875 8.421875 
Q 36.765625 10.453125 38.203125 13.9375 
Q 39.65625 17.4375 39.65625 24.078125 
L 39.65625 51.859375 
L 48.4375 51.859375 
L 48.4375 0 
z
" id="ArialMT-117"/>
      <path d="M 23.390625 -21.046875 
Q 16.109375 -11.859375 11.078125 0.4375 
Q 6.0625 12.75 6.0625 25.921875 
Q 6.0625 37.546875 9.8125 48.1875 
Q 14.203125 60.546875 23.390625 72.796875 
L 29.6875 72.796875 
Q 23.78125 62.640625 21.875 58.296875 
Q 18.890625 51.5625 17.1875 44.234375 
Q 15.09375 35.109375 15.09375 25.875 
Q 15.09375 2.390625 29.6875 -21.046875 
z
" id="ArialMT-40"/>
      <path d="M 58.796875 25.09375 
L 68.265625 22.703125 
Q 65.28125 11.03125 57.546875 4.90625 
Q 49.8125 -1.21875 38.625 -1.21875 
Q 27.046875 -1.21875 19.796875 3.484375 
Q 12.546875 8.203125 8.765625 17.140625 
Q 4.984375 26.078125 4.984375 36.328125 
Q 4.984375 47.515625 9.25 55.828125 
Q 13.53125 64.15625 21.40625 68.46875 
Q 29.296875 72.796875 38.765625 72.796875 
Q 49.515625 72.796875 56.828125 67.328125 
Q 64.15625 61.859375 67.046875 51.953125 
L 57.71875 49.75 
Q 55.21875 57.5625 50.484375 61.125 
Q 45.75 64.703125 38.578125 64.703125 
Q 30.328125 64.703125 24.78125 60.734375 
Q 19.234375 56.78125 16.984375 50.109375 
Q 14.75 43.453125 14.75 36.375 
Q 14.75 27.25 17.40625 20.4375 
Q 20.0625 13.625 25.671875 10.25 
Q 31.296875 6.890625 37.84375 6.890625 
Q 45.796875 6.890625 51.3125 11.46875 
Q 56.84375 16.0625 58.796875 25.09375 
z
" id="ArialMT-67"/>
      <path d="M 6.25 59.28125 
Q 6.25 64.890625 10.21875 68.84375 
Q 14.203125 72.796875 19.78125 72.796875 
Q 25.4375 72.796875 29.390625 68.84375 
Q 33.34375 64.890625 33.34375 59.28125 
Q 33.34375 53.65625 29.359375 49.671875 
Q 25.390625 45.703125 19.78125 45.703125 
Q 14.203125 45.703125 10.21875 49.65625 
Q 6.25 53.609375 6.25 59.28125 
z
M 11.578125 59.28125 
Q 11.578125 55.859375 13.984375 53.4375 
Q 16.40625 51.03125 19.828125 51.03125 
Q 23.1875 51.03125 25.609375 53.4375 
Q 28.03125 55.859375 28.03125 59.28125 
Q 28.03125 62.703125 25.609375 65.109375 
Q 23.1875 67.53125 19.828125 67.53125 
Q 16.40625 67.53125 13.984375 65.109375 
Q 11.578125 62.703125 11.578125 59.28125 
z
" id="ArialMT-176"/>
      <path d="M 12.359375 -21.046875 
L 6.0625 -21.046875 
Q 20.65625 2.390625 20.65625 25.875 
Q 20.65625 35.0625 18.5625 44.09375 
Q 16.890625 51.421875 13.921875 58.15625 
Q 12.015625 62.546875 6.0625 72.796875 
L 12.359375 72.796875 
Q 21.53125 60.546875 25.921875 48.1875 
Q 29.6875 37.546875 29.6875 25.921875 
Q 29.6875 12.75 24.625 0.4375 
Q 19.578125 -11.859375 12.359375 -21.046875 
z
" id="ArialMT-41"/>
     </defs>
     <g style="fill:#262626;" transform="translate(46.089687 270.073125)rotate(-90)scale(0.18 -0.18)">
      <use xlink:href="#ArialMT-84"/>
      <use x="60.912109" xlink:href="#ArialMT-101"/>
      <use x="116.527344" xlink:href="#ArialMT-109"/>
      <use x="199.828125" xlink:href="#ArialMT-112"/>
      <use x="255.443359" xlink:href="#ArialMT-101"/>
      <use x="311.058594" xlink:href="#ArialMT-114"/>
      <use x="344.359375" xlink:href="#ArialMT-97"/>
      <use x="399.974609" xlink:href="#ArialMT-116"/>
      <use x="427.757812" xlink:href="#ArialMT-117"/>
      <use x="483.373047" xlink:href="#ArialMT-114"/>
      <use x="516.673828" xlink:href="#ArialMT-101"/>
      <use x="572.289062" xlink:href="#ArialMT-32"/>
      <use x="600.072266" xlink:href="#ArialMT-40"/>
      <use x="633.373047" xlink:href="#ArialMT-67"/>
      <use x="705.589844" xlink:href="#ArialMT-176"/>
      <use x="745.580078" xlink:href="#ArialMT-41"/>
     </g>
    </g>
   </g>
   <g id="line2d_27">
    <path clip-path="url(#p3209017f6a)" d="M 72 262.734683 
L 518.4 262.734683 
" style="fill:none;stroke:#ffff00;stroke-dasharray:2,3.3;stroke-dashoffset:0;stroke-width:2;"/>
   </g>
   <g id="line2d_28">
    <path clip-path="url(#p3209017f6a)" d="M 92.290909 338.58 
L 109.064915 338.58 
L 109.205873 331.681618 
L 125.979879 331.681618 
L 126.120837 324.820125 
L 142.894844 324.820125 
L 143.035802 317.921742 
L 159.809808 317.921742 
L 159.950766 311.06025 
L 176.724772 311.06025 
L 176.86573 304.161867 
L 193.639736 304.161867 
L 193.780694 297.300375 
L 210.5547 297.300375 
L 210.695658 290.401992 
L 227.469664 290.401992 
L 227.610622 283.50361 
L 244.384629 283.50361 
L 244.525587 276.642117 
L 261.299593 276.642117 
L 261.440551 269.743735 
L 278.214557 269.743735 
L 278.355515 262.882242 
L 295.129521 262.882242 
L 295.270479 255.983859 
L 312.044485 255.983859 
L 312.185443 249.122367 
L 328.959449 249.122367 
L 329.100407 242.223984 
L 345.874413 242.223984 
L 346.015371 250.893075 
L 362.789378 250.893075 
L 362.930336 259.562165 
L 379.704342 259.562165 
L 379.8453 268.194365 
L 396.619306 268.194365 
L 396.760264 276.863456 
L 413.53427 276.863456 
L 413.675228 285.495656 
L 430.449234 285.495656 
L 430.590192 294.164746 
L 447.364198 294.164746 
L 447.505156 302.796947 
L 464.279163 302.796947 
L 464.420121 311.466037 
L 481.194127 311.466037 
L 481.335085 320.135127 
L 498.109091 320.135127 
L 498.109091 320.135127 
" style="fill:none;stroke:#c44e52;stroke-linecap:round;stroke-width:1.75;"/>
   </g>
   <g id="line2d_29">
    <path clip-path="url(#p3209017f6a)" d="M 92.290909 270.361167 
L 92.431867 270.6088 
L 93.418573 259.501632 
L 93.700489 258.495648 
L 93.841447 258.583707 
L 96.942524 264.734472 
L 100.043601 270.412317 
L 101.030307 259.310088 
L 101.312223 258.305491 
L 101.453181 258.394241 
L 104.554258 264.559574 
L 107.655335 270.250866 
L 107.796293 270.498899 
L 108.782999 259.394494 
L 109.064915 258.389286 
L 109.205873 258.45269 
L 112.30695 264.083125 
L 115.548985 269.507161 
L 116.112817 270.405026 
L 117.099523 259.12959 
L 117.381439 258.076311 
L 117.522397 258.140851 
L 120.623474 263.795263 
L 123.865509 269.242397 
L 124.570299 270.367465 
L 125.557005 259.092973 
L 125.838921 258.039959 
L 125.979879 258.104631 
L 129.221914 263.457816 
L 132.463949 268.381467 
L 133.873529 270.397035 
L 134.860236 258.949338 
L 135.142152 257.847641 
L 135.28311 257.888105 
L 138.525144 263.258663 
L 141.767179 268.198294 
L 143.317718 270.343749 
L 144.304424 258.724002 
L 144.58634 257.573947 
L 144.727298 257.590363 
L 147.969333 262.431293 
L 151.211368 266.883791 
L 153.88957 270.291191 
L 154.876276 258.672764 
L 155.158193 257.523081 
L 155.299151 257.539681 
L 158.541185 262.384678 
L 160.514598 265.017785 
L 163.897591 268.865909 
L 165.307171 270.372776 
L 166.293877 258.579837 
L 166.575793 257.381103 
L 166.716751 257.373312 
L 169.958786 261.681098 
L 173.341779 265.808095 
L 176.724772 269.590167 
L 177.57052 270.336335 
L 178.557226 258.370922 
L 178.839142 257.123711 
L 178.9801 257.091813 
L 182.363093 261.025821 
L 185.887044 264.774529 
L 189.410995 268.197459 
L 191.807282 270.353515 
L 192.793988 258.387671 
L 193.075904 257.140338 
L 193.216862 257.10838 
L 194.485484 258.475384 
L 198.009435 261.849443 
L 201.674344 265.047785 
L 205.339253 267.957576 
L 208.44033 270.213689 
L 209.427036 258.078896 
L 209.708952 256.784078 
L 209.84991 256.728505 
L 211.25949 258.053131 
L 214.924399 260.971607 
L 218.730266 263.723976 
L 222.677091 266.306723 
L 226.764874 268.718428 
L 228.033496 269.317007 
L 230.429783 270.16749 
L 231.275531 259.559599 
L 231.557447 258.154068 
L 231.698405 258.043441 
L 235.786188 260.591759 
L 240.014929 262.959859 
L 244.384629 265.150066 
L 250.02295 266.705842 
L 256.084145 268.144217 
L 261.440551 269.215974 
L 278.496473 269.354123 
L 285.967249 268.219584 
L 294.142815 267.204621 
L 295.693353 266.935508 
L 301.472633 265.418519 
L 307.674786 264.023468 
L 313.031191 262.813358 
L 318.246639 261.089744 
L 323.744002 259.507317 
L 330.36903 257.629373 
L 335.302561 255.788224 
L 336.571183 255.351463 
L 339.813218 259.833321 
L 342.068547 262.73726 
L 345.874413 260.818832 
L 351.935609 259.381979 
L 358.419679 258.074351 
L 363.071294 257.325072 
L 376.039433 257.961192 
L 380.127216 258.215097 
L 386.188411 259.659696 
L 392.672481 260.974374 
L 397.324096 261.947059 
L 402.398585 263.777442 
L 407.754991 265.466414 
L 413.393312 267.009327 
L 413.957144 267.245295 
L 418.608759 269.309155 
L 420.864088 270.224096 
L 421.709836 259.657978 
L 421.991752 258.26617 
L 422.13271 258.162367 
L 426.079535 260.808553 
L 430.167318 263.279494 
L 431.013066 263.88418 
L 434.818933 266.716059 
L 438.765758 269.373416 
L 440.175339 270.258778 
L 441.162045 258.044038 
L 441.443961 256.726749 
L 441.584919 256.660003 
L 445.10887 259.919327 
L 448.632821 263.173354 
L 452.156772 266.616815 
L 455.821681 269.880944 
L 456.244555 270.238098 
L 457.231261 258.240847 
L 457.513177 256.984688 
L 457.654135 256.94834 
L 461.037128 260.780262 
L 467.803113 268.263464 
L 469.776526 270.407948 
L 470.763232 258.624324 
L 471.045148 257.428208 
L 471.186106 257.421719 
L 474.428141 261.758181 
L 477.811134 265.912651 
L 481.757959 270.447948 
L 482.744665 258.881214 
L 483.026581 257.74606 
L 483.167539 257.769886 
L 486.409574 262.774011 
L 489.651609 267.37661 
L 491.906937 270.358782 
L 492.893644 258.794289 
L 493.17556 257.659765 
L 493.316518 257.683904 
L 496.558553 262.694928 
L 498.109091 264.947324 
L 498.109091 264.947324 
" style="fill:none;stroke:#0000ff;stroke-dasharray:6.475,2.8;stroke-dashoffset:0;stroke-width:1.75;"/>
   </g>
   <g id="line2d_30">
    <path clip-path="url(#p3209017f6a)" d="M 92.290909 270.361167 
L 93.700489 272.797435 
L 94.123364 269.389099 
L 94.264322 269.045167 
L 94.40528 269.094932 
L 95.11007 270.346956 
L 95.532944 266.965208 
L 95.673902 266.630076 
L 95.81486 266.688607 
L 96.237734 267.468661 
L 96.660608 264.118144 
L 96.801566 263.793346 
L 96.942524 263.862175 
L 97.788272 265.474823 
L 98.211147 262.14594 
L 98.352105 261.828301 
L 98.493063 261.904263 
L 98.915937 262.73623 
L 99.338811 258.465166 
L 99.620727 257.466692 
L 99.761685 257.558487 
L 100.325517 258.728522 
L 100.607433 256.161201 
L 100.889349 255.179424 
L 101.030307 255.279521 
L 101.312223 255.883181 
L 102.017013 248.404415 
L 102.29893 247.47885 
L 102.439888 247.6069 
L 102.721804 248.266162 
L 103.144678 244.152105 
L 103.426594 243.257356 
L 103.567552 243.400729 
L 104.131384 244.775218 
L 104.4133 242.309013 
L 104.695216 241.42762 
L 104.836174 241.577636 
L 105.259048 242.630156 
L 105.540964 240.179496 
L 105.82288 239.313535 
L 105.963838 239.471224 
L 106.386713 240.5466 
L 106.668629 238.111039 
L 106.950545 237.260068 
L 107.091503 237.425212 
L 107.796293 239.24788 
L 108.360125 233.647392 
L 108.642041 232.828768 
L 108.782999 233.009997 
L 110.051621 236.235903 
L 110.333538 233.78159 
L 110.615454 232.912002 
L 110.756412 233.067888 
L 111.461202 234.844771 
L 112.025034 229.208248 
L 112.30695 228.371802 
L 112.447908 228.544169 
L 112.729824 229.291584 
L 113.01174 226.887595 
L 113.293656 226.067966 
L 113.434614 226.248696 
L 113.71653 227.012745 
L 113.998446 224.62527 
L 114.280362 223.822037 
L 114.421321 224.010919 
L 114.844195 225.179195 
L 115.126111 222.805008 
L 115.408027 222.014965 
L 115.548985 222.210407 
L 115.830901 223.003721 
L 116.394733 217.538195 
L 116.676649 216.78632 
L 116.958565 217.417031 
L 117.099523 217.831809 
L 117.522397 213.973128 
L 117.804313 213.247088 
L 118.086229 213.903447 
L 118.79102 216.025646 
L 119.072936 213.717792 
L 119.354852 212.993603 
L 119.636768 213.651799 
L 120.059642 214.932476 
L 120.623474 209.583508 
L 120.90539 208.889278 
L 121.187306 209.577218 
L 121.469222 210.462082 
L 121.751138 208.194546 
L 122.033054 207.510382 
L 122.31497 208.208314 
L 122.878803 209.991398 
L 123.583593 203.215239 
L 123.865509 202.567159 
L 124.147425 203.300913 
L 124.288383 203.766933 
L 124.852215 198.579206 
L 125.134131 197.964723 
L 125.416047 198.73183 
L 127.107544 204.212113 
L 127.530418 200.426761 
L 127.812334 199.749165 
L 128.09425 200.453617 
L 128.79904 202.694528 
L 129.080956 200.433558 
L 129.362872 199.755913 
L 129.644788 200.460316 
L 130.067662 201.809677 
L 130.490536 198.050393 
L 130.772453 197.390017 
L 131.054369 198.111566 
L 131.195327 198.571515 
L 131.759159 193.359729 
L 132.041075 192.733346 
L 132.322991 193.48864 
L 132.745865 194.913647 
L 133.450655 188.285533 
L 133.732571 187.695922 
L 134.014487 188.487721 
L 134.155445 188.982605 
L 134.719278 183.909293 
L 134.860236 183.433257 
L 135.001194 183.351395 
L 135.28311 184.174678 
L 135.565026 185.193905 
L 135.9879 181.61491 
L 136.128858 181.147202 
L 136.269816 181.073639 
L 136.551732 181.913429 
L 136.69269 182.432177 
L 137.115564 178.883148 
L 137.256522 178.425356 
L 137.39748 178.361673 
L 137.679396 179.221116 
L 138.807061 183.395957 
L 139.088977 181.27484 
L 139.229935 180.808366 
L 139.370893 180.736033 
L 139.652809 181.578269 
L 140.357599 184.159288 
L 140.639515 182.032639 
L 140.780473 181.563415 
L 140.921431 181.488341 
L 141.203347 182.325125 
L 141.344305 182.842379 
L 141.626221 180.725274 
L 141.767179 180.260795 
L 141.908137 180.19045 
L 142.190053 181.036639 
L 142.331011 181.558571 
L 142.894844 176.592469 
L 143.035802 176.117952 
L 143.17676 176.037604 
L 143.458676 176.863897 
L 143.599634 177.375935 
L 144.163466 172.370615 
L 144.304424 171.911423 
L 144.445382 171.846345 
L 144.727298 172.703011 
L 144.868256 173.230152 
L 145.573046 166.868446 
L 145.714004 166.429226 
L 145.854962 166.384048 
L 146.136878 167.280299 
L 146.277836 167.827124 
L 146.559752 165.76884 
L 146.70071 165.333612 
L 146.841669 165.292411 
L 147.123585 166.196573 
L 148.251249 170.547073 
L 148.533165 168.469077 
L 148.674123 168.024047 
L 148.815081 167.97308 
L 149.096997 168.857816 
L 149.237955 169.398915 
L 149.519871 167.32924 
L 149.660829 166.888347 
L 149.801787 166.841503 
L 150.083703 167.734438 
L 150.506577 169.364039 
L 150.929452 165.881955 
L 151.07041 165.446316 
L 151.211368 165.404706 
L 151.493284 166.308054 
L 151.634242 166.858408 
L 151.916158 164.807144 
L 152.057116 164.375407 
L 152.198074 164.337684 
L 152.47999 165.248765 
L 152.620948 165.802964 
L 152.902864 163.759348 
L 153.043822 163.331415 
L 153.18478 163.297482 
L 153.466696 164.2161 
L 153.607654 164.774049 
L 153.88957 162.737889 
L 154.030528 162.313663 
L 154.171486 162.283425 
L 154.453402 163.209392 
L 154.59436 163.770995 
L 155.017235 160.349597 
L 155.158193 159.934041 
L 155.299151 159.91244 
L 155.581067 160.855589 
L 156.003941 162.559829 
L 156.285857 160.539715 
L 156.426815 160.123469 
L 156.567773 160.10118 
L 156.849689 161.042962 
L 158.259269 166.645503 
L 158.541185 164.595781 
L 158.682143 164.164811 
L 158.823101 164.127853 
L 159.105018 165.040454 
L 159.386934 166.148351 
L 159.66885 164.102232 
L 159.809808 163.673054 
L 159.950766 163.612974 
L 160.232682 164.479582 
L 160.37364 165.011667 
L 160.655556 162.924062 
L 160.796514 162.474253 
L 160.937472 162.418525 
L 161.219388 163.293789 
L 161.360346 163.830178 
L 161.642262 161.751135 
L 161.78322 161.305584 
L 161.924178 161.254098 
L 162.206094 162.1378 
L 162.347052 162.678386 
L 162.769926 159.194393 
L 162.910884 158.758123 
L 163.051842 158.715884 
L 163.333759 159.617981 
L 163.615675 160.71545 
L 164.179507 155.851638 
L 164.320465 155.427502 
L 164.461423 155.397353 
L 164.743339 156.323498 
L 164.884297 156.88519 
L 165.307171 153.464056 
L 165.448129 153.048587 
L 165.589087 153.027073 
L 165.871003 153.970395 
L 166.152919 155.108791 
L 166.434835 153.09295 
L 166.575793 152.678828 
L 166.716751 152.658657 
L 166.998667 153.604649 
L 167.139626 154.176209 
L 167.703458 149.406831 
L 167.844416 149.00609 
L 167.985374 148.99925 
L 168.26729 149.971761 
L 168.549206 151.139135 
L 168.831122 149.152061 
L 168.97208 148.752244 
L 169.113038 148.746326 
L 169.394954 149.72067 
L 169.535912 150.306329 
L 169.817828 148.32529 
L 169.958786 147.928475 
L 170.099744 147.925547 
L 170.38166 148.905839 
L 170.804534 150.665288 
L 171.08645 148.681648 
L 171.227409 148.283539 
L 171.368367 148.279323 
L 171.650283 149.257051 
L 171.791241 149.844393 
L 172.073157 147.866702 
L 172.214115 147.471551 
L 172.355073 147.470282 
L 172.636989 148.453873 
L 172.918905 149.632246 
L 173.200821 147.656092 
L 173.341779 147.261706 
L 173.482737 147.261198 
L 173.764653 148.246305 
L 174.187527 150.01291 
L 174.751359 145.303654 
L 174.892317 144.917808 
L 175.033275 144.925809 
L 175.315192 145.927839 
L 175.597108 147.124517 
L 175.879024 145.166536 
L 176.019982 144.781187 
L 176.16094 144.789684 
L 176.442856 145.792701 
L 176.583814 146.392619 
L 176.86573 144.414901 
L 177.006688 144.007239 
L 177.147646 143.993504 
L 177.429562 144.9523 
L 177.57052 145.530227 
L 178.27531 139.419701 
L 178.416268 139.030172 
L 178.557226 139.034504 
L 178.839142 140.029236 
L 179.121058 141.218669 
L 179.543933 137.892674 
L 179.684891 137.508688 
L 179.825849 137.518542 
L 180.107765 138.52426 
L 180.248723 139.125522 
L 181.235429 130.458068 
L 181.376387 130.101069 
L 181.517345 130.137814 
L 181.799261 131.197018 
L 182.363093 133.694812 
L 182.645009 131.784162 
L 182.785967 131.42235 
L 182.926925 131.454298 
L 183.208841 132.503962 
L 183.490758 133.74793 
L 183.772674 131.836895 
L 183.913632 131.474891 
L 184.05459 131.506649 
L 184.336506 132.555934 
L 184.477464 133.17886 
L 184.75938 131.271949 
L 184.900338 130.911996 
L 185.041296 130.945796 
L 185.323212 131.999146 
L 185.746086 133.86719 
L 186.028002 131.955291 
L 186.16896 131.592857 
L 186.309918 131.624186 
L 186.591834 132.672619 
L 186.87375 133.915365 
L 187.155666 132.003117 
L 187.296624 131.640509 
L 187.437582 131.671666 
L 187.719499 132.719755 
L 188.283331 135.195559 
L 188.565247 133.274033 
L 188.706205 132.906813 
L 188.847163 132.933372 
L 189.129079 133.972318 
L 189.551953 135.818952 
L 189.833869 133.892909 
L 189.974827 133.523442 
L 190.115785 133.547763 
L 190.397701 134.582257 
L 190.679617 135.811163 
L 190.961533 133.885177 
L 191.102491 133.515738 
L 191.243449 133.540087 
L 191.525365 134.574636 
L 191.94824 136.414735 
L 192.230156 134.484374 
L 192.371114 134.11276 
L 192.512072 134.134942 
L 192.793988 135.16518 
L 192.934946 135.778635 
L 193.216862 133.852884 
L 193.35782 133.483562 
L 193.498778 133.508028 
L 193.780694 134.517902 
L 194.203568 136.284167 
L 194.485484 134.305028 
L 194.626442 133.909158 
L 194.7674 133.907172 
L 195.049316 134.889337 
L 195.190274 135.478886 
L 195.47219 133.505584 
L 195.613149 133.112615 
L 195.754107 133.113521 
L 196.036023 134.101437 
L 196.317939 135.284105 
L 196.881771 130.588841 
L 197.022729 130.206461 
L 197.163687 130.217915 
L 197.445603 131.226816 
L 197.727519 132.430315 
L 198.009435 130.479105 
L 198.150393 130.097123 
L 198.291351 130.108974 
L 198.573267 131.118664 
L 198.996141 132.921811 
L 199.419015 129.61139 
L 199.559973 129.232558 
L 199.700932 129.247548 
L 199.982848 130.26348 
L 200.123806 130.869821 
L 200.405722 128.929919 
L 200.54668 128.553561 
L 200.687638 128.571015 
L 200.969554 129.59185 
L 201.392428 131.411564 
L 201.674344 129.467737 
L 201.815302 129.089426 
L 201.95626 129.104936 
L 202.238176 130.121901 
L 202.379134 130.728756 
L 202.66105 128.789877 
L 202.802008 128.414026 
L 202.942966 128.431988 
L 203.224882 129.45383 
L 203.506798 130.670178 
L 203.929673 127.384188 
L 204.070631 127.01344 
L 204.211589 127.036485 
L 204.493505 128.068441 
L 205.057337 130.512328 
L 205.480211 127.22805 
L 205.621169 126.85787 
L 205.762127 126.88148 
L 206.044043 127.914558 
L 206.325959 129.14206 
L 206.607875 127.21468 
L 206.748833 126.844547 
L 206.889791 126.868206 
L 207.171707 127.901381 
L 207.312665 128.516296 
L 207.735539 125.253676 
L 207.876498 124.890662 
L 208.017456 124.921413 
L 208.299372 125.968696 
L 208.581288 127.2103 
L 208.863204 125.296918 
L 209.004162 124.933747 
L 209.14512 124.964342 
L 209.427036 126.011313 
L 209.567994 126.633089 
L 209.84991 124.72389 
L 209.990868 124.362799 
L 210.131826 124.395467 
L 210.413742 125.446561 
L 210.836616 127.261262 
L 211.118532 125.29752 
L 211.25949 124.909306 
L 211.400448 124.914948 
L 211.682364 125.912287 
L 212.246197 128.287691 
L 212.669071 124.952701 
L 212.810029 124.565739 
L 212.950987 124.572629 
L 213.232903 125.572448 
L 213.514819 126.766932 
L 213.796735 124.806772 
L 213.937693 124.420339 
L 214.078651 124.427757 
L 214.360567 125.428626 
L 214.501525 126.027476 
L 214.783441 124.072675 
L 214.924399 123.688907 
L 215.065357 123.698979 
L 215.347273 124.705129 
L 216.33398 128.869889 
L 216.756854 125.528583 
L 216.897812 125.13953 
L 217.03877 125.144337 
L 217.320686 126.140013 
L 217.884518 128.512128 
L 218.44835 123.815039 
L 218.589308 123.432207 
L 218.730266 123.443211 
L 219.012182 124.451215 
L 219.294098 125.653824 
L 219.85793 120.998012 
L 219.998889 120.625405 
L 220.139847 120.646598 
L 220.421763 121.674868 
L 220.844637 123.505635 
L 221.126553 121.569109 
L 221.267511 121.194429 
L 221.408469 121.213556 
L 221.690385 122.237718 
L 221.831343 122.848151 
L 222.113259 120.91639 
L 222.254217 120.544079 
L 222.395175 120.565567 
L 222.677091 121.594425 
L 223.099965 123.426064 
L 223.522839 120.143825 
L 223.663797 119.774319 
L 223.804755 119.798601 
L 224.086672 120.833017 
L 224.22763 121.448549 
L 224.509546 119.52693 
L 224.650504 119.159663 
L 224.791462 119.186177 
L 225.073378 120.22503 
L 225.214336 120.842769 
L 225.496252 118.925541 
L 225.63721 118.560457 
L 225.778168 118.589145 
L 226.060084 119.632326 
L 226.342 120.869856 
L 227.328706 112.315404 
L 227.469664 111.974314 
L 227.610622 112.001869 
L 227.892538 113.042795 
L 228.174455 114.278088 
L 228.597329 111.020258 
L 228.738287 110.658829 
L 228.879245 110.69116 
L 229.161161 111.741584 
L 229.724993 114.222008 
L 230.006909 112.302767 
L 230.147867 111.936683 
L 230.288825 111.964375 
L 230.570741 113.005572 
L 230.852657 114.241134 
L 231.134573 112.321755 
L 231.275531 111.955602 
L 231.416489 111.983225 
L 231.698405 113.024286 
L 231.980321 114.259712 
L 232.262238 112.340199 
L 232.403196 111.973978 
L 232.544154 112.001535 
L 232.82607 113.042463 
L 232.967028 113.661233 
L 233.248944 111.746057 
L 233.389902 111.381993 
L 233.53086 111.411698 
L 233.812776 112.456901 
L 233.953734 113.077797 
L 234.23565 111.166848 
L 234.376608 110.804887 
L 234.517566 110.836687 
L 234.799482 111.886057 
L 235.222356 113.748186 
L 235.927146 107.838095 
L 236.068104 107.488217 
L 236.209062 107.532057 
L 236.490979 108.605374 
L 236.913853 110.5031 
L 237.759601 103.341275 
L 237.900559 103.00772 
L 238.041517 103.067824 
L 238.323433 104.173493 
L 239.169181 108.044007 
L 239.451097 106.169537 
L 239.592055 105.825716 
L 239.733013 105.875591 
L 240.014929 106.960912 
L 240.155887 107.601759 
L 240.437804 105.730494 
L 240.578762 105.388266 
L 240.71972 105.439729 
L 241.001636 106.528209 
L 241.283552 107.810711 
L 241.565468 105.937932 
L 241.706426 105.594952 
L 241.847384 105.645664 
L 242.1293 106.732652 
L 242.693132 109.28541 
L 242.975048 107.401944 
L 243.116006 107.053649 
L 243.256964 107.099066 
L 243.53888 108.175522 
L 243.679838 108.811959 
L 243.961754 106.931924 
L 244.102712 106.585336 
L 244.24367 106.632453 
L 244.666545 108.300685 
L 245.089419 105.033262 
L 245.230377 104.668659 
L 245.371335 104.697827 
L 245.653251 105.741959 
L 246.076125 107.596304 
L 246.639957 103.002555 
L 246.780915 102.645323 
L 246.921873 102.681835 
L 247.203789 103.740577 
L 247.344747 104.368206 
L 248.049537 98.503495 
L 248.190495 98.162595 
L 248.331453 98.215379 
L 248.61337 99.306489 
L 248.754328 99.950213 
L 249.036244 98.084674 
L 249.177202 97.745294 
L 249.31816 97.799593 
L 249.600076 98.893716 
L 249.741034 99.538939 
L 250.163908 96.366585 
L 250.304866 96.033442 
L 250.445824 96.093955 
L 250.72774 97.200438 
L 250.868698 97.851808 
L 251.150614 96.001475 
L 251.291572 95.669657 
L 251.43253 95.73149 
L 251.714446 96.8406 
L 251.855404 97.493276 
L 252.278278 94.343119 
L 252.419236 94.017321 
L 252.560195 94.085153 
L 252.842111 95.206193 
L 253.124027 96.52102 
L 253.405943 94.680331 
L 253.546901 94.353308 
L 253.687859 94.41992 
L 253.969775 95.538535 
L 254.392649 97.503592 
L 254.674565 95.655782 
L 254.815523 95.325219 
L 254.956481 95.388303 
L 255.238397 96.4999 
L 255.943187 99.745812 
L 256.507019 95.265432 
L 256.647978 94.936285 
L 256.788936 95.000781 
L 257.070852 96.115186 
L 257.21181 96.770495 
L 257.493726 94.927998 
L 257.634684 94.600077 
L 257.775642 94.665793 
L 258.057558 95.782626 
L 258.480432 97.745034 
L 258.762348 95.895475 
L 258.903306 95.564041 
L 259.044264 95.626258 
L 259.32618 96.736131 
L 259.749054 98.688193 
L 260.03097 96.831799 
L 260.171928 96.496967 
L 260.312886 96.555797 
L 260.594802 97.658934 
L 261.299593 100.883962 
L 261.581509 98.961664 
L 261.722467 98.59406 
L 261.863425 98.620237 
L 262.145341 99.658421 
L 262.286299 100.275828 
L 262.568215 98.357937 
L 262.709173 97.992524 
L 262.850131 98.020885 
L 263.132047 99.063413 
L 263.836837 102.138835 
L 264.259711 98.863421 
L 264.400669 98.496173 
L 264.541627 98.522706 
L 264.823544 99.561597 
L 265.246418 101.408151 
L 265.669292 98.140665 
L 265.81025 97.776041 
L 265.951208 97.805188 
L 266.233124 98.849279 
L 266.374082 99.469622 
L 266.655998 97.557574 
L 266.796956 97.195066 
L 266.937914 97.226322 
L 267.21983 98.274608 
L 267.360788 98.897038 
L 267.783662 95.656799 
L 267.92462 95.301191 
L 268.065578 95.339321 
L 268.347494 96.401282 
L 268.488452 97.030511 
L 268.770368 95.136139 
L 268.911327 94.782421 
L 269.052285 94.822434 
L 269.334201 95.888141 
L 269.898033 98.398798 
L 270.179949 96.49451 
L 270.320907 96.135861 
L 270.461865 96.170962 
L 270.743781 97.226896 
L 271.025697 98.477088 
L 271.448571 95.241405 
L 271.589529 94.887305 
L 271.730487 94.926938 
L 272.012403 95.991887 
L 272.153361 96.622603 
L 272.435277 94.731187 
L 272.576235 94.378939 
L 272.717193 94.420417 
L 272.99911 95.489036 
L 273.281026 96.751822 
L 273.7039 93.53486 
L 273.844858 93.186955 
L 273.985816 93.232759 
L 274.267732 94.309986 
L 274.40869 94.946807 
L 274.690606 93.067535 
L 274.831564 92.721326 
L 274.972522 92.768821 
L 275.254438 93.84941 
L 275.959228 97.018781 
L 276.241144 95.124493 
L 276.382102 94.770818 
L 276.52306 94.810873 
L 276.804976 95.876663 
L 277.932641 100.86205 
L 278.496473 96.216207 
L 278.637431 95.833661 
L 278.778389 95.844952 
L 279.060305 96.853525 
L 279.201263 97.456205 
L 279.483179 95.509024 
L 279.624137 95.129046 
L 279.765095 95.142894 
L 280.047011 96.156554 
L 280.328927 97.364779 
L 280.610843 95.418261 
L 280.751801 95.038612 
L 280.892759 95.052788 
L 281.174676 96.067101 
L 281.315634 96.672637 
L 281.59755 94.731134 
L 281.738508 94.353979 
L 281.879466 94.370641 
L 282.161382 95.389898 
L 282.30234 95.997892 
L 282.725214 92.714659 
L 282.866172 92.344824 
L 283.00713 92.368779 
L 283.289046 93.402543 
L 283.430004 94.017751 
L 284.275752 86.766657 
L 284.41671 86.418413 
L 284.557668 86.46388 
L 284.839584 87.540436 
L 284.980542 88.176923 
L 285.262459 86.296987 
L 285.403417 85.950448 
L 285.544375 85.997614 
L 285.826291 87.077548 
L 286.531081 90.245304 
L 286.812997 88.350379 
L 286.953955 87.996386 
L 287.094913 88.036126 
L 287.376829 89.101287 
L 288.081619 92.232578 
L 288.363535 90.323252 
L 288.504493 89.962097 
L 288.645451 89.994701 
L 288.927367 91.04567 
L 289.068325 91.669433 
L 289.350242 89.764187 
L 289.4912 89.405062 
L 289.632158 89.439688 
L 289.914074 90.494679 
L 290.19599 91.743934 
L 290.477906 89.838149 
L 290.618864 89.478755 
L 290.759822 89.513114 
L 291.041738 90.567572 
L 291.182696 91.193071 
L 291.464612 89.291277 
L 291.60557 88.933869 
L 291.746528 88.970205 
L 292.028444 90.028598 
L 292.169402 90.656053 
L 293.297067 80.865863 
L 293.438025 80.539039 
L 293.578983 80.605849 
L 293.860899 81.724856 
L 294.001857 82.382454 
L 294.565689 77.954112 
L 294.706647 77.637857 
L 294.847605 77.715198 
L 295.270479 79.498127 
L 295.975269 82.678154 
L 296.257185 80.788075 
L 296.398143 80.436492 
L 296.539101 80.478633 
L 296.821017 81.548571 
L 296.961975 82.181768 
L 297.243892 80.295286 
L 297.38485 79.945492 
L 297.525808 79.989415 
L 297.807724 81.062898 
L 298.08964 82.330513 
L 298.371556 80.442953 
L 298.512514 80.092623 
L 298.653472 80.136012 
L 298.935388 81.208433 
L 299.217304 82.474993 
L 299.49922 80.586386 
L 299.640178 80.235535 
L 299.781136 80.278406 
L 300.063052 81.349795 
L 301.049758 85.739189 
L 301.754549 79.837914 
L 301.895507 79.48978 
L 302.036465 79.535357 
L 302.318381 80.612131 
L 302.741255 82.514995 
L 303.305087 77.985119 
L 303.446045 77.643711 
L 303.587003 77.695989 
L 303.868919 78.786092 
L 304.150835 80.070206 
L 304.573709 76.884946 
L 304.714667 76.547531 
L 304.855625 76.603789 
L 305.137541 77.701807 
L 305.701374 80.276387 
L 305.98329 78.403713 
L 306.124248 78.060786 
L 306.265206 78.11155 
L 306.547122 79.198642 
L 307.533828 83.642106 
L 307.815744 81.745041 
L 307.956702 81.389985 
L 308.09766 81.428664 
L 308.379576 82.491718 
L 308.661492 83.748978 
L 309.366282 77.883563 
L 309.507241 77.542524 
L 309.648199 77.595169 
L 309.930115 78.686003 
L 310.071073 79.329591 
L 310.352989 77.463778 
L 310.493947 77.124263 
L 310.634905 77.178427 
L 310.916821 78.272281 
L 311.057779 78.91737 
L 311.621611 74.439448 
L 311.762569 74.11091 
L 311.903527 74.176013 
L 312.326401 75.89781 
L 312.608317 74.007143 
L 312.749275 73.655268 
L 312.890233 73.697117 
L 313.172149 74.766476 
L 313.595024 76.658317 
L 314.017898 73.435627 
L 314.158856 73.085826 
L 314.299814 73.129743 
L 314.58173 74.203213 
L 315.004604 76.101166 
L 315.28652 74.209025 
L 315.427478 73.856417 
L 315.568436 73.897536 
L 315.850352 74.965442 
L 316.555142 78.103508 
L 316.837058 76.196857 
L 316.978016 75.837033 
L 317.118974 75.870962 
L 317.40089 76.924568 
L 320.361009 89.585418 
L 321.488673 94.15991 
L 321.77059 92.136901 
L 321.911548 91.719216 
L 322.052506 91.695493 
L 322.334422 92.634421 
L 322.47538 93.202469 
L 322.757296 91.1864 
L 322.898254 90.772164 
L 323.039212 90.751879 
L 323.321128 91.697646 
L 323.603044 92.838468 
L 324.166876 88.060424 
L 324.307834 87.657535 
L 324.448792 87.648556 
L 324.730708 88.616812 
L 324.871666 89.199444 
L 325.29454 85.840677 
L 325.435498 85.445846 
L 325.576456 85.444896 
L 325.858373 86.429121 
L 325.999331 87.019694 
L 327.549869 72.950498 
L 327.690827 72.602458 
L 327.831785 72.648129 
L 328.113701 73.725089 
L 328.536575 75.62823 
L 328.818491 73.739517 
L 328.959449 73.388613 
L 329.100407 73.406389 
L 329.382323 74.427863 
L 329.805198 76.248528 
L 330.087114 74.305329 
L 330.228072 73.92733 
L 330.36903 73.943151 
L 330.650946 74.960735 
L 330.932862 76.172856 
L 331.355736 72.880583 
L 331.496694 72.507756 
L 331.637652 72.528729 
L 331.919568 73.556564 
L 332.060526 74.168823 
L 332.342442 72.240695 
L 332.4834 71.870191 
L 332.624358 71.893479 
L 332.906274 72.925917 
L 333.047232 73.540466 
L 333.329148 71.616891 
L 333.470106 71.248651 
L 333.611064 71.274195 
L 333.892981 72.311121 
L 334.033939 72.927902 
L 334.456813 69.670838 
L 334.597771 69.309662 
L 334.738729 69.342245 
L 335.020645 70.393171 
L 336.853099 78.327546 
L 337.416931 73.659434 
L 337.557889 73.28378 
L 337.698847 73.301937 
L 337.980764 74.324168 
L 338.121722 74.933641 
L 338.403638 72.99997 
L 338.544596 72.62671 
L 338.685554 72.647252 
L 338.96747 73.674228 
L 339.531302 76.108263 
L 339.954176 72.816691 
L 340.095134 72.444096 
L 340.236092 72.465301 
L 340.518008 73.493595 
L 340.658966 74.106083 
L 341.08184 70.836235 
L 341.222798 70.47083 
L 341.363756 70.499197 
L 341.645672 71.541739 
L 341.78663 72.161313 
L 342.491421 66.256758 
L 342.632379 65.907975 
L 342.773337 65.952906 
L 343.055253 67.028394 
L 343.337169 68.297999 
L 343.619085 66.412415 
L 343.760043 66.063067 
L 343.901001 66.107435 
L 344.182917 67.181803 
L 344.323875 67.817203 
L 344.887707 63.300872 
L 345.028665 62.962819 
L 345.169623 63.01844 
L 345.451539 64.115194 
L 345.733455 65.40591 
L 346.15633 62.293286 
L 346.297288 61.990359 
L 346.438246 62.08098 
L 346.720162 63.24735 
L 346.86112 63.9285 
L 347.143036 62.137404 
L 347.283994 61.835043 
L 347.424952 61.926228 
L 347.706868 63.093719 
L 348.552616 67.147027 
L 348.97549 64.046752 
L 349.116448 63.73746 
L 349.257406 63.821738 
L 349.539322 64.975494 
L 349.821238 66.322798 
L 350.103155 64.514351 
L 350.244113 64.203362 
L 350.385071 64.285949 
L 350.666987 65.43634 
L 350.807945 66.109545 
L 351.230819 63.020527 
L 351.371777 62.71496 
L 351.512735 62.80295 
L 351.794651 63.964089 
L 352.217525 65.992353 
L 352.499441 64.186301 
L 352.640399 63.876503 
L 352.781357 63.960277 
L 353.063273 65.113028 
L 353.345189 66.459336 
L 353.768063 63.366522 
L 353.909021 63.0597 
L 354.049979 63.146438 
L 354.331896 64.305087 
L 354.472854 64.982398 
L 354.75477 63.183665 
L 354.895728 62.877506 
L 355.036686 62.964906 
L 355.318602 64.124871 
L 355.45956 64.802835 
L 355.741476 63.005403 
L 355.882434 62.699892 
L 356.023392 62.787937 
L 356.305308 63.949184 
L 356.587224 65.303925 
L 356.86914 63.502862 
L 357.010098 63.195545 
L 357.151056 63.28179 
L 357.432972 64.439458 
L 357.57393 65.116281 
L 357.855846 63.316578 
L 357.996804 63.009937 
L 358.137762 63.096856 
L 358.419679 64.255864 
L 358.560637 64.933354 
L 358.842553 63.134976 
L 358.983511 62.828994 
L 359.124469 62.91657 
L 359.406385 64.076885 
L 359.547343 64.755024 
L 359.970217 61.680703 
L 360.111175 61.38 
L 360.252133 61.472836 
L 360.534049 62.643613 
L 362.084587 70.025419 
L 362.507462 66.893912 
L 362.64842 66.574285 
L 362.789378 66.648266 
L 363.212252 68.540292 
L 363.635126 70.612967 
L 363.917042 68.836253 
L 364.058 68.541044 
L 364.198958 68.639354 
L 364.621832 70.509777 
L 364.76279 71.196033 
L 365.044706 69.415094 
L 365.185664 69.117784 
L 365.326622 69.214001 
L 365.749496 71.078188 
L 366.313328 66.765146 
L 366.454287 66.477456 
L 366.595245 66.583256 
L 367.018119 68.475989 
L 367.581951 71.235473 
L 367.863867 69.454249 
L 368.004825 69.156796 
L 368.145783 69.252871 
L 368.568657 71.116637 
L 368.850573 69.336273 
L 368.991531 69.039249 
L 369.132489 69.135751 
L 369.555363 71.000787 
L 369.978237 67.952761 
L 370.119195 67.660759 
L 370.260153 67.762265 
L 370.683028 69.642204 
L 371.105902 71.702922 
L 371.387818 69.91831 
L 371.528776 69.619173 
L 371.669734 69.71357 
L 371.95165 70.887451 
L 372.65644 74.287107 
L 372.938356 72.483767 
L 373.079314 72.175318 
L 373.220272 72.260436 
L 373.502188 73.415861 
L 374.206978 76.769958 
L 374.488895 74.948626 
L 374.629853 74.631229 
L 374.770811 74.707432 
L 375.052727 75.845124 
L 375.193685 76.512013 
L 375.475601 74.692551 
L 375.616559 74.376084 
L 375.757517 74.453212 
L 376.039433 75.592747 
L 376.180391 76.260552 
L 376.462307 74.442911 
L 376.603265 74.127351 
L 376.744223 74.205382 
L 377.026139 75.346713 
L 377.308055 76.681682 
L 377.589971 74.86099 
L 377.730929 74.543911 
L 377.871887 74.620431 
L 378.153803 75.758754 
L 378.576678 77.753104 
L 378.858594 75.924648 
L 378.999552 75.603708 
L 379.14051 75.676381 
L 379.422426 76.807051 
L 379.704342 78.131438 
L 380.127216 75.099704 
L 380.268174 74.813093 
L 380.409132 74.919971 
L 380.832006 76.815909 
L 381.25488 78.892453 
L 381.536796 77.118295 
L 381.677754 76.824357 
L 381.818712 76.923934 
L 382.241586 78.798128 
L 382.382544 79.485633 
L 382.664461 77.707176 
L 382.805419 77.411101 
L 382.946377 77.508548 
L 383.369251 79.376399 
L 383.510209 80.061804 
L 384.355957 73.226577 
L 384.496915 72.946766 
L 384.637873 73.060418 
L 385.060747 74.976533 
L 385.342663 76.376741 
L 385.624579 74.620814 
L 385.765537 74.335942 
L 385.906495 74.444551 
L 386.329369 76.345648 
L 386.470327 77.042055 
L 386.893202 74.022141 
L 387.03416 73.739443 
L 387.175118 73.850217 
L 387.597992 75.757763 
L 387.879908 77.152309 
L 388.161824 75.390762 
L 388.302782 75.103095 
L 388.44374 75.20892 
L 388.866614 77.101723 
L 389.430446 79.861301 
L 389.712362 78.080122 
L 389.85332 77.782693 
L 389.994278 77.878791 
L 390.417152 79.742625 
L 390.55811 80.426701 
L 391.262901 74.841165 
L 391.403859 74.555493 
L 391.544817 74.663306 
L 391.967691 76.562029 
L 392.108649 77.257651 
L 392.390565 75.49534 
L 392.531523 75.207294 
L 392.672481 75.31274 
L 393.095355 77.204417 
L 393.800145 80.64579 
L 394.082061 78.858926 
L 394.223019 78.55867 
L 394.363977 78.651951 
L 394.645893 79.823613 
L 395.491642 83.889253 
L 395.773558 82.078885 
L 395.914516 81.76694 
L 396.055474 81.848575 
L 396.33739 82.997073 
L 396.760264 85.038017 
L 397.04218 83.282146 
L 397.183138 82.997303 
L 397.324096 83.10594 
L 397.74697 85.00712 
L 398.028886 86.397462 
L 398.733676 80.860546 
L 398.874635 80.584493 
L 399.015593 80.701889 
L 399.438467 82.629154 
L 399.861341 79.642681 
L 400.002299 79.371049 
L 400.143257 79.49285 
L 400.566131 81.433234 
L 400.848047 79.703487 
L 400.989005 79.431633 
L 401.129963 79.553214 
L 401.552837 81.492943 
L 401.975711 78.518799 
L 402.116669 78.251246 
L 402.257627 78.377111 
L 402.680501 80.329602 
L 402.962418 78.607852 
L 403.103376 78.339976 
L 403.244334 78.46552 
L 403.667208 80.417051 
L 404.090082 82.548584 
L 404.371998 80.810754 
L 404.512956 80.534881 
L 404.653914 80.652457 
L 405.076788 82.580259 
L 405.217746 83.285503 
L 406.063494 76.567805 
L 406.204452 76.307334 
L 406.34541 76.440256 
L 406.768284 78.413762 
L 407.050201 79.851884 
L 407.332117 78.133596 
L 407.473075 77.867442 
L 407.614033 77.9947 
L 408.036907 79.95134 
L 409.023613 84.900689 
L 409.446487 81.889569 
L 409.587445 81.609781 
L 409.728403 81.723455 
L 410.151277 83.639636 
L 411.137984 88.496281 
L 411.560858 85.446147 
L 411.701816 85.153448 
L 411.842774 85.254259 
L 412.265648 87.132129 
L 412.547564 85.361083 
L 412.688522 85.068693 
L 412.82948 85.169811 
L 413.252354 87.048598 
L 413.53427 85.278157 
L 413.675228 85.017402 
L 413.816186 85.150042 
L 414.23906 87.122706 
L 414.520976 88.560272 
L 414.802892 86.841432 
L 414.94385 86.575003 
L 415.084808 86.701988 
L 415.507683 88.657813 
L 415.930557 85.69959 
L 416.071515 85.437306 
L 416.212473 85.568421 
L 416.635347 87.536545 
L 417.058221 84.590489 
L 417.199179 84.33223 
L 417.340137 84.467357 
L 417.763011 86.447428 
L 418.044927 87.889888 
L 418.326843 86.175906 
L 418.467801 85.911893 
L 418.608759 86.041285 
L 419.031633 88.004279 
L 419.595466 83.821313 
L 419.736424 83.565847 
L 419.877382 83.703756 
L 420.300256 85.692113 
L 420.72313 87.860072 
L 421.005046 86.146307 
L 421.146004 85.882401 
L 421.286962 86.0119 
L 421.709836 87.975213 
L 422.555584 92.238333 
L 422.8375 90.492839 
L 422.978458 90.213155 
L 423.119416 90.326934 
L 423.542291 92.243427 
L 424.669955 97.784655 
L 424.951871 95.998968 
L 425.092829 95.699297 
L 425.233787 95.793162 
L 425.515703 96.965984 
L 425.797619 98.332218 
L 426.079535 96.542563 
L 426.220493 96.240919 
L 426.361451 96.332817 
L 426.643367 97.501729 
L 429.462528 110.689448 
L 429.744444 108.810243 
L 429.885402 108.464067 
L 430.02636 108.511596 
L 430.308276 109.592251 
L 431.154024 113.545011 
L 431.435941 111.707935 
L 431.576899 111.38271 
L 431.717857 111.451112 
L 431.999773 112.573288 
L 433.550311 119.694014 
L 433.832227 117.812378 
L 433.973185 117.464993 
L 434.114143 117.511317 
L 434.396059 118.589576 
L 435.100849 121.753196 
L 435.664682 117.208052 
L 435.80564 116.862861 
L 435.946598 116.91137 
L 436.228514 117.993977 
L 436.933304 121.168329 
L 437.21522 119.276009 
L 437.356178 118.923312 
L 437.497136 118.964342 
L 437.779052 120.032071 
L 437.92001 120.664169 
L 438.483842 116.134751 
L 438.6248 115.793456 
L 438.765758 115.845848 
L 439.047674 116.936176 
L 439.32959 118.220513 
L 439.611507 116.349555 
L 439.752465 116.007481 
L 439.893423 116.059095 
L 440.175339 117.147878 
L 440.316297 117.790446 
L 441.303003 109.40797 
L 441.443961 109.091093 
L 441.584919 109.167814 
L 441.866835 110.306536 
L 442.007793 110.973938 
L 442.289709 109.155494 
L 442.430667 108.839534 
L 442.571625 108.917168 
L 442.853541 110.057707 
L 443.69929 114.031323 
L 444.122164 110.891849 
L 444.263122 110.569586 
L 444.40408 110.64094 
L 444.685996 111.768987 
L 445.249828 114.402973 
L 445.531744 112.55968 
L 445.672702 112.231363 
L 445.81366 112.296685 
L 446.095576 113.412733 
L 447.646114 120.563097 
L 447.928031 118.737719 
L 448.068989 118.41831 
L 448.209947 118.492508 
L 448.491863 119.626212 
L 451.451981 133.093849 
L 451.733898 131.177663 
L 451.874856 130.813097 
L 452.015814 130.842302 
L 452.29773 131.88651 
L 452.438688 132.506912 
L 452.861562 129.260633 
L 453.00252 128.903026 
L 453.143478 128.939165 
L 453.425394 129.997164 
L 453.70731 131.249407 
L 454.130184 128.016772 
L 454.271142 127.663681 
L 454.4121 127.704318 
L 454.694016 128.771267 
L 454.834974 129.402976 
L 455.11689 127.513537 
L 455.257848 127.162272 
L 455.398806 127.20473 
L 455.680722 128.275298 
L 455.821681 128.908809 
L 456.526471 123.073183 
L 456.667429 122.738037 
L 456.808387 122.796554 
L 457.090303 123.899068 
L 457.231261 124.548464 
L 458.217967 116.213095 
L 458.358925 115.90285 
L 458.499883 115.986179 
L 458.781799 117.138047 
L 458.922757 117.811985 
L 459.345631 114.725152 
L 459.486589 114.420309 
L 459.627547 114.50902 
L 459.909464 115.671591 
L 460.19138 117.027648 
L 460.614254 113.949326 
L 460.755212 113.647299 
L 460.89617 113.738816 
L 461.178086 114.906969 
L 461.319044 115.589006 
L 461.741918 112.526294 
L 461.882876 112.229433 
L 462.023834 112.326096 
L 462.446708 114.191615 
L 462.869582 111.144065 
L 463.01054 110.852221 
L 463.151498 110.953884 
L 463.574372 112.834292 
L 464.279163 107.288307 
L 464.420121 107.041928 
L 464.561079 107.18889 
L 464.983953 109.204214 
L 465.406827 106.304843 
L 465.547785 106.062034 
L 465.688743 106.212554 
L 466.111617 108.238471 
L 466.252575 108.976183 
L 466.675449 106.079287 
L 466.816407 105.837296 
L 466.957365 105.988632 
L 467.380239 108.016978 
L 467.662155 109.491329 
L 467.944071 107.809009 
L 468.08503 107.56074 
L 468.225988 107.705819 
L 468.648862 109.715533 
L 468.78982 110.447883 
L 469.071736 108.758631 
L 469.212694 108.506915 
L 469.353652 108.648559 
L 469.776526 110.648045 
L 470.058442 108.957341 
L 470.1994 108.704904 
L 470.340358 108.84583 
L 470.763232 110.843175 
L 471.186106 107.926021 
L 471.327064 107.677327 
L 471.468022 107.821983 
L 471.890896 109.830437 
L 472.736645 114.182374 
L 473.159519 111.228989 
L 473.300477 110.968305 
L 473.441435 111.101015 
L 473.864309 113.07389 
L 474.287183 115.226535 
L 474.569099 113.502653 
L 474.710057 113.233716 
L 474.851015 113.358202 
L 475.273889 115.306586 
L 475.555805 113.582123 
L 475.696763 113.312898 
L 475.837721 113.437097 
L 476.260596 115.384624 
L 476.824428 118.216246 
L 477.106344 116.470697 
L 477.247302 116.190986 
L 477.38826 116.304738 
L 477.811134 118.22115 
L 478.234008 120.317946 
L 478.79784 116.043376 
L 478.938798 115.765217 
L 479.079756 115.880514 
L 479.50263 117.801529 
L 479.925504 114.808874 
L 480.066462 114.535195 
L 480.207421 114.654957 
L 480.630295 116.58927 
L 481.053169 113.609769 
L 481.194127 113.340443 
L 481.335085 113.496011 
L 481.757959 115.536963 
L 481.898917 116.27965 
L 482.603707 110.983994 
L 482.744665 110.755669 
L 482.885623 110.920619 
L 483.308497 112.989515 
L 483.731371 115.237139 
L 484.013287 113.576003 
L 484.154245 113.338268 
L 484.295204 113.493844 
L 484.718078 115.534819 
L 484.999994 113.871526 
L 485.140952 113.632718 
L 485.28191 113.787225 
L 485.704784 115.825017 
L 485.9867 117.305608 
L 486.409574 114.412397 
L 486.550532 114.171627 
L 486.69149 114.324177 
L 487.114364 116.356143 
L 487.537238 118.567238 
L 487.819154 116.881969 
L 487.960112 116.632234 
L 488.10107 116.775853 
L 488.523945 118.781217 
L 489.087777 121.688978 
L 489.369693 119.981087 
L 489.510651 119.720102 
L 489.651609 119.852512 
L 490.074483 121.824492 
L 490.356399 120.115619 
L 490.497357 119.854146 
L 490.638315 119.986069 
L 491.061189 121.956601 
L 491.343105 123.392757 
L 491.625021 121.672519 
L 491.765979 121.405394 
L 491.906937 121.531686 
L 492.329811 123.485447 
L 492.47077 124.199282 
L 492.893644 121.231271 
L 493.034602 120.965748 
L 493.17556 121.093636 
L 493.598434 123.05215 
L 493.739392 123.767558 
L 494.021308 122.044603 
L 494.162266 121.776128 
L 494.303224 121.901074 
L 494.726098 123.850827 
L 495.008014 122.127269 
L 495.148972 121.858494 
L 495.28993 121.983141 
L 495.712804 123.932004 
L 495.99472 125.353845 
L 496.276636 123.619395 
L 496.417594 123.345203 
L 496.558553 123.464454 
L 496.981427 125.397243 
L 497.263343 123.662479 
L 497.404301 123.388131 
L 497.545259 123.507226 
L 497.968133 125.439551 
L 498.109091 124.373858 
L 498.109091 124.373858 
" style="fill:none;stroke:#55a868;stroke-linecap:round;stroke-width:1.75;"/>
   </g>
   <g id="patch_3">
    <path d="M 72 352.44 
L 72 47.52 
" style="fill:none;"/>
   </g>
   <g id="patch_4">
    <path d="M 518.4 352.44 
L 518.4 47.52 
" style="fill:none;"/>
   </g>
   <g id="patch_5">
    <path d="M 72 352.44 
L 518.4 352.44 
" style="fill:none;"/>
   </g>
   <g id="patch_6">
    <path d="M 72 47.52 
L 518.4 47.52 
" style="fill:none;"/>
   </g>
   <g id="text_16">
    <!-- 24 Hour HVAC House Temperature -->
    <defs>
     <path d="M 8.015625 0 
L 8.015625 71.578125 
L 17.484375 71.578125 
L 17.484375 42.1875 
L 54.6875 42.1875 
L 54.6875 71.578125 
L 64.15625 71.578125 
L 64.15625 0 
L 54.6875 0 
L 54.6875 33.734375 
L 17.484375 33.734375 
L 17.484375 0 
z
" id="ArialMT-72"/>
     <path d="M 28.171875 0 
L 0.4375 71.578125 
L 10.6875 71.578125 
L 29.296875 19.578125 
Q 31.546875 13.328125 33.0625 7.859375 
Q 34.71875 13.71875 36.921875 19.578125 
L 56.25 71.578125 
L 65.921875 71.578125 
L 37.890625 0 
z
" id="ArialMT-86"/>
     <path d="M -0.140625 0 
L 27.34375 71.578125 
L 37.546875 71.578125 
L 66.84375 0 
L 56.0625 0 
L 47.703125 21.6875 
L 17.78125 21.6875 
L 9.90625 0 
z
M 20.515625 29.390625 
L 44.78125 29.390625 
L 37.3125 49.21875 
Q 33.890625 58.25 32.234375 64.0625 
Q 30.859375 57.171875 28.375 50.390625 
z
" id="ArialMT-65"/>
     <path d="M 3.078125 15.484375 
L 11.765625 16.84375 
Q 12.5 11.625 15.84375 8.84375 
Q 19.1875 6.0625 25.203125 6.0625 
Q 31.25 6.0625 34.171875 8.515625 
Q 37.109375 10.984375 37.109375 14.3125 
Q 37.109375 17.28125 34.515625 19 
Q 32.71875 20.171875 25.53125 21.96875 
Q 15.875 24.421875 12.140625 26.203125 
Q 8.40625 27.984375 6.46875 31.125 
Q 4.546875 34.28125 4.546875 38.09375 
Q 4.546875 41.546875 6.125 44.5 
Q 7.71875 47.46875 10.453125 49.421875 
Q 12.5 50.921875 16.03125 51.96875 
Q 19.578125 53.03125 23.640625 53.03125 
Q 29.734375 53.03125 34.34375 51.265625 
Q 38.96875 49.515625 41.15625 46.5 
Q 43.359375 43.5 44.1875 38.484375 
L 35.59375 37.3125 
Q 35.015625 41.3125 32.203125 43.546875 
Q 29.390625 45.796875 24.265625 45.796875 
Q 18.21875 45.796875 15.625 43.796875 
Q 13.03125 41.796875 13.03125 39.109375 
Q 13.03125 37.40625 14.109375 36.03125 
Q 15.1875 34.625 17.484375 33.6875 
Q 18.796875 33.203125 25.25 31.453125 
Q 34.578125 28.953125 38.25 27.359375 
Q 41.9375 25.78125 44.03125 22.75 
Q 46.140625 19.734375 46.140625 15.234375 
Q 46.140625 10.84375 43.578125 6.953125 
Q 41.015625 3.078125 36.171875 0.953125 
Q 31.34375 -1.171875 25.25 -1.171875 
Q 15.140625 -1.171875 9.84375 3.03125 
Q 4.546875 7.234375 3.078125 15.484375 
z
" id="ArialMT-115"/>
    </defs>
    <g style="fill:#262626;" transform="translate(137.392187 41.52)scale(0.2 -0.2)">
     <use xlink:href="#ArialMT-50"/>
     <use x="55.615234" xlink:href="#ArialMT-52"/>
     <use x="111.230469" xlink:href="#ArialMT-32"/>
     <use x="139.013672" xlink:href="#ArialMT-72"/>
     <use x="211.230469" xlink:href="#ArialMT-111"/>
     <use x="266.845703" xlink:href="#ArialMT-117"/>
     <use x="322.460938" xlink:href="#ArialMT-114"/>
     <use x="355.761719" xlink:href="#ArialMT-32"/>
     <use x="383.544922" xlink:href="#ArialMT-72"/>
     <use x="455.761719" xlink:href="#ArialMT-86"/>
     <use x="522.351562" xlink:href="#ArialMT-65"/>
     <use x="589.050781" xlink:href="#ArialMT-67"/>
     <use x="661.267578" xlink:href="#ArialMT-32"/>
     <use x="689.050781" xlink:href="#ArialMT-72"/>
     <use x="761.267578" xlink:href="#ArialMT-111"/>
     <use x="816.882812" xlink:href="#ArialMT-117"/>
     <use x="872.498047" xlink:href="#ArialMT-115"/>
     <use x="922.498047" xlink:href="#ArialMT-101"/>
     <use x="978.113281" xlink:href="#ArialMT-32"/>
     <use x="1005.880859" xlink:href="#ArialMT-84"/>
     <use x="1066.792969" xlink:href="#ArialMT-101"/>
     <use x="1122.408203" xlink:href="#ArialMT-109"/>
     <use x="1205.708984" xlink:href="#ArialMT-112"/>
     <use x="1261.324219" xlink:href="#ArialMT-101"/>
     <use x="1316.939453" xlink:href="#ArialMT-114"/>
     <use x="1350.240234" xlink:href="#ArialMT-97"/>
     <use x="1405.855469" xlink:href="#ArialMT-116"/>
     <use x="1433.638672" xlink:href="#ArialMT-117"/>
     <use x="1489.253906" xlink:href="#ArialMT-114"/>
     <use x="1522.554688" xlink:href="#ArialMT-101"/>
    </g>
   </g>
   <g id="legend_1">
    <g id="line2d_31">
     <path d="M 328.025 309.54 
L 348.025 309.54 
" style="fill:none;stroke:#c44e52;stroke-linecap:round;stroke-width:1.75;"/>
    </g>
    <g id="line2d_32"/>
    <g id="text_17">
     <!-- Outdoor Temp -->
     <defs>
      <path d="M 4.828125 34.859375 
Q 4.828125 52.6875 14.390625 62.765625 
Q 23.96875 72.859375 39.109375 72.859375 
Q 49.03125 72.859375 56.984375 68.109375 
Q 64.9375 63.375 69.109375 54.90625 
Q 73.296875 46.4375 73.296875 35.6875 
Q 73.296875 24.8125 68.890625 16.21875 
Q 64.5 7.625 56.4375 3.203125 
Q 48.390625 -1.21875 39.0625 -1.21875 
Q 28.953125 -1.21875 20.984375 3.65625 
Q 13.03125 8.546875 8.921875 16.984375 
Q 4.828125 25.4375 4.828125 34.859375 
z
M 14.59375 34.71875 
Q 14.59375 21.78125 21.546875 14.328125 
Q 28.515625 6.890625 39.015625 6.890625 
Q 49.703125 6.890625 56.609375 14.40625 
Q 63.53125 21.921875 63.53125 35.75 
Q 63.53125 44.484375 60.578125 51 
Q 57.625 57.515625 51.921875 61.109375 
Q 46.234375 64.703125 39.15625 64.703125 
Q 29.109375 64.703125 21.84375 57.78125 
Q 14.59375 50.875 14.59375 34.71875 
z
" id="ArialMT-79"/>
     </defs>
     <g style="fill:#262626;" transform="translate(356.025 313.04)scale(0.1 -0.1)">
      <use xlink:href="#ArialMT-79"/>
      <use x="77.783203" xlink:href="#ArialMT-117"/>
      <use x="133.398438" xlink:href="#ArialMT-116"/>
      <use x="161.181641" xlink:href="#ArialMT-100"/>
      <use x="216.796875" xlink:href="#ArialMT-111"/>
      <use x="272.412109" xlink:href="#ArialMT-111"/>
      <use x="328.027344" xlink:href="#ArialMT-114"/>
      <use x="361.328125" xlink:href="#ArialMT-32"/>
      <use x="389.095703" xlink:href="#ArialMT-84"/>
      <use x="450.007812" xlink:href="#ArialMT-101"/>
      <use x="505.623047" xlink:href="#ArialMT-109"/>
      <use x="588.923828" xlink:href="#ArialMT-112"/>
     </g>
    </g>
    <g id="line2d_33">
     <path d="M 328.025 323.807187 
L 348.025 323.807187 
" style="fill:none;stroke:#0000ff;stroke-dasharray:6.475,2.8;stroke-dashoffset:0;stroke-width:1.75;"/>
    </g>
    <g id="line2d_34"/>
    <g id="text_18">
     <!-- Standard Thermostat Indoor Temp -->
     <defs>
      <path d="M 4.5 23 
L 13.421875 23.78125 
Q 14.0625 18.40625 16.375 14.96875 
Q 18.703125 11.53125 23.578125 9.40625 
Q 28.46875 7.28125 34.578125 7.28125 
Q 39.984375 7.28125 44.140625 8.890625 
Q 48.296875 10.5 50.3125 13.296875 
Q 52.34375 16.109375 52.34375 19.4375 
Q 52.34375 22.796875 50.390625 25.3125 
Q 48.4375 27.828125 43.953125 29.546875 
Q 41.0625 30.671875 31.203125 33.03125 
Q 21.34375 35.40625 17.390625 37.5 
Q 12.25 40.1875 9.734375 44.15625 
Q 7.234375 48.140625 7.234375 53.078125 
Q 7.234375 58.5 10.296875 63.203125 
Q 13.375 67.921875 19.28125 70.359375 
Q 25.203125 72.796875 32.421875 72.796875 
Q 40.375 72.796875 46.453125 70.234375 
Q 52.546875 67.671875 55.8125 62.6875 
Q 59.078125 57.71875 59.328125 51.421875 
L 50.25 50.734375 
Q 49.515625 57.515625 45.28125 60.984375 
Q 41.0625 64.453125 32.8125 64.453125 
Q 24.21875 64.453125 20.28125 61.296875 
Q 16.359375 58.15625 16.359375 53.71875 
Q 16.359375 49.859375 19.140625 47.359375 
Q 21.875 44.875 33.421875 42.265625 
Q 44.96875 39.65625 49.265625 37.703125 
Q 55.515625 34.8125 58.484375 30.390625 
Q 61.46875 25.984375 61.46875 20.21875 
Q 61.46875 14.5 58.203125 9.4375 
Q 54.9375 4.390625 48.796875 1.578125 
Q 42.671875 -1.21875 35.015625 -1.21875 
Q 25.296875 -1.21875 18.71875 1.609375 
Q 12.15625 4.4375 8.421875 10.125 
Q 4.6875 15.828125 4.5 23 
z
" id="ArialMT-83"/>
      <path d="M 6.59375 0 
L 6.59375 51.859375 
L 14.5 51.859375 
L 14.5 44.484375 
Q 20.21875 53.03125 31 53.03125 
Q 35.6875 53.03125 39.625 51.34375 
Q 43.5625 49.65625 45.515625 46.921875 
Q 47.46875 44.1875 48.25 40.4375 
Q 48.734375 37.984375 48.734375 31.890625 
L 48.734375 0 
L 39.9375 0 
L 39.9375 31.546875 
Q 39.9375 36.921875 38.90625 39.578125 
Q 37.890625 42.234375 35.28125 43.8125 
Q 32.671875 45.40625 29.15625 45.40625 
Q 23.53125 45.40625 19.453125 41.84375 
Q 15.375 38.28125 15.375 28.328125 
L 15.375 0 
z
" id="ArialMT-110"/>
      <path d="M 6.59375 0 
L 6.59375 71.578125 
L 15.375 71.578125 
L 15.375 45.90625 
Q 21.53125 53.03125 30.90625 53.03125 
Q 36.671875 53.03125 40.921875 50.75 
Q 45.171875 48.484375 47 44.484375 
Q 48.828125 40.484375 48.828125 32.859375 
L 48.828125 0 
L 40.046875 0 
L 40.046875 32.859375 
Q 40.046875 39.453125 37.1875 42.453125 
Q 34.328125 45.453125 29.109375 45.453125 
Q 25.203125 45.453125 21.75 43.421875 
Q 18.3125 41.40625 16.84375 37.9375 
Q 15.375 34.46875 15.375 28.375 
L 15.375 0 
z
" id="ArialMT-104"/>
      <path d="M 9.328125 0 
L 9.328125 71.578125 
L 18.796875 71.578125 
L 18.796875 0 
z
" id="ArialMT-73"/>
     </defs>
     <g style="fill:#262626;" transform="translate(356.025 327.307187)scale(0.1 -0.1)">
      <use xlink:href="#ArialMT-83"/>
      <use x="66.699219" xlink:href="#ArialMT-116"/>
      <use x="94.482422" xlink:href="#ArialMT-97"/>
      <use x="150.097656" xlink:href="#ArialMT-110"/>
      <use x="205.712891" xlink:href="#ArialMT-100"/>
      <use x="261.328125" xlink:href="#ArialMT-97"/>
      <use x="316.943359" xlink:href="#ArialMT-114"/>
      <use x="350.244141" xlink:href="#ArialMT-100"/>
      <use x="405.859375" xlink:href="#ArialMT-32"/>
      <use x="433.626953" xlink:href="#ArialMT-84"/>
      <use x="494.710938" xlink:href="#ArialMT-104"/>
      <use x="550.326172" xlink:href="#ArialMT-101"/>
      <use x="605.941406" xlink:href="#ArialMT-114"/>
      <use x="639.242188" xlink:href="#ArialMT-109"/>
      <use x="722.542969" xlink:href="#ArialMT-111"/>
      <use x="778.158203" xlink:href="#ArialMT-115"/>
      <use x="828.158203" xlink:href="#ArialMT-116"/>
      <use x="855.941406" xlink:href="#ArialMT-97"/>
      <use x="911.556641" xlink:href="#ArialMT-116"/>
      <use x="939.339844" xlink:href="#ArialMT-32"/>
      <use x="967.123047" xlink:href="#ArialMT-73"/>
      <use x="994.90625" xlink:href="#ArialMT-110"/>
      <use x="1050.521484" xlink:href="#ArialMT-100"/>
      <use x="1106.136719" xlink:href="#ArialMT-111"/>
      <use x="1161.751953" xlink:href="#ArialMT-111"/>
      <use x="1217.367188" xlink:href="#ArialMT-114"/>
      <use x="1250.667969" xlink:href="#ArialMT-32"/>
      <use x="1278.435547" xlink:href="#ArialMT-84"/>
      <use x="1339.347656" xlink:href="#ArialMT-101"/>
      <use x="1394.962891" xlink:href="#ArialMT-109"/>
      <use x="1478.263672" xlink:href="#ArialMT-112"/>
     </g>
    </g>
    <g id="line2d_35">
     <path d="M 328.025 337.9525 
L 348.025 337.9525 
" style="fill:none;stroke:#55a868;stroke-linecap:round;stroke-width:1.75;"/>
    </g>
    <g id="line2d_36"/>
    <g id="text_19">
     <!-- RL Indoor Temp -->
     <defs>
      <path d="M 7.859375 0 
L 7.859375 71.578125 
L 39.59375 71.578125 
Q 49.171875 71.578125 54.140625 69.640625 
Q 59.125 67.71875 62.109375 62.828125 
Q 65.09375 57.953125 65.09375 52.046875 
Q 65.09375 44.4375 60.15625 39.203125 
Q 55.21875 33.984375 44.921875 32.5625 
Q 48.6875 30.765625 50.640625 29 
Q 54.78125 25.203125 58.5 19.484375 
L 70.953125 0 
L 59.03125 0 
L 49.5625 14.890625 
Q 45.40625 21.34375 42.71875 24.75 
Q 40.046875 28.171875 37.921875 29.53125 
Q 35.796875 30.90625 33.59375 31.453125 
Q 31.984375 31.78125 28.328125 31.78125 
L 17.328125 31.78125 
L 17.328125 0 
z
M 17.328125 39.984375 
L 37.703125 39.984375 
Q 44.1875 39.984375 47.84375 41.328125 
Q 51.515625 42.671875 53.421875 45.625 
Q 55.328125 48.578125 55.328125 52.046875 
Q 55.328125 57.125 51.640625 60.390625 
Q 47.953125 63.671875 39.984375 63.671875 
L 17.328125 63.671875 
z
" id="ArialMT-82"/>
      <path d="M 7.328125 0 
L 7.328125 71.578125 
L 16.796875 71.578125 
L 16.796875 8.453125 
L 52.046875 8.453125 
L 52.046875 0 
z
" id="ArialMT-76"/>
     </defs>
     <g style="fill:#262626;" transform="translate(356.025 341.4525)scale(0.1 -0.1)">
      <use xlink:href="#ArialMT-82"/>
      <use x="72.216797" xlink:href="#ArialMT-76"/>
      <use x="127.785156" xlink:href="#ArialMT-32"/>
      <use x="155.568359" xlink:href="#ArialMT-73"/>
      <use x="183.351562" xlink:href="#ArialMT-110"/>
      <use x="238.966797" xlink:href="#ArialMT-100"/>
      <use x="294.582031" xlink:href="#ArialMT-111"/>
      <use x="350.197266" xlink:href="#ArialMT-111"/>
      <use x="405.8125" xlink:href="#ArialMT-114"/>
      <use x="439.113281" xlink:href="#ArialMT-32"/>
      <use x="466.880859" xlink:href="#ArialMT-84"/>
      <use x="527.792969" xlink:href="#ArialMT-101"/>
      <use x="583.408203" xlink:href="#ArialMT-109"/>
      <use x="666.708984" xlink:href="#ArialMT-112"/>
     </g>
    </g>
   </g>
  </g>
 </g>
 <defs>
  <clipPath id="p3209017f6a">
   <rect height="304.92" width="446.4" x="72" y="47.52"/>
  </clipPath>
 </defs>
</svg>
