<?xml version="1.0" encoding="utf-8" standalone="no"?>
<!DOCTYPE svg PUBLIC "-//W3C//DTD SVG 1.1//EN"
  "http://www.w3.org/Graphics/SVG/1.1/DTD/svg11.dtd">
<!-- Created with matplotlib (https://matplotlib.org/) -->
<svg height="396pt" version="1.1" viewBox="0 0 576 396" width="576pt" xmlns="http://www.w3.org/2000/svg" xmlns:xlink="http://www.w3.org/1999/xlink">
 <defs>
  <style type="text/css">
*{stroke-linecap:butt;stroke-linejoin:round;}
  </style>
 </defs>
 <g id="figure_1">
  <g id="patch_1">
   <path d="M 0 396 
L 576 396 
L 576 0 
L 0 0 
z
" style="fill:#ffffff;"/>
  </g>
  <g id="axes_1">
   <g id="patch_2">
    <path d="M 72 352.44 
L 518.4 352.44 
L 518.4 47.52 
L 72 47.52 
z
" style="fill:#eaeaf2;"/>
   </g>
   <g id="matplotlib.axis_1">
    <g id="xtick_1">
     <g id="line2d_1">
      <path clip-path="url(#p6b14520f77)" d="M 92.290909 352.44 
L 92.290909 47.52 
" style="fill:none;stroke:#ffffff;stroke-linecap:round;"/>
     </g>
     <g id="line2d_2"/>
     <g id="text_1">
      <!-- 0:00:00 -->
      <defs>
       <path d="M 4.15625 35.296875 
Q 4.15625 48 6.765625 55.734375 
Q 9.375 63.484375 14.515625 67.671875 
Q 19.671875 71.875 27.484375 71.875 
Q 33.25 71.875 37.59375 69.546875 
Q 41.9375 67.234375 44.765625 62.859375 
Q 47.609375 58.5 49.21875 52.21875 
Q 50.828125 45.953125 50.828125 35.296875 
Q 50.828125 22.703125 48.234375 14.96875 
Q 45.65625 7.234375 40.5 3 
Q 35.359375 -1.21875 27.484375 -1.21875 
Q 17.140625 -1.21875 11.234375 6.203125 
Q 4.15625 15.140625 4.15625 35.296875 
z
M 13.1875 35.296875 
Q 13.1875 17.671875 17.3125 11.828125 
Q 21.4375 6 27.484375 6 
Q 33.546875 6 37.671875 11.859375 
Q 41.796875 17.71875 41.796875 35.296875 
Q 41.796875 52.984375 37.671875 58.78125 
Q 33.546875 64.59375 27.390625 64.59375 
Q 21.34375 64.59375 17.71875 59.46875 
Q 13.1875 52.9375 13.1875 35.296875 
z
" id="ArialMT-48"/>
       <path d="M 9.03125 41.84375 
L 9.03125 51.859375 
L 19.046875 51.859375 
L 19.046875 41.84375 
z
M 9.03125 0 
L 9.03125 10.015625 
L 19.046875 10.015625 
L 19.046875 0 
z
" id="ArialMT-58"/>
      </defs>
      <g style="fill:#262626;" transform="translate(75.61044 366.597813)scale(0.1 -0.1)">
       <use xlink:href="#ArialMT-48"/>
       <use x="55.615234" xlink:href="#ArialMT-58"/>
       <use x="83.398438" xlink:href="#ArialMT-48"/>
       <use x="139.013672" xlink:href="#ArialMT-48"/>
       <use x="194.628906" xlink:href="#ArialMT-58"/>
       <use x="222.412109" xlink:href="#ArialMT-48"/>
       <use x="278.027344" xlink:href="#ArialMT-48"/>
      </g>
     </g>
    </g>
    <g id="xtick_2">
     <g id="line2d_3">
      <path clip-path="url(#p6b14520f77)" d="M 186.262932 352.44 
L 186.262932 47.52 
" style="fill:none;stroke:#ffffff;stroke-linecap:round;"/>
     </g>
     <g id="line2d_4"/>
     <g id="text_2">
      <!-- 5:33:20 -->
      <defs>
       <path d="M 4.15625 18.75 
L 13.375 19.53125 
Q 14.40625 12.796875 18.140625 9.390625 
Q 21.875 6 27.15625 6 
Q 33.5 6 37.890625 10.78125 
Q 42.28125 15.578125 42.28125 23.484375 
Q 42.28125 31 38.0625 35.34375 
Q 33.84375 39.703125 27 39.703125 
Q 22.75 39.703125 19.328125 37.765625 
Q 15.921875 35.84375 13.96875 32.765625 
L 5.71875 33.84375 
L 12.640625 70.609375 
L 48.25 70.609375 
L 48.25 62.203125 
L 19.671875 62.203125 
L 15.828125 42.96875 
Q 22.265625 47.46875 29.34375 47.46875 
Q 38.71875 47.46875 45.15625 40.96875 
Q 51.609375 34.46875 51.609375 24.265625 
Q 51.609375 14.546875 45.953125 7.46875 
Q 39.0625 -1.21875 27.15625 -1.21875 
Q 17.390625 -1.21875 11.203125 4.25 
Q 5.03125 9.71875 4.15625 18.75 
z
" id="ArialMT-53"/>
       <path d="M 4.203125 18.890625 
L 12.984375 20.0625 
Q 14.5 12.59375 18.140625 9.296875 
Q 21.78125 6 27 6 
Q 33.203125 6 37.46875 10.296875 
Q 41.75 14.59375 41.75 20.953125 
Q 41.75 27 37.796875 30.921875 
Q 33.84375 34.859375 27.734375 34.859375 
Q 25.25 34.859375 21.53125 33.890625 
L 22.515625 41.609375 
Q 23.390625 41.5 23.921875 41.5 
Q 29.546875 41.5 34.03125 44.421875 
Q 38.53125 47.359375 38.53125 53.46875 
Q 38.53125 58.296875 35.25 61.46875 
Q 31.984375 64.65625 26.8125 64.65625 
Q 21.6875 64.65625 18.265625 61.421875 
Q 14.84375 58.203125 13.875 51.765625 
L 5.078125 53.328125 
Q 6.6875 62.15625 12.390625 67.015625 
Q 18.109375 71.875 26.609375 71.875 
Q 32.46875 71.875 37.390625 69.359375 
Q 42.328125 66.84375 44.9375 62.5 
Q 47.5625 58.15625 47.5625 53.265625 
Q 47.5625 48.640625 45.0625 44.828125 
Q 42.578125 41.015625 37.703125 38.765625 
Q 44.046875 37.3125 47.5625 32.6875 
Q 51.078125 28.078125 51.078125 21.140625 
Q 51.078125 11.765625 44.234375 5.25 
Q 37.40625 -1.265625 26.953125 -1.265625 
Q 17.53125 -1.265625 11.296875 4.34375 
Q 5.078125 9.96875 4.203125 18.890625 
z
" id="ArialMT-51"/>
       <path d="M 50.34375 8.453125 
L 50.34375 0 
L 3.03125 0 
Q 2.9375 3.171875 4.046875 6.109375 
Q 5.859375 10.9375 9.828125 15.625 
Q 13.8125 20.3125 21.34375 26.46875 
Q 33.015625 36.03125 37.109375 41.625 
Q 41.21875 47.21875 41.21875 52.203125 
Q 41.21875 57.421875 37.46875 61 
Q 33.734375 64.59375 27.734375 64.59375 
Q 21.390625 64.59375 17.578125 60.78125 
Q 13.765625 56.984375 13.71875 50.25 
L 4.6875 51.171875 
Q 5.609375 61.28125 11.65625 66.578125 
Q 17.71875 71.875 27.9375 71.875 
Q 38.234375 71.875 44.234375 66.15625 
Q 50.25 60.453125 50.25 52 
Q 50.25 47.703125 48.484375 43.546875 
Q 46.734375 39.40625 42.65625 34.8125 
Q 38.578125 30.21875 29.109375 22.21875 
Q 21.1875 15.578125 18.9375 13.203125 
Q 16.703125 10.84375 15.234375 8.453125 
z
" id="ArialMT-50"/>
      </defs>
      <g style="fill:#262626;" transform="translate(169.582463 366.597813)scale(0.1 -0.1)">
       <use xlink:href="#ArialMT-53"/>
       <use x="55.615234" xlink:href="#ArialMT-58"/>
       <use x="83.398438" xlink:href="#ArialMT-51"/>
       <use x="139.013672" xlink:href="#ArialMT-51"/>
       <use x="194.628906" xlink:href="#ArialMT-58"/>
       <use x="222.412109" xlink:href="#ArialMT-50"/>
       <use x="278.027344" xlink:href="#ArialMT-48"/>
      </g>
     </g>
    </g>
    <g id="xtick_3">
     <g id="line2d_5">
      <path clip-path="url(#p6b14520f77)" d="M 280.234955 352.44 
L 280.234955 47.52 
" style="fill:none;stroke:#ffffff;stroke-linecap:round;"/>
     </g>
     <g id="line2d_6"/>
     <g id="text_3">
      <!-- 11:06:40 -->
      <defs>
       <path d="M 37.25 0 
L 28.46875 0 
L 28.46875 56 
Q 25.296875 52.984375 20.140625 49.953125 
Q 14.984375 46.921875 10.890625 45.40625 
L 10.890625 53.90625 
Q 18.265625 57.375 23.78125 62.296875 
Q 29.296875 67.234375 31.59375 71.875 
L 37.25 71.875 
z
" id="ArialMT-49"/>
       <path d="M 49.75 54.046875 
L 41.015625 53.375 
Q 39.84375 58.546875 37.703125 60.890625 
Q 34.125 64.65625 28.90625 64.65625 
Q 24.703125 64.65625 21.53125 62.3125 
Q 17.390625 59.28125 14.984375 53.46875 
Q 12.59375 47.65625 12.5 36.921875 
Q 15.671875 41.75 20.265625 44.09375 
Q 24.859375 46.4375 29.890625 46.4375 
Q 38.671875 46.4375 44.84375 39.96875 
Q 51.03125 33.5 51.03125 23.25 
Q 51.03125 16.5 48.125 10.71875 
Q 45.21875 4.9375 40.140625 1.859375 
Q 35.0625 -1.21875 28.609375 -1.21875 
Q 17.625 -1.21875 10.6875 6.859375 
Q 3.765625 14.9375 3.765625 33.5 
Q 3.765625 54.25 11.421875 63.671875 
Q 18.109375 71.875 29.4375 71.875 
Q 37.890625 71.875 43.28125 67.140625 
Q 48.6875 62.40625 49.75 54.046875 
z
M 13.875 23.1875 
Q 13.875 18.65625 15.796875 14.5 
Q 17.71875 10.359375 21.1875 8.171875 
Q 24.65625 6 28.46875 6 
Q 34.03125 6 38.03125 10.484375 
Q 42.046875 14.984375 42.046875 22.703125 
Q 42.046875 30.125 38.078125 34.390625 
Q 34.125 38.671875 28.125 38.671875 
Q 22.171875 38.671875 18.015625 34.390625 
Q 13.875 30.125 13.875 23.1875 
z
" id="ArialMT-54"/>
       <path d="M 32.328125 0 
L 32.328125 17.140625 
L 1.265625 17.140625 
L 1.265625 25.203125 
L 33.9375 71.578125 
L 41.109375 71.578125 
L 41.109375 25.203125 
L 50.78125 25.203125 
L 50.78125 17.140625 
L 41.109375 17.140625 
L 41.109375 0 
z
M 32.328125 25.203125 
L 32.328125 57.46875 
L 9.90625 25.203125 
z
" id="ArialMT-52"/>
      </defs>
      <g style="fill:#262626;" transform="translate(260.779487 366.597813)scale(0.1 -0.1)">
       <use xlink:href="#ArialMT-49"/>
       <use x="55.505859" xlink:href="#ArialMT-49"/>
       <use x="111.121094" xlink:href="#ArialMT-58"/>
       <use x="138.904297" xlink:href="#ArialMT-48"/>
       <use x="194.519531" xlink:href="#ArialMT-54"/>
       <use x="250.134766" xlink:href="#ArialMT-58"/>
       <use x="277.917969" xlink:href="#ArialMT-52"/>
       <use x="333.533203" xlink:href="#ArialMT-48"/>
      </g>
     </g>
    </g>
    <g id="xtick_4">
     <g id="line2d_7">
      <path clip-path="url(#p6b14520f77)" d="M 374.206978 352.44 
L 374.206978 47.52 
" style="fill:none;stroke:#ffffff;stroke-linecap:round;"/>
     </g>
     <g id="line2d_8"/>
     <g id="text_4">
      <!-- 16:40:00 -->
      <g style="fill:#262626;" transform="translate(354.746041 366.597813)scale(0.1 -0.1)">
       <use xlink:href="#ArialMT-49"/>
       <use x="55.615234" xlink:href="#ArialMT-54"/>
       <use x="111.230469" xlink:href="#ArialMT-58"/>
       <use x="139.013672" xlink:href="#ArialMT-52"/>
       <use x="194.628906" xlink:href="#ArialMT-48"/>
       <use x="250.244141" xlink:href="#ArialMT-58"/>
       <use x="278.027344" xlink:href="#ArialMT-48"/>
       <use x="333.642578" xlink:href="#ArialMT-48"/>
      </g>
     </g>
    </g>
    <g id="xtick_5">
     <g id="line2d_9">
      <path clip-path="url(#p6b14520f77)" d="M 468.179002 352.44 
L 468.179002 47.52 
" style="fill:none;stroke:#ffffff;stroke-linecap:round;"/>
     </g>
     <g id="line2d_10"/>
     <g id="text_5">
      <!-- 22:13:20 -->
      <g style="fill:#262626;" transform="translate(448.718064 366.597813)scale(0.1 -0.1)">
       <use xlink:href="#ArialMT-50"/>
       <use x="55.615234" xlink:href="#ArialMT-50"/>
       <use x="111.230469" xlink:href="#ArialMT-58"/>
       <use x="139.013672" xlink:href="#ArialMT-49"/>
       <use x="194.628906" xlink:href="#ArialMT-51"/>
       <use x="250.244141" xlink:href="#ArialMT-58"/>
       <use x="278.027344" xlink:href="#ArialMT-50"/>
       <use x="333.642578" xlink:href="#ArialMT-48"/>
      </g>
     </g>
    </g>
    <g id="text_6">
     <!-- Time of day -->
     <defs>
      <path d="M 25.921875 0 
L 25.921875 63.140625 
L 2.34375 63.140625 
L 2.34375 71.578125 
L 59.078125 71.578125 
L 59.078125 63.140625 
L 35.40625 63.140625 
L 35.40625 0 
z
" id="ArialMT-84"/>
      <path d="M 6.640625 61.46875 
L 6.640625 71.578125 
L 15.4375 71.578125 
L 15.4375 61.46875 
z
M 6.640625 0 
L 6.640625 51.859375 
L 15.4375 51.859375 
L 15.4375 0 
z
" id="ArialMT-105"/>
      <path d="M 6.59375 0 
L 6.59375 51.859375 
L 14.453125 51.859375 
L 14.453125 44.578125 
Q 16.890625 48.390625 20.9375 50.703125 
Q 25 53.03125 30.171875 53.03125 
Q 35.9375 53.03125 39.625 50.640625 
Q 43.3125 48.25 44.828125 43.953125 
Q 50.984375 53.03125 60.84375 53.03125 
Q 68.5625 53.03125 72.703125 48.75 
Q 76.859375 44.484375 76.859375 35.59375 
L 76.859375 0 
L 68.109375 0 
L 68.109375 32.671875 
Q 68.109375 37.9375 67.25 40.25 
Q 66.40625 42.578125 64.15625 43.984375 
Q 61.921875 45.40625 58.890625 45.40625 
Q 53.421875 45.40625 49.796875 41.765625 
Q 46.1875 38.140625 46.1875 30.125 
L 46.1875 0 
L 37.40625 0 
L 37.40625 33.6875 
Q 37.40625 39.546875 35.25 42.46875 
Q 33.109375 45.40625 28.21875 45.40625 
Q 24.515625 45.40625 21.359375 43.453125 
Q 18.21875 41.5 16.796875 37.734375 
Q 15.375 33.984375 15.375 26.90625 
L 15.375 0 
z
" id="ArialMT-109"/>
      <path d="M 42.09375 16.703125 
L 51.171875 15.578125 
Q 49.03125 7.625 43.21875 3.21875 
Q 37.40625 -1.171875 28.375 -1.171875 
Q 17 -1.171875 10.328125 5.828125 
Q 3.65625 12.84375 3.65625 25.484375 
Q 3.65625 38.578125 10.390625 45.796875 
Q 17.140625 53.03125 27.875 53.03125 
Q 38.28125 53.03125 44.875 45.953125 
Q 51.46875 38.875 51.46875 26.03125 
Q 51.46875 25.25 51.421875 23.6875 
L 12.75 23.6875 
Q 13.234375 15.140625 17.578125 10.59375 
Q 21.921875 6.0625 28.421875 6.0625 
Q 33.25 6.0625 36.671875 8.59375 
Q 40.09375 11.140625 42.09375 16.703125 
z
M 13.234375 30.90625 
L 42.1875 30.90625 
Q 41.609375 37.453125 38.875 40.71875 
Q 34.671875 45.796875 27.984375 45.796875 
Q 21.921875 45.796875 17.796875 41.75 
Q 13.671875 37.703125 13.234375 30.90625 
z
" id="ArialMT-101"/>
      <path id="ArialMT-32"/>
      <path d="M 3.328125 25.921875 
Q 3.328125 40.328125 11.328125 47.265625 
Q 18.015625 53.03125 27.640625 53.03125 
Q 38.328125 53.03125 45.109375 46.015625 
Q 51.90625 39.015625 51.90625 26.65625 
Q 51.90625 16.65625 48.90625 10.90625 
Q 45.90625 5.171875 40.15625 2 
Q 34.421875 -1.171875 27.640625 -1.171875 
Q 16.75 -1.171875 10.03125 5.8125 
Q 3.328125 12.796875 3.328125 25.921875 
z
M 12.359375 25.921875 
Q 12.359375 15.96875 16.703125 11.015625 
Q 21.046875 6.0625 27.640625 6.0625 
Q 34.1875 6.0625 38.53125 11.03125 
Q 42.875 16.015625 42.875 26.21875 
Q 42.875 35.84375 38.5 40.796875 
Q 34.125 45.75 27.640625 45.75 
Q 21.046875 45.75 16.703125 40.8125 
Q 12.359375 35.890625 12.359375 25.921875 
z
" id="ArialMT-111"/>
      <path d="M 8.6875 0 
L 8.6875 45.015625 
L 0.921875 45.015625 
L 0.921875 51.859375 
L 8.6875 51.859375 
L 8.6875 57.375 
Q 8.6875 62.59375 9.625 65.140625 
Q 10.890625 68.5625 14.078125 70.671875 
Q 17.28125 72.796875 23.046875 72.796875 
Q 26.765625 72.796875 31.25 71.921875 
L 29.9375 64.265625 
Q 27.203125 64.75 24.75 64.75 
Q 20.75 64.75 19.09375 63.03125 
Q 17.4375 61.328125 17.4375 56.640625 
L 17.4375 51.859375 
L 27.546875 51.859375 
L 27.546875 45.015625 
L 17.4375 45.015625 
L 17.4375 0 
z
" id="ArialMT-102"/>
      <path d="M 40.234375 0 
L 40.234375 6.546875 
Q 35.296875 -1.171875 25.734375 -1.171875 
Q 19.53125 -1.171875 14.328125 2.25 
Q 9.125 5.671875 6.265625 11.796875 
Q 3.421875 17.921875 3.421875 25.875 
Q 3.421875 33.640625 6 39.96875 
Q 8.59375 46.296875 13.765625 49.65625 
Q 18.953125 53.03125 25.34375 53.03125 
Q 30.03125 53.03125 33.6875 51.046875 
Q 37.359375 49.078125 39.65625 45.90625 
L 39.65625 71.578125 
L 48.390625 71.578125 
L 48.390625 0 
z
M 12.453125 25.875 
Q 12.453125 15.921875 16.640625 10.984375 
Q 20.84375 6.0625 26.5625 6.0625 
Q 32.328125 6.0625 36.34375 10.765625 
Q 40.375 15.484375 40.375 25.140625 
Q 40.375 35.796875 36.265625 40.765625 
Q 32.171875 45.75 26.171875 45.75 
Q 20.3125 45.75 16.375 40.96875 
Q 12.453125 36.1875 12.453125 25.875 
z
" id="ArialMT-100"/>
      <path d="M 40.4375 6.390625 
Q 35.546875 2.25 31.03125 0.53125 
Q 26.515625 -1.171875 21.34375 -1.171875 
Q 12.796875 -1.171875 8.203125 3 
Q 3.609375 7.171875 3.609375 13.671875 
Q 3.609375 17.484375 5.34375 20.625 
Q 7.078125 23.78125 9.890625 25.6875 
Q 12.703125 27.59375 16.21875 28.5625 
Q 18.796875 29.25 24.03125 29.890625 
Q 34.671875 31.15625 39.703125 32.90625 
Q 39.75 34.71875 39.75 35.203125 
Q 39.75 40.578125 37.25 42.78125 
Q 33.890625 45.75 27.25 45.75 
Q 21.046875 45.75 18.09375 43.578125 
Q 15.140625 41.40625 13.71875 35.890625 
L 5.125 37.0625 
Q 6.296875 42.578125 8.984375 45.96875 
Q 11.671875 49.359375 16.75 51.1875 
Q 21.828125 53.03125 28.515625 53.03125 
Q 35.15625 53.03125 39.296875 51.46875 
Q 43.453125 49.90625 45.40625 47.53125 
Q 47.359375 45.171875 48.140625 41.546875 
Q 48.578125 39.3125 48.578125 33.453125 
L 48.578125 21.734375 
Q 48.578125 9.46875 49.140625 6.21875 
Q 49.703125 2.984375 51.375 0 
L 42.1875 0 
Q 40.828125 2.734375 40.4375 6.390625 
z
M 39.703125 26.03125 
Q 34.90625 24.078125 25.34375 22.703125 
Q 19.921875 21.921875 17.671875 20.9375 
Q 15.4375 19.96875 14.203125 18.09375 
Q 12.984375 16.21875 12.984375 13.921875 
Q 12.984375 10.40625 15.640625 8.0625 
Q 18.3125 5.71875 23.4375 5.71875 
Q 28.515625 5.71875 32.46875 7.9375 
Q 36.421875 10.15625 38.28125 14.015625 
Q 39.703125 17 39.703125 22.796875 
z
" id="ArialMT-97"/>
      <path d="M 6.203125 -19.96875 
L 5.21875 -11.71875 
Q 8.109375 -12.5 10.25 -12.5 
Q 13.1875 -12.5 14.9375 -11.515625 
Q 16.703125 -10.546875 17.828125 -8.796875 
Q 18.65625 -7.46875 20.515625 -2.25 
Q 20.75 -1.515625 21.296875 -0.09375 
L 1.609375 51.859375 
L 11.078125 51.859375 
L 21.875 21.828125 
Q 23.96875 16.109375 25.640625 9.8125 
Q 27.15625 15.875 29.25 21.625 
L 40.328125 51.859375 
L 49.125 51.859375 
L 29.390625 -0.875 
Q 26.21875 -9.421875 24.46875 -12.640625 
Q 22.125 -17 19.09375 -19.015625 
Q 16.0625 -21.046875 11.859375 -21.046875 
Q 9.328125 -21.046875 6.203125 -19.96875 
z
" id="ArialMT-121"/>
     </defs>
     <g style="fill:#262626;" transform="translate(248.190469 385.68875)scale(0.18 -0.18)">
      <use xlink:href="#ArialMT-84"/>
      <use x="61.037109" xlink:href="#ArialMT-105"/>
      <use x="83.253906" xlink:href="#ArialMT-109"/>
      <use x="166.554688" xlink:href="#ArialMT-101"/>
      <use x="222.169922" xlink:href="#ArialMT-32"/>
      <use x="249.953125" xlink:href="#ArialMT-111"/>
      <use x="305.568359" xlink:href="#ArialMT-102"/>
      <use x="333.351562" xlink:href="#ArialMT-32"/>
      <use x="361.134766" xlink:href="#ArialMT-100"/>
      <use x="416.75" xlink:href="#ArialMT-97"/>
      <use x="472.365234" xlink:href="#ArialMT-121"/>
     </g>
    </g>
   </g>
   <g id="matplotlib.axis_2">
    <g id="ytick_1">
     <g id="line2d_11">
      <path clip-path="url(#p6b14520f77)" d="M 72 335.284648 
L 518.4 335.284648 
" style="fill:none;stroke:#ffffff;stroke-linecap:round;"/>
     </g>
     <g id="line2d_12"/>
     <g id="text_7">
      <!-- 0 -->
      <g style="fill:#262626;" transform="translate(59.439062 338.863554)scale(0.1 -0.1)">
       <use xlink:href="#ArialMT-48"/>
      </g>
     </g>
    </g>
    <g id="ytick_2">
     <g id="line2d_13">
      <path clip-path="url(#p6b14520f77)" d="M 72 276.439072 
L 518.4 276.439072 
" style="fill:none;stroke:#ffffff;stroke-linecap:round;"/>
     </g>
     <g id="line2d_14"/>
     <g id="text_8">
      <!-- 10 -->
      <g style="fill:#262626;" transform="translate(53.878125 280.017978)scale(0.1 -0.1)">
       <use xlink:href="#ArialMT-49"/>
       <use x="55.615234" xlink:href="#ArialMT-48"/>
      </g>
     </g>
    </g>
    <g id="ytick_3">
     <g id="line2d_15">
      <path clip-path="url(#p6b14520f77)" d="M 72 217.593496 
L 518.4 217.593496 
" style="fill:none;stroke:#ffffff;stroke-linecap:round;"/>
     </g>
     <g id="line2d_16"/>
     <g id="text_9">
      <!-- 20 -->
      <g style="fill:#262626;" transform="translate(53.878125 221.172402)scale(0.1 -0.1)">
       <use xlink:href="#ArialMT-50"/>
       <use x="55.615234" xlink:href="#ArialMT-48"/>
      </g>
     </g>
    </g>
    <g id="ytick_4">
     <g id="line2d_17">
      <path clip-path="url(#p6b14520f77)" d="M 72 158.74792 
L 518.4 158.74792 
" style="fill:none;stroke:#ffffff;stroke-linecap:round;"/>
     </g>
     <g id="line2d_18"/>
     <g id="text_10">
      <!-- 30 -->
      <g style="fill:#262626;" transform="translate(53.878125 162.326827)scale(0.1 -0.1)">
       <use xlink:href="#ArialMT-51"/>
       <use x="55.615234" xlink:href="#ArialMT-48"/>
      </g>
     </g>
    </g>
    <g id="ytick_5">
     <g id="line2d_19">
      <path clip-path="url(#p6b14520f77)" d="M 72 99.902344 
L 518.4 99.902344 
" style="fill:none;stroke:#ffffff;stroke-linecap:round;"/>
     </g>
     <g id="line2d_20"/>
     <g id="text_11">
      <!-- 40 -->
      <g style="fill:#262626;" transform="translate(53.878125 103.481251)scale(0.1 -0.1)">
       <use xlink:href="#ArialMT-52"/>
       <use x="55.615234" xlink:href="#ArialMT-48"/>
      </g>
     </g>
    </g>
    <g id="text_12">
     <!-- Temperature (C°) -->
     <defs>
      <path d="M 6.59375 -19.875 
L 6.59375 51.859375 
L 14.59375 51.859375 
L 14.59375 45.125 
Q 17.4375 49.078125 21 51.046875 
Q 24.5625 53.03125 29.640625 53.03125 
Q 36.28125 53.03125 41.359375 49.609375 
Q 46.4375 46.1875 49.015625 39.953125 
Q 51.609375 33.734375 51.609375 26.3125 
Q 51.609375 18.359375 48.75 11.984375 
Q 45.90625 5.609375 40.453125 2.21875 
Q 35.015625 -1.171875 29 -1.171875 
Q 24.609375 -1.171875 21.109375 0.6875 
Q 17.625 2.546875 15.375 5.375 
L 15.375 -19.875 
z
M 14.546875 25.640625 
Q 14.546875 15.625 18.59375 10.84375 
Q 22.65625 6.0625 28.421875 6.0625 
Q 34.28125 6.0625 38.453125 11.015625 
Q 42.625 15.96875 42.625 26.375 
Q 42.625 36.28125 38.546875 41.203125 
Q 34.46875 46.140625 28.8125 46.140625 
Q 23.1875 46.140625 18.859375 40.890625 
Q 14.546875 35.640625 14.546875 25.640625 
z
" id="ArialMT-112"/>
      <path d="M 6.5 0 
L 6.5 51.859375 
L 14.40625 51.859375 
L 14.40625 44 
Q 17.4375 49.515625 20 51.265625 
Q 22.5625 53.03125 25.640625 53.03125 
Q 30.078125 53.03125 34.671875 50.203125 
L 31.640625 42.046875 
Q 28.421875 43.953125 25.203125 43.953125 
Q 22.3125 43.953125 20.015625 42.21875 
Q 17.71875 40.484375 16.75 37.40625 
Q 15.28125 32.71875 15.28125 27.15625 
L 15.28125 0 
z
" id="ArialMT-114"/>
      <path d="M 25.78125 7.859375 
L 27.046875 0.09375 
Q 23.34375 -0.6875 20.40625 -0.6875 
Q 15.625 -0.6875 12.984375 0.828125 
Q 10.359375 2.34375 9.28125 4.8125 
Q 8.203125 7.28125 8.203125 15.1875 
L 8.203125 45.015625 
L 1.765625 45.015625 
L 1.765625 51.859375 
L 8.203125 51.859375 
L 8.203125 64.703125 
L 16.9375 69.96875 
L 16.9375 51.859375 
L 25.78125 51.859375 
L 25.78125 45.015625 
L 16.9375 45.015625 
L 16.9375 14.703125 
Q 16.9375 10.9375 17.40625 9.859375 
Q 17.875 8.796875 18.921875 8.15625 
Q 19.96875 7.515625 21.921875 7.515625 
Q 23.390625 7.515625 25.78125 7.859375 
z
" id="ArialMT-116"/>
      <path d="M 40.578125 0 
L 40.578125 7.625 
Q 34.515625 -1.171875 24.125 -1.171875 
Q 19.53125 -1.171875 15.546875 0.578125 
Q 11.578125 2.34375 9.640625 5 
Q 7.71875 7.671875 6.9375 11.53125 
Q 6.390625 14.109375 6.390625 19.734375 
L 6.390625 51.859375 
L 15.1875 51.859375 
L 15.1875 23.09375 
Q 15.1875 16.21875 15.71875 13.8125 
Q 16.546875 10.359375 19.234375 8.375 
Q 21.921875 6.390625 25.875 6.390625 
Q 29.828125 6.390625 33.296875 8.421875 
Q 36.765625 10.453125 38.203125 13.9375 
Q 39.65625 17.4375 39.65625 24.078125 
L 39.65625 51.859375 
L 48.4375 51.859375 
L 48.4375 0 
z
" id="ArialMT-117"/>
      <path d="M 23.390625 -21.046875 
Q 16.109375 -11.859375 11.078125 0.4375 
Q 6.0625 12.75 6.0625 25.921875 
Q 6.0625 37.546875 9.8125 48.1875 
Q 14.203125 60.546875 23.390625 72.796875 
L 29.6875 72.796875 
Q 23.78125 62.640625 21.875 58.296875 
Q 18.890625 51.5625 17.1875 44.234375 
Q 15.09375 35.109375 15.09375 25.875 
Q 15.09375 2.390625 29.6875 -21.046875 
z
" id="ArialMT-40"/>
      <path d="M 58.796875 25.09375 
L 68.265625 22.703125 
Q 65.28125 11.03125 57.546875 4.90625 
Q 49.8125 -1.21875 38.625 -1.21875 
Q 27.046875 -1.21875 19.796875 3.484375 
Q 12.546875 8.203125 8.765625 17.140625 
Q 4.984375 26.078125 4.984375 36.328125 
Q 4.984375 47.515625 9.25 55.828125 
Q 13.53125 64.15625 21.40625 68.46875 
Q 29.296875 72.796875 38.765625 72.796875 
Q 49.515625 72.796875 56.828125 67.328125 
Q 64.15625 61.859375 67.046875 51.953125 
L 57.71875 49.75 
Q 55.21875 57.5625 50.484375 61.125 
Q 45.75 64.703125 38.578125 64.703125 
Q 30.328125 64.703125 24.78125 60.734375 
Q 19.234375 56.78125 16.984375 50.109375 
Q 14.75 43.453125 14.75 36.375 
Q 14.75 27.25 17.40625 20.4375 
Q 20.0625 13.625 25.671875 10.25 
Q 31.296875 6.890625 37.84375 6.890625 
Q 45.796875 6.890625 51.3125 11.46875 
Q 56.84375 16.0625 58.796875 25.09375 
z
" id="ArialMT-67"/>
      <path d="M 6.25 59.28125 
Q 6.25 64.890625 10.21875 68.84375 
Q 14.203125 72.796875 19.78125 72.796875 
Q 25.4375 72.796875 29.390625 68.84375 
Q 33.34375 64.890625 33.34375 59.28125 
Q 33.34375 53.65625 29.359375 49.671875 
Q 25.390625 45.703125 19.78125 45.703125 
Q 14.203125 45.703125 10.21875 49.65625 
Q 6.25 53.609375 6.25 59.28125 
z
M 11.578125 59.28125 
Q 11.578125 55.859375 13.984375 53.4375 
Q 16.40625 51.03125 19.828125 51.03125 
Q 23.1875 51.03125 25.609375 53.4375 
Q 28.03125 55.859375 28.03125 59.28125 
Q 28.03125 62.703125 25.609375 65.109375 
Q 23.1875 67.53125 19.828125 67.53125 
Q 16.40625 67.53125 13.984375 65.109375 
Q 11.578125 62.703125 11.578125 59.28125 
z
" id="ArialMT-176"/>
      <path d="M 12.359375 -21.046875 
L 6.0625 -21.046875 
Q 20.65625 2.390625 20.65625 25.875 
Q 20.65625 35.0625 18.5625 44.09375 
Q 16.890625 51.421875 13.921875 58.15625 
Q 12.015625 62.546875 6.0625 72.796875 
L 12.359375 72.796875 
Q 21.53125 60.546875 25.921875 48.1875 
Q 29.6875 37.546875 29.6875 25.921875 
Q 29.6875 12.75 24.625 0.4375 
Q 19.578125 -11.859375 12.359375 -21.046875 
z
" id="ArialMT-41"/>
     </defs>
     <g style="fill:#262626;" transform="translate(46.089687 270.073125)rotate(-90)scale(0.18 -0.18)">
      <use xlink:href="#ArialMT-84"/>
      <use x="60.912109" xlink:href="#ArialMT-101"/>
      <use x="116.527344" xlink:href="#ArialMT-109"/>
      <use x="199.828125" xlink:href="#ArialMT-112"/>
      <use x="255.443359" xlink:href="#ArialMT-101"/>
      <use x="311.058594" xlink:href="#ArialMT-114"/>
      <use x="344.359375" xlink:href="#ArialMT-97"/>
      <use x="399.974609" xlink:href="#ArialMT-116"/>
      <use x="427.757812" xlink:href="#ArialMT-117"/>
      <use x="483.373047" xlink:href="#ArialMT-114"/>
      <use x="516.673828" xlink:href="#ArialMT-101"/>
      <use x="572.289062" xlink:href="#ArialMT-32"/>
      <use x="600.072266" xlink:href="#ArialMT-40"/>
      <use x="633.373047" xlink:href="#ArialMT-67"/>
      <use x="705.589844" xlink:href="#ArialMT-176"/>
      <use x="745.580078" xlink:href="#ArialMT-41"/>
     </g>
    </g>
   </g>
   <g id="line2d_21">
    <path clip-path="url(#p6b14520f77)" d="M 72 217.593496 
L 518.4 217.593496 
" style="fill:none;stroke:#ffff00;stroke-dasharray:2,3.3;stroke-dashoffset:0;stroke-width:2;"/>
   </g>
   <g id="line2d_22">
    <path clip-path="url(#p6b14520f77)" d="M 92.290909 338.58 
L 109.064915 338.58 
L 109.205873 327.575877 
L 125.979879 327.575877 
L 126.120837 316.6306 
L 142.894844 316.6306 
L 143.035802 305.626478 
L 159.809808 305.626478 
L 159.950766 294.6812 
L 176.724772 294.6812 
L 176.86573 283.677078 
L 193.639736 283.677078 
L 193.780694 272.731801 
L 210.5547 272.731801 
L 210.695658 261.727678 
L 227.469664 261.727678 
L 227.610622 250.723555 
L 244.384629 250.723555 
L 244.525587 239.778278 
L 261.299593 239.778278 
L 261.440551 228.774156 
L 278.214557 228.774156 
L 278.355515 217.828878 
L 295.129521 217.828878 
L 295.270479 206.824756 
L 312.044485 206.824756 
L 312.185443 195.879479 
L 328.959449 195.879479 
L 329.100407 184.875356 
L 345.874413 184.875356 
L 346.015371 198.704066 
L 362.789378 198.704066 
L 362.930336 212.532777 
L 379.704342 212.532777 
L 379.8453 226.302641 
L 396.619306 226.302641 
L 396.760264 240.131352 
L 413.53427 240.131352 
L 413.675228 253.901216 
L 430.449234 253.901216 
L 430.590192 267.729927 
L 447.364198 267.729927 
L 447.505156 281.499791 
L 464.279163 281.499791 
L 464.420121 295.328502 
L 481.194127 295.328502 
L 481.335085 309.157212 
L 498.109091 309.157212 
L 498.109091 309.157212 
" style="fill:none;stroke:#c44e52;stroke-linecap:round;stroke-width:1.75;"/>
   </g>
   <g id="line2d_23">
    <path clip-path="url(#p6b14520f77)" d="M 92.290909 229.759068 
L 92.431867 230.154086 
L 93.418573 212.436217 
L 93.700489 210.831496 
L 93.841447 210.971966 
L 96.942524 220.783509 
L 100.043601 229.840661 
L 101.030307 212.13067 
L 101.312223 210.528164 
L 101.453181 210.669734 
L 104.554258 220.504515 
L 107.655335 229.583118 
L 107.796293 229.978775 
L 108.782999 212.265312 
L 109.064915 210.66183 
L 109.205873 210.762971 
L 112.30695 219.744497 
L 115.408027 228.03545 
L 116.112817 229.82903 
L 117.099523 211.842744 
L 117.381439 210.16258 
L 117.522397 210.265533 
L 120.623474 219.285306 
L 123.724551 227.611566 
L 124.570299 229.769113 
L 125.557005 211.784334 
L 125.838921 210.104593 
L 125.979879 210.207757 
L 129.080956 218.39041 
L 132.182033 225.943914 
L 133.873529 229.816284 
L 134.860236 211.555211 
L 135.142152 209.797813 
L 135.28311 209.862359 
L 138.384186 218.071569 
L 141.485263 225.649589 
L 143.317718 229.731283 
L 144.304424 211.19576 
L 144.58634 209.361222 
L 144.727298 209.387408 
L 147.828375 216.78705 
L 150.929452 223.617748 
L 153.88957 229.647443 
L 154.876276 211.114028 
L 155.158193 209.280082 
L 155.299151 209.306562 
L 158.400227 216.712421 
L 160.37364 220.967864 
L 163.474717 226.635544 
L 165.307171 229.777587 
L 166.293877 210.965793 
L 166.575793 209.053603 
L 166.716751 209.041175 
L 169.817828 215.625876 
L 172.918905 221.704292 
L 176.019982 227.31535 
L 177.288604 229.325582 
L 177.57052 229.719456 
L 178.557226 210.632536 
L 178.839142 208.643017 
L 178.9801 208.592134 
L 182.081177 214.365275 
L 185.323212 219.926785 
L 188.565247 225.042046 
L 191.807282 229.746862 
L 192.793988 210.659254 
L 193.075904 208.669541 
L 193.216862 208.618562 
L 194.344526 210.573538 
L 197.586561 215.561055 
L 200.828596 220.148379 
L 204.211589 224.543182 
L 207.594581 228.570677 
L 208.44033 229.523814 
L 209.427036 210.166704 
L 209.708952 208.101243 
L 209.84991 208.012596 
L 211.118532 209.937607 
L 214.501525 214.266104 
L 217.884518 218.232834 
L 221.267511 221.868034 
L 224.791462 225.332009 
L 227.610622 227.84521 
L 230.429783 229.450119 
L 231.275531 212.528684 
L 231.557447 210.286617 
L 231.698405 210.110147 
L 235.222356 213.639627 
L 238.746307 216.862381 
L 242.411216 219.917296 
L 244.666545 221.5793 
L 249.31816 223.63735 
L 254.110733 225.514629 
L 259.185222 227.264913 
L 261.581509 227.935341 
L 278.355515 228.190269 
L 284.275752 226.722638 
L 290.618864 225.380057 
L 295.693353 224.294545 
L 300.344968 222.318956 
L 305.278499 220.467193 
L 310.493947 218.749692 
L 312.467359 218.039003 
L 316.6961 215.74866 
L 321.065799 213.63037 
L 325.717415 211.622993 
L 329.523281 209.991728 
L 333.611064 207.47782 
L 336.571183 205.815973 
L 339.67226 212.666752 
L 342.068547 217.597608 
L 345.733455 214.645444 
L 346.15633 214.422639 
L 351.089861 212.544061 
L 356.305308 210.801689 
L 361.802671 209.202039 
L 363.071294 208.964224 
L 373.220272 209.78628 
L 380.127216 210.383969 
L 385.060747 212.286462 
L 390.276194 214.051015 
L 395.773558 215.671028 
L 396.901222 216.076088 
L 400.989005 218.483788 
L 405.217746 220.721216 
L 409.728403 222.853513 
L 414.098102 224.894386 
L 417.903969 227.607143 
L 420.864088 229.540416 
L 421.709836 212.685616 
L 421.991752 210.46544 
L 422.13271 210.299855 
L 425.515703 213.943958 
L 429.039654 217.416416 
L 430.872108 219.251168 
L 434.255101 223.302912 
L 437.638094 227.016021 
L 440.175339 229.595739 
L 441.162045 210.1111 
L 441.443961 208.009795 
L 441.584919 207.903323 
L 444.826954 212.70375 
L 448.491863 218.062978 
L 451.733898 223.153085 
L 454.975932 227.834767 
L 456.244555 229.562751 
L 457.231261 210.425045 
L 457.513177 208.421251 
L 457.654135 208.36327 
L 460.755212 213.9866 
L 463.997247 219.403792 
L 464.842995 220.943722 
L 467.944071 226.663028 
L 469.776526 229.833691 
L 470.763232 211.036757 
L 471.045148 209.128744 
L 471.186106 209.118392 
L 474.287183 215.746926 
L 477.38826 221.865805 
L 480.489337 227.514214 
L 481.757959 229.897498 
L 482.744665 211.446542 
L 483.026581 209.635773 
L 483.167539 209.673779 
L 486.268616 217.322874 
L 489.369693 224.383844 
L 491.906937 229.755263 
L 492.893644 211.307881 
L 493.17556 209.498117 
L 493.316518 209.536623 
L 496.417594 217.196264 
L 498.109091 221.123045 
L 498.109091 221.123045 
" style="fill:none;stroke:#0000ff;stroke-dasharray:6.475,2.8;stroke-dashoffset:0;stroke-width:1.75;"/>
   </g>
   <g id="line2d_24">
    <path clip-path="url(#p6b14520f77)" d="M 92.290909 229.759068 
L 92.713783 230.939825 
L 93.136657 225.53229 
L 93.277615 224.993374 
L 93.418573 225.082436 
L 96.51965 233.809051 
L 96.942524 228.370384 
L 97.083482 227.821166 
L 97.22444 227.899963 
L 100.325517 236.409944 
L 100.889349 237.885387 
L 101.312223 232.402489 
L 101.453181 231.838634 
L 101.594139 231.902848 
L 102.439888 234.205281 
L 102.862762 228.762314 
L 103.00372 228.211673 
L 103.144678 228.289053 
L 104.695216 232.613879 
L 105.11809 227.18818 
L 105.259048 226.643253 
L 105.400006 226.726326 
L 105.82288 227.93999 
L 106.245755 222.565004 
L 106.386713 222.036859 
L 106.527671 222.136654 
L 106.809587 222.980493 
L 107.091503 218.799819 
L 107.373419 217.148983 
L 107.514377 217.26652 
L 108.219167 219.45242 
L 108.501083 215.297313 
L 108.782999 213.671859 
L 108.923957 213.802018 
L 110.051621 217.10326 
L 112.588866 224.103037 
L 113.01174 218.650284 
L 113.152698 218.096405 
L 113.293656 218.170558 
L 113.71653 219.357656 
L 114.139404 213.956393 
L 114.280362 213.419552 
L 114.421321 213.510682 
L 117.522397 222.280942 
L 118.79102 225.671381 
L 119.213894 220.201611 
L 119.354852 219.642101 
L 119.49581 219.710643 
L 120.059642 221.26833 
L 120.482516 215.846335 
L 120.623474 215.302634 
L 120.764432 215.386929 
L 121.328264 217.007055 
L 121.751138 211.631297 
L 121.892096 211.102897 
L 122.033054 211.202436 
L 122.737845 213.299324 
L 123.160719 207.963796 
L 123.301677 207.448709 
L 123.442635 207.561513 
L 124.429341 210.578052 
L 124.711257 206.407511 
L 124.993173 204.766735 
L 125.134131 204.889275 
L 125.838921 207.099916 
L 126.261795 201.752337 
L 126.402753 201.220066 
L 126.543712 201.315749 
L 127.530418 204.214166 
L 127.953292 198.858456 
L 128.09425 198.336689 
L 128.235208 198.442839 
L 128.517124 199.29932 
L 128.79904 195.131196 
L 129.080956 193.492819 
L 129.221914 193.616551 
L 129.926704 195.833093 
L 130.20862 191.690088 
L 130.490536 190.076648 
L 130.631495 190.212781 
L 132.182033 195.169989 
L 132.463949 191.031789 
L 132.745865 189.423119 
L 132.886823 189.561625 
L 133.309697 190.940381 
L 133.591613 186.832832 
L 133.873529 185.254592 
L 134.014487 185.408229 
L 134.860236 188.240425 
L 135.142152 184.152442 
L 135.424068 182.593626 
L 135.565026 182.756922 
L 138.666102 193.050219 
L 140.216641 197.896163 
L 140.498557 193.738207 
L 140.780473 192.109925 
L 140.921431 192.238677 
L 143.317718 199.57654 
L 143.458676 199.961499 
L 143.88155 194.532532 
L 144.022508 193.986524 
L 144.163466 194.06852 
L 144.727298 195.679534 
L 145.150172 190.297028 
L 145.29113 189.766395 
L 145.432088 189.863709 
L 148.533165 198.764492 
L 148.956039 199.923993 
L 149.378913 194.495433 
L 149.519871 193.94956 
L 149.660829 194.03169 
L 149.942745 194.840393 
L 150.365619 189.466992 
L 150.506577 188.939372 
L 150.647535 189.039689 
L 150.929452 189.884568 
L 151.211368 185.704926 
L 151.493284 184.055115 
L 151.634242 184.173161 
L 152.47999 186.79451 
L 152.902864 179.958067 
L 153.18478 178.349902 
L 153.325738 178.488658 
L 155.581067 185.675116 
L 155.862983 181.525978 
L 156.144899 179.906451 
L 156.285857 180.039557 
L 157.977353 185.402185 
L 158.259269 181.255026 
L 158.541185 179.637462 
L 158.682143 179.771544 
L 160.091724 184.186826 
L 160.514598 178.81026 
L 160.655556 178.281593 
L 160.796514 178.380866 
L 161.07843 179.223669 
L 161.360346 175.041966 
L 161.642262 173.390109 
L 161.78322 173.507138 
L 162.628968 176.12246 
L 162.910884 171.963231 
L 163.192801 170.333684 
L 163.333759 170.461808 
L 163.756633 171.809645 
L 164.038549 167.68167 
L 164.320465 166.083151 
L 164.461423 166.226705 
L 165.025255 168.081722 
L 165.307171 163.980762 
L 165.589087 162.409063 
L 165.730045 162.565953 
L 166.434835 164.946486 
L 166.716751 160.868247 
L 166.998667 159.319104 
L 167.139626 159.48721 
L 170.240702 169.882023 
L 170.804534 171.684254 
L 171.08645 167.557188 
L 171.368367 165.959571 
L 171.509325 166.103573 
L 172.073157 167.960369 
L 172.355073 163.860288 
L 172.636989 162.289462 
L 172.777947 162.446787 
L 174.892317 169.466803 
L 175.174233 165.355806 
L 175.45615 163.774142 
L 175.597108 163.926077 
L 176.019982 165.34483 
L 176.301898 161.263704 
L 176.583814 159.711694 
L 176.724772 159.878376 
L 178.557226 165.594844 
L 178.839142 161.432161 
L 179.121058 159.799187 
L 179.262016 159.925606 
L 182.222135 169.024438 
L 182.645009 163.692992 
L 182.785967 163.179255 
L 182.926925 163.293404 
L 184.195548 167.169692 
L 184.618422 160.308027 
L 184.900338 158.683199 
L 185.041296 158.813669 
L 185.323212 159.718527 
L 185.605128 155.598429 
L 185.887044 154.00773 
L 186.028002 154.155172 
L 186.309918 155.093789 
L 186.591834 151.007206 
L 186.87375 149.449779 
L 187.014708 149.613766 
L 188.142373 153.457838 
L 188.424289 149.38311 
L 188.706205 147.837452 
L 188.847163 148.007292 
L 191.94824 158.438688 
L 194.203568 165.359719 
L 196.176981 170.68944 
L 196.599855 165.221166 
L 196.740813 164.662151 
L 196.881771 164.731186 
L 197.304645 165.903042 
L 197.727519 160.486703 
L 197.868477 159.944874 
L 198.009435 160.031033 
L 198.714225 162.061744 
L 199.137099 155.136741 
L 199.419015 153.47007 
L 199.559973 153.579732 
L 199.982848 154.872587 
L 200.264764 150.708288 
L 200.54668 149.073709 
L 200.687638 149.199331 
L 201.533386 151.865554 
L 201.815302 147.723047 
L 202.097218 146.110101 
L 202.238176 146.246481 
L 203.083924 148.976436 
L 203.36584 144.854866 
L 203.647756 143.262705 
L 203.788715 143.40942 
L 204.634463 146.200609 
L 204.916379 142.099154 
L 205.198295 140.526964 
L 205.339253 140.683609 
L 206.185001 143.533629 
L 206.607875 136.809665 
L 206.889791 135.275806 
L 207.030749 135.451514 
L 208.299372 139.871863 
L 208.581288 135.816272 
L 208.863204 134.289612 
L 209.004162 134.468899 
L 209.286078 135.470861 
L 209.567994 131.447162 
L 209.84991 129.952164 
L 209.990868 130.147196 
L 211.541406 135.461764 
L 214.360567 144.319281 
L 214.642483 140.151716 
L 214.924399 138.513893 
L 215.065357 138.637902 
L 216.33398 142.601325 
L 216.615896 138.446209 
L 216.897812 136.820746 
L 217.03877 136.950901 
L 219.998889 146.125119 
L 220.280805 141.944467 
L 220.562721 140.293653 
L 220.703679 140.411201 
L 223.522839 148.921516 
L 223.945713 143.570034 
L 224.086672 143.049668 
L 224.22763 143.157211 
L 224.93242 145.293686 
L 225.214336 141.119059 
L 225.496252 139.474227 
L 225.63721 139.594749 
L 225.919126 140.47982 
L 226.201042 136.340078 
L 226.482958 134.729878 
L 226.623916 134.867623 
L 228.315413 140.04711 
L 231.416489 148.556815 
L 231.698405 149.297195 
L 232.121279 143.822237 
L 232.262238 143.26101 
L 232.403196 143.327842 
L 233.389902 146.027213 
L 233.812776 140.587736 
L 233.953734 140.03825 
L 234.094692 140.11678 
L 235.64523 144.453992 
L 236.068104 139.031585 
L 236.209062 138.487747 
L 236.350021 138.571906 
L 236.631937 139.384645 
L 237.054811 134.017242 
L 237.195769 133.491607 
L 237.336727 133.593902 
L 237.900559 135.285377 
L 238.182475 131.103534 
L 238.464391 129.451537 
L 238.605349 129.568497 
L 241.283552 137.65706 
L 241.706426 130.758059 
L 241.988342 129.108566 
L 242.1293 129.226771 
L 244.666545 136.845744 
L 247.767621 144.760034 
L 250.72774 151.746254 
L 251.150614 146.125962 
L 251.291572 145.516641 
L 251.43253 145.535554 
L 251.714446 146.21851 
L 252.13732 140.658196 
L 252.278278 140.068723 
L 252.419236 140.107412 
L 253.405943 142.612621 
L 253.828817 137.091432 
L 253.969775 136.514907 
L 254.110733 136.566495 
L 254.956481 138.794134 
L 255.379355 133.314378 
L 255.520313 132.751563 
L 255.661271 132.816813 
L 258.198516 139.594115 
L 258.62139 134.105679 
L 258.762348 133.539991 
L 258.903306 133.602379 
L 260.312886 137.394191 
L 260.735761 131.929625 
L 260.876719 131.371836 
L 261.017677 131.442095 
L 262.286299 134.653874 
L 262.568215 135.335943 
L 262.991089 129.77431 
L 263.132047 129.1844 
L 263.273005 129.222654 
L 266.233124 136.542183 
L 266.655998 130.967461 
L 266.796956 130.373221 
L 266.937914 130.407159 
L 268.347494 133.920095 
L 268.770368 128.373825 
L 268.911327 127.788999 
L 269.052285 127.832318 
L 269.475159 128.927583 
L 269.898033 123.435484 
L 270.038991 122.868584 
L 270.179949 122.929764 
L 270.461865 123.696796 
L 270.884739 116.711109 
L 271.166655 115.004349 
L 271.307613 115.094076 
L 271.871445 116.735736 
L 272.294319 109.82558 
L 272.576235 108.168717 
L 272.717193 108.283258 
L 275.81827 117.547577 
L 277.509767 122.297011 
L 277.932641 116.876856 
L 278.073599 116.333765 
L 278.214557 116.418666 
L 281.315634 124.215907 
L 284.41671 131.413634 
L 287.517787 138.05794 
L 290.618864 144.191378 
L 292.733234 148.100621 
L 293.156108 142.281724 
L 293.297067 141.606682 
L 293.438025 141.560112 
L 294.001857 142.661513 
L 294.424731 136.901633 
L 294.565689 136.246121 
L 294.706647 136.21901 
L 294.988563 136.810418 
L 295.411437 131.034281 
L 295.552395 130.360122 
L 295.693353 130.314432 
L 297.38485 133.581463 
L 297.807724 127.800706 
L 297.948682 127.138285 
L 298.08964 127.10429 
L 301.190716 133.233848 
L 304.291793 138.892115 
L 307.533828 144.342963 
L 309.648199 147.659975 
L 310.071073 141.72646 
L 310.212031 141.013489 
L 310.352989 140.929127 
L 310.634905 141.406658 
L 311.057779 135.540994 
L 311.198737 134.850476 
L 311.339695 134.788486 
L 311.621611 135.310517 
L 312.044485 129.510999 
L 312.185443 128.802639 
L 312.326401 128.722871 
L 312.890233 129.692683 
L 313.313107 123.83536 
L 313.454065 123.147602 
L 313.595024 123.088362 
L 314.58173 124.917953 
L 315.004604 119.112438 
L 315.145562 118.441824 
L 315.28652 118.399666 
L 318.387597 124.356944 
L 319.092387 125.64568 
L 319.515261 119.832269 
L 319.656219 119.159042 
L 319.797177 119.11428 
L 322.898254 125.016613 
L 324.58975 128.042495 
L 325.012624 122.203077 
L 325.153582 121.521244 
L 325.29454 121.467908 
L 325.858373 122.542489 
L 326.281247 116.762748 
L 326.422205 116.100664 
L 326.563163 116.067004 
L 328.395617 119.752385 
L 328.818491 114.002919 
L 328.959449 113.350852 
L 329.100407 113.28723 
L 329.664239 114.321038 
L 330.087114 108.511104 
L 330.228072 107.839028 
L 330.36903 107.795413 
L 330.932862 108.908528 
L 331.355736 101.606979 
L 331.637652 99.69155 
L 331.77861 99.677511 
L 332.060526 100.294921 
L 332.624358 90.294382 
L 332.906274 88.460933 
L 333.047232 88.48766 
L 333.470106 89.533511 
L 333.892981 82.44219 
L 334.174897 80.665644 
L 334.315855 80.720668 
L 334.738729 81.850794 
L 335.443519 69.400277 
L 335.725435 67.718243 
L 335.866393 67.820266 
L 336.853099 70.762424 
L 337.275973 65.425121 
L 337.416931 64.909446 
L 337.557889 65.021665 
L 338.26268 67.181262 
L 338.544596 63.015767 
L 338.826512 61.38 
L 338.96747 61.505031 
L 342.068547 70.990744 
L 345.169623 79.747119 
L 347.002078 84.997987 
L 350.103155 93.740635 
L 353.204231 101.811076 
L 356.305308 109.260997 
L 359.406385 116.138108 
L 362.507462 122.48645 
L 363.494168 124.651339 
L 366.595245 131.408379 
L 368.145783 134.589501 
L 368.568657 127.309397 
L 368.850573 125.408136 
L 368.991531 125.401141 
L 369.555363 126.659414 
L 369.978237 121.015698 
L 370.119195 120.398627 
L 370.260153 120.409817 
L 372.515482 125.617061 
L 372.938356 119.984656 
L 373.079314 119.371327 
L 373.220272 119.386246 
L 373.643146 120.396929 
L 374.06602 113.270821 
L 374.347936 111.471294 
L 374.488895 111.51489 
L 375.052727 112.973694 
L 375.475601 107.478476 
L 375.616559 106.910544 
L 375.757517 106.970695 
L 376.321349 108.495123 
L 376.885181 98.775566 
L 377.167097 97.081083 
L 377.308055 97.176916 
L 377.871887 98.842775 
L 378.294761 91.95054 
L 378.576678 90.305516 
L 378.717636 90.425944 
L 381.677754 100.087361 
L 384.778831 109.791818 
L 387.879908 118.750117 
L 390.980985 127.019629 
L 394.082061 134.653314 
L 403.808166 157.332979 
L 406.909242 163.699191 
L 410.010319 169.575917 
L 413.252354 175.237215 
L 414.098102 176.836688 
L 417.199179 182.762035 
L 420.441214 188.470173 
L 422.978458 192.616021 
L 423.401333 186.705513 
L 423.542291 186.000155 
L 423.683249 185.923379 
L 424.247081 186.905051 
L 424.669955 181.056509 
L 424.810913 180.371657 
L 424.951871 180.315313 
L 425.233787 180.848574 
L 425.656661 175.065748 
L 425.797619 174.402643 
L 425.938577 174.367966 
L 426.220493 174.944326 
L 426.643367 169.225564 
L 426.784325 168.583658 
L 426.925283 168.570104 
L 427.207199 169.18848 
L 427.630074 163.532172 
L 427.771032 162.910933 
L 427.91199 162.917971 
L 428.334864 163.905181 
L 428.757738 158.306198 
L 428.898696 157.70393 
L 429.039654 157.729869 
L 430.590192 161.551223 
L 431.013066 156.12783 
L 431.154024 155.583667 
L 431.294982 155.6675 
L 434.396059 164.283771 
L 437.497136 172.237552 
L 440.598213 179.579782 
L 443.69929 186.357482 
L 446.800366 192.614057 
L 448.068989 195.280861 
L 451.170065 201.910073 
L 454.271142 208.029578 
L 457.372219 213.678565 
L 460.614254 219.120473 
L 463.856288 224.125727 
L 464.842995 225.767515 
L 468.08503 231.349019 
L 471.327064 236.48267 
L 474.569099 241.204401 
L 477.811134 245.547265 
L 482.744665 252.039048 
L 485.9867 256.622153 
L 489.369693 261.012913 
L 492.752686 265.036704 
L 496.135678 268.724195 
L 498.109091 270.731204 
L 498.109091 270.731204 
" style="fill:none;stroke:#55a868;stroke-linecap:round;stroke-width:1.75;"/>
   </g>
   <g id="patch_3">
    <path d="M 72 352.44 
L 72 47.52 
" style="fill:none;"/>
   </g>
   <g id="patch_4">
    <path d="M 518.4 352.44 
L 518.4 47.52 
" style="fill:none;"/>
   </g>
   <g id="patch_5">
    <path d="M 72 352.44 
L 518.4 352.44 
" style="fill:none;"/>
   </g>
   <g id="patch_6">
    <path d="M 72 47.52 
L 518.4 47.52 
" style="fill:none;"/>
   </g>
   <g id="text_13">
    <!-- 24 Hour HVAC House Temperature -->
    <defs>
     <path d="M 8.015625 0 
L 8.015625 71.578125 
L 17.484375 71.578125 
L 17.484375 42.1875 
L 54.6875 42.1875 
L 54.6875 71.578125 
L 64.15625 71.578125 
L 64.15625 0 
L 54.6875 0 
L 54.6875 33.734375 
L 17.484375 33.734375 
L 17.484375 0 
z
" id="ArialMT-72"/>
     <path d="M 28.171875 0 
L 0.4375 71.578125 
L 10.6875 71.578125 
L 29.296875 19.578125 
Q 31.546875 13.328125 33.0625 7.859375 
Q 34.71875 13.71875 36.921875 19.578125 
L 56.25 71.578125 
L 65.921875 71.578125 
L 37.890625 0 
z
" id="ArialMT-86"/>
     <path d="M -0.140625 0 
L 27.34375 71.578125 
L 37.546875 71.578125 
L 66.84375 0 
L 56.0625 0 
L 47.703125 21.6875 
L 17.78125 21.6875 
L 9.90625 0 
z
M 20.515625 29.390625 
L 44.78125 29.390625 
L 37.3125 49.21875 
Q 33.890625 58.25 32.234375 64.0625 
Q 30.859375 57.171875 28.375 50.390625 
z
" id="ArialMT-65"/>
     <path d="M 3.078125 15.484375 
L 11.765625 16.84375 
Q 12.5 11.625 15.84375 8.84375 
Q 19.1875 6.0625 25.203125 6.0625 
Q 31.25 6.0625 34.171875 8.515625 
Q 37.109375 10.984375 37.109375 14.3125 
Q 37.109375 17.28125 34.515625 19 
Q 32.71875 20.171875 25.53125 21.96875 
Q 15.875 24.421875 12.140625 26.203125 
Q 8.40625 27.984375 6.46875 31.125 
Q 4.546875 34.28125 4.546875 38.09375 
Q 4.546875 41.546875 6.125 44.5 
Q 7.71875 47.46875 10.453125 49.421875 
Q 12.5 50.921875 16.03125 51.96875 
Q 19.578125 53.03125 23.640625 53.03125 
Q 29.734375 53.03125 34.34375 51.265625 
Q 38.96875 49.515625 41.15625 46.5 
Q 43.359375 43.5 44.1875 38.484375 
L 35.59375 37.3125 
Q 35.015625 41.3125 32.203125 43.546875 
Q 29.390625 45.796875 24.265625 45.796875 
Q 18.21875 45.796875 15.625 43.796875 
Q 13.03125 41.796875 13.03125 39.109375 
Q 13.03125 37.40625 14.109375 36.03125 
Q 15.1875 34.625 17.484375 33.6875 
Q 18.796875 33.203125 25.25 31.453125 
Q 34.578125 28.953125 38.25 27.359375 
Q 41.9375 25.78125 44.03125 22.75 
Q 46.140625 19.734375 46.140625 15.234375 
Q 46.140625 10.84375 43.578125 6.953125 
Q 41.015625 3.078125 36.171875 0.953125 
Q 31.34375 -1.171875 25.25 -1.171875 
Q 15.140625 -1.171875 9.84375 3.03125 
Q 4.546875 7.234375 3.078125 15.484375 
z
" id="ArialMT-115"/>
    </defs>
    <g style="fill:#262626;" transform="translate(137.392187 41.52)scale(0.2 -0.2)">
     <use xlink:href="#ArialMT-50"/>
     <use x="55.615234" xlink:href="#ArialMT-52"/>
     <use x="111.230469" xlink:href="#ArialMT-32"/>
     <use x="139.013672" xlink:href="#ArialMT-72"/>
     <use x="211.230469" xlink:href="#ArialMT-111"/>
     <use x="266.845703" xlink:href="#ArialMT-117"/>
     <use x="322.460938" xlink:href="#ArialMT-114"/>
     <use x="355.761719" xlink:href="#ArialMT-32"/>
     <use x="383.544922" xlink:href="#ArialMT-72"/>
     <use x="455.761719" xlink:href="#ArialMT-86"/>
     <use x="522.351562" xlink:href="#ArialMT-65"/>
     <use x="589.050781" xlink:href="#ArialMT-67"/>
     <use x="661.267578" xlink:href="#ArialMT-32"/>
     <use x="689.050781" xlink:href="#ArialMT-72"/>
     <use x="761.267578" xlink:href="#ArialMT-111"/>
     <use x="816.882812" xlink:href="#ArialMT-117"/>
     <use x="872.498047" xlink:href="#ArialMT-115"/>
     <use x="922.498047" xlink:href="#ArialMT-101"/>
     <use x="978.113281" xlink:href="#ArialMT-32"/>
     <use x="1005.880859" xlink:href="#ArialMT-84"/>
     <use x="1066.792969" xlink:href="#ArialMT-101"/>
     <use x="1122.408203" xlink:href="#ArialMT-109"/>
     <use x="1205.708984" xlink:href="#ArialMT-112"/>
     <use x="1261.324219" xlink:href="#ArialMT-101"/>
     <use x="1316.939453" xlink:href="#ArialMT-114"/>
     <use x="1350.240234" xlink:href="#ArialMT-97"/>
     <use x="1405.855469" xlink:href="#ArialMT-116"/>
     <use x="1433.638672" xlink:href="#ArialMT-117"/>
     <use x="1489.253906" xlink:href="#ArialMT-114"/>
     <use x="1522.554688" xlink:href="#ArialMT-101"/>
    </g>
   </g>
   <g id="legend_1">
    <g id="line2d_25">
     <path d="M 328.025 309.54 
L 348.025 309.54 
" style="fill:none;stroke:#c44e52;stroke-linecap:round;stroke-width:1.75;"/>
    </g>
    <g id="line2d_26"/>
    <g id="text_14">
     <!-- Outdoor Temp -->
     <defs>
      <path d="M 4.828125 34.859375 
Q 4.828125 52.6875 14.390625 62.765625 
Q 23.96875 72.859375 39.109375 72.859375 
Q 49.03125 72.859375 56.984375 68.109375 
Q 64.9375 63.375 69.109375 54.90625 
Q 73.296875 46.4375 73.296875 35.6875 
Q 73.296875 24.8125 68.890625 16.21875 
Q 64.5 7.625 56.4375 3.203125 
Q 48.390625 -1.21875 39.0625 -1.21875 
Q 28.953125 -1.21875 20.984375 3.65625 
Q 13.03125 8.546875 8.921875 16.984375 
Q 4.828125 25.4375 4.828125 34.859375 
z
M 14.59375 34.71875 
Q 14.59375 21.78125 21.546875 14.328125 
Q 28.515625 6.890625 39.015625 6.890625 
Q 49.703125 6.890625 56.609375 14.40625 
Q 63.53125 21.921875 63.53125 35.75 
Q 63.53125 44.484375 60.578125 51 
Q 57.625 57.515625 51.921875 61.109375 
Q 46.234375 64.703125 39.15625 64.703125 
Q 29.109375 64.703125 21.84375 57.78125 
Q 14.59375 50.875 14.59375 34.71875 
z
" id="ArialMT-79"/>
     </defs>
     <g style="fill:#262626;" transform="translate(356.025 313.04)scale(0.1 -0.1)">
      <use xlink:href="#ArialMT-79"/>
      <use x="77.783203" xlink:href="#ArialMT-117"/>
      <use x="133.398438" xlink:href="#ArialMT-116"/>
      <use x="161.181641" xlink:href="#ArialMT-100"/>
      <use x="216.796875" xlink:href="#ArialMT-111"/>
      <use x="272.412109" xlink:href="#ArialMT-111"/>
      <use x="328.027344" xlink:href="#ArialMT-114"/>
      <use x="361.328125" xlink:href="#ArialMT-32"/>
      <use x="389.095703" xlink:href="#ArialMT-84"/>
      <use x="450.007812" xlink:href="#ArialMT-101"/>
      <use x="505.623047" xlink:href="#ArialMT-109"/>
      <use x="588.923828" xlink:href="#ArialMT-112"/>
     </g>
    </g>
    <g id="line2d_27">
     <path d="M 328.025 323.807187 
L 348.025 323.807187 
" style="fill:none;stroke:#0000ff;stroke-dasharray:6.475,2.8;stroke-dashoffset:0;stroke-width:1.75;"/>
    </g>
    <g id="line2d_28"/>
    <g id="text_15">
     <!-- Standard Thermostat Indoor Temp -->
     <defs>
      <path d="M 4.5 23 
L 13.421875 23.78125 
Q 14.0625 18.40625 16.375 14.96875 
Q 18.703125 11.53125 23.578125 9.40625 
Q 28.46875 7.28125 34.578125 7.28125 
Q 39.984375 7.28125 44.140625 8.890625 
Q 48.296875 10.5 50.3125 13.296875 
Q 52.34375 16.109375 52.34375 19.4375 
Q 52.34375 22.796875 50.390625 25.3125 
Q 48.4375 27.828125 43.953125 29.546875 
Q 41.0625 30.671875 31.203125 33.03125 
Q 21.34375 35.40625 17.390625 37.5 
Q 12.25 40.1875 9.734375 44.15625 
Q 7.234375 48.140625 7.234375 53.078125 
Q 7.234375 58.5 10.296875 63.203125 
Q 13.375 67.921875 19.28125 70.359375 
Q 25.203125 72.796875 32.421875 72.796875 
Q 40.375 72.796875 46.453125 70.234375 
Q 52.546875 67.671875 55.8125 62.6875 
Q 59.078125 57.71875 59.328125 51.421875 
L 50.25 50.734375 
Q 49.515625 57.515625 45.28125 60.984375 
Q 41.0625 64.453125 32.8125 64.453125 
Q 24.21875 64.453125 20.28125 61.296875 
Q 16.359375 58.15625 16.359375 53.71875 
Q 16.359375 49.859375 19.140625 47.359375 
Q 21.875 44.875 33.421875 42.265625 
Q 44.96875 39.65625 49.265625 37.703125 
Q 55.515625 34.8125 58.484375 30.390625 
Q 61.46875 25.984375 61.46875 20.21875 
Q 61.46875 14.5 58.203125 9.4375 
Q 54.9375 4.390625 48.796875 1.578125 
Q 42.671875 -1.21875 35.015625 -1.21875 
Q 25.296875 -1.21875 18.71875 1.609375 
Q 12.15625 4.4375 8.421875 10.125 
Q 4.6875 15.828125 4.5 23 
z
" id="ArialMT-83"/>
      <path d="M 6.59375 0 
L 6.59375 51.859375 
L 14.5 51.859375 
L 14.5 44.484375 
Q 20.21875 53.03125 31 53.03125 
Q 35.6875 53.03125 39.625 51.34375 
Q 43.5625 49.65625 45.515625 46.921875 
Q 47.46875 44.1875 48.25 40.4375 
Q 48.734375 37.984375 48.734375 31.890625 
L 48.734375 0 
L 39.9375 0 
L 39.9375 31.546875 
Q 39.9375 36.921875 38.90625 39.578125 
Q 37.890625 42.234375 35.28125 43.8125 
Q 32.671875 45.40625 29.15625 45.40625 
Q 23.53125 45.40625 19.453125 41.84375 
Q 15.375 38.28125 15.375 28.328125 
L 15.375 0 
z
" id="ArialMT-110"/>
      <path d="M 6.59375 0 
L 6.59375 71.578125 
L 15.375 71.578125 
L 15.375 45.90625 
Q 21.53125 53.03125 30.90625 53.03125 
Q 36.671875 53.03125 40.921875 50.75 
Q 45.171875 48.484375 47 44.484375 
Q 48.828125 40.484375 48.828125 32.859375 
L 48.828125 0 
L 40.046875 0 
L 40.046875 32.859375 
Q 40.046875 39.453125 37.1875 42.453125 
Q 34.328125 45.453125 29.109375 45.453125 
Q 25.203125 45.453125 21.75 43.421875 
Q 18.3125 41.40625 16.84375 37.9375 
Q 15.375 34.46875 15.375 28.375 
L 15.375 0 
z
" id="ArialMT-104"/>
      <path d="M 9.328125 0 
L 9.328125 71.578125 
L 18.796875 71.578125 
L 18.796875 0 
z
" id="ArialMT-73"/>
     </defs>
     <g style="fill:#262626;" transform="translate(356.025 327.307187)scale(0.1 -0.1)">
      <use xlink:href="#ArialMT-83"/>
      <use x="66.699219" xlink:href="#ArialMT-116"/>
      <use x="94.482422" xlink:href="#ArialMT-97"/>
      <use x="150.097656" xlink:href="#ArialMT-110"/>
      <use x="205.712891" xlink:href="#ArialMT-100"/>
      <use x="261.328125" xlink:href="#ArialMT-97"/>
      <use x="316.943359" xlink:href="#ArialMT-114"/>
      <use x="350.244141" xlink:href="#ArialMT-100"/>
      <use x="405.859375" xlink:href="#ArialMT-32"/>
      <use x="433.626953" xlink:href="#ArialMT-84"/>
      <use x="494.710938" xlink:href="#ArialMT-104"/>
      <use x="550.326172" xlink:href="#ArialMT-101"/>
      <use x="605.941406" xlink:href="#ArialMT-114"/>
      <use x="639.242188" xlink:href="#ArialMT-109"/>
      <use x="722.542969" xlink:href="#ArialMT-111"/>
      <use x="778.158203" xlink:href="#ArialMT-115"/>
      <use x="828.158203" xlink:href="#ArialMT-116"/>
      <use x="855.941406" xlink:href="#ArialMT-97"/>
      <use x="911.556641" xlink:href="#ArialMT-116"/>
      <use x="939.339844" xlink:href="#ArialMT-32"/>
      <use x="967.123047" xlink:href="#ArialMT-73"/>
      <use x="994.90625" xlink:href="#ArialMT-110"/>
      <use x="1050.521484" xlink:href="#ArialMT-100"/>
      <use x="1106.136719" xlink:href="#ArialMT-111"/>
      <use x="1161.751953" xlink:href="#ArialMT-111"/>
      <use x="1217.367188" xlink:href="#ArialMT-114"/>
      <use x="1250.667969" xlink:href="#ArialMT-32"/>
      <use x="1278.435547" xlink:href="#ArialMT-84"/>
      <use x="1339.347656" xlink:href="#ArialMT-101"/>
      <use x="1394.962891" xlink:href="#ArialMT-109"/>
      <use x="1478.263672" xlink:href="#ArialMT-112"/>
     </g>
    </g>
    <g id="line2d_29">
     <path d="M 328.025 337.9525 
L 348.025 337.9525 
" style="fill:none;stroke:#55a868;stroke-linecap:round;stroke-width:1.75;"/>
    </g>
    <g id="line2d_30"/>
    <g id="text_16">
     <!-- RL Indoor Temp -->
     <defs>
      <path d="M 7.859375 0 
L 7.859375 71.578125 
L 39.59375 71.578125 
Q 49.171875 71.578125 54.140625 69.640625 
Q 59.125 67.71875 62.109375 62.828125 
Q 65.09375 57.953125 65.09375 52.046875 
Q 65.09375 44.4375 60.15625 39.203125 
Q 55.21875 33.984375 44.921875 32.5625 
Q 48.6875 30.765625 50.640625 29 
Q 54.78125 25.203125 58.5 19.484375 
L 70.953125 0 
L 59.03125 0 
L 49.5625 14.890625 
Q 45.40625 21.34375 42.71875 24.75 
Q 40.046875 28.171875 37.921875 29.53125 
Q 35.796875 30.90625 33.59375 31.453125 
Q 31.984375 31.78125 28.328125 31.78125 
L 17.328125 31.78125 
L 17.328125 0 
z
M 17.328125 39.984375 
L 37.703125 39.984375 
Q 44.1875 39.984375 47.84375 41.328125 
Q 51.515625 42.671875 53.421875 45.625 
Q 55.328125 48.578125 55.328125 52.046875 
Q 55.328125 57.125 51.640625 60.390625 
Q 47.953125 63.671875 39.984375 63.671875 
L 17.328125 63.671875 
z
" id="ArialMT-82"/>
      <path d="M 7.328125 0 
L 7.328125 71.578125 
L 16.796875 71.578125 
L 16.796875 8.453125 
L 52.046875 8.453125 
L 52.046875 0 
z
" id="ArialMT-76"/>
     </defs>
     <g style="fill:#262626;" transform="translate(356.025 341.4525)scale(0.1 -0.1)">
      <use xlink:href="#ArialMT-82"/>
      <use x="72.216797" xlink:href="#ArialMT-76"/>
      <use x="127.785156" xlink:href="#ArialMT-32"/>
      <use x="155.568359" xlink:href="#ArialMT-73"/>
      <use x="183.351562" xlink:href="#ArialMT-110"/>
      <use x="238.966797" xlink:href="#ArialMT-100"/>
      <use x="294.582031" xlink:href="#ArialMT-111"/>
      <use x="350.197266" xlink:href="#ArialMT-111"/>
      <use x="405.8125" xlink:href="#ArialMT-114"/>
      <use x="439.113281" xlink:href="#ArialMT-32"/>
      <use x="466.880859" xlink:href="#ArialMT-84"/>
      <use x="527.792969" xlink:href="#ArialMT-101"/>
      <use x="583.408203" xlink:href="#ArialMT-109"/>
      <use x="666.708984" xlink:href="#ArialMT-112"/>
     </g>
    </g>
   </g>
  </g>
 </g>
 <defs>
  <clipPath id="p6b14520f77">
   <rect height="304.92" width="446.4" x="72" y="47.52"/>
  </clipPath>
 </defs>
</svg>
