<?xml version="1.0" encoding="utf-8" standalone="no"?>
<!DOCTYPE svg PUBLIC "-//W3C//DTD SVG 1.1//EN"
  "http://www.w3.org/Graphics/SVG/1.1/DTD/svg11.dtd">
<!-- Created with matplotlib (https://matplotlib.org/) -->
<svg height="396pt" version="1.1" viewBox="0 0 576 396" width="576pt" xmlns="http://www.w3.org/2000/svg" xmlns:xlink="http://www.w3.org/1999/xlink">
 <defs>
  <style type="text/css">
*{stroke-linecap:butt;stroke-linejoin:round;}
  </style>
 </defs>
 <g id="figure_1">
  <g id="patch_1">
   <path d="M 0 396 
L 576 396 
L 576 0 
L 0 0 
z
" style="fill:#ffffff;"/>
  </g>
  <g id="axes_1">
   <g id="patch_2">
    <path d="M 72 352.44 
L 518.4 352.44 
L 518.4 47.52 
L 72 47.52 
z
" style="fill:#eaeaf2;"/>
   </g>
   <g id="matplotlib.axis_1">
    <g id="xtick_1">
     <g id="line2d_1">
      <path clip-path="url(#p724e811fb8)" d="M 92.290909 352.44 
L 92.290909 47.52 
" style="fill:none;stroke:#ffffff;stroke-linecap:round;"/>
     </g>
     <g id="line2d_2"/>
     <g id="text_1">
      <!-- 0:00:00 -->
      <defs>
       <path d="M 4.15625 35.296875 
Q 4.15625 48 6.765625 55.734375 
Q 9.375 63.484375 14.515625 67.671875 
Q 19.671875 71.875 27.484375 71.875 
Q 33.25 71.875 37.59375 69.546875 
Q 41.9375 67.234375 44.765625 62.859375 
Q 47.609375 58.5 49.21875 52.21875 
Q 50.828125 45.953125 50.828125 35.296875 
Q 50.828125 22.703125 48.234375 14.96875 
Q 45.65625 7.234375 40.5 3 
Q 35.359375 -1.21875 27.484375 -1.21875 
Q 17.140625 -1.21875 11.234375 6.203125 
Q 4.15625 15.140625 4.15625 35.296875 
z
M 13.1875 35.296875 
Q 13.1875 17.671875 17.3125 11.828125 
Q 21.4375 6 27.484375 6 
Q 33.546875 6 37.671875 11.859375 
Q 41.796875 17.71875 41.796875 35.296875 
Q 41.796875 52.984375 37.671875 58.78125 
Q 33.546875 64.59375 27.390625 64.59375 
Q 21.34375 64.59375 17.71875 59.46875 
Q 13.1875 52.9375 13.1875 35.296875 
z
" id="ArialMT-48"/>
       <path d="M 9.03125 41.84375 
L 9.03125 51.859375 
L 19.046875 51.859375 
L 19.046875 41.84375 
z
M 9.03125 0 
L 9.03125 10.015625 
L 19.046875 10.015625 
L 19.046875 0 
z
" id="ArialMT-58"/>
      </defs>
      <g style="fill:#262626;" transform="translate(75.61044 366.597813)scale(0.1 -0.1)">
       <use xlink:href="#ArialMT-48"/>
       <use x="55.615234" xlink:href="#ArialMT-58"/>
       <use x="83.398438" xlink:href="#ArialMT-48"/>
       <use x="139.013672" xlink:href="#ArialMT-48"/>
       <use x="194.628906" xlink:href="#ArialMT-58"/>
       <use x="222.412109" xlink:href="#ArialMT-48"/>
       <use x="278.027344" xlink:href="#ArialMT-48"/>
      </g>
     </g>
    </g>
    <g id="xtick_2">
     <g id="line2d_3">
      <path clip-path="url(#p724e811fb8)" d="M 186.262932 352.44 
L 186.262932 47.52 
" style="fill:none;stroke:#ffffff;stroke-linecap:round;"/>
     </g>
     <g id="line2d_4"/>
     <g id="text_2">
      <!-- 5:33:20 -->
      <defs>
       <path d="M 4.15625 18.75 
L 13.375 19.53125 
Q 14.40625 12.796875 18.140625 9.390625 
Q 21.875 6 27.15625 6 
Q 33.5 6 37.890625 10.78125 
Q 42.28125 15.578125 42.28125 23.484375 
Q 42.28125 31 38.0625 35.34375 
Q 33.84375 39.703125 27 39.703125 
Q 22.75 39.703125 19.328125 37.765625 
Q 15.921875 35.84375 13.96875 32.765625 
L 5.71875 33.84375 
L 12.640625 70.609375 
L 48.25 70.609375 
L 48.25 62.203125 
L 19.671875 62.203125 
L 15.828125 42.96875 
Q 22.265625 47.46875 29.34375 47.46875 
Q 38.71875 47.46875 45.15625 40.96875 
Q 51.609375 34.46875 51.609375 24.265625 
Q 51.609375 14.546875 45.953125 7.46875 
Q 39.0625 -1.21875 27.15625 -1.21875 
Q 17.390625 -1.21875 11.203125 4.25 
Q 5.03125 9.71875 4.15625 18.75 
z
" id="ArialMT-53"/>
       <path d="M 4.203125 18.890625 
L 12.984375 20.0625 
Q 14.5 12.59375 18.140625 9.296875 
Q 21.78125 6 27 6 
Q 33.203125 6 37.46875 10.296875 
Q 41.75 14.59375 41.75 20.953125 
Q 41.75 27 37.796875 30.921875 
Q 33.84375 34.859375 27.734375 34.859375 
Q 25.25 34.859375 21.53125 33.890625 
L 22.515625 41.609375 
Q 23.390625 41.5 23.921875 41.5 
Q 29.546875 41.5 34.03125 44.421875 
Q 38.53125 47.359375 38.53125 53.46875 
Q 38.53125 58.296875 35.25 61.46875 
Q 31.984375 64.65625 26.8125 64.65625 
Q 21.6875 64.65625 18.265625 61.421875 
Q 14.84375 58.203125 13.875 51.765625 
L 5.078125 53.328125 
Q 6.6875 62.15625 12.390625 67.015625 
Q 18.109375 71.875 26.609375 71.875 
Q 32.46875 71.875 37.390625 69.359375 
Q 42.328125 66.84375 44.9375 62.5 
Q 47.5625 58.15625 47.5625 53.265625 
Q 47.5625 48.640625 45.0625 44.828125 
Q 42.578125 41.015625 37.703125 38.765625 
Q 44.046875 37.3125 47.5625 32.6875 
Q 51.078125 28.078125 51.078125 21.140625 
Q 51.078125 11.765625 44.234375 5.25 
Q 37.40625 -1.265625 26.953125 -1.265625 
Q 17.53125 -1.265625 11.296875 4.34375 
Q 5.078125 9.96875 4.203125 18.890625 
z
" id="ArialMT-51"/>
       <path d="M 50.34375 8.453125 
L 50.34375 0 
L 3.03125 0 
Q 2.9375 3.171875 4.046875 6.109375 
Q 5.859375 10.9375 9.828125 15.625 
Q 13.8125 20.3125 21.34375 26.46875 
Q 33.015625 36.03125 37.109375 41.625 
Q 41.21875 47.21875 41.21875 52.203125 
Q 41.21875 57.421875 37.46875 61 
Q 33.734375 64.59375 27.734375 64.59375 
Q 21.390625 64.59375 17.578125 60.78125 
Q 13.765625 56.984375 13.71875 50.25 
L 4.6875 51.171875 
Q 5.609375 61.28125 11.65625 66.578125 
Q 17.71875 71.875 27.9375 71.875 
Q 38.234375 71.875 44.234375 66.15625 
Q 50.25 60.453125 50.25 52 
Q 50.25 47.703125 48.484375 43.546875 
Q 46.734375 39.40625 42.65625 34.8125 
Q 38.578125 30.21875 29.109375 22.21875 
Q 21.1875 15.578125 18.9375 13.203125 
Q 16.703125 10.84375 15.234375 8.453125 
z
" id="ArialMT-50"/>
      </defs>
      <g style="fill:#262626;" transform="translate(169.582463 366.597813)scale(0.1 -0.1)">
       <use xlink:href="#ArialMT-53"/>
       <use x="55.615234" xlink:href="#ArialMT-58"/>
       <use x="83.398438" xlink:href="#ArialMT-51"/>
       <use x="139.013672" xlink:href="#ArialMT-51"/>
       <use x="194.628906" xlink:href="#ArialMT-58"/>
       <use x="222.412109" xlink:href="#ArialMT-50"/>
       <use x="278.027344" xlink:href="#ArialMT-48"/>
      </g>
     </g>
    </g>
    <g id="xtick_3">
     <g id="line2d_5">
      <path clip-path="url(#p724e811fb8)" d="M 280.234955 352.44 
L 280.234955 47.52 
" style="fill:none;stroke:#ffffff;stroke-linecap:round;"/>
     </g>
     <g id="line2d_6"/>
     <g id="text_3">
      <!-- 11:06:40 -->
      <defs>
       <path d="M 37.25 0 
L 28.46875 0 
L 28.46875 56 
Q 25.296875 52.984375 20.140625 49.953125 
Q 14.984375 46.921875 10.890625 45.40625 
L 10.890625 53.90625 
Q 18.265625 57.375 23.78125 62.296875 
Q 29.296875 67.234375 31.59375 71.875 
L 37.25 71.875 
z
" id="ArialMT-49"/>
       <path d="M 49.75 54.046875 
L 41.015625 53.375 
Q 39.84375 58.546875 37.703125 60.890625 
Q 34.125 64.65625 28.90625 64.65625 
Q 24.703125 64.65625 21.53125 62.3125 
Q 17.390625 59.28125 14.984375 53.46875 
Q 12.59375 47.65625 12.5 36.921875 
Q 15.671875 41.75 20.265625 44.09375 
Q 24.859375 46.4375 29.890625 46.4375 
Q 38.671875 46.4375 44.84375 39.96875 
Q 51.03125 33.5 51.03125 23.25 
Q 51.03125 16.5 48.125 10.71875 
Q 45.21875 4.9375 40.140625 1.859375 
Q 35.0625 -1.21875 28.609375 -1.21875 
Q 17.625 -1.21875 10.6875 6.859375 
Q 3.765625 14.9375 3.765625 33.5 
Q 3.765625 54.25 11.421875 63.671875 
Q 18.109375 71.875 29.4375 71.875 
Q 37.890625 71.875 43.28125 67.140625 
Q 48.6875 62.40625 49.75 54.046875 
z
M 13.875 23.1875 
Q 13.875 18.65625 15.796875 14.5 
Q 17.71875 10.359375 21.1875 8.171875 
Q 24.65625 6 28.46875 6 
Q 34.03125 6 38.03125 10.484375 
Q 42.046875 14.984375 42.046875 22.703125 
Q 42.046875 30.125 38.078125 34.390625 
Q 34.125 38.671875 28.125 38.671875 
Q 22.171875 38.671875 18.015625 34.390625 
Q 13.875 30.125 13.875 23.1875 
z
" id="ArialMT-54"/>
       <path d="M 32.328125 0 
L 32.328125 17.140625 
L 1.265625 17.140625 
L 1.265625 25.203125 
L 33.9375 71.578125 
L 41.109375 71.578125 
L 41.109375 25.203125 
L 50.78125 25.203125 
L 50.78125 17.140625 
L 41.109375 17.140625 
L 41.109375 0 
z
M 32.328125 25.203125 
L 32.328125 57.46875 
L 9.90625 25.203125 
z
" id="ArialMT-52"/>
      </defs>
      <g style="fill:#262626;" transform="translate(260.779487 366.597813)scale(0.1 -0.1)">
       <use xlink:href="#ArialMT-49"/>
       <use x="55.505859" xlink:href="#ArialMT-49"/>
       <use x="111.121094" xlink:href="#ArialMT-58"/>
       <use x="138.904297" xlink:href="#ArialMT-48"/>
       <use x="194.519531" xlink:href="#ArialMT-54"/>
       <use x="250.134766" xlink:href="#ArialMT-58"/>
       <use x="277.917969" xlink:href="#ArialMT-52"/>
       <use x="333.533203" xlink:href="#ArialMT-48"/>
      </g>
     </g>
    </g>
    <g id="xtick_4">
     <g id="line2d_7">
      <path clip-path="url(#p724e811fb8)" d="M 374.206978 352.44 
L 374.206978 47.52 
" style="fill:none;stroke:#ffffff;stroke-linecap:round;"/>
     </g>
     <g id="line2d_8"/>
     <g id="text_4">
      <!-- 16:40:00 -->
      <g style="fill:#262626;" transform="translate(354.746041 366.597813)scale(0.1 -0.1)">
       <use xlink:href="#ArialMT-49"/>
       <use x="55.615234" xlink:href="#ArialMT-54"/>
       <use x="111.230469" xlink:href="#ArialMT-58"/>
       <use x="139.013672" xlink:href="#ArialMT-52"/>
       <use x="194.628906" xlink:href="#ArialMT-48"/>
       <use x="250.244141" xlink:href="#ArialMT-58"/>
       <use x="278.027344" xlink:href="#ArialMT-48"/>
       <use x="333.642578" xlink:href="#ArialMT-48"/>
      </g>
     </g>
    </g>
    <g id="xtick_5">
     <g id="line2d_9">
      <path clip-path="url(#p724e811fb8)" d="M 468.179002 352.44 
L 468.179002 47.52 
" style="fill:none;stroke:#ffffff;stroke-linecap:round;"/>
     </g>
     <g id="line2d_10"/>
     <g id="text_5">
      <!-- 22:13:20 -->
      <g style="fill:#262626;" transform="translate(448.718064 366.597813)scale(0.1 -0.1)">
       <use xlink:href="#ArialMT-50"/>
       <use x="55.615234" xlink:href="#ArialMT-50"/>
       <use x="111.230469" xlink:href="#ArialMT-58"/>
       <use x="139.013672" xlink:href="#ArialMT-49"/>
       <use x="194.628906" xlink:href="#ArialMT-51"/>
       <use x="250.244141" xlink:href="#ArialMT-58"/>
       <use x="278.027344" xlink:href="#ArialMT-50"/>
       <use x="333.642578" xlink:href="#ArialMT-48"/>
      </g>
     </g>
    </g>
    <g id="text_6">
     <!-- Time of day -->
     <defs>
      <path d="M 25.921875 0 
L 25.921875 63.140625 
L 2.34375 63.140625 
L 2.34375 71.578125 
L 59.078125 71.578125 
L 59.078125 63.140625 
L 35.40625 63.140625 
L 35.40625 0 
z
" id="ArialMT-84"/>
      <path d="M 6.640625 61.46875 
L 6.640625 71.578125 
L 15.4375 71.578125 
L 15.4375 61.46875 
z
M 6.640625 0 
L 6.640625 51.859375 
L 15.4375 51.859375 
L 15.4375 0 
z
" id="ArialMT-105"/>
      <path d="M 6.59375 0 
L 6.59375 51.859375 
L 14.453125 51.859375 
L 14.453125 44.578125 
Q 16.890625 48.390625 20.9375 50.703125 
Q 25 53.03125 30.171875 53.03125 
Q 35.9375 53.03125 39.625 50.640625 
Q 43.3125 48.25 44.828125 43.953125 
Q 50.984375 53.03125 60.84375 53.03125 
Q 68.5625 53.03125 72.703125 48.75 
Q 76.859375 44.484375 76.859375 35.59375 
L 76.859375 0 
L 68.109375 0 
L 68.109375 32.671875 
Q 68.109375 37.9375 67.25 40.25 
Q 66.40625 42.578125 64.15625 43.984375 
Q 61.921875 45.40625 58.890625 45.40625 
Q 53.421875 45.40625 49.796875 41.765625 
Q 46.1875 38.140625 46.1875 30.125 
L 46.1875 0 
L 37.40625 0 
L 37.40625 33.6875 
Q 37.40625 39.546875 35.25 42.46875 
Q 33.109375 45.40625 28.21875 45.40625 
Q 24.515625 45.40625 21.359375 43.453125 
Q 18.21875 41.5 16.796875 37.734375 
Q 15.375 33.984375 15.375 26.90625 
L 15.375 0 
z
" id="ArialMT-109"/>
      <path d="M 42.09375 16.703125 
L 51.171875 15.578125 
Q 49.03125 7.625 43.21875 3.21875 
Q 37.40625 -1.171875 28.375 -1.171875 
Q 17 -1.171875 10.328125 5.828125 
Q 3.65625 12.84375 3.65625 25.484375 
Q 3.65625 38.578125 10.390625 45.796875 
Q 17.140625 53.03125 27.875 53.03125 
Q 38.28125 53.03125 44.875 45.953125 
Q 51.46875 38.875 51.46875 26.03125 
Q 51.46875 25.25 51.421875 23.6875 
L 12.75 23.6875 
Q 13.234375 15.140625 17.578125 10.59375 
Q 21.921875 6.0625 28.421875 6.0625 
Q 33.25 6.0625 36.671875 8.59375 
Q 40.09375 11.140625 42.09375 16.703125 
z
M 13.234375 30.90625 
L 42.1875 30.90625 
Q 41.609375 37.453125 38.875 40.71875 
Q 34.671875 45.796875 27.984375 45.796875 
Q 21.921875 45.796875 17.796875 41.75 
Q 13.671875 37.703125 13.234375 30.90625 
z
" id="ArialMT-101"/>
      <path id="ArialMT-32"/>
      <path d="M 3.328125 25.921875 
Q 3.328125 40.328125 11.328125 47.265625 
Q 18.015625 53.03125 27.640625 53.03125 
Q 38.328125 53.03125 45.109375 46.015625 
Q 51.90625 39.015625 51.90625 26.65625 
Q 51.90625 16.65625 48.90625 10.90625 
Q 45.90625 5.171875 40.15625 2 
Q 34.421875 -1.171875 27.640625 -1.171875 
Q 16.75 -1.171875 10.03125 5.8125 
Q 3.328125 12.796875 3.328125 25.921875 
z
M 12.359375 25.921875 
Q 12.359375 15.96875 16.703125 11.015625 
Q 21.046875 6.0625 27.640625 6.0625 
Q 34.1875 6.0625 38.53125 11.03125 
Q 42.875 16.015625 42.875 26.21875 
Q 42.875 35.84375 38.5 40.796875 
Q 34.125 45.75 27.640625 45.75 
Q 21.046875 45.75 16.703125 40.8125 
Q 12.359375 35.890625 12.359375 25.921875 
z
" id="ArialMT-111"/>
      <path d="M 8.6875 0 
L 8.6875 45.015625 
L 0.921875 45.015625 
L 0.921875 51.859375 
L 8.6875 51.859375 
L 8.6875 57.375 
Q 8.6875 62.59375 9.625 65.140625 
Q 10.890625 68.5625 14.078125 70.671875 
Q 17.28125 72.796875 23.046875 72.796875 
Q 26.765625 72.796875 31.25 71.921875 
L 29.9375 64.265625 
Q 27.203125 64.75 24.75 64.75 
Q 20.75 64.75 19.09375 63.03125 
Q 17.4375 61.328125 17.4375 56.640625 
L 17.4375 51.859375 
L 27.546875 51.859375 
L 27.546875 45.015625 
L 17.4375 45.015625 
L 17.4375 0 
z
" id="ArialMT-102"/>
      <path d="M 40.234375 0 
L 40.234375 6.546875 
Q 35.296875 -1.171875 25.734375 -1.171875 
Q 19.53125 -1.171875 14.328125 2.25 
Q 9.125 5.671875 6.265625 11.796875 
Q 3.421875 17.921875 3.421875 25.875 
Q 3.421875 33.640625 6 39.96875 
Q 8.59375 46.296875 13.765625 49.65625 
Q 18.953125 53.03125 25.34375 53.03125 
Q 30.03125 53.03125 33.6875 51.046875 
Q 37.359375 49.078125 39.65625 45.90625 
L 39.65625 71.578125 
L 48.390625 71.578125 
L 48.390625 0 
z
M 12.453125 25.875 
Q 12.453125 15.921875 16.640625 10.984375 
Q 20.84375 6.0625 26.5625 6.0625 
Q 32.328125 6.0625 36.34375 10.765625 
Q 40.375 15.484375 40.375 25.140625 
Q 40.375 35.796875 36.265625 40.765625 
Q 32.171875 45.75 26.171875 45.75 
Q 20.3125 45.75 16.375 40.96875 
Q 12.453125 36.1875 12.453125 25.875 
z
" id="ArialMT-100"/>
      <path d="M 40.4375 6.390625 
Q 35.546875 2.25 31.03125 0.53125 
Q 26.515625 -1.171875 21.34375 -1.171875 
Q 12.796875 -1.171875 8.203125 3 
Q 3.609375 7.171875 3.609375 13.671875 
Q 3.609375 17.484375 5.34375 20.625 
Q 7.078125 23.78125 9.890625 25.6875 
Q 12.703125 27.59375 16.21875 28.5625 
Q 18.796875 29.25 24.03125 29.890625 
Q 34.671875 31.15625 39.703125 32.90625 
Q 39.75 34.71875 39.75 35.203125 
Q 39.75 40.578125 37.25 42.78125 
Q 33.890625 45.75 27.25 45.75 
Q 21.046875 45.75 18.09375 43.578125 
Q 15.140625 41.40625 13.71875 35.890625 
L 5.125 37.0625 
Q 6.296875 42.578125 8.984375 45.96875 
Q 11.671875 49.359375 16.75 51.1875 
Q 21.828125 53.03125 28.515625 53.03125 
Q 35.15625 53.03125 39.296875 51.46875 
Q 43.453125 49.90625 45.40625 47.53125 
Q 47.359375 45.171875 48.140625 41.546875 
Q 48.578125 39.3125 48.578125 33.453125 
L 48.578125 21.734375 
Q 48.578125 9.46875 49.140625 6.21875 
Q 49.703125 2.984375 51.375 0 
L 42.1875 0 
Q 40.828125 2.734375 40.4375 6.390625 
z
M 39.703125 26.03125 
Q 34.90625 24.078125 25.34375 22.703125 
Q 19.921875 21.921875 17.671875 20.9375 
Q 15.4375 19.96875 14.203125 18.09375 
Q 12.984375 16.21875 12.984375 13.921875 
Q 12.984375 10.40625 15.640625 8.0625 
Q 18.3125 5.71875 23.4375 5.71875 
Q 28.515625 5.71875 32.46875 7.9375 
Q 36.421875 10.15625 38.28125 14.015625 
Q 39.703125 17 39.703125 22.796875 
z
" id="ArialMT-97"/>
      <path d="M 6.203125 -19.96875 
L 5.21875 -11.71875 
Q 8.109375 -12.5 10.25 -12.5 
Q 13.1875 -12.5 14.9375 -11.515625 
Q 16.703125 -10.546875 17.828125 -8.796875 
Q 18.65625 -7.46875 20.515625 -2.25 
Q 20.75 -1.515625 21.296875 -0.09375 
L 1.609375 51.859375 
L 11.078125 51.859375 
L 21.875 21.828125 
Q 23.96875 16.109375 25.640625 9.8125 
Q 27.15625 15.875 29.25 21.625 
L 40.328125 51.859375 
L 49.125 51.859375 
L 29.390625 -0.875 
Q 26.21875 -9.421875 24.46875 -12.640625 
Q 22.125 -17 19.09375 -19.015625 
Q 16.0625 -21.046875 11.859375 -21.046875 
Q 9.328125 -21.046875 6.203125 -19.96875 
z
" id="ArialMT-121"/>
     </defs>
     <g style="fill:#262626;" transform="translate(248.190469 385.68875)scale(0.18 -0.18)">
      <use xlink:href="#ArialMT-84"/>
      <use x="61.037109" xlink:href="#ArialMT-105"/>
      <use x="83.253906" xlink:href="#ArialMT-109"/>
      <use x="166.554688" xlink:href="#ArialMT-101"/>
      <use x="222.169922" xlink:href="#ArialMT-32"/>
      <use x="249.953125" xlink:href="#ArialMT-111"/>
      <use x="305.568359" xlink:href="#ArialMT-102"/>
      <use x="333.351562" xlink:href="#ArialMT-32"/>
      <use x="361.134766" xlink:href="#ArialMT-100"/>
      <use x="416.75" xlink:href="#ArialMT-97"/>
      <use x="472.365234" xlink:href="#ArialMT-121"/>
     </g>
    </g>
   </g>
   <g id="matplotlib.axis_2">
    <g id="ytick_1">
     <g id="line2d_11">
      <path clip-path="url(#p724e811fb8)" d="M 72 337.56177 
L 518.4 337.56177 
" style="fill:none;stroke:#ffffff;stroke-linecap:round;"/>
     </g>
     <g id="line2d_12"/>
     <g id="text_7">
      <!-- 0 -->
      <g style="fill:#262626;" transform="translate(59.439062 341.140676)scale(0.1 -0.1)">
       <use xlink:href="#ArialMT-48"/>
      </g>
     </g>
    </g>
    <g id="ytick_2">
     <g id="line2d_13">
      <path clip-path="url(#p724e811fb8)" d="M 72 301.196415 
L 518.4 301.196415 
" style="fill:none;stroke:#ffffff;stroke-linecap:round;"/>
     </g>
     <g id="line2d_14"/>
     <g id="text_8">
      <!-- 20 -->
      <g style="fill:#262626;" transform="translate(53.878125 304.775322)scale(0.1 -0.1)">
       <use xlink:href="#ArialMT-50"/>
       <use x="55.615234" xlink:href="#ArialMT-48"/>
      </g>
     </g>
    </g>
    <g id="ytick_3">
     <g id="line2d_15">
      <path clip-path="url(#p724e811fb8)" d="M 72 264.831061 
L 518.4 264.831061 
" style="fill:none;stroke:#ffffff;stroke-linecap:round;"/>
     </g>
     <g id="line2d_16"/>
     <g id="text_9">
      <!-- 40 -->
      <g style="fill:#262626;" transform="translate(53.878125 268.409967)scale(0.1 -0.1)">
       <use xlink:href="#ArialMT-52"/>
       <use x="55.615234" xlink:href="#ArialMT-48"/>
      </g>
     </g>
    </g>
    <g id="ytick_4">
     <g id="line2d_17">
      <path clip-path="url(#p724e811fb8)" d="M 72 228.465706 
L 518.4 228.465706 
" style="fill:none;stroke:#ffffff;stroke-linecap:round;"/>
     </g>
     <g id="line2d_18"/>
     <g id="text_10">
      <!-- 60 -->
      <g style="fill:#262626;" transform="translate(53.878125 232.044612)scale(0.1 -0.1)">
       <use xlink:href="#ArialMT-54"/>
       <use x="55.615234" xlink:href="#ArialMT-48"/>
      </g>
     </g>
    </g>
    <g id="ytick_5">
     <g id="line2d_19">
      <path clip-path="url(#p724e811fb8)" d="M 72 192.100351 
L 518.4 192.100351 
" style="fill:none;stroke:#ffffff;stroke-linecap:round;"/>
     </g>
     <g id="line2d_20"/>
     <g id="text_11">
      <!-- 80 -->
      <defs>
       <path d="M 17.671875 38.8125 
Q 12.203125 40.828125 9.5625 44.53125 
Q 6.9375 48.25 6.9375 53.421875 
Q 6.9375 61.234375 12.546875 66.546875 
Q 18.171875 71.875 27.484375 71.875 
Q 36.859375 71.875 42.578125 66.421875 
Q 48.296875 60.984375 48.296875 53.171875 
Q 48.296875 48.1875 45.671875 44.5 
Q 43.0625 40.828125 37.75 38.8125 
Q 44.34375 36.671875 47.78125 31.875 
Q 51.21875 27.09375 51.21875 20.453125 
Q 51.21875 11.28125 44.71875 5.03125 
Q 38.234375 -1.21875 27.640625 -1.21875 
Q 17.046875 -1.21875 10.546875 5.046875 
Q 4.046875 11.328125 4.046875 20.703125 
Q 4.046875 27.6875 7.59375 32.390625 
Q 11.140625 37.109375 17.671875 38.8125 
z
M 15.921875 53.71875 
Q 15.921875 48.640625 19.1875 45.40625 
Q 22.46875 42.1875 27.6875 42.1875 
Q 32.765625 42.1875 36.015625 45.375 
Q 39.265625 48.578125 39.265625 53.21875 
Q 39.265625 58.0625 35.90625 61.359375 
Q 32.5625 64.65625 27.59375 64.65625 
Q 22.5625 64.65625 19.234375 61.421875 
Q 15.921875 58.203125 15.921875 53.71875 
z
M 13.09375 20.65625 
Q 13.09375 16.890625 14.875 13.375 
Q 16.65625 9.859375 20.171875 7.921875 
Q 23.6875 6 27.734375 6 
Q 34.03125 6 38.125 10.046875 
Q 42.234375 14.109375 42.234375 20.359375 
Q 42.234375 26.703125 38.015625 30.859375 
Q 33.796875 35.015625 27.4375 35.015625 
Q 21.234375 35.015625 17.15625 30.90625 
Q 13.09375 26.8125 13.09375 20.65625 
z
" id="ArialMT-56"/>
      </defs>
      <g style="fill:#262626;" transform="translate(53.878125 195.679258)scale(0.1 -0.1)">
       <use xlink:href="#ArialMT-56"/>
       <use x="55.615234" xlink:href="#ArialMT-48"/>
      </g>
     </g>
    </g>
    <g id="ytick_6">
     <g id="line2d_21">
      <path clip-path="url(#p724e811fb8)" d="M 72 155.734997 
L 518.4 155.734997 
" style="fill:none;stroke:#ffffff;stroke-linecap:round;"/>
     </g>
     <g id="line2d_22"/>
     <g id="text_12">
      <!-- 100 -->
      <g style="fill:#262626;" transform="translate(48.317188 159.313903)scale(0.1 -0.1)">
       <use xlink:href="#ArialMT-49"/>
       <use x="55.615234" xlink:href="#ArialMT-48"/>
       <use x="111.230469" xlink:href="#ArialMT-48"/>
      </g>
     </g>
    </g>
    <g id="ytick_7">
     <g id="line2d_23">
      <path clip-path="url(#p724e811fb8)" d="M 72 119.369642 
L 518.4 119.369642 
" style="fill:none;stroke:#ffffff;stroke-linecap:round;"/>
     </g>
     <g id="line2d_24"/>
     <g id="text_13">
      <!-- 120 -->
      <g style="fill:#262626;" transform="translate(48.317188 122.948548)scale(0.1 -0.1)">
       <use xlink:href="#ArialMT-49"/>
       <use x="55.615234" xlink:href="#ArialMT-50"/>
       <use x="111.230469" xlink:href="#ArialMT-48"/>
      </g>
     </g>
    </g>
    <g id="ytick_8">
     <g id="line2d_25">
      <path clip-path="url(#p724e811fb8)" d="M 72 83.004287 
L 518.4 83.004287 
" style="fill:none;stroke:#ffffff;stroke-linecap:round;"/>
     </g>
     <g id="line2d_26"/>
     <g id="text_14">
      <!-- 140 -->
      <g style="fill:#262626;" transform="translate(48.317188 86.583194)scale(0.1 -0.1)">
       <use xlink:href="#ArialMT-49"/>
       <use x="55.615234" xlink:href="#ArialMT-52"/>
       <use x="111.230469" xlink:href="#ArialMT-48"/>
      </g>
     </g>
    </g>
    <g id="text_15">
     <!-- Temperature (C°) -->
     <defs>
      <path d="M 6.59375 -19.875 
L 6.59375 51.859375 
L 14.59375 51.859375 
L 14.59375 45.125 
Q 17.4375 49.078125 21 51.046875 
Q 24.5625 53.03125 29.640625 53.03125 
Q 36.28125 53.03125 41.359375 49.609375 
Q 46.4375 46.1875 49.015625 39.953125 
Q 51.609375 33.734375 51.609375 26.3125 
Q 51.609375 18.359375 48.75 11.984375 
Q 45.90625 5.609375 40.453125 2.21875 
Q 35.015625 -1.171875 29 -1.171875 
Q 24.609375 -1.171875 21.109375 0.6875 
Q 17.625 2.546875 15.375 5.375 
L 15.375 -19.875 
z
M 14.546875 25.640625 
Q 14.546875 15.625 18.59375 10.84375 
Q 22.65625 6.0625 28.421875 6.0625 
Q 34.28125 6.0625 38.453125 11.015625 
Q 42.625 15.96875 42.625 26.375 
Q 42.625 36.28125 38.546875 41.203125 
Q 34.46875 46.140625 28.8125 46.140625 
Q 23.1875 46.140625 18.859375 40.890625 
Q 14.546875 35.640625 14.546875 25.640625 
z
" id="ArialMT-112"/>
      <path d="M 6.5 0 
L 6.5 51.859375 
L 14.40625 51.859375 
L 14.40625 44 
Q 17.4375 49.515625 20 51.265625 
Q 22.5625 53.03125 25.640625 53.03125 
Q 30.078125 53.03125 34.671875 50.203125 
L 31.640625 42.046875 
Q 28.421875 43.953125 25.203125 43.953125 
Q 22.3125 43.953125 20.015625 42.21875 
Q 17.71875 40.484375 16.75 37.40625 
Q 15.28125 32.71875 15.28125 27.15625 
L 15.28125 0 
z
" id="ArialMT-114"/>
      <path d="M 25.78125 7.859375 
L 27.046875 0.09375 
Q 23.34375 -0.6875 20.40625 -0.6875 
Q 15.625 -0.6875 12.984375 0.828125 
Q 10.359375 2.34375 9.28125 4.8125 
Q 8.203125 7.28125 8.203125 15.1875 
L 8.203125 45.015625 
L 1.765625 45.015625 
L 1.765625 51.859375 
L 8.203125 51.859375 
L 8.203125 64.703125 
L 16.9375 69.96875 
L 16.9375 51.859375 
L 25.78125 51.859375 
L 25.78125 45.015625 
L 16.9375 45.015625 
L 16.9375 14.703125 
Q 16.9375 10.9375 17.40625 9.859375 
Q 17.875 8.796875 18.921875 8.15625 
Q 19.96875 7.515625 21.921875 7.515625 
Q 23.390625 7.515625 25.78125 7.859375 
z
" id="ArialMT-116"/>
      <path d="M 40.578125 0 
L 40.578125 7.625 
Q 34.515625 -1.171875 24.125 -1.171875 
Q 19.53125 -1.171875 15.546875 0.578125 
Q 11.578125 2.34375 9.640625 5 
Q 7.71875 7.671875 6.9375 11.53125 
Q 6.390625 14.109375 6.390625 19.734375 
L 6.390625 51.859375 
L 15.1875 51.859375 
L 15.1875 23.09375 
Q 15.1875 16.21875 15.71875 13.8125 
Q 16.546875 10.359375 19.234375 8.375 
Q 21.921875 6.390625 25.875 6.390625 
Q 29.828125 6.390625 33.296875 8.421875 
Q 36.765625 10.453125 38.203125 13.9375 
Q 39.65625 17.4375 39.65625 24.078125 
L 39.65625 51.859375 
L 48.4375 51.859375 
L 48.4375 0 
z
" id="ArialMT-117"/>
      <path d="M 23.390625 -21.046875 
Q 16.109375 -11.859375 11.078125 0.4375 
Q 6.0625 12.75 6.0625 25.921875 
Q 6.0625 37.546875 9.8125 48.1875 
Q 14.203125 60.546875 23.390625 72.796875 
L 29.6875 72.796875 
Q 23.78125 62.640625 21.875 58.296875 
Q 18.890625 51.5625 17.1875 44.234375 
Q 15.09375 35.109375 15.09375 25.875 
Q 15.09375 2.390625 29.6875 -21.046875 
z
" id="ArialMT-40"/>
      <path d="M 58.796875 25.09375 
L 68.265625 22.703125 
Q 65.28125 11.03125 57.546875 4.90625 
Q 49.8125 -1.21875 38.625 -1.21875 
Q 27.046875 -1.21875 19.796875 3.484375 
Q 12.546875 8.203125 8.765625 17.140625 
Q 4.984375 26.078125 4.984375 36.328125 
Q 4.984375 47.515625 9.25 55.828125 
Q 13.53125 64.15625 21.40625 68.46875 
Q 29.296875 72.796875 38.765625 72.796875 
Q 49.515625 72.796875 56.828125 67.328125 
Q 64.15625 61.859375 67.046875 51.953125 
L 57.71875 49.75 
Q 55.21875 57.5625 50.484375 61.125 
Q 45.75 64.703125 38.578125 64.703125 
Q 30.328125 64.703125 24.78125 60.734375 
Q 19.234375 56.78125 16.984375 50.109375 
Q 14.75 43.453125 14.75 36.375 
Q 14.75 27.25 17.40625 20.4375 
Q 20.0625 13.625 25.671875 10.25 
Q 31.296875 6.890625 37.84375 6.890625 
Q 45.796875 6.890625 51.3125 11.46875 
Q 56.84375 16.0625 58.796875 25.09375 
z
" id="ArialMT-67"/>
      <path d="M 6.25 59.28125 
Q 6.25 64.890625 10.21875 68.84375 
Q 14.203125 72.796875 19.78125 72.796875 
Q 25.4375 72.796875 29.390625 68.84375 
Q 33.34375 64.890625 33.34375 59.28125 
Q 33.34375 53.65625 29.359375 49.671875 
Q 25.390625 45.703125 19.78125 45.703125 
Q 14.203125 45.703125 10.21875 49.65625 
Q 6.25 53.609375 6.25 59.28125 
z
M 11.578125 59.28125 
Q 11.578125 55.859375 13.984375 53.4375 
Q 16.40625 51.03125 19.828125 51.03125 
Q 23.1875 51.03125 25.609375 53.4375 
Q 28.03125 55.859375 28.03125 59.28125 
Q 28.03125 62.703125 25.609375 65.109375 
Q 23.1875 67.53125 19.828125 67.53125 
Q 16.40625 67.53125 13.984375 65.109375 
Q 11.578125 62.703125 11.578125 59.28125 
z
" id="ArialMT-176"/>
      <path d="M 12.359375 -21.046875 
L 6.0625 -21.046875 
Q 20.65625 2.390625 20.65625 25.875 
Q 20.65625 35.0625 18.5625 44.09375 
Q 16.890625 51.421875 13.921875 58.15625 
Q 12.015625 62.546875 6.0625 72.796875 
L 12.359375 72.796875 
Q 21.53125 60.546875 25.921875 48.1875 
Q 29.6875 37.546875 29.6875 25.921875 
Q 29.6875 12.75 24.625 0.4375 
Q 19.578125 -11.859375 12.359375 -21.046875 
z
" id="ArialMT-41"/>
     </defs>
     <g style="fill:#262626;" transform="translate(40.52875 270.073125)rotate(-90)scale(0.18 -0.18)">
      <use xlink:href="#ArialMT-84"/>
      <use x="60.912109" xlink:href="#ArialMT-101"/>
      <use x="116.527344" xlink:href="#ArialMT-109"/>
      <use x="199.828125" xlink:href="#ArialMT-112"/>
      <use x="255.443359" xlink:href="#ArialMT-101"/>
      <use x="311.058594" xlink:href="#ArialMT-114"/>
      <use x="344.359375" xlink:href="#ArialMT-97"/>
      <use x="399.974609" xlink:href="#ArialMT-116"/>
      <use x="427.757812" xlink:href="#ArialMT-117"/>
      <use x="483.373047" xlink:href="#ArialMT-114"/>
      <use x="516.673828" xlink:href="#ArialMT-101"/>
      <use x="572.289062" xlink:href="#ArialMT-32"/>
      <use x="600.072266" xlink:href="#ArialMT-40"/>
      <use x="633.373047" xlink:href="#ArialMT-67"/>
      <use x="705.589844" xlink:href="#ArialMT-176"/>
      <use x="745.580078" xlink:href="#ArialMT-41"/>
     </g>
    </g>
   </g>
   <g id="line2d_27">
    <path clip-path="url(#p724e811fb8)" d="M 72 301.196415 
L 518.4 301.196415 
" style="fill:none;stroke:#ffff00;stroke-dasharray:2,3.3;stroke-dashoffset:0;stroke-width:2;"/>
   </g>
   <g id="line2d_28">
    <path clip-path="url(#p724e811fb8)" d="M 92.290909 338.58 
L 109.064915 338.58 
L 109.205873 335.179839 
L 125.979879 335.179839 
L 126.120837 331.797861 
L 142.894844 331.797861 
L 143.035802 328.397701 
L 159.809808 328.397701 
L 159.950766 325.015723 
L 176.724772 325.015723 
L 176.86573 321.615562 
L 193.639736 321.615562 
L 193.780694 318.233584 
L 210.5547 318.233584 
L 210.695658 314.833423 
L 227.469664 314.833423 
L 227.610622 311.433263 
L 244.384629 311.433263 
L 244.525587 308.051285 
L 261.299593 308.051285 
L 261.440551 304.651124 
L 278.214557 304.651124 
L 278.355515 301.269146 
L 295.129521 301.269146 
L 295.270479 297.868985 
L 312.044485 297.868985 
L 312.185443 294.487007 
L 328.959449 294.487007 
L 329.100407 291.086847 
L 345.874413 291.086847 
L 346.015371 295.359776 
L 362.789378 295.359776 
L 362.930336 299.632705 
L 379.704342 299.632705 
L 379.8453 303.887452 
L 396.619306 303.887452 
L 396.760264 308.160381 
L 413.53427 308.160381 
L 413.675228 312.415127 
L 430.449234 312.415127 
L 430.590192 316.688056 
L 447.364198 316.688056 
L 447.505156 320.942803 
L 464.279163 320.942803 
L 464.420121 325.215732 
L 481.194127 325.215732 
L 481.335085 329.488661 
L 498.109091 329.488661 
L 498.109091 329.488661 
" style="fill:none;stroke:#c44e52;stroke-linecap:round;stroke-width:1.75;"/>
   </g>
   <g id="line2d_29">
    <path clip-path="url(#p724e811fb8)" d="M 92.290909 304.955452 
L 92.431867 305.077508 
L 93.418573 299.602869 
L 93.700489 299.107027 
L 93.982406 299.293559 
L 97.506356 302.70772 
L 100.043601 304.980663 
L 101.030307 299.508458 
L 101.312223 299.0133 
L 101.594139 299.200512 
L 105.11809 302.622759 
L 107.796293 305.023339 
L 108.782999 299.550061 
L 109.064915 299.054602 
L 109.346831 299.216874 
L 113.01174 302.461411 
L 116.112817 304.977069 
L 117.099523 299.419492 
L 117.381439 298.900339 
L 117.663355 299.063729 
L 121.328264 302.322082 
L 124.570299 304.958556 
L 125.557005 299.401444 
L 125.838921 298.882421 
L 126.120837 299.033665 
L 129.785746 301.989612 
L 133.591613 304.777319 
L 133.873529 304.973131 
L 134.860236 299.330647 
L 135.142152 298.787629 
L 135.424068 298.927328 
L 139.088977 301.892869 
L 142.894844 304.689623 
L 143.317718 304.946867 
L 144.304424 299.219581 
L 144.58634 298.652727 
L 144.868256 298.768763 
L 148.674123 301.5397 
L 152.620948 304.139872 
L 153.88957 304.920961 
L 154.876276 299.194326 
L 155.158193 298.627656 
L 155.440109 298.743873 
L 159.245976 301.517138 
L 160.937472 302.567979 
L 165.166213 304.888111 
L 165.307171 304.961174 
L 166.293877 299.148523 
L 166.575793 298.557676 
L 166.857709 298.649892 
L 170.804534 301.202416 
L 174.892317 303.585899 
L 177.57052 304.943212 
L 178.557226 299.04555 
L 178.839142 298.43081 
L 179.121058 298.499304 
L 183.349799 300.888532 
L 187.719499 303.098279 
L 191.807282 304.95168 
L 192.793988 299.053806 
L 193.075904 298.439005 
L 193.35782 298.507441 
L 194.908358 299.304679 
L 199.419015 301.38411 
L 204.211589 303.343797 
L 208.44033 304.882761 
L 209.427036 298.901613 
L 209.708952 298.263407 
L 209.990868 298.308607 
L 211.682364 299.061919 
L 216.615896 300.946823 
L 221.831343 302.695063 
L 227.328706 304.300099 
L 228.597329 304.541772 
L 230.429783 304.85999 
L 231.275531 299.63144 
L 231.557447 298.938665 
L 231.839363 298.929691 
L 237.195769 300.543489 
L 242.975048 302.051907 
L 245.371335 302.529312 
L 253.405943 303.563093 
L 261.440551 304.390995 
L 279.201263 304.401609 
L 290.055032 303.636571 
L 296.680059 303.131293 
L 304.996583 302.115129 
L 314.722688 300.947042 
L 322.193464 299.81458 
L 332.201484 298.329427 
L 336.571183 297.557282 
L 340.518008 300.222625 
L 342.068547 301.197686 
L 346.297288 300.199023 
L 354.895728 299.236256 
L 363.071294 298.530059 
L 381.677754 299.161622 
L 390.417152 300.115567 
L 398.310802 300.992997 
L 405.358704 302.18462 
L 413.111396 303.267901 
L 414.520976 303.549566 
L 420.864088 304.887891 
L 421.709836 299.679931 
L 421.991752 298.993919 
L 422.273668 298.99166 
L 427.489116 300.681594 
L 432.281689 302.243573 
L 437.356178 304.016047 
L 440.175339 304.904985 
L 441.162045 298.884432 
L 441.443961 298.23515 
L 441.725877 298.269355 
L 446.236534 300.292737 
L 448.773779 301.483527 
L 453.284436 303.621222 
L 456.244555 304.894792 
L 457.231261 298.981438 
L 457.513177 298.362286 
L 457.795093 298.426402 
L 462.023834 300.753631 
L 466.675449 303.292905 
L 469.776526 304.97851 
L 470.763232 299.17045 
L 471.045148 298.580894 
L 471.327064 298.674391 
L 475.273889 301.243907 
L 479.361672 303.643256 
L 481.757959 304.998225 
L 482.744665 299.29707 
L 483.026581 298.737561 
L 483.308497 298.860887 
L 487.114364 301.725237 
L 491.061189 304.413065 
L 491.906937 304.954276 
L 492.893644 299.254225 
L 493.17556 298.695027 
L 493.457476 298.818662 
L 497.263343 301.68696 
L 498.109091 302.28701 
L 498.109091 302.28701 
" style="fill:none;stroke:#0000ff;stroke-dasharray:6.475,2.8;stroke-dashoffset:0;stroke-width:1.75;"/>
   </g>
   <g id="line2d_30">
    <path clip-path="url(#p724e811fb8)" d="M 92.290909 304.955452 
L 94.687196 291.091788 
L 94.969112 290.271458 
L 95.11007 290.1535 
L 95.391986 290.404916 
L 95.532944 290.579791 
L 98.493063 274.519006 
L 100.466475 264.566902 
L 100.748391 263.938791 
L 100.889349 263.916421 
L 101.171265 264.357971 
L 101.312223 264.627396 
L 101.735097 262.91902 
L 102.017013 262.689017 
L 102.29893 263.139463 
L 102.439888 263.413311 
L 103.285636 259.665225 
L 103.426594 259.464933 
L 103.567552 259.458803 
L 103.849468 259.932657 
L 103.990426 260.218145 
L 106.950545 246.389701 
L 108.782999 238.437191 
L 109.064915 237.998437 
L 109.205873 238.057887 
L 109.628747 239.012546 
L 109.910663 239.709449 
L 110.333538 238.234551 
L 110.474496 238.099709 
L 110.615454 238.158791 
L 111.038328 239.112355 
L 111.179286 239.461078 
L 111.60216 237.988875 
L 111.743118 237.854925 
L 111.884076 237.914896 
L 112.30695 238.871106 
L 113.01174 236.185778 
L 113.152698 236.058374 
L 113.293656 236.124866 
L 113.71653 237.100499 
L 114.844195 232.653202 
L 114.985153 232.538621 
L 115.126111 232.61789 
L 115.548985 233.631575 
L 116.535691 229.867254 
L 116.676649 229.762785 
L 116.817607 229.85213 
L 117.240481 230.895825 
L 117.522397 230.100915 
L 117.663355 229.995599 
L 117.804313 230.084099 
L 118.227187 231.125277 
L 121.187306 219.18589 
L 122.31497 214.965623 
L 122.596887 214.672322 
L 122.737845 214.816445 
L 123.160719 216.023284 
L 123.583593 214.805392 
L 123.724551 214.755597 
L 123.865509 214.899418 
L 124.288383 216.105357 
L 124.570299 216.968264 
L 124.852215 216.274284 
L 124.993173 216.219158 
L 125.134131 216.357666 
L 125.557005 217.547782 
L 126.261795 215.222162 
L 126.402753 215.158579 
L 126.543712 215.28866 
L 126.966586 216.45368 
L 128.939998 209.047164 
L 129.221914 208.772244 
L 129.362872 208.925508 
L 129.785746 210.15957 
L 130.20862 208.968605 
L 130.349578 208.927722 
L 130.490536 209.080422 
L 130.913411 210.312803 
L 133.168739 202.212794 
L 133.450655 201.987401 
L 133.591613 202.165294 
L 134.155445 203.938526 
L 134.578319 202.815062 
L 134.719278 202.796516 
L 134.860236 202.971471 
L 135.28311 204.270138 
L 135.9879 202.147333 
L 136.128858 202.13121 
L 136.269816 202.308581 
L 136.69269 203.61444 
L 138.807061 196.36828 
L 138.948019 196.179702 
L 139.088977 196.185242 
L 139.229935 196.384196 
L 139.652809 197.754338 
L 139.934725 197.175088 
L 140.075683 197.177015 
L 140.216641 197.37237 
L 140.639515 198.731789 
L 143.740592 188.403541 
L 144.022508 187.867415 
L 144.163466 187.890786 
L 144.445382 188.516875 
L 144.727298 189.530561 
L 145.009214 188.986267 
L 145.150172 189.005577 
L 145.432088 189.623587 
L 145.714004 190.629253 
L 145.99592 189.790351 
L 146.136878 189.613307 
L 146.277836 189.630341 
L 146.559752 190.243823 
L 146.841669 191.244994 
L 147.405501 189.471504 
L 147.546459 189.295618 
L 147.687417 189.313805 
L 147.969333 189.929581 
L 148.251249 190.933029 
L 151.07041 181.885457 
L 151.352326 181.396566 
L 151.493284 181.443426 
L 151.7752 182.116238 
L 152.339032 184.228695 
L 152.620948 183.436177 
L 152.761906 183.282199 
L 152.902864 183.322214 
L 153.18478 183.98141 
L 153.466696 185.027964 
L 156.567773 175.565332 
L 159.105018 168.460475 
L 159.245976 168.360859 
L 159.386934 168.455038 
L 159.66885 169.221973 
L 160.091724 170.924594 
L 160.37364 170.490626 
L 160.514598 170.564797 
L 160.796514 171.291935 
L 161.219388 172.959909 
L 161.642262 171.812341 
L 161.78322 171.688281 
L 161.924178 171.758106 
L 162.206094 172.476596 
L 162.769926 174.679421 
L 163.615675 172.267088 
L 163.756633 172.141378 
L 163.897591 172.209557 
L 164.179507 172.924776 
L 164.461423 174.026946 
L 165.307171 171.628696 
L 165.448129 171.505303 
L 165.589087 171.575791 
L 165.871003 172.295603 
L 166.152919 173.402332 
L 166.575793 172.249964 
L 166.716751 172.124316 
L 166.857709 172.192557 
L 167.139626 172.907899 
L 167.421542 174.010192 
L 168.97208 169.57723 
L 169.113038 169.461283 
L 169.253996 169.539191 
L 169.535912 170.273762 
L 169.817828 171.395143 
L 172.918905 162.720679 
L 175.45615 156.121845 
L 175.738066 155.795149 
L 175.879024 155.922665 
L 176.16094 156.755911 
L 177.147646 160.948197 
L 177.429562 160.561885 
L 177.57052 160.659756 
L 177.852436 161.434033 
L 178.134352 162.594834 
L 178.416268 162.196589 
L 178.557226 162.288525 
L 178.839142 163.050999 
L 179.121058 164.200082 
L 180.107765 161.553326 
L 180.248723 161.454164 
L 180.389681 161.548795 
L 180.671597 162.31663 
L 181.235429 164.617074 
L 181.517345 164.204174 
L 181.658303 164.288823 
L 181.940219 165.036801 
L 182.222135 166.171494 
L 182.504051 165.74733 
L 182.645009 165.826377 
L 182.926925 166.563213 
L 183.208841 167.686844 
L 185.041296 162.585136 
L 185.182254 162.482228 
L 185.323212 162.573128 
L 185.605128 163.33354 
L 186.16896 165.619298 
L 186.450876 165.199136 
L 186.591834 165.280173 
L 186.87375 166.020967 
L 187.155666 167.148527 
L 187.437582 166.717283 
L 187.578541 166.792809 
L 187.860457 167.522642 
L 188.424289 169.747905 
L 191.525365 160.938663 
L 195.190274 151.264234 
L 197.586561 145.394556 
L 197.727519 145.341772 
L 197.868477 145.482615 
L 198.150393 146.342369 
L 201.110512 158.980679 
L 201.95626 162.417863 
L 202.379134 161.311092 
L 202.520092 161.200532 
L 202.66105 161.283808 
L 202.942966 162.029055 
L 203.224882 163.161035 
L 206.325959 154.59821 
L 207.030749 152.839368 
L 207.171707 152.759561 
L 207.312665 152.873477 
L 207.594581 153.679671 
L 207.876498 154.872158 
L 208.158414 154.505369 
L 208.299372 154.612948 
L 208.581288 155.406537 
L 209.14512 157.75793 
L 209.427036 157.370229 
L 209.567994 157.467409 
L 209.84991 158.240312 
L 210.131826 159.399748 
L 213.937693 149.145665 
L 214.078651 149.066922 
L 214.219609 149.181901 
L 214.501525 149.990207 
L 214.783441 151.18479 
L 215.206315 150.16301 
L 215.347273 150.080575 
L 215.488231 150.191873 
L 215.770147 150.99286 
L 216.33398 153.35889 
L 217.03877 151.561112 
L 217.179728 151.473602 
L 217.320686 151.579844 
L 217.602602 152.370773 
L 217.884518 153.548104 
L 218.166434 152.879624 
L 218.307392 152.787328 
L 218.44835 152.888801 
L 218.730266 153.670244 
L 219.012182 154.838158 
L 219.435056 153.776738 
L 219.576014 153.681185 
L 219.716972 153.779413 
L 219.998889 154.554402 
L 220.985595 158.582986 
L 221.267511 157.878019 
L 221.408469 157.767578 
L 221.549427 157.850973 
L 221.831343 158.596456 
L 222.395175 160.852682 
L 222.818049 159.726001 
L 222.959007 159.608853 
L 223.099965 159.685564 
L 223.381881 160.417752 
L 223.663797 161.536769 
L 224.086672 160.402665 
L 224.22763 160.28306 
L 224.368588 160.357324 
L 224.650504 161.084644 
L 225.073378 162.752889 
L 225.63721 161.194972 
L 225.778168 161.072491 
L 225.919126 161.143889 
L 226.201042 161.865509 
L 226.623916 163.525281 
L 226.905832 162.784498 
L 227.04679 162.656247 
L 227.187748 162.721896 
L 227.469664 163.432081 
L 227.75158 164.504614 
L 228.033496 164.01874 
L 228.174455 164.067101 
L 228.456371 164.742897 
L 228.738287 165.80593 
L 229.020203 165.310626 
L 229.161161 165.354297 
L 229.443077 166.020765 
L 229.724993 167.074538 
L 230.570741 164.533191 
L 230.711699 164.38625 
L 230.852657 164.433276 
L 231.134573 165.106419 
L 231.416489 166.166818 
L 231.839363 164.945582 
L 231.980321 164.797144 
L 232.121279 164.84268 
L 232.403196 165.512855 
L 232.82607 167.096158 
L 233.107986 166.591504 
L 233.248944 166.630526 
L 233.53086 167.287745 
L 233.812776 168.332337 
L 234.658524 165.763842 
L 234.799482 165.612434 
L 234.94044 165.655009 
L 235.222356 166.319298 
L 235.504272 167.370908 
L 235.786188 166.864263 
L 235.927146 166.902294 
L 236.209062 167.557544 
L 236.490979 168.60018 
L 236.913853 167.352542 
L 237.054811 167.195367 
L 237.195769 167.232196 
L 237.477685 167.885056 
L 237.759601 168.925318 
L 239.310139 164.159141 
L 239.451097 164.013558 
L 239.592055 164.061938 
L 239.873971 164.737771 
L 240.155887 165.800842 
L 240.437804 165.305575 
L 240.578762 165.349264 
L 240.860678 166.015769 
L 241.142594 167.069578 
L 241.42451 166.565116 
L 241.565468 166.604234 
L 241.847384 167.261644 
L 242.270258 168.825972 
L 244.24367 162.772738 
L 244.384629 162.632188 
L 244.525587 162.673305 
L 244.807503 163.334693 
L 245.089419 164.383423 
L 245.653251 162.704018 
L 245.794209 162.551441 
L 245.935167 162.592851 
L 246.217083 163.254822 
L 248.754328 172.42943 
L 249.036244 171.861618 
L 249.177202 171.869233 
L 249.459118 172.46398 
L 249.741034 173.446552 
L 250.163908 172.396279 
L 250.304866 172.401953 
L 250.445824 172.60104 
L 250.868698 173.971579 
L 252.13732 169.803206 
L 252.278278 169.624859 
L 252.419236 169.640593 
L 252.701153 170.25149 
L 252.983069 171.250096 
L 254.251691 167.169353 
L 254.392649 167.000567 
L 254.533607 167.025827 
L 254.815523 167.655673 
L 256.084145 172.176335 
L 256.507019 171.139844 
L 256.647978 171.150079 
L 256.929894 171.750038 
L 257.352768 173.228968 
L 260.453844 163.109141 
L 261.722467 159.25364 
L 261.863425 159.101245 
L 262.004383 159.142837 
L 262.286299 159.805169 
L 262.991089 162.415092 
L 263.554921 160.71501 
L 263.695879 160.55731 
L 263.836837 160.593617 
L 264.118753 161.245436 
L 264.400669 162.284665 
L 264.964502 160.586467 
L 265.10546 160.429234 
L 265.246418 160.466005 
L 265.528334 161.118749 
L 265.81025 162.158897 
L 267.078872 158.261403 
L 267.21983 158.112609 
L 267.360788 158.15779 
L 267.642704 158.827261 
L 268.770368 163.00855 
L 269.052285 162.197723 
L 269.193243 162.03464 
L 269.334201 162.065584 
L 269.616117 162.706736 
L 270.179949 164.756562 
L 270.461865 163.933068 
L 270.602823 163.763686 
L 270.743781 163.788354 
L 271.025697 164.417021 
L 271.307613 165.433267 
L 273.562942 158.335603 
L 273.7039 158.18654 
L 273.844858 158.231453 
L 274.126774 158.90039 
L 274.40869 159.956613 
L 274.690606 159.45455 
L 274.831564 159.494859 
L 275.11348 160.154641 
L 275.536354 161.722493 
L 275.81827 161.207633 
L 275.959228 161.241579 
L 276.241144 161.888702 
L 277.368809 165.982208 
L 277.650725 165.149832 
L 277.791683 164.976033 
L 277.932641 164.9963 
L 278.214557 165.616214 
L 278.496473 166.599261 
L 280.469885 160.152032 
L 280.610843 159.984099 
L 280.751801 160.01021 
L 281.033718 160.641748 
L 281.315634 161.660844 
L 281.59755 160.835275 
L 281.738508 160.664862 
L 281.879466 160.688502 
L 282.161382 161.315125 
L 282.443298 162.329341 
L 283.148088 160.125519 
L 283.289046 159.957682 
L 283.430004 159.983889 
L 283.71192 160.615618 
L 284.134794 162.141773 
L 284.41671 161.312719 
L 284.557668 161.140573 
L 284.698626 161.162486 
L 284.980542 161.785674 
L 287.094913 169.190525 
L 287.376829 168.597037 
L 287.517787 168.591883 
L 287.658745 168.780182 
L 288.081619 170.118589 
L 289.4912 165.380615 
L 289.632158 165.193703 
L 289.773116 165.200903 
L 290.055032 165.794825 
L 290.336948 166.776578 
L 292.028444 161.235911 
L 292.169402 161.064043 
L 292.31036 161.086234 
L 292.592276 161.709975 
L 294.142815 167.182493 
L 294.424731 166.603557 
L 294.565689 166.605639 
L 294.706647 166.801148 
L 295.270479 168.631866 
L 295.693353 170.034147 
L 295.975269 169.409905 
L 296.116227 169.389458 
L 296.257185 169.562519 
L 296.680059 170.855545 
L 296.961975 170.22535 
L 297.102933 170.201943 
L 297.243892 170.372055 
L 297.666766 171.656296 
L 299.076346 166.741978 
L 299.358262 166.52776 
L 299.49922 166.711209 
L 300.063052 168.506466 
L 300.344968 167.893295 
L 300.485926 167.878353 
L 300.626884 168.0569 
L 301.190716 169.832724 
L 302.177423 173.050891 
L 302.459339 172.404787 
L 302.600297 172.373469 
L 302.741255 172.535698 
L 303.164129 173.796463 
L 304.855625 167.810854 
L 305.137541 167.58889 
L 305.278499 167.768487 
L 305.842332 169.548476 
L 306.829038 172.773789 
L 307.110954 172.129693 
L 307.251912 172.099373 
L 307.39287 172.262597 
L 307.956702 173.977687 
L 308.238618 174.8755 
L 308.80245 173.184182 
L 308.943408 173.150034 
L 309.084366 173.309445 
L 309.507241 174.561814 
L 309.789157 173.904761 
L 309.930115 173.867997 
L 310.071073 174.024802 
L 310.493947 175.269409 
L 311.621611 171.238548 
L 311.903527 170.991744 
L 312.044485 171.15899 
L 312.467359 172.397996 
L 313.313107 169.662644 
L 313.454065 169.629003 
L 313.595024 169.788918 
L 314.017898 171.042791 
L 314.299814 170.386731 
L 314.440772 170.350461 
L 314.58173 170.507757 
L 315.004604 171.75383 
L 315.568436 170.058753 
L 315.709394 170.023674 
L 315.850352 170.182157 
L 316.273226 171.431763 
L 316.555142 170.772884 
L 316.6961 170.735212 
L 316.837058 170.891112 
L 317.40089 172.577168 
L 317.541848 173.019698 
L 318.105681 171.306341 
L 318.246639 171.266733 
L 318.387597 171.420703 
L 318.951429 173.099111 
L 319.233345 173.978783 
L 319.515261 173.301446 
L 319.656219 173.254596 
L 319.797177 173.401351 
L 320.220051 174.616027 
L 320.642925 175.916682 
L 320.924841 175.225301 
L 321.065799 175.171468 
L 321.206757 175.311264 
L 321.629632 176.505217 
L 324.58975 165.589831 
L 327.690827 155.014431 
L 328.677533 151.916683 
L 328.818491 151.754025 
L 328.959449 151.785392 
L 329.241365 152.402745 
L 332.201484 162.5995 
L 333.892981 168.085977 
L 334.315855 166.909797 
L 334.456813 166.873806 
L 334.597771 167.03138 
L 335.020645 168.27828 
L 337.980764 157.717783 
L 338.26268 157.133646 
L 338.403638 157.133142 
L 338.544596 157.326075 
L 338.96747 158.678282 
L 339.390344 157.604179 
L 339.531302 157.601967 
L 339.67226 157.793198 
L 340.236092 159.619299 
L 340.518008 160.572016 
L 340.799924 159.967195 
L 340.940882 159.956406 
L 341.08184 160.13909 
L 341.645672 161.931314 
L 341.927588 162.867276 
L 342.491421 161.251429 
L 342.632379 161.235978 
L 342.773337 161.414017 
L 343.196211 162.721868 
L 345.592497 154.537867 
L 345.733455 154.353352 
L 345.874413 154.362941 
L 346.15633 154.99258 
L 346.720162 157.019629 
L 347.002078 156.471517 
L 347.143036 156.488927 
L 347.424952 157.10316 
L 349.68028 164.918106 
L 349.962196 164.312755 
L 350.103155 164.301702 
L 350.244113 164.484123 
L 350.666987 165.805025 
L 351.653693 162.457995 
L 351.794651 162.260241 
L 351.935609 162.256638 
L 352.076567 162.446483 
L 352.640399 164.267092 
L 352.781357 164.742956 
L 353.486147 162.675812 
L 353.627105 162.670701 
L 353.768063 162.859043 
L 354.331896 164.673694 
L 354.472854 165.148082 
L 354.75477 164.541064 
L 354.895728 164.529182 
L 355.036686 164.710778 
L 355.600518 166.498688 
L 355.882434 167.432516 
L 356.16435 166.808944 
L 356.305308 166.78883 
L 356.446266 166.962223 
L 356.86914 168.256236 
L 357.151056 167.626694 
L 357.292014 167.603612 
L 357.432972 167.774047 
L 357.855846 169.059252 
L 358.278721 167.918875 
L 358.419679 167.894731 
L 358.560637 168.06411 
L 358.983511 169.346168 
L 359.829259 166.695521 
L 359.970217 166.675818 
L 360.111175 166.849622 
L 360.534049 168.144857 
L 363.35321 158.439974 
L 366.454287 148.809956 
L 367.159077 146.820248 
L 367.300035 146.694769 
L 367.440993 146.76318 
L 367.722909 147.478857 
L 368.004825 148.581483 
L 368.286741 148.125485 
L 368.427699 148.188702 
L 368.709615 148.89405 
L 371.669734 159.977116 
L 372.515482 162.991328 
L 372.938356 161.963153 
L 373.079314 161.97614 
L 373.36123 162.581573 
L 373.784104 164.06864 
L 374.347936 162.558854 
L 374.488895 162.569679 
L 374.770811 163.17081 
L 375.052727 164.15972 
L 375.616559 162.648619 
L 375.757517 162.659117 
L 376.039433 163.259601 
L 376.885181 166.202966 
L 377.167097 165.619269 
L 377.308055 165.618984 
L 377.449013 165.812134 
L 378.012845 167.645845 
L 378.294761 168.602325 
L 378.576678 168.00124 
L 378.717636 167.992309 
L 378.858594 168.176844 
L 379.281468 169.504041 
L 381.395838 162.449278 
L 384.496915 152.838132 
L 387.597992 143.965969 
L 390.699068 135.77597 
L 393.800145 128.215685 
L 396.760264 121.557467 
L 399.861341 115.418953 
L 402.962418 109.752419 
L 406.204452 104.293607 
L 409.446487 99.272804 
L 412.688522 94.654866 
L 414.661934 92.149316 
L 418.044927 88.290194 
L 421.568878 84.612844 
L 425.092829 81.255072 
L 428.757738 78.072169 
L 431.154024 76.22496 
L 435.100849 73.710102 
L 439.188632 71.361791 
L 443.558331 69.110832 
L 447.505156 67.30015 
L 452.861562 65.648453 
L 458.640841 64.10461 
L 464.279163 62.804751 
L 473.723351 61.93355 
L 481.617001 61.398107 
L 496.840469 61.934257 
L 498.109091 61.970145 
L 498.109091 61.970145 
" style="fill:none;stroke:#55a868;stroke-linecap:round;stroke-width:1.75;"/>
   </g>
   <g id="patch_3">
    <path d="M 72 352.44 
L 72 47.52 
" style="fill:none;"/>
   </g>
   <g id="patch_4">
    <path d="M 518.4 352.44 
L 518.4 47.52 
" style="fill:none;"/>
   </g>
   <g id="patch_5">
    <path d="M 72 352.44 
L 518.4 352.44 
" style="fill:none;"/>
   </g>
   <g id="patch_6">
    <path d="M 72 47.52 
L 518.4 47.52 
" style="fill:none;"/>
   </g>
   <g id="text_16">
    <!-- 24 Hour HVAC House temperature Standard Thermostat vs RL Thermostat -->
    <defs>
     <path d="M 8.015625 0 
L 8.015625 71.578125 
L 17.484375 71.578125 
L 17.484375 42.1875 
L 54.6875 42.1875 
L 54.6875 71.578125 
L 64.15625 71.578125 
L 64.15625 0 
L 54.6875 0 
L 54.6875 33.734375 
L 17.484375 33.734375 
L 17.484375 0 
z
" id="ArialMT-72"/>
     <path d="M 28.171875 0 
L 0.4375 71.578125 
L 10.6875 71.578125 
L 29.296875 19.578125 
Q 31.546875 13.328125 33.0625 7.859375 
Q 34.71875 13.71875 36.921875 19.578125 
L 56.25 71.578125 
L 65.921875 71.578125 
L 37.890625 0 
z
" id="ArialMT-86"/>
     <path d="M -0.140625 0 
L 27.34375 71.578125 
L 37.546875 71.578125 
L 66.84375 0 
L 56.0625 0 
L 47.703125 21.6875 
L 17.78125 21.6875 
L 9.90625 0 
z
M 20.515625 29.390625 
L 44.78125 29.390625 
L 37.3125 49.21875 
Q 33.890625 58.25 32.234375 64.0625 
Q 30.859375 57.171875 28.375 50.390625 
z
" id="ArialMT-65"/>
     <path d="M 3.078125 15.484375 
L 11.765625 16.84375 
Q 12.5 11.625 15.84375 8.84375 
Q 19.1875 6.0625 25.203125 6.0625 
Q 31.25 6.0625 34.171875 8.515625 
Q 37.109375 10.984375 37.109375 14.3125 
Q 37.109375 17.28125 34.515625 19 
Q 32.71875 20.171875 25.53125 21.96875 
Q 15.875 24.421875 12.140625 26.203125 
Q 8.40625 27.984375 6.46875 31.125 
Q 4.546875 34.28125 4.546875 38.09375 
Q 4.546875 41.546875 6.125 44.5 
Q 7.71875 47.46875 10.453125 49.421875 
Q 12.5 50.921875 16.03125 51.96875 
Q 19.578125 53.03125 23.640625 53.03125 
Q 29.734375 53.03125 34.34375 51.265625 
Q 38.96875 49.515625 41.15625 46.5 
Q 43.359375 43.5 44.1875 38.484375 
L 35.59375 37.3125 
Q 35.015625 41.3125 32.203125 43.546875 
Q 29.390625 45.796875 24.265625 45.796875 
Q 18.21875 45.796875 15.625 43.796875 
Q 13.03125 41.796875 13.03125 39.109375 
Q 13.03125 37.40625 14.109375 36.03125 
Q 15.1875 34.625 17.484375 33.6875 
Q 18.796875 33.203125 25.25 31.453125 
Q 34.578125 28.953125 38.25 27.359375 
Q 41.9375 25.78125 44.03125 22.75 
Q 46.140625 19.734375 46.140625 15.234375 
Q 46.140625 10.84375 43.578125 6.953125 
Q 41.015625 3.078125 36.171875 0.953125 
Q 31.34375 -1.171875 25.25 -1.171875 
Q 15.140625 -1.171875 9.84375 3.03125 
Q 4.546875 7.234375 3.078125 15.484375 
z
" id="ArialMT-115"/>
     <path d="M 4.5 23 
L 13.421875 23.78125 
Q 14.0625 18.40625 16.375 14.96875 
Q 18.703125 11.53125 23.578125 9.40625 
Q 28.46875 7.28125 34.578125 7.28125 
Q 39.984375 7.28125 44.140625 8.890625 
Q 48.296875 10.5 50.3125 13.296875 
Q 52.34375 16.109375 52.34375 19.4375 
Q 52.34375 22.796875 50.390625 25.3125 
Q 48.4375 27.828125 43.953125 29.546875 
Q 41.0625 30.671875 31.203125 33.03125 
Q 21.34375 35.40625 17.390625 37.5 
Q 12.25 40.1875 9.734375 44.15625 
Q 7.234375 48.140625 7.234375 53.078125 
Q 7.234375 58.5 10.296875 63.203125 
Q 13.375 67.921875 19.28125 70.359375 
Q 25.203125 72.796875 32.421875 72.796875 
Q 40.375 72.796875 46.453125 70.234375 
Q 52.546875 67.671875 55.8125 62.6875 
Q 59.078125 57.71875 59.328125 51.421875 
L 50.25 50.734375 
Q 49.515625 57.515625 45.28125 60.984375 
Q 41.0625 64.453125 32.8125 64.453125 
Q 24.21875 64.453125 20.28125 61.296875 
Q 16.359375 58.15625 16.359375 53.71875 
Q 16.359375 49.859375 19.140625 47.359375 
Q 21.875 44.875 33.421875 42.265625 
Q 44.96875 39.65625 49.265625 37.703125 
Q 55.515625 34.8125 58.484375 30.390625 
Q 61.46875 25.984375 61.46875 20.21875 
Q 61.46875 14.5 58.203125 9.4375 
Q 54.9375 4.390625 48.796875 1.578125 
Q 42.671875 -1.21875 35.015625 -1.21875 
Q 25.296875 -1.21875 18.71875 1.609375 
Q 12.15625 4.4375 8.421875 10.125 
Q 4.6875 15.828125 4.5 23 
z
" id="ArialMT-83"/>
     <path d="M 6.59375 0 
L 6.59375 51.859375 
L 14.5 51.859375 
L 14.5 44.484375 
Q 20.21875 53.03125 31 53.03125 
Q 35.6875 53.03125 39.625 51.34375 
Q 43.5625 49.65625 45.515625 46.921875 
Q 47.46875 44.1875 48.25 40.4375 
Q 48.734375 37.984375 48.734375 31.890625 
L 48.734375 0 
L 39.9375 0 
L 39.9375 31.546875 
Q 39.9375 36.921875 38.90625 39.578125 
Q 37.890625 42.234375 35.28125 43.8125 
Q 32.671875 45.40625 29.15625 45.40625 
Q 23.53125 45.40625 19.453125 41.84375 
Q 15.375 38.28125 15.375 28.328125 
L 15.375 0 
z
" id="ArialMT-110"/>
     <path d="M 6.59375 0 
L 6.59375 71.578125 
L 15.375 71.578125 
L 15.375 45.90625 
Q 21.53125 53.03125 30.90625 53.03125 
Q 36.671875 53.03125 40.921875 50.75 
Q 45.171875 48.484375 47 44.484375 
Q 48.828125 40.484375 48.828125 32.859375 
L 48.828125 0 
L 40.046875 0 
L 40.046875 32.859375 
Q 40.046875 39.453125 37.1875 42.453125 
Q 34.328125 45.453125 29.109375 45.453125 
Q 25.203125 45.453125 21.75 43.421875 
Q 18.3125 41.40625 16.84375 37.9375 
Q 15.375 34.46875 15.375 28.375 
L 15.375 0 
z
" id="ArialMT-104"/>
     <path d="M 21 0 
L 1.265625 51.859375 
L 10.546875 51.859375 
L 21.6875 20.796875 
Q 23.484375 15.765625 25 10.359375 
Q 26.171875 14.453125 28.265625 20.21875 
L 39.796875 51.859375 
L 48.828125 51.859375 
L 29.203125 0 
z
" id="ArialMT-118"/>
     <path d="M 7.859375 0 
L 7.859375 71.578125 
L 39.59375 71.578125 
Q 49.171875 71.578125 54.140625 69.640625 
Q 59.125 67.71875 62.109375 62.828125 
Q 65.09375 57.953125 65.09375 52.046875 
Q 65.09375 44.4375 60.15625 39.203125 
Q 55.21875 33.984375 44.921875 32.5625 
Q 48.6875 30.765625 50.640625 29 
Q 54.78125 25.203125 58.5 19.484375 
L 70.953125 0 
L 59.03125 0 
L 49.5625 14.890625 
Q 45.40625 21.34375 42.71875 24.75 
Q 40.046875 28.171875 37.921875 29.53125 
Q 35.796875 30.90625 33.59375 31.453125 
Q 31.984375 31.78125 28.328125 31.78125 
L 17.328125 31.78125 
L 17.328125 0 
z
M 17.328125 39.984375 
L 37.703125 39.984375 
Q 44.1875 39.984375 47.84375 41.328125 
Q 51.515625 42.671875 53.421875 45.625 
Q 55.328125 48.578125 55.328125 52.046875 
Q 55.328125 57.125 51.640625 60.390625 
Q 47.953125 63.671875 39.984375 63.671875 
L 17.328125 63.671875 
z
" id="ArialMT-82"/>
     <path d="M 7.328125 0 
L 7.328125 71.578125 
L 16.796875 71.578125 
L 16.796875 8.453125 
L 52.046875 8.453125 
L 52.046875 0 
z
" id="ArialMT-76"/>
    </defs>
    <g style="fill:#262626;" transform="translate(-37.679688 41.52)scale(0.2 -0.2)">
     <use xlink:href="#ArialMT-50"/>
     <use x="55.615234" xlink:href="#ArialMT-52"/>
     <use x="111.230469" xlink:href="#ArialMT-32"/>
     <use x="139.013672" xlink:href="#ArialMT-72"/>
     <use x="211.230469" xlink:href="#ArialMT-111"/>
     <use x="266.845703" xlink:href="#ArialMT-117"/>
     <use x="322.460938" xlink:href="#ArialMT-114"/>
     <use x="355.761719" xlink:href="#ArialMT-32"/>
     <use x="383.544922" xlink:href="#ArialMT-72"/>
     <use x="455.761719" xlink:href="#ArialMT-86"/>
     <use x="522.351562" xlink:href="#ArialMT-65"/>
     <use x="589.050781" xlink:href="#ArialMT-67"/>
     <use x="661.267578" xlink:href="#ArialMT-32"/>
     <use x="689.050781" xlink:href="#ArialMT-72"/>
     <use x="761.267578" xlink:href="#ArialMT-111"/>
     <use x="816.882812" xlink:href="#ArialMT-117"/>
     <use x="872.498047" xlink:href="#ArialMT-115"/>
     <use x="922.498047" xlink:href="#ArialMT-101"/>
     <use x="978.113281" xlink:href="#ArialMT-32"/>
     <use x="1005.896484" xlink:href="#ArialMT-116"/>
     <use x="1033.679688" xlink:href="#ArialMT-101"/>
     <use x="1089.294922" xlink:href="#ArialMT-109"/>
     <use x="1172.595703" xlink:href="#ArialMT-112"/>
     <use x="1228.210938" xlink:href="#ArialMT-101"/>
     <use x="1283.826172" xlink:href="#ArialMT-114"/>
     <use x="1317.126953" xlink:href="#ArialMT-97"/>
     <use x="1372.742188" xlink:href="#ArialMT-116"/>
     <use x="1400.525391" xlink:href="#ArialMT-117"/>
     <use x="1456.140625" xlink:href="#ArialMT-114"/>
     <use x="1489.441406" xlink:href="#ArialMT-101"/>
     <use x="1545.056641" xlink:href="#ArialMT-32"/>
     <use x="1572.839844" xlink:href="#ArialMT-83"/>
     <use x="1639.539062" xlink:href="#ArialMT-116"/>
     <use x="1667.322266" xlink:href="#ArialMT-97"/>
     <use x="1722.9375" xlink:href="#ArialMT-110"/>
     <use x="1778.552734" xlink:href="#ArialMT-100"/>
     <use x="1834.167969" xlink:href="#ArialMT-97"/>
     <use x="1889.783203" xlink:href="#ArialMT-114"/>
     <use x="1923.083984" xlink:href="#ArialMT-100"/>
     <use x="1978.699219" xlink:href="#ArialMT-32"/>
     <use x="2006.466797" xlink:href="#ArialMT-84"/>
     <use x="2067.550781" xlink:href="#ArialMT-104"/>
     <use x="2123.166016" xlink:href="#ArialMT-101"/>
     <use x="2178.78125" xlink:href="#ArialMT-114"/>
     <use x="2212.082031" xlink:href="#ArialMT-109"/>
     <use x="2295.382812" xlink:href="#ArialMT-111"/>
     <use x="2350.998047" xlink:href="#ArialMT-115"/>
     <use x="2400.998047" xlink:href="#ArialMT-116"/>
     <use x="2428.78125" xlink:href="#ArialMT-97"/>
     <use x="2484.396484" xlink:href="#ArialMT-116"/>
     <use x="2512.179688" xlink:href="#ArialMT-32"/>
     <use x="2539.962891" xlink:href="#ArialMT-118"/>
     <use x="2589.962891" xlink:href="#ArialMT-115"/>
     <use x="2639.962891" xlink:href="#ArialMT-32"/>
     <use x="2667.746094" xlink:href="#ArialMT-82"/>
     <use x="2739.962891" xlink:href="#ArialMT-76"/>
     <use x="2795.53125" xlink:href="#ArialMT-32"/>
     <use x="2823.298828" xlink:href="#ArialMT-84"/>
     <use x="2884.382812" xlink:href="#ArialMT-104"/>
     <use x="2939.998047" xlink:href="#ArialMT-101"/>
     <use x="2995.613281" xlink:href="#ArialMT-114"/>
     <use x="3028.914062" xlink:href="#ArialMT-109"/>
     <use x="3112.214844" xlink:href="#ArialMT-111"/>
     <use x="3167.830078" xlink:href="#ArialMT-115"/>
     <use x="3217.830078" xlink:href="#ArialMT-116"/>
     <use x="3245.613281" xlink:href="#ArialMT-97"/>
     <use x="3301.228516" xlink:href="#ArialMT-116"/>
    </g>
   </g>
   <g id="legend_1">
    <g id="line2d_31">
     <path d="M 328.025 309.54 
L 348.025 309.54 
" style="fill:none;stroke:#c44e52;stroke-linecap:round;stroke-width:1.75;"/>
    </g>
    <g id="line2d_32"/>
    <g id="text_17">
     <!-- Outdoor Temp -->
     <defs>
      <path d="M 4.828125 34.859375 
Q 4.828125 52.6875 14.390625 62.765625 
Q 23.96875 72.859375 39.109375 72.859375 
Q 49.03125 72.859375 56.984375 68.109375 
Q 64.9375 63.375 69.109375 54.90625 
Q 73.296875 46.4375 73.296875 35.6875 
Q 73.296875 24.8125 68.890625 16.21875 
Q 64.5 7.625 56.4375 3.203125 
Q 48.390625 -1.21875 39.0625 -1.21875 
Q 28.953125 -1.21875 20.984375 3.65625 
Q 13.03125 8.546875 8.921875 16.984375 
Q 4.828125 25.4375 4.828125 34.859375 
z
M 14.59375 34.71875 
Q 14.59375 21.78125 21.546875 14.328125 
Q 28.515625 6.890625 39.015625 6.890625 
Q 49.703125 6.890625 56.609375 14.40625 
Q 63.53125 21.921875 63.53125 35.75 
Q 63.53125 44.484375 60.578125 51 
Q 57.625 57.515625 51.921875 61.109375 
Q 46.234375 64.703125 39.15625 64.703125 
Q 29.109375 64.703125 21.84375 57.78125 
Q 14.59375 50.875 14.59375 34.71875 
z
" id="ArialMT-79"/>
     </defs>
     <g style="fill:#262626;" transform="translate(356.025 313.04)scale(0.1 -0.1)">
      <use xlink:href="#ArialMT-79"/>
      <use x="77.783203" xlink:href="#ArialMT-117"/>
      <use x="133.398438" xlink:href="#ArialMT-116"/>
      <use x="161.181641" xlink:href="#ArialMT-100"/>
      <use x="216.796875" xlink:href="#ArialMT-111"/>
      <use x="272.412109" xlink:href="#ArialMT-111"/>
      <use x="328.027344" xlink:href="#ArialMT-114"/>
      <use x="361.328125" xlink:href="#ArialMT-32"/>
      <use x="389.095703" xlink:href="#ArialMT-84"/>
      <use x="450.007812" xlink:href="#ArialMT-101"/>
      <use x="505.623047" xlink:href="#ArialMT-109"/>
      <use x="588.923828" xlink:href="#ArialMT-112"/>
     </g>
    </g>
    <g id="line2d_33">
     <path d="M 328.025 323.807187 
L 348.025 323.807187 
" style="fill:none;stroke:#0000ff;stroke-dasharray:6.475,2.8;stroke-dashoffset:0;stroke-width:1.75;"/>
    </g>
    <g id="line2d_34"/>
    <g id="text_18">
     <!-- Standard Thermostat Indoor Temp -->
     <defs>
      <path d="M 9.328125 0 
L 9.328125 71.578125 
L 18.796875 71.578125 
L 18.796875 0 
z
" id="ArialMT-73"/>
     </defs>
     <g style="fill:#262626;" transform="translate(356.025 327.307187)scale(0.1 -0.1)">
      <use xlink:href="#ArialMT-83"/>
      <use x="66.699219" xlink:href="#ArialMT-116"/>
      <use x="94.482422" xlink:href="#ArialMT-97"/>
      <use x="150.097656" xlink:href="#ArialMT-110"/>
      <use x="205.712891" xlink:href="#ArialMT-100"/>
      <use x="261.328125" xlink:href="#ArialMT-97"/>
      <use x="316.943359" xlink:href="#ArialMT-114"/>
      <use x="350.244141" xlink:href="#ArialMT-100"/>
      <use x="405.859375" xlink:href="#ArialMT-32"/>
      <use x="433.626953" xlink:href="#ArialMT-84"/>
      <use x="494.710938" xlink:href="#ArialMT-104"/>
      <use x="550.326172" xlink:href="#ArialMT-101"/>
      <use x="605.941406" xlink:href="#ArialMT-114"/>
      <use x="639.242188" xlink:href="#ArialMT-109"/>
      <use x="722.542969" xlink:href="#ArialMT-111"/>
      <use x="778.158203" xlink:href="#ArialMT-115"/>
      <use x="828.158203" xlink:href="#ArialMT-116"/>
      <use x="855.941406" xlink:href="#ArialMT-97"/>
      <use x="911.556641" xlink:href="#ArialMT-116"/>
      <use x="939.339844" xlink:href="#ArialMT-32"/>
      <use x="967.123047" xlink:href="#ArialMT-73"/>
      <use x="994.90625" xlink:href="#ArialMT-110"/>
      <use x="1050.521484" xlink:href="#ArialMT-100"/>
      <use x="1106.136719" xlink:href="#ArialMT-111"/>
      <use x="1161.751953" xlink:href="#ArialMT-111"/>
      <use x="1217.367188" xlink:href="#ArialMT-114"/>
      <use x="1250.667969" xlink:href="#ArialMT-32"/>
      <use x="1278.435547" xlink:href="#ArialMT-84"/>
      <use x="1339.347656" xlink:href="#ArialMT-101"/>
      <use x="1394.962891" xlink:href="#ArialMT-109"/>
      <use x="1478.263672" xlink:href="#ArialMT-112"/>
     </g>
    </g>
    <g id="line2d_35">
     <path d="M 328.025 337.9525 
L 348.025 337.9525 
" style="fill:none;stroke:#55a868;stroke-linecap:round;stroke-width:1.75;"/>
    </g>
    <g id="line2d_36"/>
    <g id="text_19">
     <!-- RL Indoor Temp -->
     <g style="fill:#262626;" transform="translate(356.025 341.4525)scale(0.1 -0.1)">
      <use xlink:href="#ArialMT-82"/>
      <use x="72.216797" xlink:href="#ArialMT-76"/>
      <use x="127.785156" xlink:href="#ArialMT-32"/>
      <use x="155.568359" xlink:href="#ArialMT-73"/>
      <use x="183.351562" xlink:href="#ArialMT-110"/>
      <use x="238.966797" xlink:href="#ArialMT-100"/>
      <use x="294.582031" xlink:href="#ArialMT-111"/>
      <use x="350.197266" xlink:href="#ArialMT-111"/>
      <use x="405.8125" xlink:href="#ArialMT-114"/>
      <use x="439.113281" xlink:href="#ArialMT-32"/>
      <use x="466.880859" xlink:href="#ArialMT-84"/>
      <use x="527.792969" xlink:href="#ArialMT-101"/>
      <use x="583.408203" xlink:href="#ArialMT-109"/>
      <use x="666.708984" xlink:href="#ArialMT-112"/>
     </g>
    </g>
   </g>
  </g>
 </g>
 <defs>
  <clipPath id="p724e811fb8">
   <rect height="304.92" width="446.4" x="72" y="47.52"/>
  </clipPath>
 </defs>
</svg>
