<?xml version="1.0" encoding="utf-8" standalone="no"?>
<!DOCTYPE svg PUBLIC "-//W3C//DTD SVG 1.1//EN"
  "http://www.w3.org/Graphics/SVG/1.1/DTD/svg11.dtd">
<!-- Created with matplotlib (https://matplotlib.org/) -->
<svg height="396pt" version="1.1" viewBox="0 0 576 396" width="576pt" xmlns="http://www.w3.org/2000/svg" xmlns:xlink="http://www.w3.org/1999/xlink">
 <defs>
  <style type="text/css">
*{stroke-linecap:butt;stroke-linejoin:round;}
  </style>
 </defs>
 <g id="figure_1">
  <g id="patch_1">
   <path d="M 0 396 
L 576 396 
L 576 0 
L 0 0 
z
" style="fill:#ffffff;"/>
  </g>
  <g id="axes_1">
   <g id="patch_2">
    <path d="M 72 352.44 
L 518.4 352.44 
L 518.4 47.52 
L 72 47.52 
z
" style="fill:#eaeaf2;"/>
   </g>
   <g id="matplotlib.axis_1">
    <g id="xtick_1">
     <g id="line2d_1">
      <path clip-path="url(#pcfc6ddcd0d)" d="M 91.884685 352.44 
L 91.884685 47.52 
" style="fill:none;stroke:#ffffff;stroke-linecap:round;"/>
     </g>
     <g id="line2d_2"/>
     <g id="text_1">
      <!-- 0 -->
      <defs>
       <path d="M 4.15625 35.296875 
Q 4.15625 48 6.765625 55.734375 
Q 9.375 63.484375 14.515625 67.671875 
Q 19.671875 71.875 27.484375 71.875 
Q 33.25 71.875 37.59375 69.546875 
Q 41.9375 67.234375 44.765625 62.859375 
Q 47.609375 58.5 49.21875 52.21875 
Q 50.828125 45.953125 50.828125 35.296875 
Q 50.828125 22.703125 48.234375 14.96875 
Q 45.65625 7.234375 40.5 3 
Q 35.359375 -1.21875 27.484375 -1.21875 
Q 17.140625 -1.21875 11.234375 6.203125 
Q 4.15625 15.140625 4.15625 35.296875 
z
M 13.1875 35.296875 
Q 13.1875 17.671875 17.3125 11.828125 
Q 21.4375 6 27.484375 6 
Q 33.546875 6 37.671875 11.859375 
Q 41.796875 17.71875 41.796875 35.296875 
Q 41.796875 52.984375 37.671875 58.78125 
Q 33.546875 64.59375 27.390625 64.59375 
Q 21.34375 64.59375 17.71875 59.46875 
Q 13.1875 52.9375 13.1875 35.296875 
z
" id="ArialMT-48"/>
      </defs>
      <g style="fill:#262626;" transform="translate(89.104216 366.597813)scale(0.1 -0.1)">
       <use xlink:href="#ArialMT-48"/>
      </g>
     </g>
    </g>
    <g id="xtick_2">
     <g id="line2d_3">
      <path clip-path="url(#pcfc6ddcd0d)" d="M 173.129566 352.44 
L 173.129566 47.52 
" style="fill:none;stroke:#ffffff;stroke-linecap:round;"/>
     </g>
     <g id="line2d_4"/>
     <g id="text_2">
      <!-- 200 -->
      <defs>
       <path d="M 50.34375 8.453125 
L 50.34375 0 
L 3.03125 0 
Q 2.9375 3.171875 4.046875 6.109375 
Q 5.859375 10.9375 9.828125 15.625 
Q 13.8125 20.3125 21.34375 26.46875 
Q 33.015625 36.03125 37.109375 41.625 
Q 41.21875 47.21875 41.21875 52.203125 
Q 41.21875 57.421875 37.46875 61 
Q 33.734375 64.59375 27.734375 64.59375 
Q 21.390625 64.59375 17.578125 60.78125 
Q 13.765625 56.984375 13.71875 50.25 
L 4.6875 51.171875 
Q 5.609375 61.28125 11.65625 66.578125 
Q 17.71875 71.875 27.9375 71.875 
Q 38.234375 71.875 44.234375 66.15625 
Q 50.25 60.453125 50.25 52 
Q 50.25 47.703125 48.484375 43.546875 
Q 46.734375 39.40625 42.65625 34.8125 
Q 38.578125 30.21875 29.109375 22.21875 
Q 21.1875 15.578125 18.9375 13.203125 
Q 16.703125 10.84375 15.234375 8.453125 
z
" id="ArialMT-50"/>
      </defs>
      <g style="fill:#262626;" transform="translate(164.78816 366.597813)scale(0.1 -0.1)">
       <use xlink:href="#ArialMT-50"/>
       <use x="55.615234" xlink:href="#ArialMT-48"/>
       <use x="111.230469" xlink:href="#ArialMT-48"/>
      </g>
     </g>
    </g>
    <g id="xtick_3">
     <g id="line2d_5">
      <path clip-path="url(#pcfc6ddcd0d)" d="M 254.374447 352.44 
L 254.374447 47.52 
" style="fill:none;stroke:#ffffff;stroke-linecap:round;"/>
     </g>
     <g id="line2d_6"/>
     <g id="text_3">
      <!-- 400 -->
      <defs>
       <path d="M 32.328125 0 
L 32.328125 17.140625 
L 1.265625 17.140625 
L 1.265625 25.203125 
L 33.9375 71.578125 
L 41.109375 71.578125 
L 41.109375 25.203125 
L 50.78125 25.203125 
L 50.78125 17.140625 
L 41.109375 17.140625 
L 41.109375 0 
z
M 32.328125 25.203125 
L 32.328125 57.46875 
L 9.90625 25.203125 
z
" id="ArialMT-52"/>
      </defs>
      <g style="fill:#262626;" transform="translate(246.033041 366.597813)scale(0.1 -0.1)">
       <use xlink:href="#ArialMT-52"/>
       <use x="55.615234" xlink:href="#ArialMT-48"/>
       <use x="111.230469" xlink:href="#ArialMT-48"/>
      </g>
     </g>
    </g>
    <g id="xtick_4">
     <g id="line2d_7">
      <path clip-path="url(#pcfc6ddcd0d)" d="M 335.619328 352.44 
L 335.619328 47.52 
" style="fill:none;stroke:#ffffff;stroke-linecap:round;"/>
     </g>
     <g id="line2d_8"/>
     <g id="text_4">
      <!-- 600 -->
      <defs>
       <path d="M 49.75 54.046875 
L 41.015625 53.375 
Q 39.84375 58.546875 37.703125 60.890625 
Q 34.125 64.65625 28.90625 64.65625 
Q 24.703125 64.65625 21.53125 62.3125 
Q 17.390625 59.28125 14.984375 53.46875 
Q 12.59375 47.65625 12.5 36.921875 
Q 15.671875 41.75 20.265625 44.09375 
Q 24.859375 46.4375 29.890625 46.4375 
Q 38.671875 46.4375 44.84375 39.96875 
Q 51.03125 33.5 51.03125 23.25 
Q 51.03125 16.5 48.125 10.71875 
Q 45.21875 4.9375 40.140625 1.859375 
Q 35.0625 -1.21875 28.609375 -1.21875 
Q 17.625 -1.21875 10.6875 6.859375 
Q 3.765625 14.9375 3.765625 33.5 
Q 3.765625 54.25 11.421875 63.671875 
Q 18.109375 71.875 29.4375 71.875 
Q 37.890625 71.875 43.28125 67.140625 
Q 48.6875 62.40625 49.75 54.046875 
z
M 13.875 23.1875 
Q 13.875 18.65625 15.796875 14.5 
Q 17.71875 10.359375 21.1875 8.171875 
Q 24.65625 6 28.46875 6 
Q 34.03125 6 38.03125 10.484375 
Q 42.046875 14.984375 42.046875 22.703125 
Q 42.046875 30.125 38.078125 34.390625 
Q 34.125 38.671875 28.125 38.671875 
Q 22.171875 38.671875 18.015625 34.390625 
Q 13.875 30.125 13.875 23.1875 
z
" id="ArialMT-54"/>
      </defs>
      <g style="fill:#262626;" transform="translate(327.277922 366.597813)scale(0.1 -0.1)">
       <use xlink:href="#ArialMT-54"/>
       <use x="55.615234" xlink:href="#ArialMT-48"/>
       <use x="111.230469" xlink:href="#ArialMT-48"/>
      </g>
     </g>
    </g>
    <g id="xtick_5">
     <g id="line2d_9">
      <path clip-path="url(#pcfc6ddcd0d)" d="M 416.86421 352.44 
L 416.86421 47.52 
" style="fill:none;stroke:#ffffff;stroke-linecap:round;"/>
     </g>
     <g id="line2d_10"/>
     <g id="text_5">
      <!-- 800 -->
      <defs>
       <path d="M 17.671875 38.8125 
Q 12.203125 40.828125 9.5625 44.53125 
Q 6.9375 48.25 6.9375 53.421875 
Q 6.9375 61.234375 12.546875 66.546875 
Q 18.171875 71.875 27.484375 71.875 
Q 36.859375 71.875 42.578125 66.421875 
Q 48.296875 60.984375 48.296875 53.171875 
Q 48.296875 48.1875 45.671875 44.5 
Q 43.0625 40.828125 37.75 38.8125 
Q 44.34375 36.671875 47.78125 31.875 
Q 51.21875 27.09375 51.21875 20.453125 
Q 51.21875 11.28125 44.71875 5.03125 
Q 38.234375 -1.21875 27.640625 -1.21875 
Q 17.046875 -1.21875 10.546875 5.046875 
Q 4.046875 11.328125 4.046875 20.703125 
Q 4.046875 27.6875 7.59375 32.390625 
Q 11.140625 37.109375 17.671875 38.8125 
z
M 15.921875 53.71875 
Q 15.921875 48.640625 19.1875 45.40625 
Q 22.46875 42.1875 27.6875 42.1875 
Q 32.765625 42.1875 36.015625 45.375 
Q 39.265625 48.578125 39.265625 53.21875 
Q 39.265625 58.0625 35.90625 61.359375 
Q 32.5625 64.65625 27.59375 64.65625 
Q 22.5625 64.65625 19.234375 61.421875 
Q 15.921875 58.203125 15.921875 53.71875 
z
M 13.09375 20.65625 
Q 13.09375 16.890625 14.875 13.375 
Q 16.65625 9.859375 20.171875 7.921875 
Q 23.6875 6 27.734375 6 
Q 34.03125 6 38.125 10.046875 
Q 42.234375 14.109375 42.234375 20.359375 
Q 42.234375 26.703125 38.015625 30.859375 
Q 33.796875 35.015625 27.4375 35.015625 
Q 21.234375 35.015625 17.15625 30.90625 
Q 13.09375 26.8125 13.09375 20.65625 
z
" id="ArialMT-56"/>
      </defs>
      <g style="fill:#262626;" transform="translate(408.522803 366.597813)scale(0.1 -0.1)">
       <use xlink:href="#ArialMT-56"/>
       <use x="55.615234" xlink:href="#ArialMT-48"/>
       <use x="111.230469" xlink:href="#ArialMT-48"/>
      </g>
     </g>
    </g>
    <g id="xtick_6">
     <g id="line2d_11">
      <path clip-path="url(#pcfc6ddcd0d)" d="M 498.109091 352.44 
L 498.109091 47.52 
" style="fill:none;stroke:#ffffff;stroke-linecap:round;"/>
     </g>
     <g id="line2d_12"/>
     <g id="text_6">
      <!-- 1000 -->
      <defs>
       <path d="M 37.25 0 
L 28.46875 0 
L 28.46875 56 
Q 25.296875 52.984375 20.140625 49.953125 
Q 14.984375 46.921875 10.890625 45.40625 
L 10.890625 53.90625 
Q 18.265625 57.375 23.78125 62.296875 
Q 29.296875 67.234375 31.59375 71.875 
L 37.25 71.875 
z
" id="ArialMT-49"/>
      </defs>
      <g style="fill:#262626;" transform="translate(486.987216 366.597813)scale(0.1 -0.1)">
       <use xlink:href="#ArialMT-49"/>
       <use x="55.615234" xlink:href="#ArialMT-48"/>
       <use x="111.230469" xlink:href="#ArialMT-48"/>
       <use x="166.845703" xlink:href="#ArialMT-48"/>
      </g>
     </g>
    </g>
    <g id="text_7">
     <!-- Number of Episodes -->
     <defs>
      <path d="M 7.625 0 
L 7.625 71.578125 
L 17.328125 71.578125 
L 54.9375 15.375 
L 54.9375 71.578125 
L 64.015625 71.578125 
L 64.015625 0 
L 54.296875 0 
L 16.703125 56.25 
L 16.703125 0 
z
" id="ArialMT-78"/>
      <path d="M 40.578125 0 
L 40.578125 7.625 
Q 34.515625 -1.171875 24.125 -1.171875 
Q 19.53125 -1.171875 15.546875 0.578125 
Q 11.578125 2.34375 9.640625 5 
Q 7.71875 7.671875 6.9375 11.53125 
Q 6.390625 14.109375 6.390625 19.734375 
L 6.390625 51.859375 
L 15.1875 51.859375 
L 15.1875 23.09375 
Q 15.1875 16.21875 15.71875 13.8125 
Q 16.546875 10.359375 19.234375 8.375 
Q 21.921875 6.390625 25.875 6.390625 
Q 29.828125 6.390625 33.296875 8.421875 
Q 36.765625 10.453125 38.203125 13.9375 
Q 39.65625 17.4375 39.65625 24.078125 
L 39.65625 51.859375 
L 48.4375 51.859375 
L 48.4375 0 
z
" id="ArialMT-117"/>
      <path d="M 6.59375 0 
L 6.59375 51.859375 
L 14.453125 51.859375 
L 14.453125 44.578125 
Q 16.890625 48.390625 20.9375 50.703125 
Q 25 53.03125 30.171875 53.03125 
Q 35.9375 53.03125 39.625 50.640625 
Q 43.3125 48.25 44.828125 43.953125 
Q 50.984375 53.03125 60.84375 53.03125 
Q 68.5625 53.03125 72.703125 48.75 
Q 76.859375 44.484375 76.859375 35.59375 
L 76.859375 0 
L 68.109375 0 
L 68.109375 32.671875 
Q 68.109375 37.9375 67.25 40.25 
Q 66.40625 42.578125 64.15625 43.984375 
Q 61.921875 45.40625 58.890625 45.40625 
Q 53.421875 45.40625 49.796875 41.765625 
Q 46.1875 38.140625 46.1875 30.125 
L 46.1875 0 
L 37.40625 0 
L 37.40625 33.6875 
Q 37.40625 39.546875 35.25 42.46875 
Q 33.109375 45.40625 28.21875 45.40625 
Q 24.515625 45.40625 21.359375 43.453125 
Q 18.21875 41.5 16.796875 37.734375 
Q 15.375 33.984375 15.375 26.90625 
L 15.375 0 
z
" id="ArialMT-109"/>
      <path d="M 14.703125 0 
L 6.546875 0 
L 6.546875 71.578125 
L 15.328125 71.578125 
L 15.328125 46.046875 
Q 20.90625 53.03125 29.546875 53.03125 
Q 34.328125 53.03125 38.59375 51.09375 
Q 42.875 49.171875 45.625 45.671875 
Q 48.390625 42.1875 49.953125 37.25 
Q 51.515625 32.328125 51.515625 26.703125 
Q 51.515625 13.375 44.921875 6.09375 
Q 38.328125 -1.171875 29.109375 -1.171875 
Q 19.921875 -1.171875 14.703125 6.5 
z
M 14.59375 26.3125 
Q 14.59375 17 17.140625 12.84375 
Q 21.296875 6.0625 28.375 6.0625 
Q 34.125 6.0625 38.328125 11.0625 
Q 42.53125 16.0625 42.53125 25.984375 
Q 42.53125 36.140625 38.5 40.96875 
Q 34.46875 45.796875 28.765625 45.796875 
Q 23 45.796875 18.796875 40.796875 
Q 14.59375 35.796875 14.59375 26.3125 
z
" id="ArialMT-98"/>
      <path d="M 42.09375 16.703125 
L 51.171875 15.578125 
Q 49.03125 7.625 43.21875 3.21875 
Q 37.40625 -1.171875 28.375 -1.171875 
Q 17 -1.171875 10.328125 5.828125 
Q 3.65625 12.84375 3.65625 25.484375 
Q 3.65625 38.578125 10.390625 45.796875 
Q 17.140625 53.03125 27.875 53.03125 
Q 38.28125 53.03125 44.875 45.953125 
Q 51.46875 38.875 51.46875 26.03125 
Q 51.46875 25.25 51.421875 23.6875 
L 12.75 23.6875 
Q 13.234375 15.140625 17.578125 10.59375 
Q 21.921875 6.0625 28.421875 6.0625 
Q 33.25 6.0625 36.671875 8.59375 
Q 40.09375 11.140625 42.09375 16.703125 
z
M 13.234375 30.90625 
L 42.1875 30.90625 
Q 41.609375 37.453125 38.875 40.71875 
Q 34.671875 45.796875 27.984375 45.796875 
Q 21.921875 45.796875 17.796875 41.75 
Q 13.671875 37.703125 13.234375 30.90625 
z
" id="ArialMT-101"/>
      <path d="M 6.5 0 
L 6.5 51.859375 
L 14.40625 51.859375 
L 14.40625 44 
Q 17.4375 49.515625 20 51.265625 
Q 22.5625 53.03125 25.640625 53.03125 
Q 30.078125 53.03125 34.671875 50.203125 
L 31.640625 42.046875 
Q 28.421875 43.953125 25.203125 43.953125 
Q 22.3125 43.953125 20.015625 42.21875 
Q 17.71875 40.484375 16.75 37.40625 
Q 15.28125 32.71875 15.28125 27.15625 
L 15.28125 0 
z
" id="ArialMT-114"/>
      <path id="ArialMT-32"/>
      <path d="M 3.328125 25.921875 
Q 3.328125 40.328125 11.328125 47.265625 
Q 18.015625 53.03125 27.640625 53.03125 
Q 38.328125 53.03125 45.109375 46.015625 
Q 51.90625 39.015625 51.90625 26.65625 
Q 51.90625 16.65625 48.90625 10.90625 
Q 45.90625 5.171875 40.15625 2 
Q 34.421875 -1.171875 27.640625 -1.171875 
Q 16.75 -1.171875 10.03125 5.8125 
Q 3.328125 12.796875 3.328125 25.921875 
z
M 12.359375 25.921875 
Q 12.359375 15.96875 16.703125 11.015625 
Q 21.046875 6.0625 27.640625 6.0625 
Q 34.1875 6.0625 38.53125 11.03125 
Q 42.875 16.015625 42.875 26.21875 
Q 42.875 35.84375 38.5 40.796875 
Q 34.125 45.75 27.640625 45.75 
Q 21.046875 45.75 16.703125 40.8125 
Q 12.359375 35.890625 12.359375 25.921875 
z
" id="ArialMT-111"/>
      <path d="M 8.6875 0 
L 8.6875 45.015625 
L 0.921875 45.015625 
L 0.921875 51.859375 
L 8.6875 51.859375 
L 8.6875 57.375 
Q 8.6875 62.59375 9.625 65.140625 
Q 10.890625 68.5625 14.078125 70.671875 
Q 17.28125 72.796875 23.046875 72.796875 
Q 26.765625 72.796875 31.25 71.921875 
L 29.9375 64.265625 
Q 27.203125 64.75 24.75 64.75 
Q 20.75 64.75 19.09375 63.03125 
Q 17.4375 61.328125 17.4375 56.640625 
L 17.4375 51.859375 
L 27.546875 51.859375 
L 27.546875 45.015625 
L 17.4375 45.015625 
L 17.4375 0 
z
" id="ArialMT-102"/>
      <path d="M 7.90625 0 
L 7.90625 71.578125 
L 59.671875 71.578125 
L 59.671875 63.140625 
L 17.390625 63.140625 
L 17.390625 41.21875 
L 56.984375 41.21875 
L 56.984375 32.8125 
L 17.390625 32.8125 
L 17.390625 8.453125 
L 61.328125 8.453125 
L 61.328125 0 
z
" id="ArialMT-69"/>
      <path d="M 6.59375 -19.875 
L 6.59375 51.859375 
L 14.59375 51.859375 
L 14.59375 45.125 
Q 17.4375 49.078125 21 51.046875 
Q 24.5625 53.03125 29.640625 53.03125 
Q 36.28125 53.03125 41.359375 49.609375 
Q 46.4375 46.1875 49.015625 39.953125 
Q 51.609375 33.734375 51.609375 26.3125 
Q 51.609375 18.359375 48.75 11.984375 
Q 45.90625 5.609375 40.453125 2.21875 
Q 35.015625 -1.171875 29 -1.171875 
Q 24.609375 -1.171875 21.109375 0.6875 
Q 17.625 2.546875 15.375 5.375 
L 15.375 -19.875 
z
M 14.546875 25.640625 
Q 14.546875 15.625 18.59375 10.84375 
Q 22.65625 6.0625 28.421875 6.0625 
Q 34.28125 6.0625 38.453125 11.015625 
Q 42.625 15.96875 42.625 26.375 
Q 42.625 36.28125 38.546875 41.203125 
Q 34.46875 46.140625 28.8125 46.140625 
Q 23.1875 46.140625 18.859375 40.890625 
Q 14.546875 35.640625 14.546875 25.640625 
z
" id="ArialMT-112"/>
      <path d="M 6.640625 61.46875 
L 6.640625 71.578125 
L 15.4375 71.578125 
L 15.4375 61.46875 
z
M 6.640625 0 
L 6.640625 51.859375 
L 15.4375 51.859375 
L 15.4375 0 
z
" id="ArialMT-105"/>
      <path d="M 3.078125 15.484375 
L 11.765625 16.84375 
Q 12.5 11.625 15.84375 8.84375 
Q 19.1875 6.0625 25.203125 6.0625 
Q 31.25 6.0625 34.171875 8.515625 
Q 37.109375 10.984375 37.109375 14.3125 
Q 37.109375 17.28125 34.515625 19 
Q 32.71875 20.171875 25.53125 21.96875 
Q 15.875 24.421875 12.140625 26.203125 
Q 8.40625 27.984375 6.46875 31.125 
Q 4.546875 34.28125 4.546875 38.09375 
Q 4.546875 41.546875 6.125 44.5 
Q 7.71875 47.46875 10.453125 49.421875 
Q 12.5 50.921875 16.03125 51.96875 
Q 19.578125 53.03125 23.640625 53.03125 
Q 29.734375 53.03125 34.34375 51.265625 
Q 38.96875 49.515625 41.15625 46.5 
Q 43.359375 43.5 44.1875 38.484375 
L 35.59375 37.3125 
Q 35.015625 41.3125 32.203125 43.546875 
Q 29.390625 45.796875 24.265625 45.796875 
Q 18.21875 45.796875 15.625 43.796875 
Q 13.03125 41.796875 13.03125 39.109375 
Q 13.03125 37.40625 14.109375 36.03125 
Q 15.1875 34.625 17.484375 33.6875 
Q 18.796875 33.203125 25.25 31.453125 
Q 34.578125 28.953125 38.25 27.359375 
Q 41.9375 25.78125 44.03125 22.75 
Q 46.140625 19.734375 46.140625 15.234375 
Q 46.140625 10.84375 43.578125 6.953125 
Q 41.015625 3.078125 36.171875 0.953125 
Q 31.34375 -1.171875 25.25 -1.171875 
Q 15.140625 -1.171875 9.84375 3.03125 
Q 4.546875 7.234375 3.078125 15.484375 
z
" id="ArialMT-115"/>
      <path d="M 40.234375 0 
L 40.234375 6.546875 
Q 35.296875 -1.171875 25.734375 -1.171875 
Q 19.53125 -1.171875 14.328125 2.25 
Q 9.125 5.671875 6.265625 11.796875 
Q 3.421875 17.921875 3.421875 25.875 
Q 3.421875 33.640625 6 39.96875 
Q 8.59375 46.296875 13.765625 49.65625 
Q 18.953125 53.03125 25.34375 53.03125 
Q 30.03125 53.03125 33.6875 51.046875 
Q 37.359375 49.078125 39.65625 45.90625 
L 39.65625 71.578125 
L 48.390625 71.578125 
L 48.390625 0 
z
M 12.453125 25.875 
Q 12.453125 15.921875 16.640625 10.984375 
Q 20.84375 6.0625 26.5625 6.0625 
Q 32.328125 6.0625 36.34375 10.765625 
Q 40.375 15.484375 40.375 25.140625 
Q 40.375 35.796875 36.265625 40.765625 
Q 32.171875 45.75 26.171875 45.75 
Q 20.3125 45.75 16.375 40.96875 
Q 12.453125 36.1875 12.453125 25.875 
z
" id="ArialMT-100"/>
     </defs>
     <g style="fill:#262626;" transform="translate(213.664219 385.68875)scale(0.18 -0.18)">
      <use xlink:href="#ArialMT-78"/>
      <use x="72.216797" xlink:href="#ArialMT-117"/>
      <use x="127.832031" xlink:href="#ArialMT-109"/>
      <use x="211.132812" xlink:href="#ArialMT-98"/>
      <use x="266.748047" xlink:href="#ArialMT-101"/>
      <use x="322.363281" xlink:href="#ArialMT-114"/>
      <use x="355.664062" xlink:href="#ArialMT-32"/>
      <use x="383.447266" xlink:href="#ArialMT-111"/>
      <use x="439.0625" xlink:href="#ArialMT-102"/>
      <use x="466.845703" xlink:href="#ArialMT-32"/>
      <use x="494.628906" xlink:href="#ArialMT-69"/>
      <use x="561.328125" xlink:href="#ArialMT-112"/>
      <use x="616.943359" xlink:href="#ArialMT-105"/>
      <use x="639.160156" xlink:href="#ArialMT-115"/>
      <use x="689.160156" xlink:href="#ArialMT-111"/>
      <use x="744.775391" xlink:href="#ArialMT-100"/>
      <use x="800.390625" xlink:href="#ArialMT-101"/>
      <use x="856.005859" xlink:href="#ArialMT-115"/>
     </g>
    </g>
   </g>
   <g id="matplotlib.axis_2">
    <g id="ytick_1">
     <g id="line2d_13">
      <path clip-path="url(#pcfc6ddcd0d)" d="M 72 339.5425 
L 518.4 339.5425 
" style="fill:none;stroke:#ffffff;stroke-linecap:round;"/>
     </g>
     <g id="line2d_14"/>
     <g id="text_8">
      <!-- 0 -->
      <g style="fill:#262626;" transform="translate(59.439062 343.121406)scale(0.1 -0.1)">
       <use xlink:href="#ArialMT-48"/>
      </g>
     </g>
    </g>
    <g id="ytick_2">
     <g id="line2d_15">
      <path clip-path="url(#pcfc6ddcd0d)" d="M 72 291.4175 
L 518.4 291.4175 
" style="fill:none;stroke:#ffffff;stroke-linecap:round;"/>
     </g>
     <g id="line2d_16"/>
     <g id="text_9">
      <!-- 50 -->
      <defs>
       <path d="M 4.15625 18.75 
L 13.375 19.53125 
Q 14.40625 12.796875 18.140625 9.390625 
Q 21.875 6 27.15625 6 
Q 33.5 6 37.890625 10.78125 
Q 42.28125 15.578125 42.28125 23.484375 
Q 42.28125 31 38.0625 35.34375 
Q 33.84375 39.703125 27 39.703125 
Q 22.75 39.703125 19.328125 37.765625 
Q 15.921875 35.84375 13.96875 32.765625 
L 5.71875 33.84375 
L 12.640625 70.609375 
L 48.25 70.609375 
L 48.25 62.203125 
L 19.671875 62.203125 
L 15.828125 42.96875 
Q 22.265625 47.46875 29.34375 47.46875 
Q 38.71875 47.46875 45.15625 40.96875 
Q 51.609375 34.46875 51.609375 24.265625 
Q 51.609375 14.546875 45.953125 7.46875 
Q 39.0625 -1.21875 27.15625 -1.21875 
Q 17.390625 -1.21875 11.203125 4.25 
Q 5.03125 9.71875 4.15625 18.75 
z
" id="ArialMT-53"/>
      </defs>
      <g style="fill:#262626;" transform="translate(53.878125 294.996406)scale(0.1 -0.1)">
       <use xlink:href="#ArialMT-53"/>
       <use x="55.615234" xlink:href="#ArialMT-48"/>
      </g>
     </g>
    </g>
    <g id="ytick_3">
     <g id="line2d_17">
      <path clip-path="url(#pcfc6ddcd0d)" d="M 72 243.2925 
L 518.4 243.2925 
" style="fill:none;stroke:#ffffff;stroke-linecap:round;"/>
     </g>
     <g id="line2d_18"/>
     <g id="text_10">
      <!-- 100 -->
      <g style="fill:#262626;" transform="translate(48.317188 246.871406)scale(0.1 -0.1)">
       <use xlink:href="#ArialMT-49"/>
       <use x="55.615234" xlink:href="#ArialMT-48"/>
       <use x="111.230469" xlink:href="#ArialMT-48"/>
      </g>
     </g>
    </g>
    <g id="ytick_4">
     <g id="line2d_19">
      <path clip-path="url(#pcfc6ddcd0d)" d="M 72 195.1675 
L 518.4 195.1675 
" style="fill:none;stroke:#ffffff;stroke-linecap:round;"/>
     </g>
     <g id="line2d_20"/>
     <g id="text_11">
      <!-- 150 -->
      <g style="fill:#262626;" transform="translate(48.317188 198.746406)scale(0.1 -0.1)">
       <use xlink:href="#ArialMT-49"/>
       <use x="55.615234" xlink:href="#ArialMT-53"/>
       <use x="111.230469" xlink:href="#ArialMT-48"/>
      </g>
     </g>
    </g>
    <g id="ytick_5">
     <g id="line2d_21">
      <path clip-path="url(#pcfc6ddcd0d)" d="M 72 147.0425 
L 518.4 147.0425 
" style="fill:none;stroke:#ffffff;stroke-linecap:round;"/>
     </g>
     <g id="line2d_22"/>
     <g id="text_12">
      <!-- 200 -->
      <g style="fill:#262626;" transform="translate(48.317188 150.621406)scale(0.1 -0.1)">
       <use xlink:href="#ArialMT-50"/>
       <use x="55.615234" xlink:href="#ArialMT-48"/>
       <use x="111.230469" xlink:href="#ArialMT-48"/>
      </g>
     </g>
    </g>
    <g id="ytick_6">
     <g id="line2d_23">
      <path clip-path="url(#pcfc6ddcd0d)" d="M 72 98.9175 
L 518.4 98.9175 
" style="fill:none;stroke:#ffffff;stroke-linecap:round;"/>
     </g>
     <g id="line2d_24"/>
     <g id="text_13">
      <!-- 250 -->
      <g style="fill:#262626;" transform="translate(48.317188 102.496406)scale(0.1 -0.1)">
       <use xlink:href="#ArialMT-50"/>
       <use x="55.615234" xlink:href="#ArialMT-53"/>
       <use x="111.230469" xlink:href="#ArialMT-48"/>
      </g>
     </g>
    </g>
    <g id="ytick_7">
     <g id="line2d_25">
      <path clip-path="url(#pcfc6ddcd0d)" d="M 72 50.7925 
L 518.4 50.7925 
" style="fill:none;stroke:#ffffff;stroke-linecap:round;"/>
     </g>
     <g id="line2d_26"/>
     <g id="text_14">
      <!-- 300 -->
      <defs>
       <path d="M 4.203125 18.890625 
L 12.984375 20.0625 
Q 14.5 12.59375 18.140625 9.296875 
Q 21.78125 6 27 6 
Q 33.203125 6 37.46875 10.296875 
Q 41.75 14.59375 41.75 20.953125 
Q 41.75 27 37.796875 30.921875 
Q 33.84375 34.859375 27.734375 34.859375 
Q 25.25 34.859375 21.53125 33.890625 
L 22.515625 41.609375 
Q 23.390625 41.5 23.921875 41.5 
Q 29.546875 41.5 34.03125 44.421875 
Q 38.53125 47.359375 38.53125 53.46875 
Q 38.53125 58.296875 35.25 61.46875 
Q 31.984375 64.65625 26.8125 64.65625 
Q 21.6875 64.65625 18.265625 61.421875 
Q 14.84375 58.203125 13.875 51.765625 
L 5.078125 53.328125 
Q 6.6875 62.15625 12.390625 67.015625 
Q 18.109375 71.875 26.609375 71.875 
Q 32.46875 71.875 37.390625 69.359375 
Q 42.328125 66.84375 44.9375 62.5 
Q 47.5625 58.15625 47.5625 53.265625 
Q 47.5625 48.640625 45.0625 44.828125 
Q 42.578125 41.015625 37.703125 38.765625 
Q 44.046875 37.3125 47.5625 32.6875 
Q 51.078125 28.078125 51.078125 21.140625 
Q 51.078125 11.765625 44.234375 5.25 
Q 37.40625 -1.265625 26.953125 -1.265625 
Q 17.53125 -1.265625 11.296875 4.34375 
Q 5.078125 9.96875 4.203125 18.890625 
z
" id="ArialMT-51"/>
      </defs>
      <g style="fill:#262626;" transform="translate(48.317188 54.371406)scale(0.1 -0.1)">
       <use xlink:href="#ArialMT-51"/>
       <use x="55.615234" xlink:href="#ArialMT-48"/>
       <use x="111.230469" xlink:href="#ArialMT-48"/>
      </g>
     </g>
    </g>
    <g id="text_15">
     <!-- Number of Steps per Episode -->
     <defs>
      <path d="M 4.5 23 
L 13.421875 23.78125 
Q 14.0625 18.40625 16.375 14.96875 
Q 18.703125 11.53125 23.578125 9.40625 
Q 28.46875 7.28125 34.578125 7.28125 
Q 39.984375 7.28125 44.140625 8.890625 
Q 48.296875 10.5 50.3125 13.296875 
Q 52.34375 16.109375 52.34375 19.4375 
Q 52.34375 22.796875 50.390625 25.3125 
Q 48.4375 27.828125 43.953125 29.546875 
Q 41.0625 30.671875 31.203125 33.03125 
Q 21.34375 35.40625 17.390625 37.5 
Q 12.25 40.1875 9.734375 44.15625 
Q 7.234375 48.140625 7.234375 53.078125 
Q 7.234375 58.5 10.296875 63.203125 
Q 13.375 67.921875 19.28125 70.359375 
Q 25.203125 72.796875 32.421875 72.796875 
Q 40.375 72.796875 46.453125 70.234375 
Q 52.546875 67.671875 55.8125 62.6875 
Q 59.078125 57.71875 59.328125 51.421875 
L 50.25 50.734375 
Q 49.515625 57.515625 45.28125 60.984375 
Q 41.0625 64.453125 32.8125 64.453125 
Q 24.21875 64.453125 20.28125 61.296875 
Q 16.359375 58.15625 16.359375 53.71875 
Q 16.359375 49.859375 19.140625 47.359375 
Q 21.875 44.875 33.421875 42.265625 
Q 44.96875 39.65625 49.265625 37.703125 
Q 55.515625 34.8125 58.484375 30.390625 
Q 61.46875 25.984375 61.46875 20.21875 
Q 61.46875 14.5 58.203125 9.4375 
Q 54.9375 4.390625 48.796875 1.578125 
Q 42.671875 -1.21875 35.015625 -1.21875 
Q 25.296875 -1.21875 18.71875 1.609375 
Q 12.15625 4.4375 8.421875 10.125 
Q 4.6875 15.828125 4.5 23 
z
" id="ArialMT-83"/>
      <path d="M 25.78125 7.859375 
L 27.046875 0.09375 
Q 23.34375 -0.6875 20.40625 -0.6875 
Q 15.625 -0.6875 12.984375 0.828125 
Q 10.359375 2.34375 9.28125 4.8125 
Q 8.203125 7.28125 8.203125 15.1875 
L 8.203125 45.015625 
L 1.765625 45.015625 
L 1.765625 51.859375 
L 8.203125 51.859375 
L 8.203125 64.703125 
L 16.9375 69.96875 
L 16.9375 51.859375 
L 25.78125 51.859375 
L 25.78125 45.015625 
L 16.9375 45.015625 
L 16.9375 14.703125 
Q 16.9375 10.9375 17.40625 9.859375 
Q 17.875 8.796875 18.921875 8.15625 
Q 19.96875 7.515625 21.921875 7.515625 
Q 23.390625 7.515625 25.78125 7.859375 
z
" id="ArialMT-116"/>
     </defs>
     <g style="fill:#262626;" transform="translate(40.739687 318.036094)rotate(-90)scale(0.18 -0.18)">
      <use xlink:href="#ArialMT-78"/>
      <use x="72.216797" xlink:href="#ArialMT-117"/>
      <use x="127.832031" xlink:href="#ArialMT-109"/>
      <use x="211.132812" xlink:href="#ArialMT-98"/>
      <use x="266.748047" xlink:href="#ArialMT-101"/>
      <use x="322.363281" xlink:href="#ArialMT-114"/>
      <use x="355.664062" xlink:href="#ArialMT-32"/>
      <use x="383.447266" xlink:href="#ArialMT-111"/>
      <use x="439.0625" xlink:href="#ArialMT-102"/>
      <use x="466.845703" xlink:href="#ArialMT-32"/>
      <use x="494.628906" xlink:href="#ArialMT-83"/>
      <use x="561.328125" xlink:href="#ArialMT-116"/>
      <use x="589.111328" xlink:href="#ArialMT-101"/>
      <use x="644.726562" xlink:href="#ArialMT-112"/>
      <use x="700.341797" xlink:href="#ArialMT-115"/>
      <use x="750.341797" xlink:href="#ArialMT-32"/>
      <use x="778.125" xlink:href="#ArialMT-112"/>
      <use x="833.740234" xlink:href="#ArialMT-101"/>
      <use x="889.355469" xlink:href="#ArialMT-114"/>
      <use x="922.65625" xlink:href="#ArialMT-32"/>
      <use x="950.439453" xlink:href="#ArialMT-69"/>
      <use x="1017.138672" xlink:href="#ArialMT-112"/>
      <use x="1072.753906" xlink:href="#ArialMT-105"/>
      <use x="1094.970703" xlink:href="#ArialMT-115"/>
      <use x="1144.970703" xlink:href="#ArialMT-111"/>
      <use x="1200.585938" xlink:href="#ArialMT-100"/>
      <use x="1256.201172" xlink:href="#ArialMT-101"/>
     </g>
    </g>
   </g>
   <g id="line2d_27">
    <path clip-path="url(#pcfc6ddcd0d)" d="M 92.290909 338.58 
L 92.697133 338.58 
L 93.103358 335.6925 
L 93.509582 330.88 
L 93.915807 338.58 
L 94.322031 335.6925 
L 94.728256 335.6925 
L 95.13448 338.58 
L 95.540704 336.655 
L 95.946929 327.9925 
L 96.353153 337.6175 
L 96.759378 333.7675 
L 97.165602 336.655 
L 97.571826 338.58 
L 97.978051 338.58 
L 98.384275 334.73 
L 98.7905 338.58 
L 99.196724 337.6175 
L 99.602948 338.58 
L 100.415397 336.655 
L 100.821622 336.655 
L 101.227846 338.58 
L 101.63407 338.58 
L 102.040295 337.6175 
L 102.446519 338.58 
L 102.852744 337.6175 
L 103.258968 338.58 
L 103.665192 334.73 
L 104.071417 335.6925 
L 104.477641 337.6175 
L 104.883866 331.8425 
L 105.29009 336.655 
L 105.696314 332.805 
L 106.102539 335.6925 
L 106.508763 337.6175 
L 106.914988 338.58 
L 107.321212 336.655 
L 107.727437 332.805 
L 108.133661 333.7675 
L 108.539885 336.655 
L 108.94611 333.7675 
L 109.352334 336.655 
L 109.758559 331.8425 
L 110.164783 334.73 
L 110.571007 336.655 
L 110.977232 331.8425 
L 111.383456 338.58 
L 111.789681 331.8425 
L 112.195905 327.9925 
L 112.602129 327.03 
L 113.008354 333.7675 
L 113.414578 248.105 
L 113.820803 334.73 
L 114.227027 327.9925 
L 114.633251 337.6175 
L 115.039476 337.6175 
L 115.4457 278.905 
L 115.851925 336.655 
L 116.258149 330.88 
L 116.664373 316.4425 
L 117.070598 331.8425 
L 117.476822 334.73 
L 118.289271 322.2175 
L 118.695495 328.955 
L 119.10172 330.88 
L 119.507944 338.58 
L 119.914169 326.0675 
L 120.320393 306.8175 
L 120.726618 332.805 
L 121.132842 301.0425 
L 121.539066 319.33 
L 121.945291 315.48 
L 122.351515 327.03 
L 122.75774 314.5175 
L 123.163964 318.3675 
L 123.570188 329.9175 
L 124.382637 285.6425 
L 124.788862 336.655 
L 125.195086 325.105 
L 125.60131 280.83 
L 126.007535 310.6675 
L 126.413759 256.7675 
L 127.632432 338.58 
L 128.038657 289.4925 
L 128.444881 316.4425 
L 128.851106 316.4425 
L 129.25733 258.6925 
L 129.663554 333.7675 
L 130.069779 338.58 
L 130.476003 323.18 
L 130.882228 315.48 
L 131.288452 323.18 
L 131.694676 316.4425 
L 132.100901 323.18 
L 132.507125 294.305 
L 132.91335 323.18 
L 133.319574 316.4425 
L 133.725799 328.955 
L 134.132023 323.18 
L 134.538247 311.63 
L 134.944472 323.18 
L 135.350696 323.18 
L 135.756921 337.6175 
L 136.163145 293.3425 
L 136.569369 306.8175 
L 136.975594 309.705 
L 137.381818 316.4425 
L 137.788043 301.0425 
L 138.194267 255.805 
L 138.600491 316.4425 
L 139.006716 297.1925 
L 139.41294 316.4425 
L 139.819165 309.705 
L 140.225389 317.405 
L 140.631613 311.63 
L 141.037838 284.68 
L 141.444062 298.155 
L 141.850287 291.4175 
L 142.256511 331.8425 
L 142.662735 296.23 
L 143.06896 323.18 
L 143.475184 292.38 
L 143.881409 245.2175 
L 144.287633 316.4425 
L 144.693857 307.78 
L 145.100082 302.005 
L 145.506306 302.005 
L 145.912531 300.08 
L 146.318755 275.055 
L 146.72498 323.18 
L 147.537428 305.855 
L 147.943653 295.2675 
L 148.349877 330.88 
L 148.756102 301.0425 
L 149.162326 317.405 
L 149.56855 322.2175 
L 149.974775 315.48 
L 150.380999 322.2175 
L 150.787224 308.7425 
L 151.193448 269.28 
L 151.599672 310.6675 
L 152.005897 282.755 
L 152.412121 317.405 
L 152.818346 323.18 
L 153.22457 323.18 
L 153.630794 331.8425 
L 154.037019 298.155 
L 154.443243 251.955 
L 154.849468 328.955 
L 155.661916 298.155 
L 156.068141 322.2175 
L 156.474365 323.18 
L 157.286814 323.18 
L 157.693038 324.1425 
L 158.099263 290.455 
L 158.505487 275.055 
L 158.911712 308.7425 
L 159.317936 286.605 
L 159.724161 311.63 
L 160.130385 310.6675 
L 160.536609 282.755 
L 160.942834 289.4925 
L 161.349058 326.0675 
L 161.755283 279.8675 
L 162.161507 320.2925 
L 162.567731 333.7675 
L 162.973956 309.705 
L 163.38018 292.38 
L 163.786405 298.155 
L 164.192629 309.705 
L 164.598853 305.855 
L 165.005078 309.705 
L 165.411302 310.6675 
L 165.817527 308.7425 
L 166.223751 305.855 
L 166.629975 267.355 
L 167.0362 304.8925 
L 167.442424 318.3675 
L 167.848649 303.93 
L 168.254873 323.18 
L 168.661097 312.5925 
L 169.067322 331.8425 
L 169.473546 311.63 
L 169.879771 303.93 
L 170.285995 316.4425 
L 170.692219 299.1175 
L 171.098444 130.68 
L 171.504668 299.1175 
L 171.910893 312.5925 
L 172.317117 312.5925 
L 172.723342 315.48 
L 173.129566 301.0425 
L 173.53579 307.78 
L 173.942015 304.8925 
L 174.348239 303.93 
L 175.566912 330.88 
L 175.973137 315.48 
L 176.379361 277.9425 
L 176.785586 302.005 
L 177.19181 306.8175 
L 177.598034 281.7925 
L 178.004259 316.4425 
L 178.410483 298.155 
L 178.816708 316.4425 
L 179.222932 268.3175 
L 179.629156 241.3675 
L 180.035381 323.18 
L 180.441605 318.3675 
L 180.84783 315.48 
L 181.254054 328.955 
L 181.660278 323.18 
L 182.066503 140.305 
L 182.472727 291.4175 
L 182.878952 310.6675 
L 183.6914 323.18 
L 184.503849 308.7425 
L 184.910074 306.8175 
L 185.722523 288.53 
L 186.128747 323.18 
L 186.534971 317.405 
L 186.941196 302.9675 
L 187.34742 327.03 
L 187.753645 289.4925 
L 188.159869 327.9925 
L 188.566093 306.8175 
L 188.972318 309.705 
L 189.378542 316.4425 
L 189.784767 305.855 
L 190.190991 300.08 
L 190.597215 273.13 
L 191.00344 292.38 
L 191.409664 319.33 
L 191.815889 293.3425 
L 192.222113 276.98 
L 192.628337 313.555 
L 193.034562 308.7425 
L 193.440786 314.5175 
L 193.847011 332.805 
L 194.253235 127.7925 
L 194.659459 317.405 
L 195.065684 303.93 
L 195.471908 317.405 
L 195.878133 305.855 
L 196.284357 89.2925 
L 196.690581 252.9175 
L 197.096806 255.805 
L 197.50303 304.8925 
L 197.909255 240.405 
L 198.315479 277.9425 
L 198.721704 327.03 
L 199.127928 323.18 
L 199.534152 300.08 
L 199.940377 288.53 
L 200.346601 297.1925 
L 200.752826 318.3675 
L 201.15905 290.455 
L 201.565274 323.18 
L 201.971499 290.455 
L 202.377723 281.7925 
L 202.783948 323.18 
L 203.190172 295.2675 
L 203.596396 301.0425 
L 204.002621 297.1925 
L 204.408845 318.3675 
L 204.81507 279.8675 
L 205.221294 323.18 
L 205.627518 307.78 
L 206.033743 267.355 
L 206.439967 323.18 
L 206.846192 319.33 
L 207.252416 300.08 
L 207.65864 334.73 
L 208.064865 317.405 
L 208.471089 338.58 
L 208.877314 297.1925 
L 209.283538 229.8175 
L 209.689762 312.5925 
L 210.095987 302.005 
L 210.908436 275.055 
L 211.31466 288.53 
L 211.720885 333.7675 
L 212.127109 259.655 
L 212.533333 310.6675 
L 213.345782 302.005 
L 213.752007 305.855 
L 214.158231 284.68 
L 214.564455 293.3425 
L 214.97068 279.8675 
L 215.376904 241.3675 
L 215.783129 323.18 
L 216.189353 323.18 
L 216.595577 331.8425 
L 217.001802 301.0425 
L 217.408026 323.18 
L 217.814251 248.105 
L 218.220475 308.7425 
L 218.626699 274.0925 
L 219.032924 298.155 
L 219.439148 333.7675 
L 219.845373 276.0175 
L 220.251597 323.18 
L 220.657821 309.705 
L 221.064046 332.805 
L 221.47027 293.3425 
L 221.876495 316.4425 
L 222.282719 281.7925 
L 222.688943 323.18 
L 223.095168 318.3675 
L 223.501392 315.48 
L 223.907617 309.705 
L 224.313841 323.18 
L 224.720066 287.5675 
L 225.12629 311.63 
L 225.532514 300.08 
L 225.938739 318.3675 
L 226.344963 309.705 
L 226.751188 323.18 
L 227.157412 296.23 
L 227.563636 315.48 
L 227.969861 289.4925 
L 228.376085 316.4425 
L 228.78231 289.4925 
L 229.188534 322.2175 
L 229.594758 321.255 
L 230.000983 291.4175 
L 230.407207 294.305 
L 230.813432 312.5925 
L 231.219656 303.93 
L 231.62588 298.155 
L 232.032105 318.3675 
L 232.438329 270.2425 
L 232.844554 323.18 
L 233.250778 312.5925 
L 233.657002 308.7425 
L 234.063227 316.4425 
L 234.469451 307.78 
L 234.875676 265.43 
L 235.2819 301.0425 
L 235.688124 322.2175 
L 236.094349 292.38 
L 236.500573 290.455 
L 236.906798 328.955 
L 237.313022 304.8925 
L 237.719247 303.93 
L 238.125471 303.93 
L 238.531695 333.7675 
L 238.93792 307.78 
L 239.344144 302.005 
L 239.750369 313.555 
L 240.562817 327.9925 
L 240.969042 321.255 
L 241.375266 308.7425 
L 241.781491 321.255 
L 242.187715 313.555 
L 242.593939 323.18 
L 243.000164 314.5175 
L 243.406388 246.18 
L 243.812613 322.2175 
L 244.218837 279.8675 
L 244.625061 270.2425 
L 245.031286 323.18 
L 245.43751 323.18 
L 245.843735 302.005 
L 246.249959 315.48 
L 246.656183 283.7175 
L 247.062408 327.03 
L 247.468632 323.18 
L 247.874857 323.18 
L 248.281081 297.1925 
L 248.687305 229.8175 
L 249.499754 318.3675 
L 249.905979 310.6675 
L 250.312203 264.4675 
L 250.718428 315.48 
L 251.124652 331.8425 
L 251.530876 221.155 
L 251.937101 317.405 
L 252.343325 309.705 
L 252.74955 307.78 
L 253.155774 316.4425 
L 253.561998 317.405 
L 253.968223 322.2175 
L 254.374447 292.38 
L 254.780672 292.38 
L 255.186896 303.93 
L 255.59312 323.18 
L 255.999345 323.18 
L 256.405569 271.205 
L 256.811794 330.88 
L 257.218018 332.805 
L 257.624242 308.7425 
L 258.030467 336.655 
L 258.436691 296.23 
L 258.842916 225.9675 
L 259.24914 303.93 
L 259.655364 292.38 
L 260.061589 150.8925 
L 260.874038 320.2925 
L 261.280262 306.8175 
L 261.686486 323.18 
L 262.092711 299.1175 
L 262.498935 303.93 
L 262.90516 313.555 
L 263.311384 310.6675 
L 263.717609 336.655 
L 264.123833 287.5675 
L 264.530057 291.4175 
L 264.936282 307.78 
L 265.342506 252.9175 
L 265.748731 252.9175 
L 266.154955 244.255 
L 266.561179 270.2425 
L 266.967404 277.9425 
L 267.373628 313.555 
L 267.779853 276.0175 
L 268.186077 336.655 
L 268.592301 323.18 
L 268.998526 318.3675 
L 269.40475 323.18 
L 269.810975 308.7425 
L 270.217199 308.7425 
L 270.623423 273.13 
L 271.029648 257.73 
L 271.435872 306.8175 
L 271.842097 315.48 
L 272.248321 333.7675 
L 272.654545 315.48 
L 273.06077 322.2175 
L 273.466994 332.805 
L 273.873219 261.58 
L 274.685667 323.18 
L 275.091892 262.5425 
L 275.498116 311.63 
L 275.904341 315.48 
L 276.310565 253.88 
L 276.71679 280.83 
L 277.123014 289.4925 
L 277.529238 324.1425 
L 277.935463 242.33 
L 278.341687 306.8175 
L 278.747912 316.4425 
L 279.154136 323.18 
L 279.56036 322.2175 
L 279.966585 305.855 
L 280.779034 315.48 
L 281.185258 298.155 
L 281.591482 317.405 
L 281.997707 300.08 
L 282.403931 301.0425 
L 282.810156 323.18 
L 283.21638 291.4175 
L 283.622604 317.405 
L 284.028829 227.8925 
L 284.435053 256.7675 
L 284.841278 300.08 
L 285.247502 281.7925 
L 285.653726 305.855 
L 286.059951 310.6675 
L 286.466175 319.33 
L 286.8724 310.6675 
L 287.278624 260.6175 
L 287.684848 317.405 
L 288.091073 327.03 
L 288.497297 308.7425 
L 288.903522 302.005 
L 289.309746 305.855 
L 289.715971 299.1175 
L 290.122195 295.2675 
L 290.528419 307.78 
L 290.934644 329.9175 
L 291.340868 252.9175 
L 291.747093 323.18 
L 292.153317 331.8425 
L 292.559541 322.2175 
L 292.965766 242.33 
L 293.37199 295.2675 
L 293.778215 255.805 
L 294.184439 323.18 
L 294.590663 275.055 
L 294.996888 331.8425 
L 295.403112 302.9675 
L 295.809337 326.0675 
L 296.215561 308.7425 
L 296.621785 316.4425 
L 297.02801 267.355 
L 297.434234 334.73 
L 297.840459 285.6425 
L 298.246683 277.9425 
L 298.652907 318.3675 
L 299.059132 323.18 
L 299.465356 190.355 
L 299.871581 305.855 
L 300.277805 301.0425 
L 300.684029 302.9675 
L 301.090254 307.78 
L 301.496478 331.8425 
L 301.902703 323.18 
L 302.308927 266.3925 
L 303.121376 321.255 
L 303.5276 241.3675 
L 303.933825 316.4425 
L 304.340049 228.855 
L 304.746274 323.18 
L 305.558722 307.78 
L 305.964947 318.3675 
L 306.371171 313.555 
L 306.777396 289.4925 
L 307.18362 321.255 
L 307.589844 269.28 
L 307.996069 322.2175 
L 308.402293 316.4425 
L 308.808518 307.78 
L 309.214742 323.18 
L 309.620966 272.1675 
L 310.027191 331.8425 
L 310.433415 327.9925 
L 310.83964 272.1675 
L 311.245864 316.4425 
L 311.652088 307.78 
L 312.058313 315.48 
L 312.464537 297.1925 
L 312.870762 222.1175 
L 313.276986 293.3425 
L 313.68321 274.0925 
L 314.089435 294.305 
L 314.495659 323.18 
L 314.901884 323.18 
L 315.308108 269.28 
L 315.714333 279.8675 
L 316.120557 322.2175 
L 316.526781 308.7425 
L 316.933006 317.405 
L 317.33923 178.805 
L 317.745455 284.68 
L 318.151679 280.83 
L 318.557903 309.705 
L 318.964128 320.2925 
L 319.370352 311.63 
L 319.776577 314.5175 
L 320.589025 295.2675 
L 320.99525 244.255 
L 321.401474 321.255 
L 321.807699 311.63 
L 322.213923 336.655 
L 322.620147 328.955 
L 323.026372 305.855 
L 323.432596 125.8675 
L 323.838821 329.9175 
L 324.245045 328.955 
L 325.057494 328.955 
L 325.869943 292.38 
L 326.276167 308.7425 
L 326.682391 316.4425 
L 327.088616 259.655 
L 327.49484 308.7425 
L 327.901065 285.6425 
L 328.307289 317.405 
L 328.713514 324.1425 
L 329.119738 289.4925 
L 329.525962 273.13 
L 329.932187 323.18 
L 330.338411 328.955 
L 330.744636 323.18 
L 331.15086 269.28 
L 331.557084 323.18 
L 331.963309 276.98 
L 332.369533 315.48 
L 332.775758 306.8175 
L 333.181982 330.88 
L 333.588206 308.7425 
L 333.994431 297.1925 
L 334.400655 177.8425 
L 334.80688 290.455 
L 335.213104 318.3675 
L 335.619328 332.805 
L 336.025553 286.605 
L 336.431777 304.8925 
L 336.838002 302.9675 
L 337.244226 315.48 
L 337.65045 302.005 
L 338.056675 312.5925 
L 338.462899 295.2675 
L 338.869124 318.3675 
L 339.275348 258.6925 
L 339.681572 328.955 
L 340.087797 333.7675 
L 340.494021 281.7925 
L 340.900246 324.1425 
L 341.30647 317.405 
L 341.712695 323.18 
L 342.118919 310.6675 
L 342.525143 266.3925 
L 342.931368 317.405 
L 343.337592 253.88 
L 343.743817 300.08 
L 344.150041 315.48 
L 344.556265 308.7425 
L 344.96249 318.3675 
L 345.368714 311.63 
L 345.774939 297.1925 
L 346.181163 313.555 
L 346.587387 231.7425 
L 346.993612 322.2175 
L 347.399836 331.8425 
L 347.806061 302.9675 
L 348.212285 294.305 
L 348.618509 299.1175 
L 349.024734 233.6675 
L 349.430958 253.88 
L 349.837183 322.2175 
L 350.243407 268.3175 
L 351.055856 323.18 
L 351.46208 327.03 
L 351.868305 317.405 
L 352.274529 302.9675 
L 352.680753 323.18 
L 353.086978 326.0675 
L 353.493202 309.705 
L 353.899427 276.98 
L 354.305651 280.83 
L 354.711876 275.055 
L 355.1181 329.9175 
L 355.524324 325.105 
L 355.930549 256.7675 
L 356.336773 303.93 
L 356.742998 320.2925 
L 357.149222 258.6925 
L 357.555446 326.0675 
L 357.961671 322.2175 
L 358.367895 325.105 
L 358.77412 276.0175 
L 359.180344 192.28 
L 359.586568 327.03 
L 359.992793 322.2175 
L 360.399017 327.03 
L 360.805242 262.5425 
L 361.211466 309.705 
L 361.61769 310.6675 
L 362.023915 267.355 
L 362.430139 192.28 
L 362.836364 308.7425 
L 363.242588 323.18 
L 363.648812 323.18 
L 364.055037 260.6175 
L 364.461261 322.2175 
L 364.867486 316.4425 
L 365.27371 259.655 
L 365.679934 317.405 
L 366.086159 322.2175 
L 366.492383 299.1175 
L 366.898608 265.43 
L 367.304832 302.9675 
L 367.711057 323.18 
L 368.117281 302.9675 
L 368.523505 319.33 
L 368.92973 312.5925 
L 369.335954 310.6675 
L 369.742179 300.08 
L 370.148403 273.13 
L 370.554627 296.23 
L 370.960852 306.8175 
L 371.773301 256.7675 
L 372.179525 322.2175 
L 372.585749 322.2175 
L 372.991974 226.93 
L 373.398198 305.855 
L 373.804423 317.405 
L 374.210647 316.4425 
L 374.616871 328.955 
L 375.023096 327.03 
L 375.42932 285.6425 
L 375.835545 323.18 
L 376.241769 286.605 
L 376.647993 269.28 
L 377.460442 310.6675 
L 377.866667 323.18 
L 378.272891 282.755 
L 378.679115 323.18 
L 379.08534 327.03 
L 379.491564 298.155 
L 379.897789 310.6675 
L 380.304013 281.7925 
L 381.116462 328.955 
L 381.522686 290.455 
L 381.928911 316.4425 
L 382.335135 302.005 
L 382.74136 318.3675 
L 383.147584 328.955 
L 383.553808 300.08 
L 383.960033 322.2175 
L 384.366257 293.3425 
L 384.772482 297.1925 
L 385.178706 326.0675 
L 385.58493 267.355 
L 385.991155 311.63 
L 386.397379 258.6925 
L 386.803604 331.8425 
L 387.209828 287.5675 
L 387.616052 328.955 
L 388.022277 262.5425 
L 388.428501 293.3425 
L 388.834726 305.855 
L 389.24095 322.2175 
L 390.053399 290.455 
L 390.459623 296.23 
L 390.865848 314.5175 
L 391.272072 302.9675 
L 391.678296 322.2175 
L 392.084521 305.855 
L 392.89697 257.73 
L 393.303194 300.08 
L 393.709419 320.2925 
L 394.115643 312.5925 
L 394.521867 267.355 
L 394.928092 322.2175 
L 395.334316 247.1425 
L 395.740541 331.8425 
L 396.146765 292.38 
L 396.552989 279.8675 
L 396.959214 293.3425 
L 397.365438 263.505 
L 398.177887 299.1175 
L 398.584111 225.005 
L 399.39656 316.4425 
L 399.802785 304.8925 
L 400.209009 328.955 
L 400.615233 268.3175 
L 401.021458 322.2175 
L 401.427682 322.2175 
L 401.833907 296.23 
L 402.240131 293.3425 
L 402.646355 287.5675 
L 403.05258 327.9925 
L 403.458804 325.105 
L 403.865029 321.255 
L 404.271253 322.2175 
L 404.677477 265.43 
L 405.489926 331.8425 
L 405.896151 309.705 
L 406.7086 250.03 
L 407.114824 298.155 
L 407.521048 328.955 
L 407.927273 224.0425 
L 408.333497 311.63 
L 408.739722 310.6675 
L 409.145946 321.255 
L 409.55217 284.68 
L 409.958395 323.18 
L 410.364619 322.2175 
L 411.177068 237.5175 
L 411.583292 253.88 
L 411.989517 317.405 
L 412.395741 316.4425 
L 412.801966 310.6675 
L 413.20819 316.4425 
L 413.614414 328.955 
L 414.020639 309.705 
L 414.426863 315.48 
L 414.833088 323.18 
L 415.239312 201.905 
L 415.645536 311.63 
L 416.051761 327.03 
L 416.457985 291.4175 
L 416.86421 328.955 
L 417.270434 225.9675 
L 417.676658 311.63 
L 418.082883 199.98 
L 418.489107 308.7425 
L 418.895332 225.005 
L 419.301556 293.3425 
L 419.707781 313.555 
L 420.114005 278.905 
L 420.520229 309.705 
L 420.926454 327.03 
L 421.332678 321.255 
L 421.738903 289.4925 
L 422.145127 309.705 
L 422.551351 323.18 
L 422.957576 309.705 
L 423.3638 313.555 
L 423.770025 240.405 
L 424.176249 238.48 
L 424.582473 332.805 
L 424.988698 322.2175 
L 425.394922 299.1175 
L 425.801147 326.0675 
L 426.207371 245.2175 
L 426.613595 302.9675 
L 427.01982 61.38 
L 427.426044 325.105 
L 427.832269 333.7675 
L 428.238493 215.38 
L 429.050942 333.7675 
L 429.457166 327.9925 
L 429.863391 304.8925 
L 430.269615 322.2175 
L 430.675839 323.18 
L 431.082064 289.4925 
L 431.488288 271.205 
L 431.894513 274.0925 
L 432.300737 302.9675 
L 432.706962 310.6675 
L 433.113186 323.18 
L 433.51941 276.98 
L 433.925635 311.63 
L 434.331859 251.955 
L 434.738084 322.2175 
L 435.144308 300.08 
L 435.550532 311.63 
L 435.956757 315.48 
L 436.362981 292.38 
L 436.769206 298.155 
L 437.17543 316.4425 
L 437.581654 297.1925 
L 437.987879 312.5925 
L 438.394103 310.6675 
L 438.800328 310.6675 
L 439.206552 274.0925 
L 439.612776 284.68 
L 440.019001 302.9675 
L 440.425225 280.83 
L 440.83145 238.48 
L 441.237674 302.9675 
L 441.643898 316.4425 
L 442.050123 321.255 
L 442.456347 295.2675 
L 442.862572 323.18 
L 443.268796 328.955 
L 443.67502 301.0425 
L 444.081245 298.155 
L 444.487469 287.5675 
L 444.893694 257.73 
L 445.299918 196.13 
L 445.706143 321.255 
L 446.112367 311.63 
L 446.518591 314.5175 
L 446.924816 314.5175 
L 447.33104 315.48 
L 447.737265 296.23 
L 448.143489 250.9925 
L 448.549713 323.18 
L 448.955938 256.7675 
L 449.362162 330.88 
L 449.768387 318.3675 
L 450.174611 309.705 
L 450.580835 323.18 
L 450.98706 303.93 
L 451.393284 277.9425 
L 451.799509 304.8925 
L 452.205733 268.3175 
L 452.611957 300.08 
L 453.018182 279.8675 
L 453.424406 323.18 
L 453.830631 305.855 
L 454.236855 304.8925 
L 454.643079 310.6675 
L 455.455528 293.3425 
L 455.861753 317.405 
L 456.267977 288.53 
L 456.674201 307.78 
L 457.080426 299.1175 
L 457.48665 329.9175 
L 457.892875 322.2175 
L 458.299099 292.38 
L 458.705324 287.5675 
L 459.111548 308.7425 
L 459.517772 322.2175 
L 460.330221 217.305 
L 460.736446 308.7425 
L 461.14267 313.555 
L 461.548894 284.68 
L 462.361343 250.03 
L 462.767568 285.6425 
L 463.173792 298.155 
L 463.580016 327.03 
L 463.986241 294.305 
L 464.392465 310.6675 
L 464.79869 300.08 
L 465.204914 241.3675 
L 465.611138 332.805 
L 466.017363 287.5675 
L 466.423587 314.5175 
L 466.829812 288.53 
L 467.236036 270.2425 
L 467.64226 327.03 
L 468.048485 286.605 
L 468.454709 323.18 
L 468.860934 235.5925 
L 469.267158 309.705 
L 469.673382 307.78 
L 470.079607 306.8175 
L 470.485831 328.955 
L 470.892056 304.8925 
L 471.29828 323.18 
L 471.704505 332.805 
L 472.110729 318.3675 
L 472.516953 268.3175 
L 472.923178 305.855 
L 473.329402 300.08 
L 473.735627 309.705 
L 474.141851 314.5175 
L 474.548075 322.2175 
L 474.9543 303.93 
L 475.360524 326.0675 
L 475.766749 297.1925 
L 476.172973 296.23 
L 476.579197 275.055 
L 476.985422 331.8425 
L 477.391646 177.8425 
L 477.797871 324.1425 
L 478.204095 331.8425 
L 478.610319 225.9675 
L 479.016544 323.18 
L 479.422768 329.9175 
L 479.828993 308.7425 
L 480.235217 311.63 
L 480.641441 244.255 
L 481.047666 322.2175 
L 481.45389 312.5925 
L 481.860115 297.1925 
L 482.266339 327.9925 
L 482.672563 323.18 
L 483.078788 275.055 
L 483.485012 323.18 
L 483.891237 319.33 
L 484.703686 304.8925 
L 485.10991 321.255 
L 485.516134 331.8425 
L 485.922359 247.1425 
L 486.328583 264.4675 
L 486.734808 288.53 
L 487.141032 326.0675 
L 487.547256 261.58 
L 487.953481 307.78 
L 488.359705 307.78 
L 488.76593 314.5175 
L 489.172154 317.405 
L 489.578378 241.3675 
L 489.984603 323.18 
L 490.390827 304.8925 
L 490.797052 196.13 
L 491.203276 308.7425 
L 491.6095 268.3175 
L 492.015725 302.005 
L 492.421949 307.78 
L 492.828174 328.955 
L 493.234398 263.505 
L 493.640622 307.78 
L 494.453071 336.655 
L 494.859296 316.4425 
L 495.26552 323.18 
L 495.671744 310.6675 
L 496.077969 311.63 
L 496.484193 262.5425 
L 496.890418 322.2175 
L 497.296642 336.655 
L 497.702867 291.4175 
L 498.109091 302.9675 
L 498.109091 302.9675 
" style="fill:none;stroke:#8172b2;stroke-linecap:round;stroke-width:1.75;"/>
   </g>
   <g id="patch_3">
    <path d="M 72 352.44 
L 72 47.52 
" style="fill:none;"/>
   </g>
   <g id="patch_4">
    <path d="M 518.4 352.44 
L 518.4 47.52 
" style="fill:none;"/>
   </g>
   <g id="patch_5">
    <path d="M 72 352.44 
L 518.4 352.44 
" style="fill:none;"/>
   </g>
   <g id="patch_6">
    <path d="M 72 47.52 
L 518.4 47.52 
" style="fill:none;"/>
   </g>
   <g id="text_16">
    <!-- Reinforced Learning Progress -->
    <defs>
     <path d="M 7.859375 0 
L 7.859375 71.578125 
L 39.59375 71.578125 
Q 49.171875 71.578125 54.140625 69.640625 
Q 59.125 67.71875 62.109375 62.828125 
Q 65.09375 57.953125 65.09375 52.046875 
Q 65.09375 44.4375 60.15625 39.203125 
Q 55.21875 33.984375 44.921875 32.5625 
Q 48.6875 30.765625 50.640625 29 
Q 54.78125 25.203125 58.5 19.484375 
L 70.953125 0 
L 59.03125 0 
L 49.5625 14.890625 
Q 45.40625 21.34375 42.71875 24.75 
Q 40.046875 28.171875 37.921875 29.53125 
Q 35.796875 30.90625 33.59375 31.453125 
Q 31.984375 31.78125 28.328125 31.78125 
L 17.328125 31.78125 
L 17.328125 0 
z
M 17.328125 39.984375 
L 37.703125 39.984375 
Q 44.1875 39.984375 47.84375 41.328125 
Q 51.515625 42.671875 53.421875 45.625 
Q 55.328125 48.578125 55.328125 52.046875 
Q 55.328125 57.125 51.640625 60.390625 
Q 47.953125 63.671875 39.984375 63.671875 
L 17.328125 63.671875 
z
" id="ArialMT-82"/>
     <path d="M 6.59375 0 
L 6.59375 51.859375 
L 14.5 51.859375 
L 14.5 44.484375 
Q 20.21875 53.03125 31 53.03125 
Q 35.6875 53.03125 39.625 51.34375 
Q 43.5625 49.65625 45.515625 46.921875 
Q 47.46875 44.1875 48.25 40.4375 
Q 48.734375 37.984375 48.734375 31.890625 
L 48.734375 0 
L 39.9375 0 
L 39.9375 31.546875 
Q 39.9375 36.921875 38.90625 39.578125 
Q 37.890625 42.234375 35.28125 43.8125 
Q 32.671875 45.40625 29.15625 45.40625 
Q 23.53125 45.40625 19.453125 41.84375 
Q 15.375 38.28125 15.375 28.328125 
L 15.375 0 
z
" id="ArialMT-110"/>
     <path d="M 40.4375 19 
L 49.078125 17.875 
Q 47.65625 8.9375 41.8125 3.875 
Q 35.984375 -1.171875 27.484375 -1.171875 
Q 16.84375 -1.171875 10.375 5.78125 
Q 3.90625 12.75 3.90625 25.734375 
Q 3.90625 34.125 6.6875 40.421875 
Q 9.46875 46.734375 15.15625 49.875 
Q 20.84375 53.03125 27.546875 53.03125 
Q 35.984375 53.03125 41.359375 48.75 
Q 46.734375 44.484375 48.25 36.625 
L 39.703125 35.296875 
Q 38.484375 40.53125 35.375 43.15625 
Q 32.28125 45.796875 27.875 45.796875 
Q 21.234375 45.796875 17.078125 41.03125 
Q 12.9375 36.28125 12.9375 25.984375 
Q 12.9375 15.53125 16.9375 10.796875 
Q 20.953125 6.0625 27.390625 6.0625 
Q 32.5625 6.0625 36.03125 9.234375 
Q 39.5 12.40625 40.4375 19 
z
" id="ArialMT-99"/>
     <path d="M 7.328125 0 
L 7.328125 71.578125 
L 16.796875 71.578125 
L 16.796875 8.453125 
L 52.046875 8.453125 
L 52.046875 0 
z
" id="ArialMT-76"/>
     <path d="M 40.4375 6.390625 
Q 35.546875 2.25 31.03125 0.53125 
Q 26.515625 -1.171875 21.34375 -1.171875 
Q 12.796875 -1.171875 8.203125 3 
Q 3.609375 7.171875 3.609375 13.671875 
Q 3.609375 17.484375 5.34375 20.625 
Q 7.078125 23.78125 9.890625 25.6875 
Q 12.703125 27.59375 16.21875 28.5625 
Q 18.796875 29.25 24.03125 29.890625 
Q 34.671875 31.15625 39.703125 32.90625 
Q 39.75 34.71875 39.75 35.203125 
Q 39.75 40.578125 37.25 42.78125 
Q 33.890625 45.75 27.25 45.75 
Q 21.046875 45.75 18.09375 43.578125 
Q 15.140625 41.40625 13.71875 35.890625 
L 5.125 37.0625 
Q 6.296875 42.578125 8.984375 45.96875 
Q 11.671875 49.359375 16.75 51.1875 
Q 21.828125 53.03125 28.515625 53.03125 
Q 35.15625 53.03125 39.296875 51.46875 
Q 43.453125 49.90625 45.40625 47.53125 
Q 47.359375 45.171875 48.140625 41.546875 
Q 48.578125 39.3125 48.578125 33.453125 
L 48.578125 21.734375 
Q 48.578125 9.46875 49.140625 6.21875 
Q 49.703125 2.984375 51.375 0 
L 42.1875 0 
Q 40.828125 2.734375 40.4375 6.390625 
z
M 39.703125 26.03125 
Q 34.90625 24.078125 25.34375 22.703125 
Q 19.921875 21.921875 17.671875 20.9375 
Q 15.4375 19.96875 14.203125 18.09375 
Q 12.984375 16.21875 12.984375 13.921875 
Q 12.984375 10.40625 15.640625 8.0625 
Q 18.3125 5.71875 23.4375 5.71875 
Q 28.515625 5.71875 32.46875 7.9375 
Q 36.421875 10.15625 38.28125 14.015625 
Q 39.703125 17 39.703125 22.796875 
z
" id="ArialMT-97"/>
     <path d="M 4.984375 -4.296875 
L 13.53125 -5.5625 
Q 14.0625 -9.515625 16.5 -11.328125 
Q 19.78125 -13.765625 25.4375 -13.765625 
Q 31.546875 -13.765625 34.859375 -11.328125 
Q 38.1875 -8.890625 39.359375 -4.5 
Q 40.046875 -1.8125 39.984375 6.78125 
Q 34.234375 0 25.640625 0 
Q 14.9375 0 9.078125 7.71875 
Q 3.21875 15.4375 3.21875 26.21875 
Q 3.21875 33.640625 5.90625 39.90625 
Q 8.59375 46.1875 13.6875 49.609375 
Q 18.796875 53.03125 25.6875 53.03125 
Q 34.859375 53.03125 40.828125 45.609375 
L 40.828125 51.859375 
L 48.921875 51.859375 
L 48.921875 7.03125 
Q 48.921875 -5.078125 46.453125 -10.125 
Q 44 -15.1875 38.640625 -18.109375 
Q 33.296875 -21.046875 25.484375 -21.046875 
Q 16.21875 -21.046875 10.5 -16.875 
Q 4.78125 -12.703125 4.984375 -4.296875 
z
M 12.25 26.859375 
Q 12.25 16.65625 16.296875 11.96875 
Q 20.359375 7.28125 26.46875 7.28125 
Q 32.515625 7.28125 36.609375 11.9375 
Q 40.71875 16.609375 40.71875 26.5625 
Q 40.71875 36.078125 36.5 40.90625 
Q 32.28125 45.75 26.3125 45.75 
Q 20.453125 45.75 16.34375 40.984375 
Q 12.25 36.234375 12.25 26.859375 
z
" id="ArialMT-103"/>
     <path d="M 7.71875 0 
L 7.71875 71.578125 
L 34.71875 71.578125 
Q 41.84375 71.578125 45.609375 70.90625 
Q 50.875 70.015625 54.4375 67.546875 
Q 58.015625 65.09375 60.1875 60.640625 
Q 62.359375 56.203125 62.359375 50.875 
Q 62.359375 41.75 56.546875 35.421875 
Q 50.734375 29.109375 35.546875 29.109375 
L 17.1875 29.109375 
L 17.1875 0 
z
M 17.1875 37.546875 
L 35.6875 37.546875 
Q 44.875 37.546875 48.734375 40.96875 
Q 52.59375 44.390625 52.59375 50.59375 
Q 52.59375 55.078125 50.3125 58.265625 
Q 48.046875 61.46875 44.34375 62.5 
Q 41.9375 63.140625 35.5 63.140625 
L 17.1875 63.140625 
z
" id="ArialMT-80"/>
    </defs>
    <g style="fill:#262626;" transform="translate(162.357812 41.52)scale(0.2 -0.2)">
     <use xlink:href="#ArialMT-82"/>
     <use x="72.216797" xlink:href="#ArialMT-101"/>
     <use x="127.832031" xlink:href="#ArialMT-105"/>
     <use x="150.048828" xlink:href="#ArialMT-110"/>
     <use x="205.664062" xlink:href="#ArialMT-102"/>
     <use x="233.447266" xlink:href="#ArialMT-111"/>
     <use x="289.0625" xlink:href="#ArialMT-114"/>
     <use x="322.363281" xlink:href="#ArialMT-99"/>
     <use x="372.363281" xlink:href="#ArialMT-101"/>
     <use x="427.978516" xlink:href="#ArialMT-100"/>
     <use x="483.59375" xlink:href="#ArialMT-32"/>
     <use x="511.376953" xlink:href="#ArialMT-76"/>
     <use x="566.992188" xlink:href="#ArialMT-101"/>
     <use x="622.607422" xlink:href="#ArialMT-97"/>
     <use x="678.222656" xlink:href="#ArialMT-114"/>
     <use x="711.523438" xlink:href="#ArialMT-110"/>
     <use x="767.138672" xlink:href="#ArialMT-105"/>
     <use x="789.355469" xlink:href="#ArialMT-110"/>
     <use x="844.970703" xlink:href="#ArialMT-103"/>
     <use x="900.585938" xlink:href="#ArialMT-32"/>
     <use x="928.369141" xlink:href="#ArialMT-80"/>
     <use x="995.068359" xlink:href="#ArialMT-114"/>
     <use x="1028.369141" xlink:href="#ArialMT-111"/>
     <use x="1083.984375" xlink:href="#ArialMT-103"/>
     <use x="1139.599609" xlink:href="#ArialMT-114"/>
     <use x="1172.900391" xlink:href="#ArialMT-101"/>
     <use x="1228.515625" xlink:href="#ArialMT-115"/>
     <use x="1278.515625" xlink:href="#ArialMT-115"/>
    </g>
   </g>
   <g id="legend_1">
    <g id="line2d_28">
     <path d="M 431.36875 337.9525 
L 451.36875 337.9525 
" style="fill:none;stroke:#8172b2;stroke-linecap:round;stroke-width:1.75;"/>
    </g>
    <g id="line2d_29"/>
    <g id="text_17">
     <!-- Step Count -->
     <defs>
      <path d="M 58.796875 25.09375 
L 68.265625 22.703125 
Q 65.28125 11.03125 57.546875 4.90625 
Q 49.8125 -1.21875 38.625 -1.21875 
Q 27.046875 -1.21875 19.796875 3.484375 
Q 12.546875 8.203125 8.765625 17.140625 
Q 4.984375 26.078125 4.984375 36.328125 
Q 4.984375 47.515625 9.25 55.828125 
Q 13.53125 64.15625 21.40625 68.46875 
Q 29.296875 72.796875 38.765625 72.796875 
Q 49.515625 72.796875 56.828125 67.328125 
Q 64.15625 61.859375 67.046875 51.953125 
L 57.71875 49.75 
Q 55.21875 57.5625 50.484375 61.125 
Q 45.75 64.703125 38.578125 64.703125 
Q 30.328125 64.703125 24.78125 60.734375 
Q 19.234375 56.78125 16.984375 50.109375 
Q 14.75 43.453125 14.75 36.375 
Q 14.75 27.25 17.40625 20.4375 
Q 20.0625 13.625 25.671875 10.25 
Q 31.296875 6.890625 37.84375 6.890625 
Q 45.796875 6.890625 51.3125 11.46875 
Q 56.84375 16.0625 58.796875 25.09375 
z
" id="ArialMT-67"/>
     </defs>
     <g style="fill:#262626;" transform="translate(459.36875 341.4525)scale(0.1 -0.1)">
      <use xlink:href="#ArialMT-83"/>
      <use x="66.699219" xlink:href="#ArialMT-116"/>
      <use x="94.482422" xlink:href="#ArialMT-101"/>
      <use x="150.097656" xlink:href="#ArialMT-112"/>
      <use x="205.712891" xlink:href="#ArialMT-32"/>
      <use x="233.496094" xlink:href="#ArialMT-67"/>
      <use x="305.712891" xlink:href="#ArialMT-111"/>
      <use x="361.328125" xlink:href="#ArialMT-117"/>
      <use x="416.943359" xlink:href="#ArialMT-110"/>
      <use x="472.558594" xlink:href="#ArialMT-116"/>
     </g>
    </g>
   </g>
  </g>
 </g>
 <defs>
  <clipPath id="pcfc6ddcd0d">
   <rect height="304.92" width="446.4" x="72" y="47.52"/>
  </clipPath>
 </defs>
</svg>
