<?xml version="1.0" encoding="utf-8" standalone="no"?>
<!DOCTYPE svg PUBLIC "-//W3C//DTD SVG 1.1//EN"
  "http://www.w3.org/Graphics/SVG/1.1/DTD/svg11.dtd">
<!-- Created with matplotlib (https://matplotlib.org/) -->
<svg height="396pt" version="1.1" viewBox="0 0 576 396" width="576pt" xmlns="http://www.w3.org/2000/svg" xmlns:xlink="http://www.w3.org/1999/xlink">
 <defs>
  <style type="text/css">
*{stroke-linecap:butt;stroke-linejoin:round;}
  </style>
 </defs>
 <g id="figure_1">
  <g id="patch_1">
   <path d="M 0 396 
L 576 396 
L 576 0 
L 0 0 
z
" style="fill:#ffffff;"/>
  </g>
  <g id="axes_1">
   <g id="patch_2">
    <path d="M 72 352.44 
L 518.4 352.44 
L 518.4 47.52 
L 72 47.52 
z
" style="fill:#eaeaf2;"/>
   </g>
   <g id="matplotlib.axis_1">
    <g id="xtick_1">
     <g id="line2d_1">
      <path clip-path="url(#pf800394850)" d="M 92.290909 352.44 
L 92.290909 47.52 
" style="fill:none;stroke:#ffffff;stroke-linecap:round;"/>
     </g>
     <g id="line2d_2"/>
     <g id="text_1">
      <!-- 0:00:00 -->
      <defs>
       <path d="M 4.15625 35.296875 
Q 4.15625 48 6.765625 55.734375 
Q 9.375 63.484375 14.515625 67.671875 
Q 19.671875 71.875 27.484375 71.875 
Q 33.25 71.875 37.59375 69.546875 
Q 41.9375 67.234375 44.765625 62.859375 
Q 47.609375 58.5 49.21875 52.21875 
Q 50.828125 45.953125 50.828125 35.296875 
Q 50.828125 22.703125 48.234375 14.96875 
Q 45.65625 7.234375 40.5 3 
Q 35.359375 -1.21875 27.484375 -1.21875 
Q 17.140625 -1.21875 11.234375 6.203125 
Q 4.15625 15.140625 4.15625 35.296875 
z
M 13.1875 35.296875 
Q 13.1875 17.671875 17.3125 11.828125 
Q 21.4375 6 27.484375 6 
Q 33.546875 6 37.671875 11.859375 
Q 41.796875 17.71875 41.796875 35.296875 
Q 41.796875 52.984375 37.671875 58.78125 
Q 33.546875 64.59375 27.390625 64.59375 
Q 21.34375 64.59375 17.71875 59.46875 
Q 13.1875 52.9375 13.1875 35.296875 
z
" id="ArialMT-48"/>
       <path d="M 9.03125 41.84375 
L 9.03125 51.859375 
L 19.046875 51.859375 
L 19.046875 41.84375 
z
M 9.03125 0 
L 9.03125 10.015625 
L 19.046875 10.015625 
L 19.046875 0 
z
" id="ArialMT-58"/>
      </defs>
      <g style="fill:#262626;" transform="translate(75.61044 366.597813)scale(0.1 -0.1)">
       <use xlink:href="#ArialMT-48"/>
       <use x="55.615234" xlink:href="#ArialMT-58"/>
       <use x="83.398438" xlink:href="#ArialMT-48"/>
       <use x="139.013672" xlink:href="#ArialMT-48"/>
       <use x="194.628906" xlink:href="#ArialMT-58"/>
       <use x="222.412109" xlink:href="#ArialMT-48"/>
       <use x="278.027344" xlink:href="#ArialMT-48"/>
      </g>
     </g>
    </g>
    <g id="xtick_2">
     <g id="line2d_3">
      <path clip-path="url(#pf800394850)" d="M 186.262932 352.44 
L 186.262932 47.52 
" style="fill:none;stroke:#ffffff;stroke-linecap:round;"/>
     </g>
     <g id="line2d_4"/>
     <g id="text_2">
      <!-- 5:33:20 -->
      <defs>
       <path d="M 4.15625 18.75 
L 13.375 19.53125 
Q 14.40625 12.796875 18.140625 9.390625 
Q 21.875 6 27.15625 6 
Q 33.5 6 37.890625 10.78125 
Q 42.28125 15.578125 42.28125 23.484375 
Q 42.28125 31 38.0625 35.34375 
Q 33.84375 39.703125 27 39.703125 
Q 22.75 39.703125 19.328125 37.765625 
Q 15.921875 35.84375 13.96875 32.765625 
L 5.71875 33.84375 
L 12.640625 70.609375 
L 48.25 70.609375 
L 48.25 62.203125 
L 19.671875 62.203125 
L 15.828125 42.96875 
Q 22.265625 47.46875 29.34375 47.46875 
Q 38.71875 47.46875 45.15625 40.96875 
Q 51.609375 34.46875 51.609375 24.265625 
Q 51.609375 14.546875 45.953125 7.46875 
Q 39.0625 -1.21875 27.15625 -1.21875 
Q 17.390625 -1.21875 11.203125 4.25 
Q 5.03125 9.71875 4.15625 18.75 
z
" id="ArialMT-53"/>
       <path d="M 4.203125 18.890625 
L 12.984375 20.0625 
Q 14.5 12.59375 18.140625 9.296875 
Q 21.78125 6 27 6 
Q 33.203125 6 37.46875 10.296875 
Q 41.75 14.59375 41.75 20.953125 
Q 41.75 27 37.796875 30.921875 
Q 33.84375 34.859375 27.734375 34.859375 
Q 25.25 34.859375 21.53125 33.890625 
L 22.515625 41.609375 
Q 23.390625 41.5 23.921875 41.5 
Q 29.546875 41.5 34.03125 44.421875 
Q 38.53125 47.359375 38.53125 53.46875 
Q 38.53125 58.296875 35.25 61.46875 
Q 31.984375 64.65625 26.8125 64.65625 
Q 21.6875 64.65625 18.265625 61.421875 
Q 14.84375 58.203125 13.875 51.765625 
L 5.078125 53.328125 
Q 6.6875 62.15625 12.390625 67.015625 
Q 18.109375 71.875 26.609375 71.875 
Q 32.46875 71.875 37.390625 69.359375 
Q 42.328125 66.84375 44.9375 62.5 
Q 47.5625 58.15625 47.5625 53.265625 
Q 47.5625 48.640625 45.0625 44.828125 
Q 42.578125 41.015625 37.703125 38.765625 
Q 44.046875 37.3125 47.5625 32.6875 
Q 51.078125 28.078125 51.078125 21.140625 
Q 51.078125 11.765625 44.234375 5.25 
Q 37.40625 -1.265625 26.953125 -1.265625 
Q 17.53125 -1.265625 11.296875 4.34375 
Q 5.078125 9.96875 4.203125 18.890625 
z
" id="ArialMT-51"/>
       <path d="M 50.34375 8.453125 
L 50.34375 0 
L 3.03125 0 
Q 2.9375 3.171875 4.046875 6.109375 
Q 5.859375 10.9375 9.828125 15.625 
Q 13.8125 20.3125 21.34375 26.46875 
Q 33.015625 36.03125 37.109375 41.625 
Q 41.21875 47.21875 41.21875 52.203125 
Q 41.21875 57.421875 37.46875 61 
Q 33.734375 64.59375 27.734375 64.59375 
Q 21.390625 64.59375 17.578125 60.78125 
Q 13.765625 56.984375 13.71875 50.25 
L 4.6875 51.171875 
Q 5.609375 61.28125 11.65625 66.578125 
Q 17.71875 71.875 27.9375 71.875 
Q 38.234375 71.875 44.234375 66.15625 
Q 50.25 60.453125 50.25 52 
Q 50.25 47.703125 48.484375 43.546875 
Q 46.734375 39.40625 42.65625 34.8125 
Q 38.578125 30.21875 29.109375 22.21875 
Q 21.1875 15.578125 18.9375 13.203125 
Q 16.703125 10.84375 15.234375 8.453125 
z
" id="ArialMT-50"/>
      </defs>
      <g style="fill:#262626;" transform="translate(169.582463 366.597813)scale(0.1 -0.1)">
       <use xlink:href="#ArialMT-53"/>
       <use x="55.615234" xlink:href="#ArialMT-58"/>
       <use x="83.398438" xlink:href="#ArialMT-51"/>
       <use x="139.013672" xlink:href="#ArialMT-51"/>
       <use x="194.628906" xlink:href="#ArialMT-58"/>
       <use x="222.412109" xlink:href="#ArialMT-50"/>
       <use x="278.027344" xlink:href="#ArialMT-48"/>
      </g>
     </g>
    </g>
    <g id="xtick_3">
     <g id="line2d_5">
      <path clip-path="url(#pf800394850)" d="M 280.234955 352.44 
L 280.234955 47.52 
" style="fill:none;stroke:#ffffff;stroke-linecap:round;"/>
     </g>
     <g id="line2d_6"/>
     <g id="text_3">
      <!-- 11:06:40 -->
      <defs>
       <path d="M 37.25 0 
L 28.46875 0 
L 28.46875 56 
Q 25.296875 52.984375 20.140625 49.953125 
Q 14.984375 46.921875 10.890625 45.40625 
L 10.890625 53.90625 
Q 18.265625 57.375 23.78125 62.296875 
Q 29.296875 67.234375 31.59375 71.875 
L 37.25 71.875 
z
" id="ArialMT-49"/>
       <path d="M 49.75 54.046875 
L 41.015625 53.375 
Q 39.84375 58.546875 37.703125 60.890625 
Q 34.125 64.65625 28.90625 64.65625 
Q 24.703125 64.65625 21.53125 62.3125 
Q 17.390625 59.28125 14.984375 53.46875 
Q 12.59375 47.65625 12.5 36.921875 
Q 15.671875 41.75 20.265625 44.09375 
Q 24.859375 46.4375 29.890625 46.4375 
Q 38.671875 46.4375 44.84375 39.96875 
Q 51.03125 33.5 51.03125 23.25 
Q 51.03125 16.5 48.125 10.71875 
Q 45.21875 4.9375 40.140625 1.859375 
Q 35.0625 -1.21875 28.609375 -1.21875 
Q 17.625 -1.21875 10.6875 6.859375 
Q 3.765625 14.9375 3.765625 33.5 
Q 3.765625 54.25 11.421875 63.671875 
Q 18.109375 71.875 29.4375 71.875 
Q 37.890625 71.875 43.28125 67.140625 
Q 48.6875 62.40625 49.75 54.046875 
z
M 13.875 23.1875 
Q 13.875 18.65625 15.796875 14.5 
Q 17.71875 10.359375 21.1875 8.171875 
Q 24.65625 6 28.46875 6 
Q 34.03125 6 38.03125 10.484375 
Q 42.046875 14.984375 42.046875 22.703125 
Q 42.046875 30.125 38.078125 34.390625 
Q 34.125 38.671875 28.125 38.671875 
Q 22.171875 38.671875 18.015625 34.390625 
Q 13.875 30.125 13.875 23.1875 
z
" id="ArialMT-54"/>
       <path d="M 32.328125 0 
L 32.328125 17.140625 
L 1.265625 17.140625 
L 1.265625 25.203125 
L 33.9375 71.578125 
L 41.109375 71.578125 
L 41.109375 25.203125 
L 50.78125 25.203125 
L 50.78125 17.140625 
L 41.109375 17.140625 
L 41.109375 0 
z
M 32.328125 25.203125 
L 32.328125 57.46875 
L 9.90625 25.203125 
z
" id="ArialMT-52"/>
      </defs>
      <g style="fill:#262626;" transform="translate(260.779487 366.597813)scale(0.1 -0.1)">
       <use xlink:href="#ArialMT-49"/>
       <use x="55.505859" xlink:href="#ArialMT-49"/>
       <use x="111.121094" xlink:href="#ArialMT-58"/>
       <use x="138.904297" xlink:href="#ArialMT-48"/>
       <use x="194.519531" xlink:href="#ArialMT-54"/>
       <use x="250.134766" xlink:href="#ArialMT-58"/>
       <use x="277.917969" xlink:href="#ArialMT-52"/>
       <use x="333.533203" xlink:href="#ArialMT-48"/>
      </g>
     </g>
    </g>
    <g id="xtick_4">
     <g id="line2d_7">
      <path clip-path="url(#pf800394850)" d="M 374.206978 352.44 
L 374.206978 47.52 
" style="fill:none;stroke:#ffffff;stroke-linecap:round;"/>
     </g>
     <g id="line2d_8"/>
     <g id="text_4">
      <!-- 16:40:00 -->
      <g style="fill:#262626;" transform="translate(354.746041 366.597813)scale(0.1 -0.1)">
       <use xlink:href="#ArialMT-49"/>
       <use x="55.615234" xlink:href="#ArialMT-54"/>
       <use x="111.230469" xlink:href="#ArialMT-58"/>
       <use x="139.013672" xlink:href="#ArialMT-52"/>
       <use x="194.628906" xlink:href="#ArialMT-48"/>
       <use x="250.244141" xlink:href="#ArialMT-58"/>
       <use x="278.027344" xlink:href="#ArialMT-48"/>
       <use x="333.642578" xlink:href="#ArialMT-48"/>
      </g>
     </g>
    </g>
    <g id="xtick_5">
     <g id="line2d_9">
      <path clip-path="url(#pf800394850)" d="M 468.179002 352.44 
L 468.179002 47.52 
" style="fill:none;stroke:#ffffff;stroke-linecap:round;"/>
     </g>
     <g id="line2d_10"/>
     <g id="text_5">
      <!-- 22:13:20 -->
      <g style="fill:#262626;" transform="translate(448.718064 366.597813)scale(0.1 -0.1)">
       <use xlink:href="#ArialMT-50"/>
       <use x="55.615234" xlink:href="#ArialMT-50"/>
       <use x="111.230469" xlink:href="#ArialMT-58"/>
       <use x="139.013672" xlink:href="#ArialMT-49"/>
       <use x="194.628906" xlink:href="#ArialMT-51"/>
       <use x="250.244141" xlink:href="#ArialMT-58"/>
       <use x="278.027344" xlink:href="#ArialMT-50"/>
       <use x="333.642578" xlink:href="#ArialMT-48"/>
      </g>
     </g>
    </g>
    <g id="text_6">
     <!-- Time of day -->
     <defs>
      <path d="M 25.921875 0 
L 25.921875 63.140625 
L 2.34375 63.140625 
L 2.34375 71.578125 
L 59.078125 71.578125 
L 59.078125 63.140625 
L 35.40625 63.140625 
L 35.40625 0 
z
" id="ArialMT-84"/>
      <path d="M 6.640625 61.46875 
L 6.640625 71.578125 
L 15.4375 71.578125 
L 15.4375 61.46875 
z
M 6.640625 0 
L 6.640625 51.859375 
L 15.4375 51.859375 
L 15.4375 0 
z
" id="ArialMT-105"/>
      <path d="M 6.59375 0 
L 6.59375 51.859375 
L 14.453125 51.859375 
L 14.453125 44.578125 
Q 16.890625 48.390625 20.9375 50.703125 
Q 25 53.03125 30.171875 53.03125 
Q 35.9375 53.03125 39.625 50.640625 
Q 43.3125 48.25 44.828125 43.953125 
Q 50.984375 53.03125 60.84375 53.03125 
Q 68.5625 53.03125 72.703125 48.75 
Q 76.859375 44.484375 76.859375 35.59375 
L 76.859375 0 
L 68.109375 0 
L 68.109375 32.671875 
Q 68.109375 37.9375 67.25 40.25 
Q 66.40625 42.578125 64.15625 43.984375 
Q 61.921875 45.40625 58.890625 45.40625 
Q 53.421875 45.40625 49.796875 41.765625 
Q 46.1875 38.140625 46.1875 30.125 
L 46.1875 0 
L 37.40625 0 
L 37.40625 33.6875 
Q 37.40625 39.546875 35.25 42.46875 
Q 33.109375 45.40625 28.21875 45.40625 
Q 24.515625 45.40625 21.359375 43.453125 
Q 18.21875 41.5 16.796875 37.734375 
Q 15.375 33.984375 15.375 26.90625 
L 15.375 0 
z
" id="ArialMT-109"/>
      <path d="M 42.09375 16.703125 
L 51.171875 15.578125 
Q 49.03125 7.625 43.21875 3.21875 
Q 37.40625 -1.171875 28.375 -1.171875 
Q 17 -1.171875 10.328125 5.828125 
Q 3.65625 12.84375 3.65625 25.484375 
Q 3.65625 38.578125 10.390625 45.796875 
Q 17.140625 53.03125 27.875 53.03125 
Q 38.28125 53.03125 44.875 45.953125 
Q 51.46875 38.875 51.46875 26.03125 
Q 51.46875 25.25 51.421875 23.6875 
L 12.75 23.6875 
Q 13.234375 15.140625 17.578125 10.59375 
Q 21.921875 6.0625 28.421875 6.0625 
Q 33.25 6.0625 36.671875 8.59375 
Q 40.09375 11.140625 42.09375 16.703125 
z
M 13.234375 30.90625 
L 42.1875 30.90625 
Q 41.609375 37.453125 38.875 40.71875 
Q 34.671875 45.796875 27.984375 45.796875 
Q 21.921875 45.796875 17.796875 41.75 
Q 13.671875 37.703125 13.234375 30.90625 
z
" id="ArialMT-101"/>
      <path id="ArialMT-32"/>
      <path d="M 3.328125 25.921875 
Q 3.328125 40.328125 11.328125 47.265625 
Q 18.015625 53.03125 27.640625 53.03125 
Q 38.328125 53.03125 45.109375 46.015625 
Q 51.90625 39.015625 51.90625 26.65625 
Q 51.90625 16.65625 48.90625 10.90625 
Q 45.90625 5.171875 40.15625 2 
Q 34.421875 -1.171875 27.640625 -1.171875 
Q 16.75 -1.171875 10.03125 5.8125 
Q 3.328125 12.796875 3.328125 25.921875 
z
M 12.359375 25.921875 
Q 12.359375 15.96875 16.703125 11.015625 
Q 21.046875 6.0625 27.640625 6.0625 
Q 34.1875 6.0625 38.53125 11.03125 
Q 42.875 16.015625 42.875 26.21875 
Q 42.875 35.84375 38.5 40.796875 
Q 34.125 45.75 27.640625 45.75 
Q 21.046875 45.75 16.703125 40.8125 
Q 12.359375 35.890625 12.359375 25.921875 
z
" id="ArialMT-111"/>
      <path d="M 8.6875 0 
L 8.6875 45.015625 
L 0.921875 45.015625 
L 0.921875 51.859375 
L 8.6875 51.859375 
L 8.6875 57.375 
Q 8.6875 62.59375 9.625 65.140625 
Q 10.890625 68.5625 14.078125 70.671875 
Q 17.28125 72.796875 23.046875 72.796875 
Q 26.765625 72.796875 31.25 71.921875 
L 29.9375 64.265625 
Q 27.203125 64.75 24.75 64.75 
Q 20.75 64.75 19.09375 63.03125 
Q 17.4375 61.328125 17.4375 56.640625 
L 17.4375 51.859375 
L 27.546875 51.859375 
L 27.546875 45.015625 
L 17.4375 45.015625 
L 17.4375 0 
z
" id="ArialMT-102"/>
      <path d="M 40.234375 0 
L 40.234375 6.546875 
Q 35.296875 -1.171875 25.734375 -1.171875 
Q 19.53125 -1.171875 14.328125 2.25 
Q 9.125 5.671875 6.265625 11.796875 
Q 3.421875 17.921875 3.421875 25.875 
Q 3.421875 33.640625 6 39.96875 
Q 8.59375 46.296875 13.765625 49.65625 
Q 18.953125 53.03125 25.34375 53.03125 
Q 30.03125 53.03125 33.6875 51.046875 
Q 37.359375 49.078125 39.65625 45.90625 
L 39.65625 71.578125 
L 48.390625 71.578125 
L 48.390625 0 
z
M 12.453125 25.875 
Q 12.453125 15.921875 16.640625 10.984375 
Q 20.84375 6.0625 26.5625 6.0625 
Q 32.328125 6.0625 36.34375 10.765625 
Q 40.375 15.484375 40.375 25.140625 
Q 40.375 35.796875 36.265625 40.765625 
Q 32.171875 45.75 26.171875 45.75 
Q 20.3125 45.75 16.375 40.96875 
Q 12.453125 36.1875 12.453125 25.875 
z
" id="ArialMT-100"/>
      <path d="M 40.4375 6.390625 
Q 35.546875 2.25 31.03125 0.53125 
Q 26.515625 -1.171875 21.34375 -1.171875 
Q 12.796875 -1.171875 8.203125 3 
Q 3.609375 7.171875 3.609375 13.671875 
Q 3.609375 17.484375 5.34375 20.625 
Q 7.078125 23.78125 9.890625 25.6875 
Q 12.703125 27.59375 16.21875 28.5625 
Q 18.796875 29.25 24.03125 29.890625 
Q 34.671875 31.15625 39.703125 32.90625 
Q 39.75 34.71875 39.75 35.203125 
Q 39.75 40.578125 37.25 42.78125 
Q 33.890625 45.75 27.25 45.75 
Q 21.046875 45.75 18.09375 43.578125 
Q 15.140625 41.40625 13.71875 35.890625 
L 5.125 37.0625 
Q 6.296875 42.578125 8.984375 45.96875 
Q 11.671875 49.359375 16.75 51.1875 
Q 21.828125 53.03125 28.515625 53.03125 
Q 35.15625 53.03125 39.296875 51.46875 
Q 43.453125 49.90625 45.40625 47.53125 
Q 47.359375 45.171875 48.140625 41.546875 
Q 48.578125 39.3125 48.578125 33.453125 
L 48.578125 21.734375 
Q 48.578125 9.46875 49.140625 6.21875 
Q 49.703125 2.984375 51.375 0 
L 42.1875 0 
Q 40.828125 2.734375 40.4375 6.390625 
z
M 39.703125 26.03125 
Q 34.90625 24.078125 25.34375 22.703125 
Q 19.921875 21.921875 17.671875 20.9375 
Q 15.4375 19.96875 14.203125 18.09375 
Q 12.984375 16.21875 12.984375 13.921875 
Q 12.984375 10.40625 15.640625 8.0625 
Q 18.3125 5.71875 23.4375 5.71875 
Q 28.515625 5.71875 32.46875 7.9375 
Q 36.421875 10.15625 38.28125 14.015625 
Q 39.703125 17 39.703125 22.796875 
z
" id="ArialMT-97"/>
      <path d="M 6.203125 -19.96875 
L 5.21875 -11.71875 
Q 8.109375 -12.5 10.25 -12.5 
Q 13.1875 -12.5 14.9375 -11.515625 
Q 16.703125 -10.546875 17.828125 -8.796875 
Q 18.65625 -7.46875 20.515625 -2.25 
Q 20.75 -1.515625 21.296875 -0.09375 
L 1.609375 51.859375 
L 11.078125 51.859375 
L 21.875 21.828125 
Q 23.96875 16.109375 25.640625 9.8125 
Q 27.15625 15.875 29.25 21.625 
L 40.328125 51.859375 
L 49.125 51.859375 
L 29.390625 -0.875 
Q 26.21875 -9.421875 24.46875 -12.640625 
Q 22.125 -17 19.09375 -19.015625 
Q 16.0625 -21.046875 11.859375 -21.046875 
Q 9.328125 -21.046875 6.203125 -19.96875 
z
" id="ArialMT-121"/>
     </defs>
     <g style="fill:#262626;" transform="translate(248.190469 385.68875)scale(0.18 -0.18)">
      <use xlink:href="#ArialMT-84"/>
      <use x="61.037109" xlink:href="#ArialMT-105"/>
      <use x="83.253906" xlink:href="#ArialMT-109"/>
      <use x="166.554688" xlink:href="#ArialMT-101"/>
      <use x="222.169922" xlink:href="#ArialMT-32"/>
      <use x="249.953125" xlink:href="#ArialMT-111"/>
      <use x="305.568359" xlink:href="#ArialMT-102"/>
      <use x="333.351562" xlink:href="#ArialMT-32"/>
      <use x="361.134766" xlink:href="#ArialMT-100"/>
      <use x="416.75" xlink:href="#ArialMT-97"/>
      <use x="472.365234" xlink:href="#ArialMT-121"/>
     </g>
    </g>
   </g>
   <g id="matplotlib.axis_2">
    <g id="ytick_1">
     <g id="line2d_11">
      <path clip-path="url(#pf800394850)" d="M 72 338.58 
L 518.4 338.58 
" style="fill:none;stroke:#ffffff;stroke-linecap:round;"/>
     </g>
     <g id="line2d_12"/>
     <g id="text_7">
      <!-- 0 -->
      <g style="fill:#262626;" transform="translate(59.439062 342.158906)scale(0.1 -0.1)">
       <use xlink:href="#ArialMT-48"/>
      </g>
     </g>
    </g>
    <g id="ytick_2">
     <g id="line2d_13">
      <path clip-path="url(#pf800394850)" d="M 72 290.591976 
L 518.4 290.591976 
" style="fill:none;stroke:#ffffff;stroke-linecap:round;"/>
     </g>
     <g id="line2d_14"/>
     <g id="text_8">
      <!-- 5 -->
      <g style="fill:#262626;" transform="translate(59.439062 294.170883)scale(0.1 -0.1)">
       <use xlink:href="#ArialMT-53"/>
      </g>
     </g>
    </g>
    <g id="ytick_3">
     <g id="line2d_15">
      <path clip-path="url(#pf800394850)" d="M 72 242.603953 
L 518.4 242.603953 
" style="fill:none;stroke:#ffffff;stroke-linecap:round;"/>
     </g>
     <g id="line2d_16"/>
     <g id="text_9">
      <!-- 10 -->
      <g style="fill:#262626;" transform="translate(53.878125 246.182859)scale(0.1 -0.1)">
       <use xlink:href="#ArialMT-49"/>
       <use x="55.615234" xlink:href="#ArialMT-48"/>
      </g>
     </g>
    </g>
    <g id="ytick_4">
     <g id="line2d_17">
      <path clip-path="url(#pf800394850)" d="M 72 194.615929 
L 518.4 194.615929 
" style="fill:none;stroke:#ffffff;stroke-linecap:round;"/>
     </g>
     <g id="line2d_18"/>
     <g id="text_10">
      <!-- 15 -->
      <g style="fill:#262626;" transform="translate(53.878125 198.194835)scale(0.1 -0.1)">
       <use xlink:href="#ArialMT-49"/>
       <use x="55.615234" xlink:href="#ArialMT-53"/>
      </g>
     </g>
    </g>
    <g id="ytick_5">
     <g id="line2d_19">
      <path clip-path="url(#pf800394850)" d="M 72 146.627905 
L 518.4 146.627905 
" style="fill:none;stroke:#ffffff;stroke-linecap:round;"/>
     </g>
     <g id="line2d_20"/>
     <g id="text_11">
      <!-- 20 -->
      <g style="fill:#262626;" transform="translate(53.878125 150.206812)scale(0.1 -0.1)">
       <use xlink:href="#ArialMT-50"/>
       <use x="55.615234" xlink:href="#ArialMT-48"/>
      </g>
     </g>
    </g>
    <g id="ytick_6">
     <g id="line2d_21">
      <path clip-path="url(#pf800394850)" d="M 72 98.639882 
L 518.4 98.639882 
" style="fill:none;stroke:#ffffff;stroke-linecap:round;"/>
     </g>
     <g id="line2d_22"/>
     <g id="text_12">
      <!-- 25 -->
      <g style="fill:#262626;" transform="translate(53.878125 102.218788)scale(0.1 -0.1)">
       <use xlink:href="#ArialMT-50"/>
       <use x="55.615234" xlink:href="#ArialMT-53"/>
      </g>
     </g>
    </g>
    <g id="ytick_7">
     <g id="line2d_23">
      <path clip-path="url(#pf800394850)" d="M 72 50.651858 
L 518.4 50.651858 
" style="fill:none;stroke:#ffffff;stroke-linecap:round;"/>
     </g>
     <g id="line2d_24"/>
     <g id="text_13">
      <!-- 30 -->
      <g style="fill:#262626;" transform="translate(53.878125 54.230764)scale(0.1 -0.1)">
       <use xlink:href="#ArialMT-51"/>
       <use x="55.615234" xlink:href="#ArialMT-48"/>
      </g>
     </g>
    </g>
    <g id="text_14">
     <!-- Cost (US$) -->
     <defs>
      <path d="M 58.796875 25.09375 
L 68.265625 22.703125 
Q 65.28125 11.03125 57.546875 4.90625 
Q 49.8125 -1.21875 38.625 -1.21875 
Q 27.046875 -1.21875 19.796875 3.484375 
Q 12.546875 8.203125 8.765625 17.140625 
Q 4.984375 26.078125 4.984375 36.328125 
Q 4.984375 47.515625 9.25 55.828125 
Q 13.53125 64.15625 21.40625 68.46875 
Q 29.296875 72.796875 38.765625 72.796875 
Q 49.515625 72.796875 56.828125 67.328125 
Q 64.15625 61.859375 67.046875 51.953125 
L 57.71875 49.75 
Q 55.21875 57.5625 50.484375 61.125 
Q 45.75 64.703125 38.578125 64.703125 
Q 30.328125 64.703125 24.78125 60.734375 
Q 19.234375 56.78125 16.984375 50.109375 
Q 14.75 43.453125 14.75 36.375 
Q 14.75 27.25 17.40625 20.4375 
Q 20.0625 13.625 25.671875 10.25 
Q 31.296875 6.890625 37.84375 6.890625 
Q 45.796875 6.890625 51.3125 11.46875 
Q 56.84375 16.0625 58.796875 25.09375 
z
" id="ArialMT-67"/>
      <path d="M 3.078125 15.484375 
L 11.765625 16.84375 
Q 12.5 11.625 15.84375 8.84375 
Q 19.1875 6.0625 25.203125 6.0625 
Q 31.25 6.0625 34.171875 8.515625 
Q 37.109375 10.984375 37.109375 14.3125 
Q 37.109375 17.28125 34.515625 19 
Q 32.71875 20.171875 25.53125 21.96875 
Q 15.875 24.421875 12.140625 26.203125 
Q 8.40625 27.984375 6.46875 31.125 
Q 4.546875 34.28125 4.546875 38.09375 
Q 4.546875 41.546875 6.125 44.5 
Q 7.71875 47.46875 10.453125 49.421875 
Q 12.5 50.921875 16.03125 51.96875 
Q 19.578125 53.03125 23.640625 53.03125 
Q 29.734375 53.03125 34.34375 51.265625 
Q 38.96875 49.515625 41.15625 46.5 
Q 43.359375 43.5 44.1875 38.484375 
L 35.59375 37.3125 
Q 35.015625 41.3125 32.203125 43.546875 
Q 29.390625 45.796875 24.265625 45.796875 
Q 18.21875 45.796875 15.625 43.796875 
Q 13.03125 41.796875 13.03125 39.109375 
Q 13.03125 37.40625 14.109375 36.03125 
Q 15.1875 34.625 17.484375 33.6875 
Q 18.796875 33.203125 25.25 31.453125 
Q 34.578125 28.953125 38.25 27.359375 
Q 41.9375 25.78125 44.03125 22.75 
Q 46.140625 19.734375 46.140625 15.234375 
Q 46.140625 10.84375 43.578125 6.953125 
Q 41.015625 3.078125 36.171875 0.953125 
Q 31.34375 -1.171875 25.25 -1.171875 
Q 15.140625 -1.171875 9.84375 3.03125 
Q 4.546875 7.234375 3.078125 15.484375 
z
" id="ArialMT-115"/>
      <path d="M 25.78125 7.859375 
L 27.046875 0.09375 
Q 23.34375 -0.6875 20.40625 -0.6875 
Q 15.625 -0.6875 12.984375 0.828125 
Q 10.359375 2.34375 9.28125 4.8125 
Q 8.203125 7.28125 8.203125 15.1875 
L 8.203125 45.015625 
L 1.765625 45.015625 
L 1.765625 51.859375 
L 8.203125 51.859375 
L 8.203125 64.703125 
L 16.9375 69.96875 
L 16.9375 51.859375 
L 25.78125 51.859375 
L 25.78125 45.015625 
L 16.9375 45.015625 
L 16.9375 14.703125 
Q 16.9375 10.9375 17.40625 9.859375 
Q 17.875 8.796875 18.921875 8.15625 
Q 19.96875 7.515625 21.921875 7.515625 
Q 23.390625 7.515625 25.78125 7.859375 
z
" id="ArialMT-116"/>
      <path d="M 23.390625 -21.046875 
Q 16.109375 -11.859375 11.078125 0.4375 
Q 6.0625 12.75 6.0625 25.921875 
Q 6.0625 37.546875 9.8125 48.1875 
Q 14.203125 60.546875 23.390625 72.796875 
L 29.6875 72.796875 
Q 23.78125 62.640625 21.875 58.296875 
Q 18.890625 51.5625 17.1875 44.234375 
Q 15.09375 35.109375 15.09375 25.875 
Q 15.09375 2.390625 29.6875 -21.046875 
z
" id="ArialMT-40"/>
      <path d="M 54.6875 71.578125 
L 64.15625 71.578125 
L 64.15625 30.21875 
Q 64.15625 19.4375 61.71875 13.078125 
Q 59.28125 6.734375 52.90625 2.75 
Q 46.53125 -1.21875 36.1875 -1.21875 
Q 26.125 -1.21875 19.71875 2.25 
Q 13.328125 5.71875 10.59375 12.28125 
Q 7.859375 18.84375 7.859375 30.21875 
L 7.859375 71.578125 
L 17.328125 71.578125 
L 17.328125 30.28125 
Q 17.328125 20.953125 19.0625 16.53125 
Q 20.796875 12.109375 25.015625 9.71875 
Q 29.25 7.328125 35.359375 7.328125 
Q 45.796875 7.328125 50.234375 12.0625 
Q 54.6875 16.796875 54.6875 30.28125 
z
" id="ArialMT-85"/>
      <path d="M 4.5 23 
L 13.421875 23.78125 
Q 14.0625 18.40625 16.375 14.96875 
Q 18.703125 11.53125 23.578125 9.40625 
Q 28.46875 7.28125 34.578125 7.28125 
Q 39.984375 7.28125 44.140625 8.890625 
Q 48.296875 10.5 50.3125 13.296875 
Q 52.34375 16.109375 52.34375 19.4375 
Q 52.34375 22.796875 50.390625 25.3125 
Q 48.4375 27.828125 43.953125 29.546875 
Q 41.0625 30.671875 31.203125 33.03125 
Q 21.34375 35.40625 17.390625 37.5 
Q 12.25 40.1875 9.734375 44.15625 
Q 7.234375 48.140625 7.234375 53.078125 
Q 7.234375 58.5 10.296875 63.203125 
Q 13.375 67.921875 19.28125 70.359375 
Q 25.203125 72.796875 32.421875 72.796875 
Q 40.375 72.796875 46.453125 70.234375 
Q 52.546875 67.671875 55.8125 62.6875 
Q 59.078125 57.71875 59.328125 51.421875 
L 50.25 50.734375 
Q 49.515625 57.515625 45.28125 60.984375 
Q 41.0625 64.453125 32.8125 64.453125 
Q 24.21875 64.453125 20.28125 61.296875 
Q 16.359375 58.15625 16.359375 53.71875 
Q 16.359375 49.859375 19.140625 47.359375 
Q 21.875 44.875 33.421875 42.265625 
Q 44.96875 39.65625 49.265625 37.703125 
Q 55.515625 34.8125 58.484375 30.390625 
Q 61.46875 25.984375 61.46875 20.21875 
Q 61.46875 14.5 58.203125 9.4375 
Q 54.9375 4.390625 48.796875 1.578125 
Q 42.671875 -1.21875 35.015625 -1.21875 
Q 25.296875 -1.21875 18.71875 1.609375 
Q 12.15625 4.4375 8.421875 10.125 
Q 4.6875 15.828125 4.5 23 
z
" id="ArialMT-83"/>
      <path d="M 24.90625 -10.296875 
L 24.90625 -1.515625 
Q 18.3125 -0.6875 14.1875 1.4375 
Q 10.0625 3.5625 7.046875 8.296875 
Q 4.046875 13.03125 3.5625 19.875 
L 12.40625 21.53125 
Q 13.421875 14.453125 16.015625 11.140625 
Q 19.734375 6.453125 24.90625 5.90625 
L 24.90625 33.890625 
Q 19.484375 34.90625 13.8125 38.09375 
Q 9.625 40.4375 7.34375 44.578125 
Q 5.078125 48.734375 5.078125 54 
Q 5.078125 63.375 11.71875 69.1875 
Q 16.15625 73.09375 24.90625 73.96875 
L 24.90625 78.171875 
L 30.078125 78.171875 
L 30.078125 73.96875 
Q 37.75 73.25 42.234375 69.484375 
Q 48 64.703125 49.171875 56.34375 
L 40.09375 54.984375 
Q 39.3125 60.15625 36.84375 62.90625 
Q 34.375 65.671875 30.078125 66.546875 
L 30.078125 41.21875 
Q 36.71875 39.546875 38.875 38.625 
Q 42.96875 36.8125 45.546875 34.21875 
Q 48.140625 31.640625 49.53125 28.078125 
Q 50.921875 24.515625 50.921875 20.359375 
Q 50.921875 11.234375 45.109375 5.125 
Q 39.3125 -0.984375 30.078125 -1.421875 
L 30.078125 -10.296875 
z
M 24.90625 66.65625 
Q 19.78125 65.875 16.828125 62.546875 
Q 13.875 59.234375 13.875 54.6875 
Q 13.875 50.203125 16.375 47.171875 
Q 18.890625 44.140625 24.90625 42.328125 
z
M 30.078125 5.90625 
Q 35.203125 6.546875 38.546875 10.34375 
Q 41.890625 14.15625 41.890625 19.78125 
Q 41.890625 24.5625 39.515625 27.46875 
Q 37.15625 30.375 30.078125 32.671875 
z
" id="ArialMT-36"/>
      <path d="M 12.359375 -21.046875 
L 6.0625 -21.046875 
Q 20.65625 2.390625 20.65625 25.875 
Q 20.65625 35.0625 18.5625 44.09375 
Q 16.890625 51.421875 13.921875 58.15625 
Q 12.015625 62.546875 6.0625 72.796875 
L 12.359375 72.796875 
Q 21.53125 60.546875 25.921875 48.1875 
Q 29.6875 37.546875 29.6875 25.921875 
Q 29.6875 12.75 24.625 0.4375 
Q 19.578125 -11.859375 12.359375 -21.046875 
z
" id="ArialMT-41"/>
     </defs>
     <g style="fill:#262626;" transform="translate(46.089687 244.486406)rotate(-90)scale(0.18 -0.18)">
      <use xlink:href="#ArialMT-67"/>
      <use x="72.216797" xlink:href="#ArialMT-111"/>
      <use x="127.832031" xlink:href="#ArialMT-115"/>
      <use x="177.832031" xlink:href="#ArialMT-116"/>
      <use x="205.615234" xlink:href="#ArialMT-32"/>
      <use x="233.398438" xlink:href="#ArialMT-40"/>
      <use x="266.699219" xlink:href="#ArialMT-85"/>
      <use x="338.916016" xlink:href="#ArialMT-83"/>
      <use x="405.615234" xlink:href="#ArialMT-36"/>
      <use x="461.230469" xlink:href="#ArialMT-41"/>
     </g>
    </g>
   </g>
   <g id="line2d_25">
    <path clip-path="url(#pf800394850)" d="M 92.290909 338.045976 
L 92.854741 338.012241 
L 93.559531 338.012241 
L 93.700489 337.478217 
L 94.264322 337.444481 
L 94.40528 336.910457 
L 94.969112 336.876722 
L 95.11007 336.876722 
L 95.251028 336.342698 
L 95.81486 336.308963 
L 97.647314 336.308963 
L 97.788272 335.774939 
L 98.352105 335.741203 
L 98.915937 335.741203 
L 99.056895 335.207179 
L 99.338811 335.173444 
L 99.620727 334.044644 
L 99.761685 334.010909 
L 99.902643 333.476885 
L 100.325517 333.443149 
L 100.466475 332.909125 
L 100.748391 332.87539 
L 100.889349 332.341366 
L 101.453181 332.30763 
L 102.017013 332.30763 
L 102.157972 331.773607 
L 102.721804 331.739871 
L 102.862762 331.739871 
L 103.00372 331.205847 
L 103.567552 331.172112 
L 105.540964 331.172112 
L 105.681922 330.638088 
L 106.245755 330.604352 
L 107.373419 330.604352 
L 107.514377 330.070328 
L 107.796293 330.036593 
L 107.937251 329.502569 
L 108.219167 329.468834 
L 108.360125 328.93481 
L 108.642041 328.901074 
L 109.205873 327.143763 
L 109.487789 327.143763 
L 109.628747 326.609739 
L 110.051621 326.576004 
L 110.192579 326.04198 
L 110.756412 326.008244 
L 113.434614 326.008244 
L 113.575572 325.47422 
L 114.139404 325.440485 
L 115.971859 325.440485 
L 116.112817 324.906461 
L 116.394733 324.872726 
L 116.676649 323.743926 
L 117.240481 323.71019 
L 117.381439 323.176167 
L 117.945271 323.142431 
L 118.650062 323.142431 
L 118.79102 322.608407 
L 118.931978 322.574672 
L 119.072936 322.040648 
L 119.213894 322.006912 
L 119.354852 321.472888 
L 119.918684 321.439153 
L 120.059642 321.439153 
L 120.2006 320.905129 
L 120.341558 320.871394 
L 120.482516 320.33737 
L 121.046348 320.303634 
L 121.187306 319.76961 
L 121.61018 319.735875 
L 121.751138 319.201851 
L 122.31497 319.168116 
L 122.878803 319.168116 
L 123.160719 318.039316 
L 123.724551 318.00558 
L 124.288383 318.00558 
L 124.429341 317.471556 
L 124.993173 317.437821 
L 125.134131 317.437821 
L 125.275089 316.903797 
L 125.557005 316.870062 
L 125.697963 316.336038 
L 126.120837 316.302302 
L 126.261795 315.768278 
L 126.825628 315.734543 
L 127.107544 315.734543 
L 127.248502 315.200519 
L 127.812334 315.166783 
L 128.09425 315.166783 
L 128.235208 314.63276 
L 128.79904 314.599024 
L 129.080956 314.599024 
L 129.221914 314.065 
L 129.785746 314.031265 
L 129.926704 314.031265 
L 130.067662 313.497241 
L 130.20862 313.463505 
L 130.349578 312.929481 
L 130.913411 312.895746 
L 133.873529 312.895746 
L 134.014487 312.361722 
L 134.296403 312.327987 
L 134.437361 311.793963 
L 134.860236 311.760227 
L 135.001194 311.226203 
L 135.565026 311.192468 
L 135.705984 311.192468 
L 135.846942 310.658444 
L 136.410774 310.624709 
L 141.344305 310.624709 
L 141.485263 310.090685 
L 141.767179 310.056949 
L 141.908137 309.522925 
L 142.471969 309.48919 
L 144.727298 309.48919 
L 145.009214 308.36039 
L 145.573046 308.326655 
L 145.714004 308.326655 
L 146.277836 306.569344 
L 146.418794 306.569344 
L 146.559752 306.03532 
L 147.123585 306.001584 
L 147.264543 306.001584 
L 147.405501 305.46756 
L 147.969333 305.433825 
L 148.956039 305.433825 
L 149.237955 304.305025 
L 149.660829 304.27129 
L 149.801787 303.737266 
L 150.365619 303.70353 
L 151.211368 303.70353 
L 151.352326 303.169506 
L 151.916158 303.135771 
L 153.607654 303.135771 
L 153.748612 302.601747 
L 154.312444 302.568011 
L 155.299151 302.568011 
L 155.440109 302.033988 
L 155.581067 302.000252 
L 155.722025 301.466228 
L 156.285857 301.432493 
L 156.567773 301.432493 
L 156.708731 300.898469 
L 156.849689 300.864733 
L 156.990647 300.330709 
L 157.131605 300.296974 
L 157.272563 299.76295 
L 157.695437 299.729215 
L 157.977353 298.600415 
L 158.541185 298.566679 
L 159.105018 298.566679 
L 159.245976 298.032655 
L 159.809808 297.99892 
L 160.37364 297.99892 
L 160.514598 297.464896 
L 160.655556 297.431161 
L 160.796514 296.897137 
L 161.07843 296.863401 
L 161.219388 296.329377 
L 161.78322 296.295642 
L 162.065136 296.295642 
L 162.206094 295.761618 
L 162.769926 295.727883 
L 164.461423 295.727883 
L 164.602381 295.193859 
L 165.025255 295.160123 
L 165.166213 294.626099 
L 165.730045 294.592364 
L 168.408248 294.592364 
L 168.549206 294.05834 
L 169.113038 294.024604 
L 171.368367 294.024604 
L 171.509325 293.49058 
L 172.073157 293.456845 
L 175.738066 293.456845 
L 175.879024 292.922821 
L 176.442856 292.889086 
L 176.583814 292.889086 
L 176.86573 291.760286 
L 177.429562 291.726551 
L 177.57052 291.192527 
L 178.134352 291.158791 
L 179.966807 291.158791 
L 180.107765 290.624767 
L 180.671597 290.591032 
L 180.812555 290.057008 
L 181.376387 290.023272 
L 182.222135 290.023272 
L 182.363093 289.489248 
L 182.926925 289.455513 
L 184.477464 289.455513 
L 184.618422 288.921489 
L 185.182254 288.887754 
L 185.605128 288.887754 
L 185.746086 288.35373 
L 186.309918 288.319994 
L 187.155666 288.319994 
L 187.296624 287.78597 
L 187.719499 287.752235 
L 188.001415 286.623435 
L 188.565247 286.5897 
L 188.847163 286.5897 
L 188.988121 286.055676 
L 189.270037 286.02194 
L 189.551953 284.893141 
L 189.833869 284.859405 
L 189.974827 284.325381 
L 190.256743 284.291646 
L 190.397701 283.757622 
L 190.961533 283.723886 
L 192.089198 283.723886 
L 192.371114 282.595087 
L 192.793988 282.561351 
L 193.35782 280.80404 
L 194.626442 280.80404 
L 194.7674 280.270016 
L 195.331232 280.236281 
L 199.278057 280.236281 
L 199.419015 279.702257 
L 199.982848 279.668521 
L 200.123806 279.134497 
L 200.687638 279.100762 
L 202.238176 279.100762 
L 202.379134 278.566738 
L 202.942966 278.533003 
L 203.788715 278.533003 
L 204.070631 277.404203 
L 204.211589 277.370467 
L 204.352547 276.836443 
L 204.916379 276.802708 
L 205.621169 276.802708 
L 205.762127 276.268684 
L 206.325959 276.234949 
L 206.607875 276.234949 
L 206.889791 275.106149 
L 207.453623 275.072413 
L 207.735539 275.072413 
L 207.876498 274.53839 
L 208.017456 274.504654 
L 208.158414 273.97063 
L 208.722246 273.936895 
L 209.004162 273.936895 
L 209.14512 273.402871 
L 209.708952 273.369135 
L 210.272784 271.611824 
L 210.5547 271.611824 
L 210.836616 270.483024 
L 211.400448 270.449289 
L 211.823322 270.449289 
L 212.105239 269.320489 
L 212.669071 269.286754 
L 212.810029 269.286754 
L 212.950987 268.75273 
L 213.514819 268.718994 
L 213.655777 268.718994 
L 213.796735 268.184971 
L 214.078651 268.151235 
L 214.219609 267.617211 
L 214.783441 267.583476 
L 214.924399 267.583476 
L 215.065357 267.049452 
L 215.206315 267.015716 
L 215.347273 266.481692 
L 215.911105 266.447957 
L 216.615896 266.447957 
L 216.756854 265.913933 
L 217.320686 265.880198 
L 218.307392 265.880198 
L 218.44835 265.346174 
L 218.589308 265.312438 
L 218.871224 264.183638 
L 219.435056 264.149903 
L 219.716972 264.149903 
L 219.85793 263.615879 
L 220.280805 263.582144 
L 220.421763 263.04812 
L 220.985595 263.014384 
L 221.126553 262.48036 
L 221.267511 262.446625 
L 221.408469 261.912601 
L 221.831343 261.878866 
L 221.972301 261.344842 
L 222.536133 261.311106 
L 223.663797 261.311106 
L 223.804755 260.777082 
L 224.368588 260.743347 
L 224.650504 260.743347 
L 224.791462 260.209323 
L 224.93242 260.175587 
L 225.073378 259.641564 
L 225.63721 259.607828 
L 225.778168 259.607828 
L 226.060084 258.479028 
L 226.623916 258.445293 
L 227.04679 258.445293 
L 227.328706 257.316493 
L 227.75158 257.282758 
L 227.892538 256.748734 
L 228.456371 256.714998 
L 228.597329 256.714998 
L 228.738287 256.180974 
L 229.302119 256.147239 
L 230.429783 256.147239 
L 230.570741 255.613215 
L 231.134573 255.57948 
L 231.698405 255.57948 
L 231.839363 255.045456 
L 232.121279 255.01172 
L 232.403196 253.88292 
L 232.967028 253.849185 
L 239.028223 253.849185 
L 239.169181 253.315161 
L 239.733013 253.281426 
L 239.873971 253.281426 
L 240.014929 252.747402 
L 240.437804 252.713666 
L 240.71972 251.584866 
L 241.283552 251.551131 
L 241.42451 251.551131 
L 241.565468 251.017107 
L 241.847384 250.983372 
L 241.988342 250.449348 
L 242.552174 250.415612 
L 242.83409 249.286812 
L 243.397922 249.253077 
L 243.961754 249.253077 
L 244.102712 248.719053 
L 244.666545 248.685318 
L 245.371335 248.685318 
L 245.512293 248.151294 
L 246.076125 248.117558 
L 246.358041 248.117558 
L 246.639957 246.988759 
L 247.203789 246.955023 
L 247.344747 246.420999 
L 247.485705 246.387264 
L 247.626663 245.85324 
L 248.190495 245.819504 
L 248.331453 245.819504 
L 248.472412 245.28548 
L 249.036244 245.251745 
L 249.600076 245.251745 
L 249.741034 244.717721 
L 249.881992 244.683986 
L 250.02295 244.149962 
L 250.586782 244.116226 
L 250.868698 244.116226 
L 251.009656 243.582202 
L 251.573488 243.548467 
L 252.278278 243.548467 
L 252.419236 243.014443 
L 252.983069 242.980708 
L 253.264985 242.980708 
L 253.405943 242.446684 
L 253.546901 242.412948 
L 253.687859 241.878924 
L 254.110733 241.845189 
L 254.251691 241.311165 
L 254.533607 241.277429 
L 254.674565 240.743405 
L 255.238397 240.70967 
L 255.520313 240.70967 
L 255.661271 240.175646 
L 256.225103 240.141911 
L 256.366061 240.141911 
L 256.507019 239.607887 
L 256.929894 239.574151 
L 257.21181 238.445352 
L 257.775642 238.411616 
L 258.62139 238.411616 
L 258.762348 237.877592 
L 259.32618 237.843857 
L 259.467138 237.309833 
L 260.03097 237.276097 
L 261.440551 237.276097 
L 261.581509 236.742073 
L 261.863425 236.708338 
L 262.004383 236.174314 
L 262.427257 236.140579 
L 262.568215 235.606555 
L 263.132047 235.572819 
L 264.118753 235.572819 
L 264.259711 235.038795 
L 264.541627 235.00506 
L 264.682585 234.471036 
L 265.10546 234.437301 
L 265.246418 233.903277 
L 265.81025 233.869541 
L 266.092166 232.740741 
L 266.51504 232.707006 
L 266.796956 231.578206 
L 267.360788 231.544471 
L 267.501746 231.010447 
L 268.065578 230.976711 
L 268.488452 230.976711 
L 268.62941 230.442687 
L 268.770368 230.408952 
L 268.911327 229.874928 
L 269.475159 229.841193 
L 270.179949 229.841193 
L 270.320907 229.307169 
L 270.884739 229.273433 
L 271.025697 229.273433 
L 271.166655 228.739409 
L 271.730487 228.705674 
L 271.871445 228.17165 
L 272.435277 228.137915 
L 274.40869 228.137915 
L 274.549648 227.603891 
L 274.831564 227.570155 
L 274.972522 227.036131 
L 275.11348 227.002396 
L 275.254438 226.468372 
L 275.81827 226.434636 
L 279.342221 226.434636 
L 279.483179 225.900612 
L 279.906053 225.866877 
L 280.469885 224.109566 
L 281.315634 224.109566 
L 281.456592 223.575542 
L 282.020424 223.541807 
L 282.443298 223.541807 
L 282.584256 223.007783 
L 282.725214 222.974047 
L 282.866172 222.440023 
L 283.430004 222.406288 
L 283.993836 222.406288 
L 284.275752 221.277488 
L 284.41671 221.243753 
L 284.557668 220.709729 
L 284.698626 220.675993 
L 284.839584 220.141969 
L 285.403417 220.108234 
L 285.826291 220.108234 
L 285.967249 219.57421 
L 286.249165 219.540475 
L 286.390123 219.006451 
L 286.953955 218.972715 
L 288.504493 218.972715 
L 288.645451 218.438691 
L 288.786409 218.404956 
L 289.068325 217.276156 
L 289.632158 217.242421 
L 289.773116 217.242421 
L 289.914074 216.708397 
L 290.055032 216.674661 
L 290.19599 216.140637 
L 290.759822 216.106902 
L 292.169402 216.106902 
L 292.31036 215.572878 
L 292.592276 215.539143 
L 292.874192 214.410343 
L 293.01515 214.376607 
L 293.156108 213.842583 
L 293.578983 213.808848 
L 293.719941 213.274824 
L 294.001857 213.241089 
L 294.142815 212.707065 
L 294.706647 212.673329 
L 294.847605 212.139305 
L 295.411437 212.10557 
L 296.257185 212.10557 
L 296.398143 211.571546 
L 296.961975 211.53781 
L 297.102933 211.53781 
L 297.243892 211.003786 
L 297.525808 210.970051 
L 297.666766 210.436027 
L 298.230598 210.402292 
L 298.512514 210.402292 
L 299.076346 208.644981 
L 300.20401 208.644981 
L 300.344968 208.110957 
L 300.9088 208.077221 
L 302.318381 208.077221 
L 302.459339 207.543197 
L 303.023171 207.509462 
L 303.164129 206.975438 
L 303.446045 206.941703 
L 303.587003 206.407679 
L 303.868919 206.373943 
L 304.009877 205.839919 
L 304.150835 205.806184 
L 304.291793 205.27216 
L 304.714667 205.238424 
L 304.855625 204.7044 
L 305.137541 204.670665 
L 305.278499 204.136641 
L 305.842332 204.102906 
L 306.969996 204.102906 
L 307.110954 203.568882 
L 307.39287 203.535146 
L 307.533828 203.001122 
L 308.09766 202.967387 
L 308.238618 202.433363 
L 308.80245 202.399628 
L 308.943408 201.865604 
L 309.507241 201.831868 
L 309.789157 201.831868 
L 309.930115 201.297844 
L 310.493947 201.264109 
L 311.057779 201.264109 
L 311.198737 200.730085 
L 311.480653 200.696349 
L 311.621611 200.162326 
L 312.185443 200.12859 
L 314.158856 200.12859 
L 314.299814 199.594566 
L 314.863646 199.560831 
L 317.259932 199.560831 
L 317.40089 199.026807 
L 317.682807 198.993071 
L 317.823765 198.459047 
L 318.387597 198.425312 
L 318.528555 197.891288 
L 319.092387 197.857553 
L 321.77059 197.857553 
L 321.911548 197.323529 
L 322.47538 197.289793 
L 322.616338 197.289793 
L 322.757296 196.755769 
L 323.321128 196.722034 
L 323.88496 196.722034 
L 324.025918 196.18801 
L 324.58975 196.154275 
L 324.730708 196.154275 
L 324.871666 195.620251 
L 325.435498 195.586515 
L 325.858373 195.586515 
L 326.422205 193.829204 
L 327.831785 193.829204 
L 328.113701 192.700404 
L 328.677533 192.666669 
L 329.241365 192.666669 
L 329.382323 192.132645 
L 329.946156 192.09891 
L 330.087114 191.564886 
L 330.228072 191.53115 
L 330.36903 190.997126 
L 330.932862 190.963391 
L 331.919568 190.963391 
L 332.060526 190.429367 
L 332.4834 190.395631 
L 332.624358 189.861607 
L 333.047232 189.827872 
L 333.18819 189.293848 
L 333.611064 189.260113 
L 333.752022 188.726089 
L 334.315855 188.692353 
L 334.597771 187.563553 
L 334.879687 187.529818 
L 335.161603 186.401018 
L 335.584477 186.367283 
L 335.725435 185.833259 
L 336.289267 185.799524 
L 336.994057 185.799524 
L 337.275973 184.670724 
L 337.557889 184.636988 
L 337.698847 184.102964 
L 338.121722 184.069229 
L 338.26268 183.535205 
L 338.826512 183.50147 
L 339.954176 183.50147 
L 340.095134 182.967446 
L 340.236092 182.93371 
L 340.37705 182.399686 
L 340.940882 182.365951 
L 341.504714 182.365951 
L 341.78663 181.237151 
L 342.350463 181.203416 
L 343.055253 181.203416 
L 343.196211 180.669392 
L 343.760043 180.635656 
L 344.323875 180.635656 
L 344.464833 180.101632 
L 345.028665 180.067897 
L 345.451539 180.067897 
L 345.592497 179.533873 
L 346.15633 179.500137 
L 346.86112 179.500137 
L 347.002078 178.966114 
L 347.56591 178.932378 
L 348.2707 178.932378 
L 348.411658 178.398354 
L 348.97549 178.364619 
L 349.539322 178.364619 
L 349.68028 177.830595 
L 350.244113 177.796859 
L 350.807945 177.796859 
L 350.948903 177.262835 
L 351.512735 177.2291 
L 352.781357 177.2291 
L 352.922315 176.695076 
L 353.204231 176.661341 
L 353.345189 176.127317 
L 353.909021 176.093581 
L 355.318602 176.093581 
L 355.45956 175.559557 
L 356.023392 175.525822 
L 357.010098 175.525822 
L 357.151056 174.991798 
L 357.292014 174.958063 
L 357.432972 174.424039 
L 357.996804 174.390303 
L 358.560637 174.390303 
L 358.701595 173.856279 
L 359.265427 173.822544 
L 359.406385 173.28852 
L 359.970217 173.254784 
L 362.084587 173.254784 
L 362.225545 172.72076 
L 362.789378 172.687025 
L 368.427699 172.687025 
L 368.709615 171.558225 
L 368.850573 171.52449 
L 368.991531 170.990466 
L 369.555363 170.95673 
L 369.837279 170.95673 
L 369.978237 170.422707 
L 370.54207 170.388971 
L 370.823986 170.388971 
L 370.964944 169.854947 
L 371.24686 169.821212 
L 371.387818 169.287188 
L 371.95165 169.253452 
L 374.488895 169.253452 
L 374.629853 168.719428 
L 374.770811 168.685693 
L 374.911769 168.151669 
L 375.334643 168.117934 
L 375.475601 167.58391 
L 375.616559 167.550174 
L 375.757517 167.01615 
L 376.321349 166.982415 
L 376.462307 166.982415 
L 376.603265 166.448391 
L 377.167097 166.414656 
L 377.449013 166.414656 
L 377.730929 165.285856 
L 378.012845 165.25212 
L 378.153803 164.718096 
L 378.294761 164.684361 
L 378.858594 162.92705 
L 380.691048 162.92705 
L 380.832006 162.393026 
L 381.395838 162.359291 
L 383.933083 162.359291 
L 384.074041 161.825267 
L 384.637873 161.791531 
L 384.919789 160.662731 
L 385.483621 160.628996 
L 385.624579 160.628996 
L 385.765537 160.094972 
L 386.329369 160.061237 
L 387.73895 160.061237 
L 387.879908 159.527213 
L 388.44374 159.493477 
L 389.14853 159.493477 
L 389.289488 158.959453 
L 389.712362 158.925718 
L 389.85332 158.391694 
L 389.994278 158.357958 
L 390.135236 157.823934 
L 390.417152 157.790199 
L 390.55811 157.256175 
L 391.121943 157.22244 
L 391.826733 157.22244 
L 391.967691 156.688416 
L 392.390565 156.65468 
L 392.531523 156.120656 
L 392.813439 156.086921 
L 392.954397 155.552897 
L 393.518229 155.519162 
L 393.659187 154.985138 
L 394.082061 154.951402 
L 394.223019 154.417378 
L 394.504935 154.383643 
L 394.786851 153.254843 
L 395.209726 153.221108 
L 395.350684 152.687084 
L 395.6326 152.653348 
L 396.196432 150.896037 
L 396.478348 150.896037 
L 396.619306 150.362013 
L 396.901222 150.328278 
L 397.04218 149.794254 
L 397.465054 149.760518 
L 397.606012 149.226495 
L 398.169844 149.192759 
L 398.310802 149.192759 
L 398.45176 148.658735 
L 399.015593 148.625 
L 399.156551 148.625 
L 399.297509 148.090976 
L 399.861341 148.05724 
L 400.566131 148.05724 
L 400.707089 147.523216 
L 400.848047 147.489481 
L 400.989005 146.955457 
L 401.552837 146.921722 
L 402.116669 146.921722 
L 402.257627 146.387698 
L 402.821459 146.353962 
L 403.103376 146.353962 
L 403.244334 145.819938 
L 403.808166 145.786203 
L 404.512956 145.786203 
L 404.653914 145.252179 
L 405.217746 145.218444 
L 405.781578 145.218444 
L 406.063494 144.089644 
L 406.627326 144.055908 
L 406.768284 143.521884 
L 406.909242 143.488149 
L 407.050201 142.954125 
L 407.614033 142.92039 
L 407.895949 142.92039 
L 408.036907 142.386366 
L 408.600739 142.35263 
L 409.587445 142.35263 
L 409.869361 141.22383 
L 410.433193 141.190095 
L 410.574151 140.656071 
L 411.137984 140.622336 
L 411.560858 140.622336 
L 411.701816 140.088312 
L 412.12469 140.054576 
L 412.406606 138.925776 
L 412.547564 138.892041 
L 412.688522 138.358017 
L 412.82948 138.324282 
L 412.970438 137.790258 
L 413.393312 137.756522 
L 413.53427 137.222498 
L 413.957144 137.188763 
L 414.098102 136.654739 
L 414.520976 136.621004 
L 414.661934 136.08698 
L 414.94385 136.053244 
L 415.084808 135.51922 
L 415.648641 135.485485 
L 416.071515 135.485485 
L 416.212473 134.951461 
L 416.494389 134.917725 
L 416.635347 134.383702 
L 417.199179 134.349966 
L 417.903969 134.349966 
L 418.467801 132.592655 
L 419.172591 132.592655 
L 419.31355 132.058631 
L 419.454508 132.024896 
L 419.595466 131.490872 
L 420.159298 131.457136 
L 420.300256 130.923112 
L 420.441214 130.889377 
L 420.582172 130.355353 
L 421.005046 130.321618 
L 421.286962 129.192818 
L 421.42792 129.159082 
L 421.568878 128.625058 
L 421.850794 128.591323 
L 421.991752 128.057299 
L 422.555584 128.023564 
L 424.106123 128.023564 
L 424.247081 127.48954 
L 424.388039 127.455804 
L 424.528997 126.92178 
L 425.092829 126.888045 
L 425.374745 126.888045 
L 425.515703 126.354021 
L 426.079535 126.320286 
L 426.220493 126.320286 
L 426.361451 125.786262 
L 426.784325 125.752526 
L 426.925283 125.218502 
L 427.066241 125.184767 
L 427.207199 124.650743 
L 427.771032 124.617007 
L 429.32157 124.617007 
L 429.462528 124.082983 
L 430.02636 124.049248 
L 430.167318 123.515224 
L 430.308276 123.481489 
L 430.449234 122.947465 
L 431.013066 122.913729 
L 431.717857 122.913729 
L 431.858815 122.379705 
L 432.422647 122.34597 
L 432.986479 122.34597 
L 433.127437 121.811946 
L 433.691269 121.778211 
L 437.92001 121.778211 
L 438.060968 121.244187 
L 438.201926 121.210451 
L 438.342884 120.676427 
L 438.906716 120.642692 
L 440.034381 120.642692 
L 440.175339 120.108668 
L 440.457255 120.074932 
L 440.598213 119.540908 
L 441.162045 119.507173 
L 441.725877 119.507173 
L 441.866835 118.973149 
L 442.430667 118.939414 
L 443.135457 118.939414 
L 443.276415 118.40539 
L 443.417373 118.371654 
L 443.558331 117.83763 
L 444.122164 117.803895 
L 444.263122 117.803895 
L 444.40408 117.269871 
L 444.967912 117.236136 
L 445.10887 116.702112 
L 445.249828 116.668376 
L 445.390786 116.134352 
L 445.954618 116.100617 
L 447.928031 116.100617 
L 448.068989 115.566593 
L 448.632821 115.532857 
L 449.619527 115.532857 
L 449.760485 114.998834 
L 450.324317 114.965098 
L 450.888149 114.965098 
L 451.029107 114.431074 
L 451.592939 114.397339 
L 451.733898 114.397339 
L 451.874856 113.863315 
L 452.015814 113.829579 
L 452.156772 113.295555 
L 452.720604 113.26182 
L 453.00252 113.26182 
L 453.143478 112.727796 
L 453.70731 112.694061 
L 454.271142 112.694061 
L 454.553058 111.565261 
L 455.11689 111.531525 
L 456.667429 111.531525 
L 456.808387 110.997501 
L 457.231261 110.963766 
L 457.372219 110.429742 
L 457.936051 110.396007 
L 458.358925 110.396007 
L 458.640841 109.267207 
L 459.204673 109.233471 
L 459.627547 109.233471 
L 459.768505 108.699448 
L 460.332338 108.665712 
L 461.178086 108.665712 
L 461.319044 108.131688 
L 461.882876 108.097953 
L 462.30575 108.097953 
L 462.446708 107.563929 
L 463.01054 107.530193 
L 463.292456 107.530193 
L 463.433414 106.996169 
L 463.997247 106.962434 
L 464.279163 106.962434 
L 464.420121 106.42841 
L 464.561079 106.394675 
L 464.702037 105.860651 
L 465.265869 105.826915 
L 465.547785 104.698115 
L 466.111617 104.66438 
L 466.675449 104.66438 
L 466.816407 104.130356 
L 467.380239 104.096621 
L 467.662155 104.096621 
L 467.803113 103.562597 
L 467.944071 103.528861 
L 468.08503 102.994837 
L 468.648862 102.961102 
L 469.776526 102.961102 
L 470.058442 101.832302 
L 470.622274 101.798567 
L 472.172813 101.798567 
L 472.313771 101.264543 
L 472.877603 101.230807 
L 473.441435 101.230807 
L 473.582393 100.696783 
L 474.146225 100.663048 
L 474.287183 100.663048 
L 474.428141 100.129024 
L 474.851015 100.095289 
L 475.414847 98.337978 
L 476.401554 98.337978 
L 476.542512 97.803954 
L 477.106344 97.770218 
L 477.670176 97.770218 
L 477.811134 97.236194 
L 478.374966 97.202459 
L 478.938798 97.202459 
L 479.079756 96.668435 
L 479.643588 96.634699 
L 480.348379 96.634699 
L 480.489337 96.100676 
L 481.053169 96.06694 
L 481.335085 94.93814 
L 481.898917 94.904405 
L 482.744665 94.904405 
L 482.885623 94.370381 
L 483.449455 94.336646 
L 484.013287 94.336646 
L 484.154245 93.802622 
L 484.718078 93.768886 
L 487.39628 93.768886 
L 487.537238 93.234862 
L 487.960112 93.201127 
L 488.10107 92.667103 
L 488.664903 92.633367 
L 488.805861 92.633367 
L 489.087777 91.504568 
L 489.228735 91.470832 
L 489.369693 90.936808 
L 489.792567 90.903073 
L 490.497357 88.611738 
L 491.061189 88.578002 
L 491.625021 88.578002 
L 491.765979 88.043978 
L 492.329811 88.010243 
L 492.47077 88.010243 
L 492.611728 87.476219 
L 493.17556 87.442484 
L 494.726098 87.442484 
L 495.008014 86.313684 
L 495.571846 86.279948 
L 495.712804 85.745924 
L 495.99472 85.712189 
L 496.135678 85.178165 
L 496.699511 85.14443 
L 497.404301 85.14443 
L 497.545259 84.610406 
L 498.109091 84.57667 
L 498.109091 84.57667 
" style="fill:none;stroke:#8172b2;stroke-linecap:round;stroke-width:1.75;"/>
   </g>
   <g id="line2d_26">
    <path clip-path="url(#pf800394850)" d="M 92.290909 338.58 
L 92.431867 338.045976 
L 92.995699 338.012241 
L 93.136657 338.012241 
L 93.277615 337.478217 
L 93.841447 337.444481 
L 93.982406 337.444481 
L 94.123364 336.910457 
L 94.687196 336.876722 
L 94.828154 336.876722 
L 94.969112 336.342698 
L 95.532944 336.308963 
L 95.673902 336.308963 
L 95.81486 335.774939 
L 96.378692 335.741203 
L 96.51965 335.741203 
L 96.660608 335.207179 
L 97.22444 335.173444 
L 97.365398 335.173444 
L 97.506356 334.63942 
L 98.070189 334.605684 
L 98.211147 334.605684 
L 98.352105 334.07166 
L 98.915937 334.037925 
L 99.056895 334.037925 
L 99.197853 333.503901 
L 99.761685 333.470166 
L 99.902643 333.470166 
L 100.043601 332.936142 
L 100.607433 332.902406 
L 100.748391 332.902406 
L 100.889349 332.368382 
L 101.453181 332.334647 
L 101.594139 332.334647 
L 101.735097 331.800623 
L 102.29893 331.766888 
L 102.439888 331.766888 
L 102.580846 331.232864 
L 103.144678 331.199128 
L 103.285636 331.199128 
L 103.426594 330.665104 
L 103.990426 330.631369 
L 104.131384 330.097345 
L 104.695216 330.063609 
L 104.836174 330.063609 
L 104.977132 329.529586 
L 105.540964 329.49585 
L 105.681922 329.49585 
L 105.82288 328.961826 
L 106.386713 328.928091 
L 106.527671 328.928091 
L 106.668629 328.394067 
L 107.232461 328.360331 
L 107.373419 328.360331 
L 107.514377 327.826307 
L 108.078209 327.792572 
L 108.219167 327.792572 
L 108.360125 327.258548 
L 108.923957 327.224813 
L 109.205873 327.224813 
L 109.346831 326.690789 
L 109.910663 326.657053 
L 110.192579 326.657053 
L 110.333538 326.123029 
L 110.89737 326.089294 
L 111.179286 326.089294 
L 111.320244 325.55527 
L 111.461202 325.521535 
L 111.743118 324.726257 
L 112.025034 324.726257 
L 112.165992 324.192233 
L 112.30695 324.158498 
L 112.588866 323.363221 
L 112.870782 323.363221 
L 113.01174 322.829197 
L 113.575572 322.795461 
L 113.857488 322.795461 
L 113.998446 322.261437 
L 114.139404 322.227702 
L 114.421321 321.432425 
L 114.703237 321.432425 
L 114.844195 320.898401 
L 114.985153 320.864665 
L 115.267069 320.069388 
L 115.548985 320.069388 
L 115.689943 319.535364 
L 115.830901 319.501629 
L 116.112817 318.706352 
L 116.394733 318.706352 
L 116.535691 318.172328 
L 116.676649 318.138592 
L 116.958565 317.343315 
L 117.240481 317.343315 
L 117.381439 316.809291 
L 117.522397 316.775556 
L 117.804313 315.980279 
L 118.086229 315.980279 
L 118.227187 315.446255 
L 118.368146 315.412519 
L 118.650062 314.617242 
L 118.931978 314.617242 
L 119.072936 314.083218 
L 119.213894 314.049483 
L 119.49581 313.254205 
L 119.777726 313.254205 
L 119.918684 312.720181 
L 120.059642 312.686446 
L 120.341558 311.891169 
L 120.623474 311.891169 
L 120.764432 311.357145 
L 120.90539 311.323409 
L 121.187306 310.528132 
L 121.469222 310.528132 
L 121.61018 309.994108 
L 121.751138 309.960373 
L 122.033054 309.165096 
L 122.31497 309.165096 
L 122.455929 308.631072 
L 123.019761 308.597336 
L 123.301677 308.597336 
L 123.442635 308.063312 
L 123.583593 308.029577 
L 123.865509 307.2343 
L 124.147425 307.2343 
L 124.288383 306.700276 
L 124.852215 306.66654 
L 125.134131 306.66654 
L 125.275089 306.132516 
L 125.838921 306.098781 
L 126.120837 306.098781 
L 126.261795 305.564757 
L 126.825628 305.531022 
L 127.107544 305.531022 
L 127.248502 304.996998 
L 127.812334 304.963262 
L 128.09425 304.963262 
L 128.235208 304.429238 
L 128.79904 304.395503 
L 129.080956 304.395503 
L 129.221914 303.861479 
L 129.785746 303.827744 
L 130.067662 303.827744 
L 130.20862 303.29372 
L 130.349578 303.259984 
L 130.631495 302.464707 
L 130.913411 302.464707 
L 131.054369 301.930683 
L 131.618201 301.896948 
L 131.900117 301.896948 
L 132.041075 301.362924 
L 132.604907 301.329188 
L 132.886823 301.329188 
L 133.027781 300.795164 
L 133.591613 300.761429 
L 133.873529 300.761429 
L 134.014487 300.227405 
L 134.578319 300.193669 
L 134.860236 300.193669 
L 135.001194 299.659646 
L 135.565026 299.62591 
L 135.846942 299.62591 
L 135.9879 299.091886 
L 136.551732 299.058151 
L 136.833648 299.058151 
L 136.974606 298.524127 
L 137.538438 298.490391 
L 137.820354 298.490391 
L 137.961312 297.956367 
L 138.525144 297.922632 
L 138.807061 297.922632 
L 138.948019 297.388608 
L 139.511851 297.354873 
L 139.793767 297.354873 
L 139.934725 296.820849 
L 140.498557 296.787113 
L 140.780473 296.787113 
L 140.921431 296.253089 
L 141.062389 296.219354 
L 141.344305 295.424077 
L 141.626221 295.424077 
L 141.767179 294.890053 
L 142.331011 294.856317 
L 142.612927 294.856317 
L 142.753886 294.322293 
L 143.317718 294.288558 
L 143.599634 294.288558 
L 143.740592 293.754534 
L 144.304424 293.720799 
L 144.58634 293.720799 
L 144.727298 293.186775 
L 145.29113 293.153039 
L 145.573046 293.153039 
L 145.714004 292.619015 
L 146.277836 292.58528 
L 146.559752 292.58528 
L 146.70071 292.051256 
L 147.264543 292.01752 
L 147.546459 292.01752 
L 147.687417 291.483497 
L 148.251249 291.449761 
L 148.533165 291.449761 
L 148.674123 290.915737 
L 149.237955 290.882002 
L 149.519871 290.882002 
L 149.660829 290.347978 
L 150.224661 290.314242 
L 150.506577 290.314242 
L 150.647535 289.780218 
L 151.211368 289.746483 
L 151.493284 289.746483 
L 151.634242 289.212459 
L 151.7752 289.178724 
L 152.057116 288.383446 
L 152.339032 288.383446 
L 152.47999 287.849422 
L 153.043822 287.815687 
L 153.325738 287.815687 
L 153.466696 287.281663 
L 154.030528 287.247928 
L 154.312444 287.247928 
L 154.453402 286.713904 
L 155.017235 286.680168 
L 155.299151 286.680168 
L 155.440109 286.146144 
L 156.003941 286.112409 
L 156.285857 286.112409 
L 156.426815 285.578385 
L 156.990647 285.54465 
L 157.272563 285.54465 
L 157.413521 285.010626 
L 157.977353 284.97689 
L 158.259269 284.97689 
L 158.400227 284.442866 
L 158.964059 284.409131 
L 159.245976 284.409131 
L 159.386934 283.875107 
L 159.950766 283.841371 
L 160.232682 283.841371 
L 160.37364 283.307348 
L 160.937472 283.273612 
L 161.219388 283.273612 
L 161.360346 282.739588 
L 161.924178 282.705853 
L 162.206094 282.705853 
L 162.347052 282.171829 
L 162.48801 282.138093 
L 162.769926 281.342816 
L 163.051842 281.342816 
L 163.192801 280.808792 
L 163.756633 280.775057 
L 164.038549 280.775057 
L 164.179507 280.241033 
L 164.743339 280.207297 
L 165.025255 280.207297 
L 165.166213 279.673273 
L 165.730045 279.639538 
L 166.011961 279.639538 
L 166.152919 279.105514 
L 166.716751 279.071779 
L 166.998667 279.071779 
L 167.139626 278.537755 
L 167.703458 278.504019 
L 167.985374 278.504019 
L 168.126332 277.969995 
L 168.690164 277.93626 
L 168.97208 277.93626 
L 169.113038 277.402236 
L 169.67687 277.368501 
L 169.958786 277.368501 
L 170.099744 276.834477 
L 170.663576 276.800741 
L 170.945492 276.800741 
L 171.08645 276.266717 
L 171.650283 276.232982 
L 171.932199 276.232982 
L 172.073157 275.698958 
L 172.636989 275.665222 
L 172.918905 275.665222 
L 173.059863 275.131199 
L 173.200821 275.097463 
L 173.482737 274.302186 
L 173.764653 274.302186 
L 173.905611 273.768162 
L 174.469443 273.734427 
L 174.751359 273.734427 
L 174.892317 273.200403 
L 175.45615 273.166667 
L 175.738066 273.166667 
L 175.879024 272.632643 
L 176.442856 272.598908 
L 176.724772 272.598908 
L 176.86573 272.064884 
L 177.429562 272.031148 
L 177.711478 272.031148 
L 177.852436 271.497124 
L 178.416268 271.463389 
L 178.698184 271.463389 
L 178.839142 270.929365 
L 179.402975 270.89563 
L 179.684891 270.89563 
L 179.825849 270.361606 
L 180.389681 270.32787 
L 180.671597 270.32787 
L 180.812555 269.793846 
L 181.376387 269.760111 
L 181.658303 269.760111 
L 181.799261 269.226087 
L 182.363093 269.192352 
L 182.645009 269.192352 
L 182.785967 268.658328 
L 183.349799 268.624592 
L 183.631716 268.624592 
L 183.772674 268.090568 
L 183.913632 268.056833 
L 184.195548 267.261556 
L 184.477464 267.261556 
L 184.618422 266.727532 
L 185.182254 266.693796 
L 185.46417 266.693796 
L 185.605128 266.159772 
L 186.16896 266.126037 
L 186.450876 266.126037 
L 186.591834 265.592013 
L 187.155666 265.558278 
L 187.437582 265.558278 
L 187.578541 265.024254 
L 188.142373 264.990518 
L 188.424289 264.990518 
L 188.565247 264.456494 
L 189.129079 264.422759 
L 189.410995 264.422759 
L 189.551953 263.888735 
L 190.115785 263.854999 
L 190.397701 263.854999 
L 190.538659 263.320975 
L 191.102491 263.28724 
L 191.384407 263.28724 
L 191.525365 262.753216 
L 192.089198 262.719481 
L 192.371114 262.719481 
L 192.512072 262.185457 
L 193.075904 262.151721 
L 193.35782 262.151721 
L 193.498778 261.617697 
L 194.06261 261.583962 
L 194.344526 261.583962 
L 194.485484 261.049938 
L 194.626442 261.016203 
L 194.908358 260.220925 
L 195.190274 260.220925 
L 195.331232 259.686901 
L 195.895065 259.653166 
L 196.176981 259.653166 
L 196.317939 259.119142 
L 196.881771 259.085407 
L 197.163687 259.085407 
L 197.304645 258.551383 
L 197.868477 258.517647 
L 198.150393 258.517647 
L 198.291351 257.983623 
L 198.855183 257.949888 
L 199.137099 257.949888 
L 199.278057 257.415864 
L 199.84189 257.382129 
L 200.123806 257.382129 
L 200.264764 256.848105 
L 200.828596 256.814369 
L 201.110512 256.814369 
L 201.25147 256.280345 
L 201.815302 256.24661 
L 202.097218 256.24661 
L 202.238176 255.712586 
L 202.802008 255.67885 
L 203.083924 255.67885 
L 203.224882 255.144826 
L 203.788715 255.111091 
L 204.070631 255.111091 
L 204.211589 254.577067 
L 204.775421 254.543332 
L 205.057337 254.543332 
L 205.198295 254.009308 
L 205.339253 253.975572 
L 205.621169 253.180295 
L 205.903085 253.180295 
L 206.044043 252.646271 
L 206.607875 252.612536 
L 206.889791 252.612536 
L 207.030749 252.078512 
L 207.594581 252.044776 
L 207.876498 252.044776 
L 208.017456 251.510752 
L 208.581288 251.477017 
L 208.863204 251.477017 
L 209.004162 250.942993 
L 209.567994 250.909258 
L 209.84991 250.909258 
L 209.990868 250.375234 
L 210.5547 250.341498 
L 210.836616 250.341498 
L 210.977574 249.807474 
L 211.541406 249.773739 
L 211.823322 249.773739 
L 211.964281 249.239715 
L 212.528113 249.20598 
L 212.810029 249.20598 
L 212.950987 248.671956 
L 213.514819 248.63822 
L 213.796735 248.63822 
L 213.937693 248.104196 
L 214.501525 248.070461 
L 214.783441 248.070461 
L 214.924399 247.536437 
L 215.488231 247.502701 
L 215.770147 247.502701 
L 215.911105 246.968677 
L 216.052064 246.934942 
L 216.33398 246.139665 
L 216.615896 246.139665 
L 216.756854 245.605641 
L 217.320686 245.571905 
L 217.602602 245.571905 
L 217.74356 245.037882 
L 218.307392 245.004146 
L 218.589308 245.004146 
L 218.730266 244.470122 
L 219.294098 244.436387 
L 219.576014 244.436387 
L 219.716972 243.902363 
L 220.280805 243.868627 
L 220.562721 243.868627 
L 220.703679 243.334603 
L 221.267511 243.300868 
L 221.549427 243.300868 
L 221.690385 242.766844 
L 222.254217 242.733109 
L 222.536133 242.733109 
L 222.677091 242.199085 
L 223.240923 242.165349 
L 223.522839 242.165349 
L 223.663797 241.631325 
L 224.22763 241.59759 
L 224.509546 241.59759 
L 224.650504 241.063566 
L 225.214336 241.029831 
L 225.496252 241.029831 
L 225.63721 240.495807 
L 226.201042 240.462071 
L 226.482958 240.462071 
L 226.623916 239.928047 
L 226.764874 239.894312 
L 227.04679 239.099035 
L 227.328706 239.099035 
L 227.469664 238.565011 
L 228.033496 238.531275 
L 228.315413 238.531275 
L 228.456371 237.997251 
L 229.020203 237.963516 
L 229.302119 237.963516 
L 229.443077 237.429492 
L 230.006909 237.395756 
L 230.288825 237.395756 
L 230.429783 236.861733 
L 230.993615 236.827997 
L 231.275531 236.827997 
L 231.416489 236.293973 
L 231.980321 236.260238 
L 232.262238 236.260238 
L 232.403196 235.726214 
L 232.967028 235.692478 
L 233.248944 235.692478 
L 233.389902 235.158454 
L 233.953734 235.124719 
L 234.23565 235.124719 
L 234.376608 234.590695 
L 234.94044 234.55696 
L 235.222356 234.55696 
L 235.363314 234.022936 
L 235.927146 233.9892 
L 236.209062 233.9892 
L 236.350021 233.455176 
L 236.913853 233.421441 
L 237.195769 233.421441 
L 237.336727 232.887417 
L 237.477685 232.853682 
L 237.759601 232.058404 
L 238.041517 232.058404 
L 238.182475 231.52438 
L 238.746307 231.490645 
L 239.028223 231.490645 
L 239.169181 230.956621 
L 239.733013 230.922886 
L 240.014929 230.922886 
L 240.155887 230.388862 
L 240.71972 230.355126 
L 241.001636 230.355126 
L 241.142594 229.821102 
L 241.706426 229.787367 
L 241.988342 229.787367 
L 242.1293 229.253343 
L 242.693132 229.219607 
L 242.975048 229.219607 
L 243.116006 228.685584 
L 243.679838 228.651848 
L 243.961754 228.651848 
L 244.102712 228.117824 
L 244.666545 228.084089 
L 244.948461 228.084089 
L 245.089419 227.550065 
L 245.653251 227.516329 
L 245.935167 227.516329 
L 246.076125 226.982305 
L 246.639957 226.94857 
L 246.921873 226.94857 
L 247.062831 226.414546 
L 247.626663 226.380811 
L 247.908579 226.380811 
L 248.049537 225.846787 
L 248.190495 225.813051 
L 248.472412 225.017774 
L 248.754328 225.017774 
L 248.895286 224.48375 
L 249.459118 224.450015 
L 249.741034 224.450015 
L 249.881992 223.915991 
L 250.445824 223.882255 
L 250.72774 223.882255 
L 250.868698 223.348231 
L 251.43253 223.314496 
L 251.714446 223.314496 
L 251.855404 222.780472 
L 252.419236 222.746737 
L 252.701153 222.746737 
L 252.842111 222.212713 
L 253.405943 222.178977 
L 253.687859 222.178977 
L 253.828817 221.644953 
L 254.392649 221.611218 
L 254.674565 221.611218 
L 254.815523 221.077194 
L 255.379355 221.043458 
L 255.661271 221.043458 
L 255.802229 220.509435 
L 256.366061 220.475699 
L 256.647978 220.475699 
L 256.788936 219.941675 
L 257.352768 219.90794 
L 257.634684 219.90794 
L 257.775642 219.373916 
L 258.339474 219.34018 
L 258.62139 219.34018 
L 258.762348 218.806156 
L 258.903306 218.772421 
L 259.185222 217.977144 
L 259.467138 217.977144 
L 259.608096 217.44312 
L 260.171928 217.409384 
L 260.453844 217.409384 
L 260.594802 216.87536 
L 261.158635 216.841625 
L 261.440551 216.841625 
L 261.581509 216.307601 
L 262.145341 216.273866 
L 262.427257 216.273866 
L 262.568215 215.739842 
L 263.132047 215.706106 
L 263.413963 215.706106 
L 263.554921 215.172082 
L 264.118753 215.138347 
L 264.400669 215.138347 
L 264.541627 214.604323 
L 265.10546 214.570588 
L 265.387376 214.570588 
L 265.528334 214.036564 
L 266.092166 214.002828 
L 266.374082 214.002828 
L 266.51504 213.468804 
L 267.078872 213.435069 
L 267.360788 213.435069 
L 267.501746 212.901045 
L 268.065578 212.867309 
L 268.347494 212.867309 
L 268.488452 212.333286 
L 269.052285 212.29955 
L 269.334201 212.29955 
L 269.475159 211.765526 
L 269.616117 211.731791 
L 269.898033 210.936514 
L 270.179949 210.936514 
L 270.320907 210.40249 
L 270.884739 210.368754 
L 271.166655 210.368754 
L 271.307613 209.83473 
L 271.871445 209.800995 
L 272.153361 209.800995 
L 272.294319 209.266971 
L 272.858152 209.233235 
L 273.140068 209.233235 
L 273.281026 208.699211 
L 273.844858 208.665476 
L 274.126774 208.665476 
L 274.267732 208.131452 
L 274.831564 208.097717 
L 275.11348 208.097717 
L 275.254438 207.563693 
L 275.81827 207.529957 
L 276.100186 207.529957 
L 276.241144 206.995933 
L 276.804976 206.962198 
L 277.086893 206.962198 
L 277.227851 206.428174 
L 277.791683 206.394439 
L 278.073599 206.394439 
L 278.214557 205.860415 
L 278.778389 205.826679 
L 279.060305 205.826679 
L 279.201263 205.292655 
L 279.765095 205.25892 
L 280.047011 205.25892 
L 280.187969 204.724896 
L 280.328927 204.691161 
L 280.610843 203.895883 
L 280.892759 203.895883 
L 281.033718 203.361859 
L 281.59755 203.328124 
L 281.879466 203.328124 
L 282.020424 202.7941 
L 282.584256 202.760365 
L 282.866172 202.760365 
L 283.00713 202.226341 
L 283.570962 202.192605 
L 283.852878 202.192605 
L 283.993836 201.658581 
L 284.557668 201.624846 
L 284.839584 201.624846 
L 284.980542 201.090822 
L 285.544375 201.057086 
L 285.826291 201.057086 
L 285.967249 200.523062 
L 286.531081 200.489327 
L 286.812997 200.489327 
L 286.953955 199.955303 
L 287.517787 199.921568 
L 287.799703 199.921568 
L 287.940661 199.387544 
L 288.504493 199.353808 
L 288.786409 199.353808 
L 288.927367 198.819784 
L 289.4912 198.786049 
L 289.773116 198.786049 
L 289.914074 198.252025 
L 290.477906 198.21829 
L 290.759822 198.21829 
L 290.90078 197.684266 
L 291.041738 197.65053 
L 291.323654 196.855253 
L 291.60557 196.855253 
L 291.746528 196.321229 
L 292.31036 196.287494 
L 292.592276 196.287494 
L 292.733234 195.75347 
L 293.297067 195.719734 
L 293.578983 195.719734 
L 293.719941 195.18571 
L 294.283773 195.151975 
L 294.565689 195.151975 
L 294.706647 194.617951 
L 295.270479 194.584216 
L 295.552395 194.584216 
L 295.693353 194.050192 
L 296.257185 194.016456 
L 296.539101 194.016456 
L 296.680059 193.482432 
L 297.243892 193.448697 
L 297.525808 193.448697 
L 297.666766 192.914673 
L 298.230598 192.880937 
L 298.512514 192.880937 
L 298.653472 192.346914 
L 299.217304 192.313178 
L 299.49922 192.313178 
L 299.640178 191.779154 
L 300.20401 191.745419 
L 300.485926 191.745419 
L 300.626884 191.211395 
L 301.190716 191.177659 
L 301.472633 191.177659 
L 301.613591 190.643635 
L 301.754549 190.6099 
L 302.036465 189.814623 
L 302.318381 189.814623 
L 302.459339 189.280599 
L 303.023171 189.246863 
L 303.305087 189.246863 
L 303.446045 188.712839 
L 304.009877 188.679104 
L 304.291793 188.679104 
L 304.432751 188.14508 
L 304.996583 188.111345 
L 305.278499 188.111345 
L 305.419458 187.577321 
L 305.98329 187.543585 
L 306.265206 187.543585 
L 306.406164 187.009561 
L 306.969996 186.975826 
L 307.251912 186.975826 
L 307.39287 186.441802 
L 307.956702 186.408067 
L 308.238618 186.408067 
L 308.379576 185.874043 
L 308.943408 185.840307 
L 309.225324 185.840307 
L 309.366282 185.306283 
L 309.930115 185.272548 
L 310.212031 185.272548 
L 310.352989 184.738524 
L 310.916821 184.704788 
L 311.198737 184.704788 
L 311.339695 184.170765 
L 311.903527 184.137029 
L 312.185443 184.137029 
L 312.326401 183.603005 
L 312.467359 183.56927 
L 312.749275 182.773993 
L 313.031191 182.773993 
L 313.172149 182.239969 
L 313.735982 182.206233 
L 314.017898 182.206233 
L 314.158856 181.672209 
L 314.722688 181.638474 
L 315.004604 181.638474 
L 315.145562 181.10445 
L 315.709394 181.070714 
L 315.99131 181.070714 
L 316.132268 180.53669 
L 316.6961 180.502955 
L 316.978016 180.502955 
L 317.118974 179.968931 
L 317.682807 179.935196 
L 317.964723 179.935196 
L 318.105681 179.401172 
L 318.669513 179.367436 
L 318.951429 179.367436 
L 319.092387 178.833412 
L 319.656219 178.799677 
L 319.938135 178.799677 
L 320.079093 178.265653 
L 320.642925 178.231918 
L 320.924841 178.231918 
L 321.065799 177.697894 
L 321.629632 177.664158 
L 321.911548 177.664158 
L 322.052506 177.130134 
L 322.616338 177.096399 
L 322.898254 177.096399 
L 323.039212 176.562375 
L 323.18017 176.528639 
L 323.462086 175.733362 
L 323.744002 175.733362 
L 323.88496 175.199338 
L 324.448792 175.165603 
L 324.730708 175.165603 
L 324.871666 174.631579 
L 325.435498 174.597844 
L 325.717415 174.597844 
L 325.858373 174.06382 
L 326.422205 174.030084 
L 326.704121 174.030084 
L 326.845079 173.49606 
L 327.408911 173.462325 
L 327.690827 173.462325 
L 327.831785 172.928301 
L 328.395617 172.894565 
L 328.677533 172.894565 
L 328.818491 172.360541 
L 329.382323 172.326806 
L 329.664239 172.326806 
L 329.805198 171.792782 
L 330.36903 171.759047 
L 330.650946 171.759047 
L 330.791904 171.225023 
L 331.355736 171.191287 
L 331.637652 171.191287 
L 331.77861 170.657263 
L 332.342442 170.623528 
L 332.624358 170.623528 
L 332.765316 170.089504 
L 333.329148 170.055769 
L 333.611064 170.055769 
L 333.752022 169.521745 
L 333.892981 169.488009 
L 334.174897 168.692732 
L 334.456813 168.692732 
L 334.597771 168.158708 
L 335.161603 168.124973 
L 335.443519 168.124973 
L 335.584477 167.590949 
L 336.148309 167.557213 
L 336.430225 167.557213 
L 336.571183 167.023189 
L 337.135015 166.989454 
L 337.416931 166.989454 
L 337.557889 166.45543 
L 338.121722 166.421695 
L 338.403638 166.421695 
L 338.544596 165.887671 
L 339.108428 165.853935 
L 339.390344 165.853935 
L 339.531302 165.319911 
L 340.095134 165.286176 
L 340.37705 165.286176 
L 340.518008 164.752152 
L 341.08184 164.718416 
L 341.363756 164.718416 
L 341.504714 164.184392 
L 342.068547 164.150657 
L 342.350463 164.150657 
L 342.491421 163.616633 
L 343.055253 163.582898 
L 343.337169 163.582898 
L 343.478127 163.048874 
L 344.041959 163.015138 
L 344.323875 163.015138 
L 344.464833 162.481114 
L 344.605791 162.447379 
L 344.887707 161.652102 
L 345.169623 161.652102 
L 345.310581 161.118078 
L 345.874413 161.084342 
L 346.15633 161.084342 
L 346.297288 160.550318 
L 346.86112 160.516583 
L 347.143036 160.516583 
L 347.283994 159.982559 
L 347.847826 159.948824 
L 348.129742 159.948824 
L 348.2707 159.4148 
L 348.834532 159.381064 
L 349.116448 159.381064 
L 349.257406 158.84704 
L 349.821238 158.813305 
L 350.103155 158.813305 
L 350.244113 158.279281 
L 350.807945 158.245546 
L 351.089861 158.245546 
L 351.230819 157.711522 
L 351.794651 157.677786 
L 352.076567 157.677786 
L 352.217525 157.143762 
L 352.781357 157.110027 
L 353.063273 157.110027 
L 353.204231 156.576003 
L 353.768063 156.542267 
L 354.049979 156.542267 
L 354.190938 156.008243 
L 354.75477 155.974508 
L 355.036686 155.974508 
L 355.177644 155.440484 
L 355.318602 155.406749 
L 355.600518 154.611471 
L 355.882434 154.611471 
L 356.023392 154.077448 
L 356.587224 154.043712 
L 356.86914 154.043712 
L 357.010098 153.509688 
L 357.57393 153.475953 
L 357.855846 153.475953 
L 357.996804 152.941929 
L 358.560637 152.908193 
L 358.842553 152.908193 
L 358.983511 152.374169 
L 359.547343 152.340434 
L 359.829259 152.340434 
L 359.970217 151.80641 
L 360.534049 151.772675 
L 360.815965 151.772675 
L 360.956923 151.238651 
L 361.520755 151.204915 
L 361.802671 151.204915 
L 361.943629 150.670891 
L 362.507462 150.637156 
L 362.789378 150.637156 
L 362.930336 150.103132 
L 363.494168 150.069397 
L 363.776084 150.069397 
L 363.917042 149.535373 
L 364.480874 149.501637 
L 364.76279 149.501637 
L 364.903748 148.967613 
L 365.46758 148.933878 
L 365.749496 148.933878 
L 365.890454 148.399854 
L 366.031412 148.366118 
L 366.313328 147.570841 
L 366.595245 147.570841 
L 366.736203 147.036817 
L 367.300035 147.003082 
L 367.581951 147.003082 
L 367.722909 146.469058 
L 368.286741 146.435322 
L 368.568657 146.435322 
L 368.709615 145.901299 
L 369.273447 145.867563 
L 369.555363 145.867563 
L 369.696321 145.333539 
L 370.260153 145.299804 
L 370.54207 145.299804 
L 370.683028 144.76578 
L 371.24686 144.732044 
L 371.528776 144.732044 
L 371.669734 144.19802 
L 372.233566 144.164285 
L 372.515482 144.164285 
L 372.65644 143.630261 
L 373.220272 143.596526 
L 373.502188 143.596526 
L 373.643146 143.062502 
L 374.206978 143.028766 
L 374.488895 143.028766 
L 374.629853 142.494742 
L 375.193685 142.461007 
L 375.475601 142.461007 
L 375.616559 141.926983 
L 376.180391 141.893248 
L 376.462307 141.893248 
L 376.603265 141.359224 
L 376.744223 141.325488 
L 377.026139 140.530211 
L 377.308055 140.530211 
L 377.449013 139.996187 
L 378.012845 139.962452 
L 378.294761 139.962452 
L 378.435719 139.428428 
L 378.999552 139.394692 
L 379.281468 139.394692 
L 379.422426 138.860668 
L 379.986258 138.826933 
L 380.268174 138.826933 
L 380.409132 138.292909 
L 380.972964 138.259173 
L 381.25488 138.259173 
L 381.395838 137.72515 
L 381.95967 137.691414 
L 382.241586 137.691414 
L 382.382544 137.15739 
L 382.946377 137.123655 
L 383.228293 137.123655 
L 383.369251 136.589631 
L 383.933083 136.555895 
L 384.214999 136.555895 
L 384.355957 136.021871 
L 384.919789 135.988136 
L 385.201705 135.988136 
L 385.342663 135.454112 
L 385.906495 135.420377 
L 386.188411 135.420377 
L 386.329369 134.886353 
L 386.893202 134.852617 
L 387.175118 134.852617 
L 387.316076 134.318593 
L 387.457034 134.284858 
L 387.73895 133.489581 
L 388.020866 133.489581 
L 388.161824 132.955557 
L 388.725656 132.921821 
L 389.007572 132.921821 
L 389.14853 132.387797 
L 389.712362 132.354062 
L 389.994278 132.354062 
L 390.135236 131.820038 
L 390.699068 131.786303 
L 390.980985 131.786303 
L 391.121943 131.252279 
L 391.685775 131.218543 
L 391.967691 131.218543 
L 392.108649 130.684519 
L 392.672481 130.650784 
L 392.954397 130.650784 
L 393.095355 130.11676 
L 393.659187 130.083024 
L 393.941103 130.083024 
L 394.082061 129.549001 
L 394.645893 129.515265 
L 394.92781 129.515265 
L 395.068768 128.981241 
L 395.6326 128.947506 
L 395.914516 128.947506 
L 396.055474 128.413482 
L 396.619306 128.379746 
L 396.901222 128.379746 
L 397.04218 127.845722 
L 397.606012 127.811987 
L 397.887928 127.811987 
L 398.028886 127.277963 
L 398.169844 127.244228 
L 398.45176 126.44895 
L 398.733676 126.44895 
L 398.874635 125.914926 
L 399.438467 125.881191 
L 399.720383 125.881191 
L 399.861341 125.347167 
L 400.425173 125.313432 
L 400.707089 125.313432 
L 400.848047 124.779408 
L 401.411879 124.745672 
L 401.693795 124.745672 
L 401.834753 124.211648 
L 402.398585 124.177913 
L 402.680501 124.177913 
L 402.821459 123.643889 
L 403.385292 123.610154 
L 403.667208 123.610154 
L 403.808166 123.07613 
L 404.371998 123.042394 
L 404.653914 123.042394 
L 404.794872 122.50837 
L 405.358704 122.474635 
L 405.64062 122.474635 
L 405.781578 121.940611 
L 406.34541 121.906875 
L 406.627326 121.906875 
L 406.768284 121.372852 
L 407.332117 121.339116 
L 407.614033 121.339116 
L 407.754991 120.805092 
L 408.318823 120.771357 
L 408.600739 120.771357 
L 408.741697 120.237333 
L 408.882655 120.203597 
L 409.164571 119.40832 
L 409.446487 119.40832 
L 409.587445 118.874296 
L 410.151277 118.840561 
L 410.433193 118.840561 
L 410.574151 118.306537 
L 411.137984 118.272801 
L 411.4199 118.272801 
L 411.560858 117.738777 
L 412.12469 117.705042 
L 412.406606 117.705042 
L 412.547564 117.171018 
L 413.111396 117.137283 
L 413.393312 117.137283 
L 413.53427 116.603259 
L 414.098102 116.569523 
L 414.380018 116.569523 
L 414.520976 116.035499 
L 415.084808 116.001764 
L 415.366725 116.001764 
L 415.507683 115.46774 
L 416.071515 115.434005 
L 416.353431 115.434005 
L 416.494389 114.899981 
L 417.058221 114.866245 
L 417.340137 114.866245 
L 417.481095 114.332221 
L 418.044927 114.298486 
L 418.326843 114.298486 
L 418.467801 113.764462 
L 419.031633 113.730726 
L 419.31355 113.730726 
L 419.454508 113.196703 
L 419.595466 113.162967 
L 419.877382 112.36769 
L 420.159298 112.36769 
L 420.300256 111.833666 
L 420.864088 111.799931 
L 421.146004 111.799931 
L 421.286962 111.265907 
L 421.850794 111.232171 
L 422.13271 111.232171 
L 422.273668 110.698147 
L 422.8375 110.664412 
L 423.119416 110.664412 
L 423.260374 110.130388 
L 423.824207 110.096652 
L 424.106123 110.096652 
L 424.247081 109.562628 
L 424.810913 109.528893 
L 425.092829 109.528893 
L 425.233787 108.994869 
L 425.797619 108.961134 
L 426.079535 108.961134 
L 426.220493 108.42711 
L 426.784325 108.393374 
L 427.066241 108.393374 
L 427.207199 107.85935 
L 427.771032 107.825615 
L 428.052948 107.825615 
L 428.193906 107.291591 
L 428.757738 107.257856 
L 429.039654 107.257856 
L 429.180612 106.723832 
L 429.744444 106.690096 
L 430.02636 106.690096 
L 430.167318 106.156072 
L 430.308276 106.122337 
L 430.590192 105.32706 
L 430.872108 105.32706 
L 431.013066 104.793036 
L 431.576899 104.7593 
L 431.858815 104.7593 
L 431.999773 104.225276 
L 432.563605 104.191541 
L 432.845521 104.191541 
L 432.986479 103.657517 
L 433.550311 103.623782 
L 433.832227 103.623782 
L 433.973185 103.089758 
L 434.537017 103.056022 
L 434.818933 103.056022 
L 434.959891 102.521998 
L 435.523724 102.488263 
L 435.80564 102.488263 
L 435.946598 101.954239 
L 436.51043 101.920503 
L 436.792346 101.920503 
L 436.933304 101.386479 
L 437.497136 101.352744 
L 437.779052 101.352744 
L 437.92001 100.81872 
L 438.483842 100.784985 
L 438.765758 100.784985 
L 438.906716 100.250961 
L 439.470548 100.217225 
L 439.752465 100.217225 
L 439.893423 99.683201 
L 440.457255 99.649466 
L 440.739171 99.649466 
L 440.880129 99.115442 
L 441.021087 99.081707 
L 441.303003 98.286429 
L 441.584919 98.286429 
L 441.725877 97.752405 
L 442.289709 97.71867 
L 442.571625 97.71867 
L 442.712583 97.184646 
L 443.276415 97.150911 
L 443.558331 97.150911 
L 443.69929 96.616887 
L 444.263122 96.583151 
L 444.545038 96.583151 
L 444.685996 96.049127 
L 445.249828 96.015392 
L 445.531744 96.015392 
L 445.672702 95.481368 
L 446.236534 95.447633 
L 446.51845 95.447633 
L 446.659408 94.913609 
L 447.22324 94.879873 
L 447.505156 94.879873 
L 447.646114 94.345849 
L 448.209947 94.312114 
L 448.491863 94.312114 
L 448.632821 93.77809 
L 449.196653 93.744354 
L 449.478569 93.744354 
L 449.619527 93.21033 
L 450.183359 93.176595 
L 450.465275 93.176595 
L 450.606233 92.642571 
L 451.170065 92.608836 
L 451.451981 92.608836 
L 451.592939 92.074812 
L 451.733898 92.041076 
L 452.015814 91.245799 
L 452.29773 91.245799 
L 452.438688 90.711775 
L 453.00252 90.67804 
L 453.284436 90.67804 
L 453.425394 90.144016 
L 453.989226 90.11028 
L 454.271142 90.11028 
L 454.4121 89.576256 
L 454.975932 89.542521 
L 455.257848 89.542521 
L 455.398806 89.008497 
L 455.962639 88.974762 
L 456.244555 88.974762 
L 456.385513 88.440738 
L 456.949345 88.407002 
L 457.231261 88.407002 
L 457.372219 87.872978 
L 457.936051 87.839243 
L 458.217967 87.839243 
L 458.358925 87.305219 
L 458.922757 87.271484 
L 459.204673 87.271484 
L 459.345631 86.73746 
L 459.909464 86.703724 
L 460.19138 86.703724 
L 460.332338 86.1697 
L 460.89617 86.135965 
L 461.178086 86.135965 
L 461.319044 85.601941 
L 461.882876 85.568205 
L 462.164792 85.568205 
L 462.30575 85.034182 
L 462.446708 85.000446 
L 462.728624 84.205169 
L 463.01054 84.205169 
L 463.151498 83.671145 
L 463.71533 83.63741 
L 463.997247 83.63741 
L 464.138205 83.103386 
L 464.702037 83.06965 
L 464.983953 83.06965 
L 465.124911 82.535626 
L 465.688743 82.501891 
L 465.970659 82.501891 
L 466.111617 81.967867 
L 466.675449 81.934131 
L 466.957365 81.934131 
L 467.098323 81.400107 
L 467.662155 81.366372 
L 467.944071 81.366372 
L 468.08503 80.832348 
L 468.648862 80.798613 
L 468.930778 80.798613 
L 469.071736 80.264589 
L 469.635568 80.230853 
L 469.917484 80.230853 
L 470.058442 79.696829 
L 470.622274 79.663094 
L 470.90419 79.663094 
L 471.045148 79.12907 
L 471.60898 79.095335 
L 471.890896 79.095335 
L 472.031854 78.561311 
L 472.595687 78.527575 
L 472.877603 78.527575 
L 473.018561 77.993551 
L 473.159519 77.959816 
L 473.441435 77.164539 
L 473.723351 77.164539 
L 473.864309 76.630515 
L 474.428141 76.596779 
L 474.710057 76.596779 
L 474.851015 76.062755 
L 475.414847 76.02902 
L 475.696763 76.02902 
L 475.837721 75.494996 
L 476.401554 75.461261 
L 476.68347 75.461261 
L 476.824428 74.927237 
L 477.38826 74.893501 
L 477.670176 74.893501 
L 477.811134 74.359477 
L 478.374966 74.325742 
L 478.656882 74.325742 
L 478.79784 73.791718 
L 479.361672 73.757982 
L 479.643588 73.757982 
L 479.784546 73.223958 
L 480.348379 73.190223 
L 480.630295 73.190223 
L 480.771253 72.656199 
L 481.335085 72.622464 
L 481.617001 72.622464 
L 481.757959 72.08844 
L 482.321791 72.054704 
L 482.603707 72.054704 
L 482.744665 71.52068 
L 483.308497 71.486945 
L 483.590413 71.486945 
L 483.731371 70.952921 
L 483.872329 70.919186 
L 484.154245 70.123908 
L 484.436162 70.123908 
L 484.57712 69.589884 
L 485.140952 69.556149 
L 485.422868 69.556149 
L 485.563826 69.022125 
L 486.127658 68.98839 
L 486.409574 68.98839 
L 486.550532 68.454366 
L 487.114364 68.42063 
L 487.39628 68.42063 
L 487.537238 67.886606 
L 488.10107 67.852871 
L 488.382987 67.852871 
L 488.523945 67.318847 
L 489.087777 67.285112 
L 489.369693 67.285112 
L 489.510651 66.751088 
L 490.074483 66.717352 
L 490.356399 66.717352 
L 490.497357 66.183328 
L 491.061189 66.149593 
L 491.343105 66.149593 
L 491.484063 65.615569 
L 492.047895 65.581833 
L 492.329811 65.581833 
L 492.47077 65.047809 
L 493.034602 65.014074 
L 493.316518 65.014074 
L 493.457476 64.48005 
L 494.021308 64.446315 
L 494.303224 64.446315 
L 494.444182 63.912291 
L 494.58514 63.878555 
L 494.867056 63.083278 
L 495.148972 63.083278 
L 495.28993 62.549254 
L 495.853762 62.515519 
L 496.135678 62.515519 
L 496.276636 61.981495 
L 496.840469 61.947759 
L 497.122385 61.947759 
L 497.263343 61.413735 
L 497.827175 61.38 
L 498.109091 61.38 
L 498.109091 61.38 
" style="fill:none;stroke:#0000ff;stroke-dasharray:6.475,2.8;stroke-dashoffset:0;stroke-width:1.75;"/>
   </g>
   <g id="patch_3">
    <path d="M 72 352.44 
L 72 47.52 
" style="fill:none;"/>
   </g>
   <g id="patch_4">
    <path d="M 518.4 352.44 
L 518.4 47.52 
" style="fill:none;"/>
   </g>
   <g id="patch_5">
    <path d="M 72 352.44 
L 518.4 352.44 
" style="fill:none;"/>
   </g>
   <g id="patch_6">
    <path d="M 72 47.52 
L 518.4 47.52 
" style="fill:none;"/>
   </g>
   <g id="text_15">
    <!-- 24 Hour HVAC Cost -->
    <defs>
     <path d="M 8.015625 0 
L 8.015625 71.578125 
L 17.484375 71.578125 
L 17.484375 42.1875 
L 54.6875 42.1875 
L 54.6875 71.578125 
L 64.15625 71.578125 
L 64.15625 0 
L 54.6875 0 
L 54.6875 33.734375 
L 17.484375 33.734375 
L 17.484375 0 
z
" id="ArialMT-72"/>
     <path d="M 40.578125 0 
L 40.578125 7.625 
Q 34.515625 -1.171875 24.125 -1.171875 
Q 19.53125 -1.171875 15.546875 0.578125 
Q 11.578125 2.34375 9.640625 5 
Q 7.71875 7.671875 6.9375 11.53125 
Q 6.390625 14.109375 6.390625 19.734375 
L 6.390625 51.859375 
L 15.1875 51.859375 
L 15.1875 23.09375 
Q 15.1875 16.21875 15.71875 13.8125 
Q 16.546875 10.359375 19.234375 8.375 
Q 21.921875 6.390625 25.875 6.390625 
Q 29.828125 6.390625 33.296875 8.421875 
Q 36.765625 10.453125 38.203125 13.9375 
Q 39.65625 17.4375 39.65625 24.078125 
L 39.65625 51.859375 
L 48.4375 51.859375 
L 48.4375 0 
z
" id="ArialMT-117"/>
     <path d="M 6.5 0 
L 6.5 51.859375 
L 14.40625 51.859375 
L 14.40625 44 
Q 17.4375 49.515625 20 51.265625 
Q 22.5625 53.03125 25.640625 53.03125 
Q 30.078125 53.03125 34.671875 50.203125 
L 31.640625 42.046875 
Q 28.421875 43.953125 25.203125 43.953125 
Q 22.3125 43.953125 20.015625 42.21875 
Q 17.71875 40.484375 16.75 37.40625 
Q 15.28125 32.71875 15.28125 27.15625 
L 15.28125 0 
z
" id="ArialMT-114"/>
     <path d="M 28.171875 0 
L 0.4375 71.578125 
L 10.6875 71.578125 
L 29.296875 19.578125 
Q 31.546875 13.328125 33.0625 7.859375 
Q 34.71875 13.71875 36.921875 19.578125 
L 56.25 71.578125 
L 65.921875 71.578125 
L 37.890625 0 
z
" id="ArialMT-86"/>
     <path d="M -0.140625 0 
L 27.34375 71.578125 
L 37.546875 71.578125 
L 66.84375 0 
L 56.0625 0 
L 47.703125 21.6875 
L 17.78125 21.6875 
L 9.90625 0 
z
M 20.515625 29.390625 
L 44.78125 29.390625 
L 37.3125 49.21875 
Q 33.890625 58.25 32.234375 64.0625 
Q 30.859375 57.171875 28.375 50.390625 
z
" id="ArialMT-65"/>
    </defs>
    <g style="fill:#262626;" transform="translate(205.735937 41.52)scale(0.2 -0.2)">
     <use xlink:href="#ArialMT-50"/>
     <use x="55.615234" xlink:href="#ArialMT-52"/>
     <use x="111.230469" xlink:href="#ArialMT-32"/>
     <use x="139.013672" xlink:href="#ArialMT-72"/>
     <use x="211.230469" xlink:href="#ArialMT-111"/>
     <use x="266.845703" xlink:href="#ArialMT-117"/>
     <use x="322.460938" xlink:href="#ArialMT-114"/>
     <use x="355.761719" xlink:href="#ArialMT-32"/>
     <use x="383.544922" xlink:href="#ArialMT-72"/>
     <use x="455.761719" xlink:href="#ArialMT-86"/>
     <use x="522.351562" xlink:href="#ArialMT-65"/>
     <use x="589.050781" xlink:href="#ArialMT-67"/>
     <use x="661.267578" xlink:href="#ArialMT-32"/>
     <use x="689.050781" xlink:href="#ArialMT-67"/>
     <use x="761.267578" xlink:href="#ArialMT-111"/>
     <use x="816.882812" xlink:href="#ArialMT-115"/>
     <use x="866.882812" xlink:href="#ArialMT-116"/>
    </g>
   </g>
   <g id="legend_1">
    <g id="line2d_27">
     <path d="M 339.145312 323.807187 
L 359.145312 323.807187 
" style="fill:none;stroke:#8172b2;stroke-linecap:round;stroke-width:1.75;"/>
    </g>
    <g id="line2d_28"/>
    <g id="text_16">
     <!-- RL Total Cost -->
     <defs>
      <path d="M 7.859375 0 
L 7.859375 71.578125 
L 39.59375 71.578125 
Q 49.171875 71.578125 54.140625 69.640625 
Q 59.125 67.71875 62.109375 62.828125 
Q 65.09375 57.953125 65.09375 52.046875 
Q 65.09375 44.4375 60.15625 39.203125 
Q 55.21875 33.984375 44.921875 32.5625 
Q 48.6875 30.765625 50.640625 29 
Q 54.78125 25.203125 58.5 19.484375 
L 70.953125 0 
L 59.03125 0 
L 49.5625 14.890625 
Q 45.40625 21.34375 42.71875 24.75 
Q 40.046875 28.171875 37.921875 29.53125 
Q 35.796875 30.90625 33.59375 31.453125 
Q 31.984375 31.78125 28.328125 31.78125 
L 17.328125 31.78125 
L 17.328125 0 
z
M 17.328125 39.984375 
L 37.703125 39.984375 
Q 44.1875 39.984375 47.84375 41.328125 
Q 51.515625 42.671875 53.421875 45.625 
Q 55.328125 48.578125 55.328125 52.046875 
Q 55.328125 57.125 51.640625 60.390625 
Q 47.953125 63.671875 39.984375 63.671875 
L 17.328125 63.671875 
z
" id="ArialMT-82"/>
      <path d="M 7.328125 0 
L 7.328125 71.578125 
L 16.796875 71.578125 
L 16.796875 8.453125 
L 52.046875 8.453125 
L 52.046875 0 
z
" id="ArialMT-76"/>
      <path d="M 6.390625 0 
L 6.390625 71.578125 
L 15.1875 71.578125 
L 15.1875 0 
z
" id="ArialMT-108"/>
     </defs>
     <g style="fill:#262626;" transform="translate(367.145312 327.307187)scale(0.1 -0.1)">
      <use xlink:href="#ArialMT-82"/>
      <use x="72.216797" xlink:href="#ArialMT-76"/>
      <use x="127.785156" xlink:href="#ArialMT-32"/>
      <use x="155.552734" xlink:href="#ArialMT-84"/>
      <use x="216.464844" xlink:href="#ArialMT-111"/>
      <use x="272.080078" xlink:href="#ArialMT-116"/>
      <use x="299.863281" xlink:href="#ArialMT-97"/>
      <use x="355.478516" xlink:href="#ArialMT-108"/>
      <use x="377.695312" xlink:href="#ArialMT-32"/>
      <use x="405.478516" xlink:href="#ArialMT-67"/>
      <use x="477.695312" xlink:href="#ArialMT-111"/>
      <use x="533.310547" xlink:href="#ArialMT-115"/>
      <use x="583.310547" xlink:href="#ArialMT-116"/>
     </g>
    </g>
    <g id="line2d_29">
     <path d="M 339.145312 337.9525 
L 359.145312 337.9525 
" style="fill:none;stroke:#0000ff;stroke-dasharray:6.475,2.8;stroke-dashoffset:0;stroke-width:1.75;"/>
    </g>
    <g id="line2d_30"/>
    <g id="text_17">
     <!-- Standard Thermostat Total Cost -->
     <defs>
      <path d="M 6.59375 0 
L 6.59375 51.859375 
L 14.5 51.859375 
L 14.5 44.484375 
Q 20.21875 53.03125 31 53.03125 
Q 35.6875 53.03125 39.625 51.34375 
Q 43.5625 49.65625 45.515625 46.921875 
Q 47.46875 44.1875 48.25 40.4375 
Q 48.734375 37.984375 48.734375 31.890625 
L 48.734375 0 
L 39.9375 0 
L 39.9375 31.546875 
Q 39.9375 36.921875 38.90625 39.578125 
Q 37.890625 42.234375 35.28125 43.8125 
Q 32.671875 45.40625 29.15625 45.40625 
Q 23.53125 45.40625 19.453125 41.84375 
Q 15.375 38.28125 15.375 28.328125 
L 15.375 0 
z
" id="ArialMT-110"/>
      <path d="M 6.59375 0 
L 6.59375 71.578125 
L 15.375 71.578125 
L 15.375 45.90625 
Q 21.53125 53.03125 30.90625 53.03125 
Q 36.671875 53.03125 40.921875 50.75 
Q 45.171875 48.484375 47 44.484375 
Q 48.828125 40.484375 48.828125 32.859375 
L 48.828125 0 
L 40.046875 0 
L 40.046875 32.859375 
Q 40.046875 39.453125 37.1875 42.453125 
Q 34.328125 45.453125 29.109375 45.453125 
Q 25.203125 45.453125 21.75 43.421875 
Q 18.3125 41.40625 16.84375 37.9375 
Q 15.375 34.46875 15.375 28.375 
L 15.375 0 
z
" id="ArialMT-104"/>
     </defs>
     <g style="fill:#262626;" transform="translate(367.145312 341.4525)scale(0.1 -0.1)">
      <use xlink:href="#ArialMT-83"/>
      <use x="66.699219" xlink:href="#ArialMT-116"/>
      <use x="94.482422" xlink:href="#ArialMT-97"/>
      <use x="150.097656" xlink:href="#ArialMT-110"/>
      <use x="205.712891" xlink:href="#ArialMT-100"/>
      <use x="261.328125" xlink:href="#ArialMT-97"/>
      <use x="316.943359" xlink:href="#ArialMT-114"/>
      <use x="350.244141" xlink:href="#ArialMT-100"/>
      <use x="405.859375" xlink:href="#ArialMT-32"/>
      <use x="433.626953" xlink:href="#ArialMT-84"/>
      <use x="494.710938" xlink:href="#ArialMT-104"/>
      <use x="550.326172" xlink:href="#ArialMT-101"/>
      <use x="605.941406" xlink:href="#ArialMT-114"/>
      <use x="639.242188" xlink:href="#ArialMT-109"/>
      <use x="722.542969" xlink:href="#ArialMT-111"/>
      <use x="778.158203" xlink:href="#ArialMT-115"/>
      <use x="828.158203" xlink:href="#ArialMT-116"/>
      <use x="855.941406" xlink:href="#ArialMT-97"/>
      <use x="911.556641" xlink:href="#ArialMT-116"/>
      <use x="939.339844" xlink:href="#ArialMT-32"/>
      <use x="967.107422" xlink:href="#ArialMT-84"/>
      <use x="1028.019531" xlink:href="#ArialMT-111"/>
      <use x="1083.634766" xlink:href="#ArialMT-116"/>
      <use x="1111.417969" xlink:href="#ArialMT-97"/>
      <use x="1167.033203" xlink:href="#ArialMT-108"/>
      <use x="1189.25" xlink:href="#ArialMT-32"/>
      <use x="1217.033203" xlink:href="#ArialMT-67"/>
      <use x="1289.25" xlink:href="#ArialMT-111"/>
      <use x="1344.865234" xlink:href="#ArialMT-115"/>
      <use x="1394.865234" xlink:href="#ArialMT-116"/>
     </g>
    </g>
   </g>
  </g>
 </g>
 <defs>
  <clipPath id="pf800394850">
   <rect height="304.92" width="446.4" x="72" y="47.52"/>
  </clipPath>
 </defs>
</svg>
