<?xml version="1.0" encoding="utf-8" standalone="no"?>
<!DOCTYPE svg PUBLIC "-//W3C//DTD SVG 1.1//EN"
  "http://www.w3.org/Graphics/SVG/1.1/DTD/svg11.dtd">
<!-- Created with matplotlib (https://matplotlib.org/) -->
<svg height="396pt" version="1.1" viewBox="0 0 576 396" width="576pt" xmlns="http://www.w3.org/2000/svg" xmlns:xlink="http://www.w3.org/1999/xlink">
 <defs>
  <style type="text/css">
*{stroke-linecap:butt;stroke-linejoin:round;}
  </style>
 </defs>
 <g id="figure_1">
  <g id="patch_1">
   <path d="M 0 396 
L 576 396 
L 576 0 
L 0 0 
z
" style="fill:#ffffff;"/>
  </g>
  <g id="axes_1">
   <g id="patch_2">
    <path d="M 72 352.44 
L 518.4 352.44 
L 518.4 47.52 
L 72 47.52 
z
" style="fill:#eaeaf2;"/>
   </g>
   <g id="matplotlib.axis_1">
    <g id="xtick_1">
     <g id="line2d_1">
      <path clip-path="url(#pfbf5e311f4)" d="M 92.290909 352.44 
L 92.290909 47.52 
" style="fill:none;stroke:#ffffff;stroke-linecap:round;"/>
     </g>
     <g id="line2d_2"/>
     <g id="text_1">
      <!-- 0:00:00 -->
      <defs>
       <path d="M 4.15625 35.296875 
Q 4.15625 48 6.765625 55.734375 
Q 9.375 63.484375 14.515625 67.671875 
Q 19.671875 71.875 27.484375 71.875 
Q 33.25 71.875 37.59375 69.546875 
Q 41.9375 67.234375 44.765625 62.859375 
Q 47.609375 58.5 49.21875 52.21875 
Q 50.828125 45.953125 50.828125 35.296875 
Q 50.828125 22.703125 48.234375 14.96875 
Q 45.65625 7.234375 40.5 3 
Q 35.359375 -1.21875 27.484375 -1.21875 
Q 17.140625 -1.21875 11.234375 6.203125 
Q 4.15625 15.140625 4.15625 35.296875 
z
M 13.1875 35.296875 
Q 13.1875 17.671875 17.3125 11.828125 
Q 21.4375 6 27.484375 6 
Q 33.546875 6 37.671875 11.859375 
Q 41.796875 17.71875 41.796875 35.296875 
Q 41.796875 52.984375 37.671875 58.78125 
Q 33.546875 64.59375 27.390625 64.59375 
Q 21.34375 64.59375 17.71875 59.46875 
Q 13.1875 52.9375 13.1875 35.296875 
z
" id="ArialMT-48"/>
       <path d="M 9.03125 41.84375 
L 9.03125 51.859375 
L 19.046875 51.859375 
L 19.046875 41.84375 
z
M 9.03125 0 
L 9.03125 10.015625 
L 19.046875 10.015625 
L 19.046875 0 
z
" id="ArialMT-58"/>
      </defs>
      <g style="fill:#262626;" transform="translate(75.61044 366.597813)scale(0.1 -0.1)">
       <use xlink:href="#ArialMT-48"/>
       <use x="55.615234" xlink:href="#ArialMT-58"/>
       <use x="83.398438" xlink:href="#ArialMT-48"/>
       <use x="139.013672" xlink:href="#ArialMT-48"/>
       <use x="194.628906" xlink:href="#ArialMT-58"/>
       <use x="222.412109" xlink:href="#ArialMT-48"/>
       <use x="278.027344" xlink:href="#ArialMT-48"/>
      </g>
     </g>
    </g>
    <g id="xtick_2">
     <g id="line2d_3">
      <path clip-path="url(#pfbf5e311f4)" d="M 186.262932 352.44 
L 186.262932 47.52 
" style="fill:none;stroke:#ffffff;stroke-linecap:round;"/>
     </g>
     <g id="line2d_4"/>
     <g id="text_2">
      <!-- 5:33:20 -->
      <defs>
       <path d="M 4.15625 18.75 
L 13.375 19.53125 
Q 14.40625 12.796875 18.140625 9.390625 
Q 21.875 6 27.15625 6 
Q 33.5 6 37.890625 10.78125 
Q 42.28125 15.578125 42.28125 23.484375 
Q 42.28125 31 38.0625 35.34375 
Q 33.84375 39.703125 27 39.703125 
Q 22.75 39.703125 19.328125 37.765625 
Q 15.921875 35.84375 13.96875 32.765625 
L 5.71875 33.84375 
L 12.640625 70.609375 
L 48.25 70.609375 
L 48.25 62.203125 
L 19.671875 62.203125 
L 15.828125 42.96875 
Q 22.265625 47.46875 29.34375 47.46875 
Q 38.71875 47.46875 45.15625 40.96875 
Q 51.609375 34.46875 51.609375 24.265625 
Q 51.609375 14.546875 45.953125 7.46875 
Q 39.0625 -1.21875 27.15625 -1.21875 
Q 17.390625 -1.21875 11.203125 4.25 
Q 5.03125 9.71875 4.15625 18.75 
z
" id="ArialMT-53"/>
       <path d="M 4.203125 18.890625 
L 12.984375 20.0625 
Q 14.5 12.59375 18.140625 9.296875 
Q 21.78125 6 27 6 
Q 33.203125 6 37.46875 10.296875 
Q 41.75 14.59375 41.75 20.953125 
Q 41.75 27 37.796875 30.921875 
Q 33.84375 34.859375 27.734375 34.859375 
Q 25.25 34.859375 21.53125 33.890625 
L 22.515625 41.609375 
Q 23.390625 41.5 23.921875 41.5 
Q 29.546875 41.5 34.03125 44.421875 
Q 38.53125 47.359375 38.53125 53.46875 
Q 38.53125 58.296875 35.25 61.46875 
Q 31.984375 64.65625 26.8125 64.65625 
Q 21.6875 64.65625 18.265625 61.421875 
Q 14.84375 58.203125 13.875 51.765625 
L 5.078125 53.328125 
Q 6.6875 62.15625 12.390625 67.015625 
Q 18.109375 71.875 26.609375 71.875 
Q 32.46875 71.875 37.390625 69.359375 
Q 42.328125 66.84375 44.9375 62.5 
Q 47.5625 58.15625 47.5625 53.265625 
Q 47.5625 48.640625 45.0625 44.828125 
Q 42.578125 41.015625 37.703125 38.765625 
Q 44.046875 37.3125 47.5625 32.6875 
Q 51.078125 28.078125 51.078125 21.140625 
Q 51.078125 11.765625 44.234375 5.25 
Q 37.40625 -1.265625 26.953125 -1.265625 
Q 17.53125 -1.265625 11.296875 4.34375 
Q 5.078125 9.96875 4.203125 18.890625 
z
" id="ArialMT-51"/>
       <path d="M 50.34375 8.453125 
L 50.34375 0 
L 3.03125 0 
Q 2.9375 3.171875 4.046875 6.109375 
Q 5.859375 10.9375 9.828125 15.625 
Q 13.8125 20.3125 21.34375 26.46875 
Q 33.015625 36.03125 37.109375 41.625 
Q 41.21875 47.21875 41.21875 52.203125 
Q 41.21875 57.421875 37.46875 61 
Q 33.734375 64.59375 27.734375 64.59375 
Q 21.390625 64.59375 17.578125 60.78125 
Q 13.765625 56.984375 13.71875 50.25 
L 4.6875 51.171875 
Q 5.609375 61.28125 11.65625 66.578125 
Q 17.71875 71.875 27.9375 71.875 
Q 38.234375 71.875 44.234375 66.15625 
Q 50.25 60.453125 50.25 52 
Q 50.25 47.703125 48.484375 43.546875 
Q 46.734375 39.40625 42.65625 34.8125 
Q 38.578125 30.21875 29.109375 22.21875 
Q 21.1875 15.578125 18.9375 13.203125 
Q 16.703125 10.84375 15.234375 8.453125 
z
" id="ArialMT-50"/>
      </defs>
      <g style="fill:#262626;" transform="translate(169.582463 366.597813)scale(0.1 -0.1)">
       <use xlink:href="#ArialMT-53"/>
       <use x="55.615234" xlink:href="#ArialMT-58"/>
       <use x="83.398438" xlink:href="#ArialMT-51"/>
       <use x="139.013672" xlink:href="#ArialMT-51"/>
       <use x="194.628906" xlink:href="#ArialMT-58"/>
       <use x="222.412109" xlink:href="#ArialMT-50"/>
       <use x="278.027344" xlink:href="#ArialMT-48"/>
      </g>
     </g>
    </g>
    <g id="xtick_3">
     <g id="line2d_5">
      <path clip-path="url(#pfbf5e311f4)" d="M 280.234955 352.44 
L 280.234955 47.52 
" style="fill:none;stroke:#ffffff;stroke-linecap:round;"/>
     </g>
     <g id="line2d_6"/>
     <g id="text_3">
      <!-- 11:06:40 -->
      <defs>
       <path d="M 37.25 0 
L 28.46875 0 
L 28.46875 56 
Q 25.296875 52.984375 20.140625 49.953125 
Q 14.984375 46.921875 10.890625 45.40625 
L 10.890625 53.90625 
Q 18.265625 57.375 23.78125 62.296875 
Q 29.296875 67.234375 31.59375 71.875 
L 37.25 71.875 
z
" id="ArialMT-49"/>
       <path d="M 49.75 54.046875 
L 41.015625 53.375 
Q 39.84375 58.546875 37.703125 60.890625 
Q 34.125 64.65625 28.90625 64.65625 
Q 24.703125 64.65625 21.53125 62.3125 
Q 17.390625 59.28125 14.984375 53.46875 
Q 12.59375 47.65625 12.5 36.921875 
Q 15.671875 41.75 20.265625 44.09375 
Q 24.859375 46.4375 29.890625 46.4375 
Q 38.671875 46.4375 44.84375 39.96875 
Q 51.03125 33.5 51.03125 23.25 
Q 51.03125 16.5 48.125 10.71875 
Q 45.21875 4.9375 40.140625 1.859375 
Q 35.0625 -1.21875 28.609375 -1.21875 
Q 17.625 -1.21875 10.6875 6.859375 
Q 3.765625 14.9375 3.765625 33.5 
Q 3.765625 54.25 11.421875 63.671875 
Q 18.109375 71.875 29.4375 71.875 
Q 37.890625 71.875 43.28125 67.140625 
Q 48.6875 62.40625 49.75 54.046875 
z
M 13.875 23.1875 
Q 13.875 18.65625 15.796875 14.5 
Q 17.71875 10.359375 21.1875 8.171875 
Q 24.65625 6 28.46875 6 
Q 34.03125 6 38.03125 10.484375 
Q 42.046875 14.984375 42.046875 22.703125 
Q 42.046875 30.125 38.078125 34.390625 
Q 34.125 38.671875 28.125 38.671875 
Q 22.171875 38.671875 18.015625 34.390625 
Q 13.875 30.125 13.875 23.1875 
z
" id="ArialMT-54"/>
       <path d="M 32.328125 0 
L 32.328125 17.140625 
L 1.265625 17.140625 
L 1.265625 25.203125 
L 33.9375 71.578125 
L 41.109375 71.578125 
L 41.109375 25.203125 
L 50.78125 25.203125 
L 50.78125 17.140625 
L 41.109375 17.140625 
L 41.109375 0 
z
M 32.328125 25.203125 
L 32.328125 57.46875 
L 9.90625 25.203125 
z
" id="ArialMT-52"/>
      </defs>
      <g style="fill:#262626;" transform="translate(260.779487 366.597813)scale(0.1 -0.1)">
       <use xlink:href="#ArialMT-49"/>
       <use x="55.505859" xlink:href="#ArialMT-49"/>
       <use x="111.121094" xlink:href="#ArialMT-58"/>
       <use x="138.904297" xlink:href="#ArialMT-48"/>
       <use x="194.519531" xlink:href="#ArialMT-54"/>
       <use x="250.134766" xlink:href="#ArialMT-58"/>
       <use x="277.917969" xlink:href="#ArialMT-52"/>
       <use x="333.533203" xlink:href="#ArialMT-48"/>
      </g>
     </g>
    </g>
    <g id="xtick_4">
     <g id="line2d_7">
      <path clip-path="url(#pfbf5e311f4)" d="M 374.206978 352.44 
L 374.206978 47.52 
" style="fill:none;stroke:#ffffff;stroke-linecap:round;"/>
     </g>
     <g id="line2d_8"/>
     <g id="text_4">
      <!-- 16:40:00 -->
      <g style="fill:#262626;" transform="translate(354.746041 366.597813)scale(0.1 -0.1)">
       <use xlink:href="#ArialMT-49"/>
       <use x="55.615234" xlink:href="#ArialMT-54"/>
       <use x="111.230469" xlink:href="#ArialMT-58"/>
       <use x="139.013672" xlink:href="#ArialMT-52"/>
       <use x="194.628906" xlink:href="#ArialMT-48"/>
       <use x="250.244141" xlink:href="#ArialMT-58"/>
       <use x="278.027344" xlink:href="#ArialMT-48"/>
       <use x="333.642578" xlink:href="#ArialMT-48"/>
      </g>
     </g>
    </g>
    <g id="xtick_5">
     <g id="line2d_9">
      <path clip-path="url(#pfbf5e311f4)" d="M 468.179002 352.44 
L 468.179002 47.52 
" style="fill:none;stroke:#ffffff;stroke-linecap:round;"/>
     </g>
     <g id="line2d_10"/>
     <g id="text_5">
      <!-- 22:13:20 -->
      <g style="fill:#262626;" transform="translate(448.718064 366.597813)scale(0.1 -0.1)">
       <use xlink:href="#ArialMT-50"/>
       <use x="55.615234" xlink:href="#ArialMT-50"/>
       <use x="111.230469" xlink:href="#ArialMT-58"/>
       <use x="139.013672" xlink:href="#ArialMT-49"/>
       <use x="194.628906" xlink:href="#ArialMT-51"/>
       <use x="250.244141" xlink:href="#ArialMT-58"/>
       <use x="278.027344" xlink:href="#ArialMT-50"/>
       <use x="333.642578" xlink:href="#ArialMT-48"/>
      </g>
     </g>
    </g>
    <g id="text_6">
     <!-- Time of day -->
     <defs>
      <path d="M 25.921875 0 
L 25.921875 63.140625 
L 2.34375 63.140625 
L 2.34375 71.578125 
L 59.078125 71.578125 
L 59.078125 63.140625 
L 35.40625 63.140625 
L 35.40625 0 
z
" id="ArialMT-84"/>
      <path d="M 6.640625 61.46875 
L 6.640625 71.578125 
L 15.4375 71.578125 
L 15.4375 61.46875 
z
M 6.640625 0 
L 6.640625 51.859375 
L 15.4375 51.859375 
L 15.4375 0 
z
" id="ArialMT-105"/>
      <path d="M 6.59375 0 
L 6.59375 51.859375 
L 14.453125 51.859375 
L 14.453125 44.578125 
Q 16.890625 48.390625 20.9375 50.703125 
Q 25 53.03125 30.171875 53.03125 
Q 35.9375 53.03125 39.625 50.640625 
Q 43.3125 48.25 44.828125 43.953125 
Q 50.984375 53.03125 60.84375 53.03125 
Q 68.5625 53.03125 72.703125 48.75 
Q 76.859375 44.484375 76.859375 35.59375 
L 76.859375 0 
L 68.109375 0 
L 68.109375 32.671875 
Q 68.109375 37.9375 67.25 40.25 
Q 66.40625 42.578125 64.15625 43.984375 
Q 61.921875 45.40625 58.890625 45.40625 
Q 53.421875 45.40625 49.796875 41.765625 
Q 46.1875 38.140625 46.1875 30.125 
L 46.1875 0 
L 37.40625 0 
L 37.40625 33.6875 
Q 37.40625 39.546875 35.25 42.46875 
Q 33.109375 45.40625 28.21875 45.40625 
Q 24.515625 45.40625 21.359375 43.453125 
Q 18.21875 41.5 16.796875 37.734375 
Q 15.375 33.984375 15.375 26.90625 
L 15.375 0 
z
" id="ArialMT-109"/>
      <path d="M 42.09375 16.703125 
L 51.171875 15.578125 
Q 49.03125 7.625 43.21875 3.21875 
Q 37.40625 -1.171875 28.375 -1.171875 
Q 17 -1.171875 10.328125 5.828125 
Q 3.65625 12.84375 3.65625 25.484375 
Q 3.65625 38.578125 10.390625 45.796875 
Q 17.140625 53.03125 27.875 53.03125 
Q 38.28125 53.03125 44.875 45.953125 
Q 51.46875 38.875 51.46875 26.03125 
Q 51.46875 25.25 51.421875 23.6875 
L 12.75 23.6875 
Q 13.234375 15.140625 17.578125 10.59375 
Q 21.921875 6.0625 28.421875 6.0625 
Q 33.25 6.0625 36.671875 8.59375 
Q 40.09375 11.140625 42.09375 16.703125 
z
M 13.234375 30.90625 
L 42.1875 30.90625 
Q 41.609375 37.453125 38.875 40.71875 
Q 34.671875 45.796875 27.984375 45.796875 
Q 21.921875 45.796875 17.796875 41.75 
Q 13.671875 37.703125 13.234375 30.90625 
z
" id="ArialMT-101"/>
      <path id="ArialMT-32"/>
      <path d="M 3.328125 25.921875 
Q 3.328125 40.328125 11.328125 47.265625 
Q 18.015625 53.03125 27.640625 53.03125 
Q 38.328125 53.03125 45.109375 46.015625 
Q 51.90625 39.015625 51.90625 26.65625 
Q 51.90625 16.65625 48.90625 10.90625 
Q 45.90625 5.171875 40.15625 2 
Q 34.421875 -1.171875 27.640625 -1.171875 
Q 16.75 -1.171875 10.03125 5.8125 
Q 3.328125 12.796875 3.328125 25.921875 
z
M 12.359375 25.921875 
Q 12.359375 15.96875 16.703125 11.015625 
Q 21.046875 6.0625 27.640625 6.0625 
Q 34.1875 6.0625 38.53125 11.03125 
Q 42.875 16.015625 42.875 26.21875 
Q 42.875 35.84375 38.5 40.796875 
Q 34.125 45.75 27.640625 45.75 
Q 21.046875 45.75 16.703125 40.8125 
Q 12.359375 35.890625 12.359375 25.921875 
z
" id="ArialMT-111"/>
      <path d="M 8.6875 0 
L 8.6875 45.015625 
L 0.921875 45.015625 
L 0.921875 51.859375 
L 8.6875 51.859375 
L 8.6875 57.375 
Q 8.6875 62.59375 9.625 65.140625 
Q 10.890625 68.5625 14.078125 70.671875 
Q 17.28125 72.796875 23.046875 72.796875 
Q 26.765625 72.796875 31.25 71.921875 
L 29.9375 64.265625 
Q 27.203125 64.75 24.75 64.75 
Q 20.75 64.75 19.09375 63.03125 
Q 17.4375 61.328125 17.4375 56.640625 
L 17.4375 51.859375 
L 27.546875 51.859375 
L 27.546875 45.015625 
L 17.4375 45.015625 
L 17.4375 0 
z
" id="ArialMT-102"/>
      <path d="M 40.234375 0 
L 40.234375 6.546875 
Q 35.296875 -1.171875 25.734375 -1.171875 
Q 19.53125 -1.171875 14.328125 2.25 
Q 9.125 5.671875 6.265625 11.796875 
Q 3.421875 17.921875 3.421875 25.875 
Q 3.421875 33.640625 6 39.96875 
Q 8.59375 46.296875 13.765625 49.65625 
Q 18.953125 53.03125 25.34375 53.03125 
Q 30.03125 53.03125 33.6875 51.046875 
Q 37.359375 49.078125 39.65625 45.90625 
L 39.65625 71.578125 
L 48.390625 71.578125 
L 48.390625 0 
z
M 12.453125 25.875 
Q 12.453125 15.921875 16.640625 10.984375 
Q 20.84375 6.0625 26.5625 6.0625 
Q 32.328125 6.0625 36.34375 10.765625 
Q 40.375 15.484375 40.375 25.140625 
Q 40.375 35.796875 36.265625 40.765625 
Q 32.171875 45.75 26.171875 45.75 
Q 20.3125 45.75 16.375 40.96875 
Q 12.453125 36.1875 12.453125 25.875 
z
" id="ArialMT-100"/>
      <path d="M 40.4375 6.390625 
Q 35.546875 2.25 31.03125 0.53125 
Q 26.515625 -1.171875 21.34375 -1.171875 
Q 12.796875 -1.171875 8.203125 3 
Q 3.609375 7.171875 3.609375 13.671875 
Q 3.609375 17.484375 5.34375 20.625 
Q 7.078125 23.78125 9.890625 25.6875 
Q 12.703125 27.59375 16.21875 28.5625 
Q 18.796875 29.25 24.03125 29.890625 
Q 34.671875 31.15625 39.703125 32.90625 
Q 39.75 34.71875 39.75 35.203125 
Q 39.75 40.578125 37.25 42.78125 
Q 33.890625 45.75 27.25 45.75 
Q 21.046875 45.75 18.09375 43.578125 
Q 15.140625 41.40625 13.71875 35.890625 
L 5.125 37.0625 
Q 6.296875 42.578125 8.984375 45.96875 
Q 11.671875 49.359375 16.75 51.1875 
Q 21.828125 53.03125 28.515625 53.03125 
Q 35.15625 53.03125 39.296875 51.46875 
Q 43.453125 49.90625 45.40625 47.53125 
Q 47.359375 45.171875 48.140625 41.546875 
Q 48.578125 39.3125 48.578125 33.453125 
L 48.578125 21.734375 
Q 48.578125 9.46875 49.140625 6.21875 
Q 49.703125 2.984375 51.375 0 
L 42.1875 0 
Q 40.828125 2.734375 40.4375 6.390625 
z
M 39.703125 26.03125 
Q 34.90625 24.078125 25.34375 22.703125 
Q 19.921875 21.921875 17.671875 20.9375 
Q 15.4375 19.96875 14.203125 18.09375 
Q 12.984375 16.21875 12.984375 13.921875 
Q 12.984375 10.40625 15.640625 8.0625 
Q 18.3125 5.71875 23.4375 5.71875 
Q 28.515625 5.71875 32.46875 7.9375 
Q 36.421875 10.15625 38.28125 14.015625 
Q 39.703125 17 39.703125 22.796875 
z
" id="ArialMT-97"/>
      <path d="M 6.203125 -19.96875 
L 5.21875 -11.71875 
Q 8.109375 -12.5 10.25 -12.5 
Q 13.1875 -12.5 14.9375 -11.515625 
Q 16.703125 -10.546875 17.828125 -8.796875 
Q 18.65625 -7.46875 20.515625 -2.25 
Q 20.75 -1.515625 21.296875 -0.09375 
L 1.609375 51.859375 
L 11.078125 51.859375 
L 21.875 21.828125 
Q 23.96875 16.109375 25.640625 9.8125 
Q 27.15625 15.875 29.25 21.625 
L 40.328125 51.859375 
L 49.125 51.859375 
L 29.390625 -0.875 
Q 26.21875 -9.421875 24.46875 -12.640625 
Q 22.125 -17 19.09375 -19.015625 
Q 16.0625 -21.046875 11.859375 -21.046875 
Q 9.328125 -21.046875 6.203125 -19.96875 
z
" id="ArialMT-121"/>
     </defs>
     <g style="fill:#262626;" transform="translate(248.190469 385.68875)scale(0.18 -0.18)">
      <use xlink:href="#ArialMT-84"/>
      <use x="61.037109" xlink:href="#ArialMT-105"/>
      <use x="83.253906" xlink:href="#ArialMT-109"/>
      <use x="166.554688" xlink:href="#ArialMT-101"/>
      <use x="222.169922" xlink:href="#ArialMT-32"/>
      <use x="249.953125" xlink:href="#ArialMT-111"/>
      <use x="305.568359" xlink:href="#ArialMT-102"/>
      <use x="333.351562" xlink:href="#ArialMT-32"/>
      <use x="361.134766" xlink:href="#ArialMT-100"/>
      <use x="416.75" xlink:href="#ArialMT-97"/>
      <use x="472.365234" xlink:href="#ArialMT-121"/>
     </g>
    </g>
   </g>
   <g id="matplotlib.axis_2">
    <g id="ytick_1">
     <g id="line2d_11">
      <path clip-path="url(#pfbf5e311f4)" d="M 72 338.58 
L 518.4 338.58 
" style="fill:none;stroke:#ffffff;stroke-linecap:round;"/>
     </g>
     <g id="line2d_12"/>
     <g id="text_7">
      <!-- 0.0 -->
      <defs>
       <path d="M 9.078125 0 
L 9.078125 10.015625 
L 19.09375 10.015625 
L 19.09375 0 
z
" id="ArialMT-46"/>
      </defs>
      <g style="fill:#262626;" transform="translate(51.1 342.158906)scale(0.1 -0.1)">
       <use xlink:href="#ArialMT-48"/>
       <use x="55.615234" xlink:href="#ArialMT-46"/>
       <use x="83.398438" xlink:href="#ArialMT-48"/>
      </g>
     </g>
    </g>
    <g id="ytick_2">
     <g id="line2d_13">
      <path clip-path="url(#pfbf5e311f4)" d="M 72 283.81417 
L 518.4 283.81417 
" style="fill:none;stroke:#ffffff;stroke-linecap:round;"/>
     </g>
     <g id="line2d_14"/>
     <g id="text_8">
      <!-- 0.5 -->
      <g style="fill:#262626;" transform="translate(51.1 287.393077)scale(0.1 -0.1)">
       <use xlink:href="#ArialMT-48"/>
       <use x="55.615234" xlink:href="#ArialMT-46"/>
       <use x="83.398438" xlink:href="#ArialMT-53"/>
      </g>
     </g>
    </g>
    <g id="ytick_3">
     <g id="line2d_15">
      <path clip-path="url(#pfbf5e311f4)" d="M 72 229.048341 
L 518.4 229.048341 
" style="fill:none;stroke:#ffffff;stroke-linecap:round;"/>
     </g>
     <g id="line2d_16"/>
     <g id="text_9">
      <!-- 1.0 -->
      <g style="fill:#262626;" transform="translate(51.1 232.627247)scale(0.1 -0.1)">
       <use xlink:href="#ArialMT-49"/>
       <use x="55.615234" xlink:href="#ArialMT-46"/>
       <use x="83.398438" xlink:href="#ArialMT-48"/>
      </g>
     </g>
    </g>
    <g id="ytick_4">
     <g id="line2d_17">
      <path clip-path="url(#pfbf5e311f4)" d="M 72 174.282511 
L 518.4 174.282511 
" style="fill:none;stroke:#ffffff;stroke-linecap:round;"/>
     </g>
     <g id="line2d_18"/>
     <g id="text_10">
      <!-- 1.5 -->
      <g style="fill:#262626;" transform="translate(51.1 177.861417)scale(0.1 -0.1)">
       <use xlink:href="#ArialMT-49"/>
       <use x="55.615234" xlink:href="#ArialMT-46"/>
       <use x="83.398438" xlink:href="#ArialMT-53"/>
      </g>
     </g>
    </g>
    <g id="ytick_5">
     <g id="line2d_19">
      <path clip-path="url(#pfbf5e311f4)" d="M 72 119.516681 
L 518.4 119.516681 
" style="fill:none;stroke:#ffffff;stroke-linecap:round;"/>
     </g>
     <g id="line2d_20"/>
     <g id="text_11">
      <!-- 2.0 -->
      <g style="fill:#262626;" transform="translate(51.1 123.095587)scale(0.1 -0.1)">
       <use xlink:href="#ArialMT-50"/>
       <use x="55.615234" xlink:href="#ArialMT-46"/>
       <use x="83.398438" xlink:href="#ArialMT-48"/>
      </g>
     </g>
    </g>
    <g id="ytick_6">
     <g id="line2d_21">
      <path clip-path="url(#pfbf5e311f4)" d="M 72 64.750851 
L 518.4 64.750851 
" style="fill:none;stroke:#ffffff;stroke-linecap:round;"/>
     </g>
     <g id="line2d_22"/>
     <g id="text_12">
      <!-- 2.5 -->
      <g style="fill:#262626;" transform="translate(51.1 68.329758)scale(0.1 -0.1)">
       <use xlink:href="#ArialMT-50"/>
       <use x="55.615234" xlink:href="#ArialMT-46"/>
       <use x="83.398438" xlink:href="#ArialMT-53"/>
      </g>
     </g>
    </g>
    <g id="text_13">
     <!-- Cost (US$) -->
     <defs>
      <path d="M 58.796875 25.09375 
L 68.265625 22.703125 
Q 65.28125 11.03125 57.546875 4.90625 
Q 49.8125 -1.21875 38.625 -1.21875 
Q 27.046875 -1.21875 19.796875 3.484375 
Q 12.546875 8.203125 8.765625 17.140625 
Q 4.984375 26.078125 4.984375 36.328125 
Q 4.984375 47.515625 9.25 55.828125 
Q 13.53125 64.15625 21.40625 68.46875 
Q 29.296875 72.796875 38.765625 72.796875 
Q 49.515625 72.796875 56.828125 67.328125 
Q 64.15625 61.859375 67.046875 51.953125 
L 57.71875 49.75 
Q 55.21875 57.5625 50.484375 61.125 
Q 45.75 64.703125 38.578125 64.703125 
Q 30.328125 64.703125 24.78125 60.734375 
Q 19.234375 56.78125 16.984375 50.109375 
Q 14.75 43.453125 14.75 36.375 
Q 14.75 27.25 17.40625 20.4375 
Q 20.0625 13.625 25.671875 10.25 
Q 31.296875 6.890625 37.84375 6.890625 
Q 45.796875 6.890625 51.3125 11.46875 
Q 56.84375 16.0625 58.796875 25.09375 
z
" id="ArialMT-67"/>
      <path d="M 3.078125 15.484375 
L 11.765625 16.84375 
Q 12.5 11.625 15.84375 8.84375 
Q 19.1875 6.0625 25.203125 6.0625 
Q 31.25 6.0625 34.171875 8.515625 
Q 37.109375 10.984375 37.109375 14.3125 
Q 37.109375 17.28125 34.515625 19 
Q 32.71875 20.171875 25.53125 21.96875 
Q 15.875 24.421875 12.140625 26.203125 
Q 8.40625 27.984375 6.46875 31.125 
Q 4.546875 34.28125 4.546875 38.09375 
Q 4.546875 41.546875 6.125 44.5 
Q 7.71875 47.46875 10.453125 49.421875 
Q 12.5 50.921875 16.03125 51.96875 
Q 19.578125 53.03125 23.640625 53.03125 
Q 29.734375 53.03125 34.34375 51.265625 
Q 38.96875 49.515625 41.15625 46.5 
Q 43.359375 43.5 44.1875 38.484375 
L 35.59375 37.3125 
Q 35.015625 41.3125 32.203125 43.546875 
Q 29.390625 45.796875 24.265625 45.796875 
Q 18.21875 45.796875 15.625 43.796875 
Q 13.03125 41.796875 13.03125 39.109375 
Q 13.03125 37.40625 14.109375 36.03125 
Q 15.1875 34.625 17.484375 33.6875 
Q 18.796875 33.203125 25.25 31.453125 
Q 34.578125 28.953125 38.25 27.359375 
Q 41.9375 25.78125 44.03125 22.75 
Q 46.140625 19.734375 46.140625 15.234375 
Q 46.140625 10.84375 43.578125 6.953125 
Q 41.015625 3.078125 36.171875 0.953125 
Q 31.34375 -1.171875 25.25 -1.171875 
Q 15.140625 -1.171875 9.84375 3.03125 
Q 4.546875 7.234375 3.078125 15.484375 
z
" id="ArialMT-115"/>
      <path d="M 25.78125 7.859375 
L 27.046875 0.09375 
Q 23.34375 -0.6875 20.40625 -0.6875 
Q 15.625 -0.6875 12.984375 0.828125 
Q 10.359375 2.34375 9.28125 4.8125 
Q 8.203125 7.28125 8.203125 15.1875 
L 8.203125 45.015625 
L 1.765625 45.015625 
L 1.765625 51.859375 
L 8.203125 51.859375 
L 8.203125 64.703125 
L 16.9375 69.96875 
L 16.9375 51.859375 
L 25.78125 51.859375 
L 25.78125 45.015625 
L 16.9375 45.015625 
L 16.9375 14.703125 
Q 16.9375 10.9375 17.40625 9.859375 
Q 17.875 8.796875 18.921875 8.15625 
Q 19.96875 7.515625 21.921875 7.515625 
Q 23.390625 7.515625 25.78125 7.859375 
z
" id="ArialMT-116"/>
      <path d="M 23.390625 -21.046875 
Q 16.109375 -11.859375 11.078125 0.4375 
Q 6.0625 12.75 6.0625 25.921875 
Q 6.0625 37.546875 9.8125 48.1875 
Q 14.203125 60.546875 23.390625 72.796875 
L 29.6875 72.796875 
Q 23.78125 62.640625 21.875 58.296875 
Q 18.890625 51.5625 17.1875 44.234375 
Q 15.09375 35.109375 15.09375 25.875 
Q 15.09375 2.390625 29.6875 -21.046875 
z
" id="ArialMT-40"/>
      <path d="M 54.6875 71.578125 
L 64.15625 71.578125 
L 64.15625 30.21875 
Q 64.15625 19.4375 61.71875 13.078125 
Q 59.28125 6.734375 52.90625 2.75 
Q 46.53125 -1.21875 36.1875 -1.21875 
Q 26.125 -1.21875 19.71875 2.25 
Q 13.328125 5.71875 10.59375 12.28125 
Q 7.859375 18.84375 7.859375 30.21875 
L 7.859375 71.578125 
L 17.328125 71.578125 
L 17.328125 30.28125 
Q 17.328125 20.953125 19.0625 16.53125 
Q 20.796875 12.109375 25.015625 9.71875 
Q 29.25 7.328125 35.359375 7.328125 
Q 45.796875 7.328125 50.234375 12.0625 
Q 54.6875 16.796875 54.6875 30.28125 
z
" id="ArialMT-85"/>
      <path d="M 4.5 23 
L 13.421875 23.78125 
Q 14.0625 18.40625 16.375 14.96875 
Q 18.703125 11.53125 23.578125 9.40625 
Q 28.46875 7.28125 34.578125 7.28125 
Q 39.984375 7.28125 44.140625 8.890625 
Q 48.296875 10.5 50.3125 13.296875 
Q 52.34375 16.109375 52.34375 19.4375 
Q 52.34375 22.796875 50.390625 25.3125 
Q 48.4375 27.828125 43.953125 29.546875 
Q 41.0625 30.671875 31.203125 33.03125 
Q 21.34375 35.40625 17.390625 37.5 
Q 12.25 40.1875 9.734375 44.15625 
Q 7.234375 48.140625 7.234375 53.078125 
Q 7.234375 58.5 10.296875 63.203125 
Q 13.375 67.921875 19.28125 70.359375 
Q 25.203125 72.796875 32.421875 72.796875 
Q 40.375 72.796875 46.453125 70.234375 
Q 52.546875 67.671875 55.8125 62.6875 
Q 59.078125 57.71875 59.328125 51.421875 
L 50.25 50.734375 
Q 49.515625 57.515625 45.28125 60.984375 
Q 41.0625 64.453125 32.8125 64.453125 
Q 24.21875 64.453125 20.28125 61.296875 
Q 16.359375 58.15625 16.359375 53.71875 
Q 16.359375 49.859375 19.140625 47.359375 
Q 21.875 44.875 33.421875 42.265625 
Q 44.96875 39.65625 49.265625 37.703125 
Q 55.515625 34.8125 58.484375 30.390625 
Q 61.46875 25.984375 61.46875 20.21875 
Q 61.46875 14.5 58.203125 9.4375 
Q 54.9375 4.390625 48.796875 1.578125 
Q 42.671875 -1.21875 35.015625 -1.21875 
Q 25.296875 -1.21875 18.71875 1.609375 
Q 12.15625 4.4375 8.421875 10.125 
Q 4.6875 15.828125 4.5 23 
z
" id="ArialMT-83"/>
      <path d="M 24.90625 -10.296875 
L 24.90625 -1.515625 
Q 18.3125 -0.6875 14.1875 1.4375 
Q 10.0625 3.5625 7.046875 8.296875 
Q 4.046875 13.03125 3.5625 19.875 
L 12.40625 21.53125 
Q 13.421875 14.453125 16.015625 11.140625 
Q 19.734375 6.453125 24.90625 5.90625 
L 24.90625 33.890625 
Q 19.484375 34.90625 13.8125 38.09375 
Q 9.625 40.4375 7.34375 44.578125 
Q 5.078125 48.734375 5.078125 54 
Q 5.078125 63.375 11.71875 69.1875 
Q 16.15625 73.09375 24.90625 73.96875 
L 24.90625 78.171875 
L 30.078125 78.171875 
L 30.078125 73.96875 
Q 37.75 73.25 42.234375 69.484375 
Q 48 64.703125 49.171875 56.34375 
L 40.09375 54.984375 
Q 39.3125 60.15625 36.84375 62.90625 
Q 34.375 65.671875 30.078125 66.546875 
L 30.078125 41.21875 
Q 36.71875 39.546875 38.875 38.625 
Q 42.96875 36.8125 45.546875 34.21875 
Q 48.140625 31.640625 49.53125 28.078125 
Q 50.921875 24.515625 50.921875 20.359375 
Q 50.921875 11.234375 45.109375 5.125 
Q 39.3125 -0.984375 30.078125 -1.421875 
L 30.078125 -10.296875 
z
M 24.90625 66.65625 
Q 19.78125 65.875 16.828125 62.546875 
Q 13.875 59.234375 13.875 54.6875 
Q 13.875 50.203125 16.375 47.171875 
Q 18.890625 44.140625 24.90625 42.328125 
z
M 30.078125 5.90625 
Q 35.203125 6.546875 38.546875 10.34375 
Q 41.890625 14.15625 41.890625 19.78125 
Q 41.890625 24.5625 39.515625 27.46875 
Q 37.15625 30.375 30.078125 32.671875 
z
" id="ArialMT-36"/>
      <path d="M 12.359375 -21.046875 
L 6.0625 -21.046875 
Q 20.65625 2.390625 20.65625 25.875 
Q 20.65625 35.0625 18.5625 44.09375 
Q 16.890625 51.421875 13.921875 58.15625 
Q 12.015625 62.546875 6.0625 72.796875 
L 12.359375 72.796875 
Q 21.53125 60.546875 25.921875 48.1875 
Q 29.6875 37.546875 29.6875 25.921875 
Q 29.6875 12.75 24.625 0.4375 
Q 19.578125 -11.859375 12.359375 -21.046875 
z
" id="ArialMT-41"/>
     </defs>
     <g style="fill:#262626;" transform="translate(43.311562 244.486406)rotate(-90)scale(0.18 -0.18)">
      <use xlink:href="#ArialMT-67"/>
      <use x="72.216797" xlink:href="#ArialMT-111"/>
      <use x="127.832031" xlink:href="#ArialMT-115"/>
      <use x="177.832031" xlink:href="#ArialMT-116"/>
      <use x="205.615234" xlink:href="#ArialMT-32"/>
      <use x="233.398438" xlink:href="#ArialMT-40"/>
      <use x="266.699219" xlink:href="#ArialMT-85"/>
      <use x="338.916016" xlink:href="#ArialMT-83"/>
      <use x="405.615234" xlink:href="#ArialMT-36"/>
      <use x="461.230469" xlink:href="#ArialMT-41"/>
     </g>
    </g>
   </g>
   <g id="line2d_23">
    <path clip-path="url(#pfbf5e311f4)" d="M 92.290909 338.58 
L 93.700489 338.512459 
L 94.546238 338.127458 
L 95.11007 338.059917 
L 95.955818 337.674915 
L 96.237734 337.607375 
L 97.083482 337.222373 
L 97.788272 337.154832 
L 98.634021 336.769831 
L 98.915937 336.70229 
L 99.056895 336.085071 
L 99.902643 335.700069 
L 100.325517 335.632528 
L 101.312223 335.179986 
L 101.876055 333.144865 
L 102.721804 332.773182 
L 102.862762 332.155963 
L 103.70851 331.770961 
L 104.131384 331.70342 
L 104.977132 331.318419 
L 105.259048 331.250878 
L 106.104796 330.865876 
L 106.386713 330.798336 
L 107.232461 330.413334 
L 107.796293 330.345793 
L 108.219167 328.989453 
L 108.923957 328.685311 
L 110.051621 328.617771 
L 110.89737 328.232769 
L 111.461202 328.165229 
L 111.884076 326.808889 
L 113.293656 326.113767 
L 115.830901 325.079579 
L 116.253775 323.723239 
L 117.099523 323.351557 
L 117.240481 322.734337 
L 118.086229 322.349336 
L 118.79102 322.281795 
L 119.636768 321.896793 
L 120.059642 321.829253 
L 120.482516 320.472913 
L 121.187306 320.168771 
L 121.469222 320.10123 
L 122.31497 319.716228 
L 122.878803 319.648688 
L 123.442635 317.613566 
L 124.288383 317.241884 
L 124.711257 315.885544 
L 125.416047 315.581402 
L 127.107544 315.513861 
L 127.248502 314.896642 
L 128.09425 314.51164 
L 128.79904 314.4441 
L 129.644788 314.059098 
L 130.067662 313.991557 
L 130.20862 313.374338 
L 131.195327 312.921796 
L 131.618201 311.565456 
L 132.322991 311.261314 
L 132.745865 311.193774 
L 133.309697 309.158652 
L 134.155445 308.786969 
L 134.578319 307.43063 
L 135.28311 307.126488 
L 135.565026 307.058947 
L 135.705984 306.441728 
L 136.69269 305.989185 
L 136.833648 305.371966 
L 137.679396 304.986964 
L 138.807061 304.919424 
L 139.652809 304.534422 
L 140.357599 304.466882 
L 141.908137 303.6909 
L 142.331011 303.561797 
L 142.753886 302.205457 
L 143.599634 301.833774 
L 144.022508 300.477435 
L 144.868256 300.105752 
L 145.432088 298.07063 
L 146.841669 297.375509 
L 147.123585 297.313946 
L 148.251249 297.246406 
L 149.801787 296.470424 
L 150.083703 296.408861 
L 150.506577 296.341321 
L 150.647535 295.724102 
L 152.198074 294.94812 
L 154.59436 293.913932 
L 154.735318 293.296713 
L 155.581067 292.911711 
L 156.003941 292.844171 
L 156.849689 292.459169 
L 158.259269 292.391628 
L 159.105018 292.006626 
L 159.386934 291.939086 
L 160.937472 291.163104 
L 162.347052 290.581459 
L 162.48801 289.96424 
L 163.333759 289.579238 
L 163.615675 289.511697 
L 164.038549 288.155357 
L 164.884297 287.783675 
L 165.025255 287.166456 
L 165.871003 286.781454 
L 166.152919 286.713913 
L 167.139626 286.261371 
L 167.5625 284.905031 
L 168.26729 284.600889 
L 168.549206 284.533348 
L 170.099744 283.757367 
L 170.38166 283.695804 
L 170.804534 283.628264 
L 172.355073 282.852282 
L 172.636989 282.790719 
L 172.918905 282.723179 
L 173.764653 282.338177 
L 174.187527 282.270637 
L 174.610401 280.914297 
L 175.315192 280.610155 
L 175.597108 280.542614 
L 177.147646 279.766632 
L 177.57052 279.637529 
L 178.134352 277.602408 
L 178.839142 277.298266 
L 179.121058 277.230725 
L 179.262016 276.613506 
L 180.248723 276.160964 
L 181.094471 272.768279 
L 181.799261 272.464137 
L 182.363093 272.396596 
L 183.208841 272.011594 
L 183.490758 271.944054 
L 185.041296 271.168072 
L 185.323212 271.10651 
L 185.746086 271.038969 
L 186.591834 270.653967 
L 186.87375 270.586427 
L 187.719499 270.201425 
L 188.283331 270.133884 
L 189.129079 269.748883 
L 189.551953 269.681342 
L 190.397701 269.29634 
L 190.679617 269.2288 
L 191.525365 268.843798 
L 191.94824 268.776257 
L 193.498778 268.000276 
L 193.780694 267.938713 
L 194.203568 267.871173 
L 195.754107 267.095191 
L 196.036023 267.033628 
L 196.317939 266.966088 
L 196.740813 265.609748 
L 197.445603 265.305606 
L 197.727519 265.238065 
L 198.573267 264.853064 
L 198.996141 264.785523 
L 199.137099 264.168304 
L 200.687638 263.392322 
L 200.969554 263.33076 
L 201.392428 263.263219 
L 202.942966 262.487237 
L 203.224882 262.425675 
L 203.506798 262.358134 
L 203.647756 261.740915 
L 204.493505 261.355913 
L 205.057337 261.288373 
L 205.198295 260.671154 
L 206.044043 260.286152 
L 206.325959 260.218611 
L 207.312665 259.766069 
L 207.453623 259.14885 
L 208.299372 258.763848 
L 208.581288 258.696307 
L 210.131826 257.920326 
L 210.413742 257.858763 
L 210.836616 257.791223 
L 211.682364 257.406221 
L 212.246197 257.33868 
L 212.387155 256.721461 
L 213.232903 256.336459 
L 213.514819 256.268919 
L 215.065357 255.492937 
L 215.347273 255.431374 
L 216.33398 255.363834 
L 216.474938 254.746615 
L 217.320686 254.361613 
L 217.884518 254.294072 
L 218.307392 252.937733 
L 219.012182 252.633591 
L 219.294098 252.56605 
L 219.716972 251.20971 
L 220.421763 250.905568 
L 220.844637 250.838028 
L 222.395175 250.062046 
L 222.677091 250.000483 
L 223.099965 249.932943 
L 223.240923 249.315724 
L 224.791462 248.539742 
L 226.342 247.958097 
L 227.187748 244.565412 
L 227.892538 244.26127 
L 228.174455 244.193729 
L 228.315413 243.57651 
L 229.161161 243.191508 
L 229.724993 243.123967 
L 230.570741 242.738966 
L 230.852657 242.671425 
L 231.698405 242.286423 
L 231.980321 242.218883 
L 233.53086 241.442901 
L 234.94044 240.928796 
L 235.222356 240.861256 
L 235.786188 238.826134 
L 236.490979 238.521992 
L 236.913853 238.454452 
L 237.618643 235.740548 
L 238.323433 235.436406 
L 239.169181 235.368866 
L 240.71972 234.592884 
L 241.001636 234.531321 
L 241.283552 234.463781 
L 242.1293 234.078779 
L 242.693132 234.011239 
L 244.24367 233.235257 
L 244.666545 233.106154 
L 244.807503 232.488935 
L 245.653251 232.103933 
L 246.076125 232.036392 
L 246.498999 230.680052 
L 247.344747 230.30837 
L 247.908579 228.273248 
L 249.31816 227.578126 
L 249.741034 227.449023 
L 249.881992 226.831804 
L 251.43253 226.055823 
L 251.855404 225.926719 
L 251.996362 225.3095 
L 252.842111 224.924498 
L 253.124027 224.856958 
L 253.969775 224.471956 
L 254.392649 224.404416 
L 255.238397 224.019414 
L 255.943187 223.951873 
L 256.366061 222.595533 
L 257.775642 221.900411 
L 258.057558 221.838849 
L 258.480432 221.771308 
L 259.32618 221.386307 
L 259.749054 221.318766 
L 260.594802 220.933764 
L 261.299593 220.866224 
L 262.850131 220.090242 
L 263.132047 220.028679 
L 263.836837 219.961139 
L 263.977795 219.34392 
L 264.823544 218.958918 
L 265.246418 218.891377 
L 265.387376 218.274158 
L 266.937914 217.498177 
L 267.360788 217.369073 
L 267.501746 216.751854 
L 269.052285 215.975873 
L 269.334201 215.91431 
L 269.898033 215.84677 
L 270.743781 215.461768 
L 271.025697 215.394227 
L 271.166655 214.777008 
L 272.717193 214.001026 
L 272.99911 213.939464 
L 273.281026 213.871923 
L 273.421984 213.254704 
L 274.972522 212.478722 
L 275.254438 212.41716 
L 275.959228 212.349619 
L 276.804976 211.964617 
L 277.932641 211.897077 
L 278.355515 210.540737 
L 279.765095 209.845615 
L 280.047011 209.784053 
L 280.328927 209.716512 
L 281.879466 208.940531 
L 282.30234 208.811427 
L 282.443298 208.194208 
L 283.430004 207.741666 
L 284.134794 205.027763 
L 285.544375 204.332641 
L 285.826291 204.271078 
L 286.531081 204.203538 
L 287.376829 203.818536 
L 288.081619 203.750995 
L 289.632158 202.975014 
L 289.914074 202.913451 
L 290.19599 202.845911 
L 291.746528 202.069929 
L 292.169402 201.940826 
L 293.156108 197.869359 
L 294.001857 197.497677 
L 294.424731 196.141337 
L 295.129521 195.837195 
L 295.975269 195.769654 
L 297.525808 194.993673 
L 297.807724 194.93211 
L 298.08964 194.864569 
L 298.935388 194.479568 
L 299.217304 194.412027 
L 300.063052 194.027025 
L 301.049758 193.959485 
L 301.613591 191.924363 
L 302.318381 191.620221 
L 302.741255 191.552681 
L 303.164129 190.196341 
L 303.868919 189.892199 
L 304.150835 189.824658 
L 304.291793 189.207439 
L 305.137541 188.822437 
L 305.701374 188.754897 
L 306.547122 188.369895 
L 307.533828 188.302354 
L 308.379576 187.917352 
L 308.661492 187.849812 
L 309.225324 185.81469 
L 310.634905 185.119568 
L 311.057779 184.990465 
L 311.480653 183.634126 
L 312.890233 182.939004 
L 313.172149 182.877441 
L 313.595024 182.809901 
L 313.735982 182.192681 
L 314.58173 181.80768 
L 315.004604 181.740139 
L 315.850352 181.355137 
L 316.555142 181.287597 
L 317.40089 180.902595 
L 321.488673 180.835054 
L 323.039212 180.059073 
L 323.321128 179.99751 
L 323.603044 179.92997 
L 324.025918 178.57363 
L 324.871666 178.201947 
L 325.012624 177.584728 
L 325.999331 177.132186 
L 327.408911 171.024374 
L 328.113701 170.720232 
L 328.536575 170.652691 
L 329.382323 170.267689 
L 329.805198 170.200149 
L 330.650946 169.815147 
L 330.932862 169.747607 
L 331.07382 169.130387 
L 332.624358 168.354406 
L 334.033939 167.77276 
L 334.174897 167.155541 
L 335.020645 166.770539 
L 336.853099 166.702999 
L 337.275973 165.346659 
L 338.685554 164.651537 
L 338.96747 164.589974 
L 339.531302 164.522434 
L 339.67226 163.905215 
L 340.658966 163.452672 
L 340.799924 162.835453 
L 341.78663 162.382911 
L 342.350463 160.347789 
L 343.055253 160.043647 
L 343.337169 159.976107 
L 344.323875 159.523564 
L 344.746749 158.167225 
L 345.451539 157.863082 
L 345.733455 157.795542 
L 345.874413 157.178323 
L 347.424952 156.402341 
L 347.706868 156.340779 
L 348.552616 156.273238 
L 348.693574 155.656019 
L 349.539322 155.271017 
L 349.821238 155.203477 
L 350.807945 154.750934 
L 350.948903 154.133715 
L 351.794651 153.748713 
L 352.217525 153.681173 
L 353.063273 153.296171 
L 353.345189 153.22863 
L 353.486147 152.611411 
L 355.036686 151.835429 
L 359.547343 149.896157 
L 359.688301 149.278938 
L 360.534049 148.893936 
L 362.084587 148.826395 
L 362.225545 148.209176 
L 363.071294 147.824174 
L 363.635126 147.756634 
L 364.480874 147.371632 
L 364.76279 147.304091 
L 365.749496 146.851549 
L 366.17237 145.495209 
L 366.877161 145.191067 
L 367.581951 145.123527 
L 369.132489 144.347545 
L 369.555363 144.218442 
L 369.696321 143.601223 
L 370.54207 143.216221 
L 371.105902 143.14868 
L 371.95165 142.763678 
L 372.65644 142.696138 
L 373.502188 142.311136 
L 374.206978 142.243596 
L 375.757517 141.467614 
L 378.153803 140.500967 
L 378.576678 140.433426 
L 379.422426 140.048424 
L 379.704342 139.980884 
L 379.8453 139.363665 
L 380.691048 138.978663 
L 381.25488 138.911122 
L 382.100628 138.52612 
L 382.382544 138.45858 
L 383.228293 138.073578 
L 383.510209 138.006037 
L 384.214999 135.292134 
L 384.919789 134.987992 
L 385.342663 134.920452 
L 386.188411 134.53545 
L 386.470327 134.467909 
L 386.611285 133.85069 
L 387.457034 133.465688 
L 387.879908 133.398148 
L 388.725656 133.013146 
L 389.430446 132.945605 
L 390.276194 132.560603 
L 390.55811 132.493063 
L 391.121943 130.457941 
L 391.826733 130.153799 
L 392.108649 130.086259 
L 392.954397 129.701257 
L 393.800145 129.633716 
L 394.645893 129.248715 
L 395.491642 129.181174 
L 396.33739 128.796172 
L 396.760264 128.728632 
L 397.606012 128.34363 
L 398.028886 128.276089 
L 398.592718 126.240968 
L 399.438467 125.869285 
L 399.579425 125.252066 
L 401.129963 124.476084 
L 401.552837 124.346981 
L 401.693795 123.729762 
L 403.244334 122.95378 
L 403.52625 122.892218 
L 404.090082 122.824677 
L 404.93583 122.439676 
L 405.217746 122.372135 
L 405.922536 119.658232 
L 406.627326 119.35409 
L 407.050201 119.286549 
L 407.895949 118.901547 
L 409.023613 118.834007 
L 409.164571 118.216788 
L 410.010319 117.831786 
L 411.137984 117.764245 
L 411.278942 117.147026 
L 412.82948 116.371044 
L 414.23906 115.856939 
L 414.520976 115.789399 
L 415.507683 115.336857 
L 415.648641 114.719637 
L 416.635347 114.267095 
L 416.776305 113.649876 
L 417.622053 113.264874 
L 418.044927 113.197334 
L 419.031633 112.744791 
L 419.454508 111.388451 
L 420.159298 111.084309 
L 420.72313 111.016769 
L 421.568878 110.631767 
L 422.555584 110.564226 
L 423.401333 110.179225 
L 424.669955 110.111684 
L 425.515703 109.726682 
L 425.797619 109.659142 
L 426.643367 109.27414 
L 429.462528 109.206599 
L 430.308276 108.821597 
L 431.154024 108.754057 
L 431.999773 108.369055 
L 433.550311 108.301515 
L 434.396059 107.916513 
L 435.100849 107.848972 
L 435.523724 106.492632 
L 436.228514 106.18849 
L 436.933304 106.12095 
L 437.92001 105.668407 
L 438.342884 104.312068 
L 439.047674 104.007925 
L 439.32959 103.940385 
L 440.316297 103.487843 
L 441.162045 100.095158 
L 442.571625 99.400036 
L 442.853541 99.338473 
L 443.69929 99.270933 
L 443.840248 98.653714 
L 444.685996 98.268712 
L 445.249828 98.201171 
L 446.095576 97.816169 
L 447.646114 97.748629 
L 448.491863 97.363627 
L 451.451981 97.296086 
L 452.438688 96.843544 
L 452.579646 96.226325 
L 453.425394 95.841323 
L 453.70731 95.773782 
L 453.848268 95.156563 
L 455.398806 94.380582 
L 455.821681 94.251479 
L 456.385513 92.216357 
L 457.231261 91.844674 
L 458.077009 88.451989 
L 458.922757 88.080307 
L 459.063715 87.463088 
L 459.909464 87.078086 
L 460.19138 87.010545 
L 460.332338 86.393326 
L 461.319044 85.940784 
L 461.460002 85.323565 
L 462.446708 84.871022 
L 462.587666 84.253803 
L 463.574372 83.801261 
L 464.138205 81.766139 
L 464.983953 81.394457 
L 465.124911 80.777237 
L 465.970659 80.392236 
L 466.252575 80.324695 
L 466.393533 79.707476 
L 467.239281 79.322474 
L 467.662155 79.254934 
L 468.507904 78.869932 
L 468.78982 78.802391 
L 470.340358 78.026409 
L 470.763232 77.897306 
L 470.90419 77.280087 
L 471.749938 76.895085 
L 472.736645 76.827545 
L 472.877603 76.210326 
L 473.723351 75.825324 
L 474.287183 75.757783 
L 475.837721 74.981802 
L 476.119638 74.920239 
L 476.824428 74.852699 
L 477.670176 74.467697 
L 478.234008 74.400156 
L 478.656882 73.043816 
L 479.50263 72.672134 
L 479.643588 72.054915 
L 480.630295 71.602372 
L 480.771253 70.985153 
L 481.617001 70.600151 
L 481.898917 70.532611 
L 482.462749 68.497489 
L 483.167539 68.193347 
L 483.731371 68.125807 
L 485.28191 67.349825 
L 485.563826 67.288262 
L 485.9867 67.220722 
L 486.127658 66.603503 
L 486.973406 66.218501 
L 487.537238 66.15096 
L 488.382987 65.765958 
L 489.087777 65.698418 
L 490.638315 64.922436 
L 490.920231 64.860874 
L 491.343105 64.793333 
L 492.188853 64.408331 
L 492.47077 64.340791 
L 492.611728 63.723572 
L 493.457476 63.33857 
L 493.739392 63.271029 
L 495.28993 62.495048 
L 495.571846 62.433485 
L 495.99472 62.365945 
L 497.545259 61.589963 
L 498.109091 61.38 
L 498.109091 61.38 
" style="fill:none;stroke:#8172b2;stroke-linecap:round;stroke-width:1.75;"/>
   </g>
   <g id="line2d_24">
    <path clip-path="url(#pfbf5e311f4)" d="M 92.290909 338.58 
L 92.431867 338.512459 
L 93.277615 335.119775 
L 93.982406 334.815632 
L 100.043601 334.748092 
L 100.889349 331.355407 
L 101.594139 331.051265 
L 107.796293 330.983724 
L 108.642041 327.591039 
L 109.346831 327.286897 
L 116.112817 327.219357 
L 116.958565 323.826672 
L 117.663355 323.52253 
L 124.570299 323.454989 
L 125.416047 320.062304 
L 126.120837 319.758162 
L 133.873529 319.690622 
L 134.719278 316.297937 
L 135.424068 315.993795 
L 143.317718 315.926254 
L 144.163466 312.533569 
L 144.868256 312.229427 
L 153.88957 312.161887 
L 154.735318 308.769202 
L 155.440109 308.46506 
L 165.307171 308.397519 
L 166.152919 305.004834 
L 166.857709 304.700692 
L 177.57052 304.633152 
L 178.416268 301.240467 
L 179.121058 300.936325 
L 191.807282 300.868784 
L 192.65303 297.476099 
L 193.35782 297.171957 
L 208.44033 297.104417 
L 209.286078 293.711732 
L 209.990868 293.40759 
L 230.429783 293.340049 
L 231.134573 290.626146 
L 231.839363 290.322004 
L 336.571183 290.322004 
L 342.068547 272.623769 
L 420.864088 272.556228 
L 421.568878 269.842325 
L 422.273668 269.538183 
L 440.175339 269.470643 
L 441.021087 266.077958 
L 441.725877 265.773816 
L 456.244555 265.706275 
L 457.090303 262.31359 
L 457.795093 262.009448 
L 469.776526 261.941908 
L 470.622274 258.549223 
L 471.327064 258.245081 
L 481.757959 258.17754 
L 482.603707 254.784855 
L 483.308497 254.480713 
L 491.906937 254.413173 
L 492.752686 251.020488 
L 493.457476 250.716345 
L 498.109091 250.716345 
L 498.109091 250.716345 
" style="fill:none;stroke:#0000ff;stroke-dasharray:6.475,2.8;stroke-dashoffset:0;stroke-width:1.75;"/>
   </g>
   <g id="patch_3">
    <path d="M 72 352.44 
L 72 47.52 
" style="fill:none;"/>
   </g>
   <g id="patch_4">
    <path d="M 518.4 352.44 
L 518.4 47.52 
" style="fill:none;"/>
   </g>
   <g id="patch_5">
    <path d="M 72 352.44 
L 518.4 352.44 
" style="fill:none;"/>
   </g>
   <g id="patch_6">
    <path d="M 72 47.52 
L 518.4 47.52 
" style="fill:none;"/>
   </g>
   <g id="text_14">
    <!-- 24 Hour HVAC Cost -->
    <defs>
     <path d="M 8.015625 0 
L 8.015625 71.578125 
L 17.484375 71.578125 
L 17.484375 42.1875 
L 54.6875 42.1875 
L 54.6875 71.578125 
L 64.15625 71.578125 
L 64.15625 0 
L 54.6875 0 
L 54.6875 33.734375 
L 17.484375 33.734375 
L 17.484375 0 
z
" id="ArialMT-72"/>
     <path d="M 40.578125 0 
L 40.578125 7.625 
Q 34.515625 -1.171875 24.125 -1.171875 
Q 19.53125 -1.171875 15.546875 0.578125 
Q 11.578125 2.34375 9.640625 5 
Q 7.71875 7.671875 6.9375 11.53125 
Q 6.390625 14.109375 6.390625 19.734375 
L 6.390625 51.859375 
L 15.1875 51.859375 
L 15.1875 23.09375 
Q 15.1875 16.21875 15.71875 13.8125 
Q 16.546875 10.359375 19.234375 8.375 
Q 21.921875 6.390625 25.875 6.390625 
Q 29.828125 6.390625 33.296875 8.421875 
Q 36.765625 10.453125 38.203125 13.9375 
Q 39.65625 17.4375 39.65625 24.078125 
L 39.65625 51.859375 
L 48.4375 51.859375 
L 48.4375 0 
z
" id="ArialMT-117"/>
     <path d="M 6.5 0 
L 6.5 51.859375 
L 14.40625 51.859375 
L 14.40625 44 
Q 17.4375 49.515625 20 51.265625 
Q 22.5625 53.03125 25.640625 53.03125 
Q 30.078125 53.03125 34.671875 50.203125 
L 31.640625 42.046875 
Q 28.421875 43.953125 25.203125 43.953125 
Q 22.3125 43.953125 20.015625 42.21875 
Q 17.71875 40.484375 16.75 37.40625 
Q 15.28125 32.71875 15.28125 27.15625 
L 15.28125 0 
z
" id="ArialMT-114"/>
     <path d="M 28.171875 0 
L 0.4375 71.578125 
L 10.6875 71.578125 
L 29.296875 19.578125 
Q 31.546875 13.328125 33.0625 7.859375 
Q 34.71875 13.71875 36.921875 19.578125 
L 56.25 71.578125 
L 65.921875 71.578125 
L 37.890625 0 
z
" id="ArialMT-86"/>
     <path d="M -0.140625 0 
L 27.34375 71.578125 
L 37.546875 71.578125 
L 66.84375 0 
L 56.0625 0 
L 47.703125 21.6875 
L 17.78125 21.6875 
L 9.90625 0 
z
M 20.515625 29.390625 
L 44.78125 29.390625 
L 37.3125 49.21875 
Q 33.890625 58.25 32.234375 64.0625 
Q 30.859375 57.171875 28.375 50.390625 
z
" id="ArialMT-65"/>
    </defs>
    <g style="fill:#262626;" transform="translate(205.735937 41.52)scale(0.2 -0.2)">
     <use xlink:href="#ArialMT-50"/>
     <use x="55.615234" xlink:href="#ArialMT-52"/>
     <use x="111.230469" xlink:href="#ArialMT-32"/>
     <use x="139.013672" xlink:href="#ArialMT-72"/>
     <use x="211.230469" xlink:href="#ArialMT-111"/>
     <use x="266.845703" xlink:href="#ArialMT-117"/>
     <use x="322.460938" xlink:href="#ArialMT-114"/>
     <use x="355.761719" xlink:href="#ArialMT-32"/>
     <use x="383.544922" xlink:href="#ArialMT-72"/>
     <use x="455.761719" xlink:href="#ArialMT-86"/>
     <use x="522.351562" xlink:href="#ArialMT-65"/>
     <use x="589.050781" xlink:href="#ArialMT-67"/>
     <use x="661.267578" xlink:href="#ArialMT-32"/>
     <use x="689.050781" xlink:href="#ArialMT-67"/>
     <use x="761.267578" xlink:href="#ArialMT-111"/>
     <use x="816.882812" xlink:href="#ArialMT-115"/>
     <use x="866.882812" xlink:href="#ArialMT-116"/>
    </g>
   </g>
   <g id="legend_1">
    <g id="line2d_25">
     <path d="M 339.145312 323.807187 
L 359.145312 323.807187 
" style="fill:none;stroke:#8172b2;stroke-linecap:round;stroke-width:1.75;"/>
    </g>
    <g id="line2d_26"/>
    <g id="text_15">
     <!-- RL Total Cost -->
     <defs>
      <path d="M 7.859375 0 
L 7.859375 71.578125 
L 39.59375 71.578125 
Q 49.171875 71.578125 54.140625 69.640625 
Q 59.125 67.71875 62.109375 62.828125 
Q 65.09375 57.953125 65.09375 52.046875 
Q 65.09375 44.4375 60.15625 39.203125 
Q 55.21875 33.984375 44.921875 32.5625 
Q 48.6875 30.765625 50.640625 29 
Q 54.78125 25.203125 58.5 19.484375 
L 70.953125 0 
L 59.03125 0 
L 49.5625 14.890625 
Q 45.40625 21.34375 42.71875 24.75 
Q 40.046875 28.171875 37.921875 29.53125 
Q 35.796875 30.90625 33.59375 31.453125 
Q 31.984375 31.78125 28.328125 31.78125 
L 17.328125 31.78125 
L 17.328125 0 
z
M 17.328125 39.984375 
L 37.703125 39.984375 
Q 44.1875 39.984375 47.84375 41.328125 
Q 51.515625 42.671875 53.421875 45.625 
Q 55.328125 48.578125 55.328125 52.046875 
Q 55.328125 57.125 51.640625 60.390625 
Q 47.953125 63.671875 39.984375 63.671875 
L 17.328125 63.671875 
z
" id="ArialMT-82"/>
      <path d="M 7.328125 0 
L 7.328125 71.578125 
L 16.796875 71.578125 
L 16.796875 8.453125 
L 52.046875 8.453125 
L 52.046875 0 
z
" id="ArialMT-76"/>
      <path d="M 6.390625 0 
L 6.390625 71.578125 
L 15.1875 71.578125 
L 15.1875 0 
z
" id="ArialMT-108"/>
     </defs>
     <g style="fill:#262626;" transform="translate(367.145312 327.307187)scale(0.1 -0.1)">
      <use xlink:href="#ArialMT-82"/>
      <use x="72.216797" xlink:href="#ArialMT-76"/>
      <use x="127.785156" xlink:href="#ArialMT-32"/>
      <use x="155.552734" xlink:href="#ArialMT-84"/>
      <use x="216.464844" xlink:href="#ArialMT-111"/>
      <use x="272.080078" xlink:href="#ArialMT-116"/>
      <use x="299.863281" xlink:href="#ArialMT-97"/>
      <use x="355.478516" xlink:href="#ArialMT-108"/>
      <use x="377.695312" xlink:href="#ArialMT-32"/>
      <use x="405.478516" xlink:href="#ArialMT-67"/>
      <use x="477.695312" xlink:href="#ArialMT-111"/>
      <use x="533.310547" xlink:href="#ArialMT-115"/>
      <use x="583.310547" xlink:href="#ArialMT-116"/>
     </g>
    </g>
    <g id="line2d_27">
     <path d="M 339.145312 337.9525 
L 359.145312 337.9525 
" style="fill:none;stroke:#0000ff;stroke-dasharray:6.475,2.8;stroke-dashoffset:0;stroke-width:1.75;"/>
    </g>
    <g id="line2d_28"/>
    <g id="text_16">
     <!-- Standard Thermostat Total Cost -->
     <defs>
      <path d="M 6.59375 0 
L 6.59375 51.859375 
L 14.5 51.859375 
L 14.5 44.484375 
Q 20.21875 53.03125 31 53.03125 
Q 35.6875 53.03125 39.625 51.34375 
Q 43.5625 49.65625 45.515625 46.921875 
Q 47.46875 44.1875 48.25 40.4375 
Q 48.734375 37.984375 48.734375 31.890625 
L 48.734375 0 
L 39.9375 0 
L 39.9375 31.546875 
Q 39.9375 36.921875 38.90625 39.578125 
Q 37.890625 42.234375 35.28125 43.8125 
Q 32.671875 45.40625 29.15625 45.40625 
Q 23.53125 45.40625 19.453125 41.84375 
Q 15.375 38.28125 15.375 28.328125 
L 15.375 0 
z
" id="ArialMT-110"/>
      <path d="M 6.59375 0 
L 6.59375 71.578125 
L 15.375 71.578125 
L 15.375 45.90625 
Q 21.53125 53.03125 30.90625 53.03125 
Q 36.671875 53.03125 40.921875 50.75 
Q 45.171875 48.484375 47 44.484375 
Q 48.828125 40.484375 48.828125 32.859375 
L 48.828125 0 
L 40.046875 0 
L 40.046875 32.859375 
Q 40.046875 39.453125 37.1875 42.453125 
Q 34.328125 45.453125 29.109375 45.453125 
Q 25.203125 45.453125 21.75 43.421875 
Q 18.3125 41.40625 16.84375 37.9375 
Q 15.375 34.46875 15.375 28.375 
L 15.375 0 
z
" id="ArialMT-104"/>
     </defs>
     <g style="fill:#262626;" transform="translate(367.145312 341.4525)scale(0.1 -0.1)">
      <use xlink:href="#ArialMT-83"/>
      <use x="66.699219" xlink:href="#ArialMT-116"/>
      <use x="94.482422" xlink:href="#ArialMT-97"/>
      <use x="150.097656" xlink:href="#ArialMT-110"/>
      <use x="205.712891" xlink:href="#ArialMT-100"/>
      <use x="261.328125" xlink:href="#ArialMT-97"/>
      <use x="316.943359" xlink:href="#ArialMT-114"/>
      <use x="350.244141" xlink:href="#ArialMT-100"/>
      <use x="405.859375" xlink:href="#ArialMT-32"/>
      <use x="433.626953" xlink:href="#ArialMT-84"/>
      <use x="494.710938" xlink:href="#ArialMT-104"/>
      <use x="550.326172" xlink:href="#ArialMT-101"/>
      <use x="605.941406" xlink:href="#ArialMT-114"/>
      <use x="639.242188" xlink:href="#ArialMT-109"/>
      <use x="722.542969" xlink:href="#ArialMT-111"/>
      <use x="778.158203" xlink:href="#ArialMT-115"/>
      <use x="828.158203" xlink:href="#ArialMT-116"/>
      <use x="855.941406" xlink:href="#ArialMT-97"/>
      <use x="911.556641" xlink:href="#ArialMT-116"/>
      <use x="939.339844" xlink:href="#ArialMT-32"/>
      <use x="967.107422" xlink:href="#ArialMT-84"/>
      <use x="1028.019531" xlink:href="#ArialMT-111"/>
      <use x="1083.634766" xlink:href="#ArialMT-116"/>
      <use x="1111.417969" xlink:href="#ArialMT-97"/>
      <use x="1167.033203" xlink:href="#ArialMT-108"/>
      <use x="1189.25" xlink:href="#ArialMT-32"/>
      <use x="1217.033203" xlink:href="#ArialMT-67"/>
      <use x="1289.25" xlink:href="#ArialMT-111"/>
      <use x="1344.865234" xlink:href="#ArialMT-115"/>
      <use x="1394.865234" xlink:href="#ArialMT-116"/>
     </g>
    </g>
   </g>
  </g>
 </g>
 <defs>
  <clipPath id="pfbf5e311f4">
   <rect height="304.92" width="446.4" x="72" y="47.52"/>
  </clipPath>
 </defs>
</svg>
