<?xml version="1.0" encoding="utf-8" standalone="no"?>
<!DOCTYPE svg PUBLIC "-//W3C//DTD SVG 1.1//EN"
  "http://www.w3.org/Graphics/SVG/1.1/DTD/svg11.dtd">
<!-- Created with matplotlib (https://matplotlib.org/) -->
<svg height="396pt" version="1.1" viewBox="0 0 576 396" width="576pt" xmlns="http://www.w3.org/2000/svg" xmlns:xlink="http://www.w3.org/1999/xlink">
 <defs>
  <style type="text/css">
*{stroke-linecap:butt;stroke-linejoin:round;}
  </style>
 </defs>
 <g id="figure_1">
  <g id="patch_1">
   <path d="M 0 396 
L 576 396 
L 576 0 
L 0 0 
z
" style="fill:#ffffff;"/>
  </g>
  <g id="axes_1">
   <g id="patch_2">
    <path d="M 72 352.44 
L 518.4 352.44 
L 518.4 47.52 
L 72 47.52 
z
" style="fill:#eaeaf2;"/>
   </g>
   <g id="matplotlib.axis_1">
    <g id="xtick_1">
     <g id="line2d_1">
      <path clip-path="url(#pd5d5e61723)" d="M 92.290909 352.44 
L 92.290909 47.52 
" style="fill:none;stroke:#ffffff;stroke-linecap:round;"/>
     </g>
     <g id="line2d_2"/>
     <g id="text_1">
      <!-- 0:00:00 -->
      <defs>
       <path d="M 4.15625 35.296875 
Q 4.15625 48 6.765625 55.734375 
Q 9.375 63.484375 14.515625 67.671875 
Q 19.671875 71.875 27.484375 71.875 
Q 33.25 71.875 37.59375 69.546875 
Q 41.9375 67.234375 44.765625 62.859375 
Q 47.609375 58.5 49.21875 52.21875 
Q 50.828125 45.953125 50.828125 35.296875 
Q 50.828125 22.703125 48.234375 14.96875 
Q 45.65625 7.234375 40.5 3 
Q 35.359375 -1.21875 27.484375 -1.21875 
Q 17.140625 -1.21875 11.234375 6.203125 
Q 4.15625 15.140625 4.15625 35.296875 
z
M 13.1875 35.296875 
Q 13.1875 17.671875 17.3125 11.828125 
Q 21.4375 6 27.484375 6 
Q 33.546875 6 37.671875 11.859375 
Q 41.796875 17.71875 41.796875 35.296875 
Q 41.796875 52.984375 37.671875 58.78125 
Q 33.546875 64.59375 27.390625 64.59375 
Q 21.34375 64.59375 17.71875 59.46875 
Q 13.1875 52.9375 13.1875 35.296875 
z
" id="ArialMT-48"/>
       <path d="M 9.03125 41.84375 
L 9.03125 51.859375 
L 19.046875 51.859375 
L 19.046875 41.84375 
z
M 9.03125 0 
L 9.03125 10.015625 
L 19.046875 10.015625 
L 19.046875 0 
z
" id="ArialMT-58"/>
      </defs>
      <g style="fill:#262626;" transform="translate(75.61044 366.597813)scale(0.1 -0.1)">
       <use xlink:href="#ArialMT-48"/>
       <use x="55.615234" xlink:href="#ArialMT-58"/>
       <use x="83.398438" xlink:href="#ArialMT-48"/>
       <use x="139.013672" xlink:href="#ArialMT-48"/>
       <use x="194.628906" xlink:href="#ArialMT-58"/>
       <use x="222.412109" xlink:href="#ArialMT-48"/>
       <use x="278.027344" xlink:href="#ArialMT-48"/>
      </g>
     </g>
    </g>
    <g id="xtick_2">
     <g id="line2d_3">
      <path clip-path="url(#pd5d5e61723)" d="M 186.262932 352.44 
L 186.262932 47.52 
" style="fill:none;stroke:#ffffff;stroke-linecap:round;"/>
     </g>
     <g id="line2d_4"/>
     <g id="text_2">
      <!-- 5:33:20 -->
      <defs>
       <path d="M 4.15625 18.75 
L 13.375 19.53125 
Q 14.40625 12.796875 18.140625 9.390625 
Q 21.875 6 27.15625 6 
Q 33.5 6 37.890625 10.78125 
Q 42.28125 15.578125 42.28125 23.484375 
Q 42.28125 31 38.0625 35.34375 
Q 33.84375 39.703125 27 39.703125 
Q 22.75 39.703125 19.328125 37.765625 
Q 15.921875 35.84375 13.96875 32.765625 
L 5.71875 33.84375 
L 12.640625 70.609375 
L 48.25 70.609375 
L 48.25 62.203125 
L 19.671875 62.203125 
L 15.828125 42.96875 
Q 22.265625 47.46875 29.34375 47.46875 
Q 38.71875 47.46875 45.15625 40.96875 
Q 51.609375 34.46875 51.609375 24.265625 
Q 51.609375 14.546875 45.953125 7.46875 
Q 39.0625 -1.21875 27.15625 -1.21875 
Q 17.390625 -1.21875 11.203125 4.25 
Q 5.03125 9.71875 4.15625 18.75 
z
" id="ArialMT-53"/>
       <path d="M 4.203125 18.890625 
L 12.984375 20.0625 
Q 14.5 12.59375 18.140625 9.296875 
Q 21.78125 6 27 6 
Q 33.203125 6 37.46875 10.296875 
Q 41.75 14.59375 41.75 20.953125 
Q 41.75 27 37.796875 30.921875 
Q 33.84375 34.859375 27.734375 34.859375 
Q 25.25 34.859375 21.53125 33.890625 
L 22.515625 41.609375 
Q 23.390625 41.5 23.921875 41.5 
Q 29.546875 41.5 34.03125 44.421875 
Q 38.53125 47.359375 38.53125 53.46875 
Q 38.53125 58.296875 35.25 61.46875 
Q 31.984375 64.65625 26.8125 64.65625 
Q 21.6875 64.65625 18.265625 61.421875 
Q 14.84375 58.203125 13.875 51.765625 
L 5.078125 53.328125 
Q 6.6875 62.15625 12.390625 67.015625 
Q 18.109375 71.875 26.609375 71.875 
Q 32.46875 71.875 37.390625 69.359375 
Q 42.328125 66.84375 44.9375 62.5 
Q 47.5625 58.15625 47.5625 53.265625 
Q 47.5625 48.640625 45.0625 44.828125 
Q 42.578125 41.015625 37.703125 38.765625 
Q 44.046875 37.3125 47.5625 32.6875 
Q 51.078125 28.078125 51.078125 21.140625 
Q 51.078125 11.765625 44.234375 5.25 
Q 37.40625 -1.265625 26.953125 -1.265625 
Q 17.53125 -1.265625 11.296875 4.34375 
Q 5.078125 9.96875 4.203125 18.890625 
z
" id="ArialMT-51"/>
       <path d="M 50.34375 8.453125 
L 50.34375 0 
L 3.03125 0 
Q 2.9375 3.171875 4.046875 6.109375 
Q 5.859375 10.9375 9.828125 15.625 
Q 13.8125 20.3125 21.34375 26.46875 
Q 33.015625 36.03125 37.109375 41.625 
Q 41.21875 47.21875 41.21875 52.203125 
Q 41.21875 57.421875 37.46875 61 
Q 33.734375 64.59375 27.734375 64.59375 
Q 21.390625 64.59375 17.578125 60.78125 
Q 13.765625 56.984375 13.71875 50.25 
L 4.6875 51.171875 
Q 5.609375 61.28125 11.65625 66.578125 
Q 17.71875 71.875 27.9375 71.875 
Q 38.234375 71.875 44.234375 66.15625 
Q 50.25 60.453125 50.25 52 
Q 50.25 47.703125 48.484375 43.546875 
Q 46.734375 39.40625 42.65625 34.8125 
Q 38.578125 30.21875 29.109375 22.21875 
Q 21.1875 15.578125 18.9375 13.203125 
Q 16.703125 10.84375 15.234375 8.453125 
z
" id="ArialMT-50"/>
      </defs>
      <g style="fill:#262626;" transform="translate(169.582463 366.597813)scale(0.1 -0.1)">
       <use xlink:href="#ArialMT-53"/>
       <use x="55.615234" xlink:href="#ArialMT-58"/>
       <use x="83.398438" xlink:href="#ArialMT-51"/>
       <use x="139.013672" xlink:href="#ArialMT-51"/>
       <use x="194.628906" xlink:href="#ArialMT-58"/>
       <use x="222.412109" xlink:href="#ArialMT-50"/>
       <use x="278.027344" xlink:href="#ArialMT-48"/>
      </g>
     </g>
    </g>
    <g id="xtick_3">
     <g id="line2d_5">
      <path clip-path="url(#pd5d5e61723)" d="M 280.234955 352.44 
L 280.234955 47.52 
" style="fill:none;stroke:#ffffff;stroke-linecap:round;"/>
     </g>
     <g id="line2d_6"/>
     <g id="text_3">
      <!-- 11:06:40 -->
      <defs>
       <path d="M 37.25 0 
L 28.46875 0 
L 28.46875 56 
Q 25.296875 52.984375 20.140625 49.953125 
Q 14.984375 46.921875 10.890625 45.40625 
L 10.890625 53.90625 
Q 18.265625 57.375 23.78125 62.296875 
Q 29.296875 67.234375 31.59375 71.875 
L 37.25 71.875 
z
" id="ArialMT-49"/>
       <path d="M 49.75 54.046875 
L 41.015625 53.375 
Q 39.84375 58.546875 37.703125 60.890625 
Q 34.125 64.65625 28.90625 64.65625 
Q 24.703125 64.65625 21.53125 62.3125 
Q 17.390625 59.28125 14.984375 53.46875 
Q 12.59375 47.65625 12.5 36.921875 
Q 15.671875 41.75 20.265625 44.09375 
Q 24.859375 46.4375 29.890625 46.4375 
Q 38.671875 46.4375 44.84375 39.96875 
Q 51.03125 33.5 51.03125 23.25 
Q 51.03125 16.5 48.125 10.71875 
Q 45.21875 4.9375 40.140625 1.859375 
Q 35.0625 -1.21875 28.609375 -1.21875 
Q 17.625 -1.21875 10.6875 6.859375 
Q 3.765625 14.9375 3.765625 33.5 
Q 3.765625 54.25 11.421875 63.671875 
Q 18.109375 71.875 29.4375 71.875 
Q 37.890625 71.875 43.28125 67.140625 
Q 48.6875 62.40625 49.75 54.046875 
z
M 13.875 23.1875 
Q 13.875 18.65625 15.796875 14.5 
Q 17.71875 10.359375 21.1875 8.171875 
Q 24.65625 6 28.46875 6 
Q 34.03125 6 38.03125 10.484375 
Q 42.046875 14.984375 42.046875 22.703125 
Q 42.046875 30.125 38.078125 34.390625 
Q 34.125 38.671875 28.125 38.671875 
Q 22.171875 38.671875 18.015625 34.390625 
Q 13.875 30.125 13.875 23.1875 
z
" id="ArialMT-54"/>
       <path d="M 32.328125 0 
L 32.328125 17.140625 
L 1.265625 17.140625 
L 1.265625 25.203125 
L 33.9375 71.578125 
L 41.109375 71.578125 
L 41.109375 25.203125 
L 50.78125 25.203125 
L 50.78125 17.140625 
L 41.109375 17.140625 
L 41.109375 0 
z
M 32.328125 25.203125 
L 32.328125 57.46875 
L 9.90625 25.203125 
z
" id="ArialMT-52"/>
      </defs>
      <g style="fill:#262626;" transform="translate(260.779487 366.597813)scale(0.1 -0.1)">
       <use xlink:href="#ArialMT-49"/>
       <use x="55.505859" xlink:href="#ArialMT-49"/>
       <use x="111.121094" xlink:href="#ArialMT-58"/>
       <use x="138.904297" xlink:href="#ArialMT-48"/>
       <use x="194.519531" xlink:href="#ArialMT-54"/>
       <use x="250.134766" xlink:href="#ArialMT-58"/>
       <use x="277.917969" xlink:href="#ArialMT-52"/>
       <use x="333.533203" xlink:href="#ArialMT-48"/>
      </g>
     </g>
    </g>
    <g id="xtick_4">
     <g id="line2d_7">
      <path clip-path="url(#pd5d5e61723)" d="M 374.206978 352.44 
L 374.206978 47.52 
" style="fill:none;stroke:#ffffff;stroke-linecap:round;"/>
     </g>
     <g id="line2d_8"/>
     <g id="text_4">
      <!-- 16:40:00 -->
      <g style="fill:#262626;" transform="translate(354.746041 366.597813)scale(0.1 -0.1)">
       <use xlink:href="#ArialMT-49"/>
       <use x="55.615234" xlink:href="#ArialMT-54"/>
       <use x="111.230469" xlink:href="#ArialMT-58"/>
       <use x="139.013672" xlink:href="#ArialMT-52"/>
       <use x="194.628906" xlink:href="#ArialMT-48"/>
       <use x="250.244141" xlink:href="#ArialMT-58"/>
       <use x="278.027344" xlink:href="#ArialMT-48"/>
       <use x="333.642578" xlink:href="#ArialMT-48"/>
      </g>
     </g>
    </g>
    <g id="xtick_5">
     <g id="line2d_9">
      <path clip-path="url(#pd5d5e61723)" d="M 468.179002 352.44 
L 468.179002 47.52 
" style="fill:none;stroke:#ffffff;stroke-linecap:round;"/>
     </g>
     <g id="line2d_10"/>
     <g id="text_5">
      <!-- 22:13:20 -->
      <g style="fill:#262626;" transform="translate(448.718064 366.597813)scale(0.1 -0.1)">
       <use xlink:href="#ArialMT-50"/>
       <use x="55.615234" xlink:href="#ArialMT-50"/>
       <use x="111.230469" xlink:href="#ArialMT-58"/>
       <use x="139.013672" xlink:href="#ArialMT-49"/>
       <use x="194.628906" xlink:href="#ArialMT-51"/>
       <use x="250.244141" xlink:href="#ArialMT-58"/>
       <use x="278.027344" xlink:href="#ArialMT-50"/>
       <use x="333.642578" xlink:href="#ArialMT-48"/>
      </g>
     </g>
    </g>
    <g id="text_6">
     <!-- Time of day -->
     <defs>
      <path d="M 25.921875 0 
L 25.921875 63.140625 
L 2.34375 63.140625 
L 2.34375 71.578125 
L 59.078125 71.578125 
L 59.078125 63.140625 
L 35.40625 63.140625 
L 35.40625 0 
z
" id="ArialMT-84"/>
      <path d="M 6.640625 61.46875 
L 6.640625 71.578125 
L 15.4375 71.578125 
L 15.4375 61.46875 
z
M 6.640625 0 
L 6.640625 51.859375 
L 15.4375 51.859375 
L 15.4375 0 
z
" id="ArialMT-105"/>
      <path d="M 6.59375 0 
L 6.59375 51.859375 
L 14.453125 51.859375 
L 14.453125 44.578125 
Q 16.890625 48.390625 20.9375 50.703125 
Q 25 53.03125 30.171875 53.03125 
Q 35.9375 53.03125 39.625 50.640625 
Q 43.3125 48.25 44.828125 43.953125 
Q 50.984375 53.03125 60.84375 53.03125 
Q 68.5625 53.03125 72.703125 48.75 
Q 76.859375 44.484375 76.859375 35.59375 
L 76.859375 0 
L 68.109375 0 
L 68.109375 32.671875 
Q 68.109375 37.9375 67.25 40.25 
Q 66.40625 42.578125 64.15625 43.984375 
Q 61.921875 45.40625 58.890625 45.40625 
Q 53.421875 45.40625 49.796875 41.765625 
Q 46.1875 38.140625 46.1875 30.125 
L 46.1875 0 
L 37.40625 0 
L 37.40625 33.6875 
Q 37.40625 39.546875 35.25 42.46875 
Q 33.109375 45.40625 28.21875 45.40625 
Q 24.515625 45.40625 21.359375 43.453125 
Q 18.21875 41.5 16.796875 37.734375 
Q 15.375 33.984375 15.375 26.90625 
L 15.375 0 
z
" id="ArialMT-109"/>
      <path d="M 42.09375 16.703125 
L 51.171875 15.578125 
Q 49.03125 7.625 43.21875 3.21875 
Q 37.40625 -1.171875 28.375 -1.171875 
Q 17 -1.171875 10.328125 5.828125 
Q 3.65625 12.84375 3.65625 25.484375 
Q 3.65625 38.578125 10.390625 45.796875 
Q 17.140625 53.03125 27.875 53.03125 
Q 38.28125 53.03125 44.875 45.953125 
Q 51.46875 38.875 51.46875 26.03125 
Q 51.46875 25.25 51.421875 23.6875 
L 12.75 23.6875 
Q 13.234375 15.140625 17.578125 10.59375 
Q 21.921875 6.0625 28.421875 6.0625 
Q 33.25 6.0625 36.671875 8.59375 
Q 40.09375 11.140625 42.09375 16.703125 
z
M 13.234375 30.90625 
L 42.1875 30.90625 
Q 41.609375 37.453125 38.875 40.71875 
Q 34.671875 45.796875 27.984375 45.796875 
Q 21.921875 45.796875 17.796875 41.75 
Q 13.671875 37.703125 13.234375 30.90625 
z
" id="ArialMT-101"/>
      <path id="ArialMT-32"/>
      <path d="M 3.328125 25.921875 
Q 3.328125 40.328125 11.328125 47.265625 
Q 18.015625 53.03125 27.640625 53.03125 
Q 38.328125 53.03125 45.109375 46.015625 
Q 51.90625 39.015625 51.90625 26.65625 
Q 51.90625 16.65625 48.90625 10.90625 
Q 45.90625 5.171875 40.15625 2 
Q 34.421875 -1.171875 27.640625 -1.171875 
Q 16.75 -1.171875 10.03125 5.8125 
Q 3.328125 12.796875 3.328125 25.921875 
z
M 12.359375 25.921875 
Q 12.359375 15.96875 16.703125 11.015625 
Q 21.046875 6.0625 27.640625 6.0625 
Q 34.1875 6.0625 38.53125 11.03125 
Q 42.875 16.015625 42.875 26.21875 
Q 42.875 35.84375 38.5 40.796875 
Q 34.125 45.75 27.640625 45.75 
Q 21.046875 45.75 16.703125 40.8125 
Q 12.359375 35.890625 12.359375 25.921875 
z
" id="ArialMT-111"/>
      <path d="M 8.6875 0 
L 8.6875 45.015625 
L 0.921875 45.015625 
L 0.921875 51.859375 
L 8.6875 51.859375 
L 8.6875 57.375 
Q 8.6875 62.59375 9.625 65.140625 
Q 10.890625 68.5625 14.078125 70.671875 
Q 17.28125 72.796875 23.046875 72.796875 
Q 26.765625 72.796875 31.25 71.921875 
L 29.9375 64.265625 
Q 27.203125 64.75 24.75 64.75 
Q 20.75 64.75 19.09375 63.03125 
Q 17.4375 61.328125 17.4375 56.640625 
L 17.4375 51.859375 
L 27.546875 51.859375 
L 27.546875 45.015625 
L 17.4375 45.015625 
L 17.4375 0 
z
" id="ArialMT-102"/>
      <path d="M 40.234375 0 
L 40.234375 6.546875 
Q 35.296875 -1.171875 25.734375 -1.171875 
Q 19.53125 -1.171875 14.328125 2.25 
Q 9.125 5.671875 6.265625 11.796875 
Q 3.421875 17.921875 3.421875 25.875 
Q 3.421875 33.640625 6 39.96875 
Q 8.59375 46.296875 13.765625 49.65625 
Q 18.953125 53.03125 25.34375 53.03125 
Q 30.03125 53.03125 33.6875 51.046875 
Q 37.359375 49.078125 39.65625 45.90625 
L 39.65625 71.578125 
L 48.390625 71.578125 
L 48.390625 0 
z
M 12.453125 25.875 
Q 12.453125 15.921875 16.640625 10.984375 
Q 20.84375 6.0625 26.5625 6.0625 
Q 32.328125 6.0625 36.34375 10.765625 
Q 40.375 15.484375 40.375 25.140625 
Q 40.375 35.796875 36.265625 40.765625 
Q 32.171875 45.75 26.171875 45.75 
Q 20.3125 45.75 16.375 40.96875 
Q 12.453125 36.1875 12.453125 25.875 
z
" id="ArialMT-100"/>
      <path d="M 40.4375 6.390625 
Q 35.546875 2.25 31.03125 0.53125 
Q 26.515625 -1.171875 21.34375 -1.171875 
Q 12.796875 -1.171875 8.203125 3 
Q 3.609375 7.171875 3.609375 13.671875 
Q 3.609375 17.484375 5.34375 20.625 
Q 7.078125 23.78125 9.890625 25.6875 
Q 12.703125 27.59375 16.21875 28.5625 
Q 18.796875 29.25 24.03125 29.890625 
Q 34.671875 31.15625 39.703125 32.90625 
Q 39.75 34.71875 39.75 35.203125 
Q 39.75 40.578125 37.25 42.78125 
Q 33.890625 45.75 27.25 45.75 
Q 21.046875 45.75 18.09375 43.578125 
Q 15.140625 41.40625 13.71875 35.890625 
L 5.125 37.0625 
Q 6.296875 42.578125 8.984375 45.96875 
Q 11.671875 49.359375 16.75 51.1875 
Q 21.828125 53.03125 28.515625 53.03125 
Q 35.15625 53.03125 39.296875 51.46875 
Q 43.453125 49.90625 45.40625 47.53125 
Q 47.359375 45.171875 48.140625 41.546875 
Q 48.578125 39.3125 48.578125 33.453125 
L 48.578125 21.734375 
Q 48.578125 9.46875 49.140625 6.21875 
Q 49.703125 2.984375 51.375 0 
L 42.1875 0 
Q 40.828125 2.734375 40.4375 6.390625 
z
M 39.703125 26.03125 
Q 34.90625 24.078125 25.34375 22.703125 
Q 19.921875 21.921875 17.671875 20.9375 
Q 15.4375 19.96875 14.203125 18.09375 
Q 12.984375 16.21875 12.984375 13.921875 
Q 12.984375 10.40625 15.640625 8.0625 
Q 18.3125 5.71875 23.4375 5.71875 
Q 28.515625 5.71875 32.46875 7.9375 
Q 36.421875 10.15625 38.28125 14.015625 
Q 39.703125 17 39.703125 22.796875 
z
" id="ArialMT-97"/>
      <path d="M 6.203125 -19.96875 
L 5.21875 -11.71875 
Q 8.109375 -12.5 10.25 -12.5 
Q 13.1875 -12.5 14.9375 -11.515625 
Q 16.703125 -10.546875 17.828125 -8.796875 
Q 18.65625 -7.46875 20.515625 -2.25 
Q 20.75 -1.515625 21.296875 -0.09375 
L 1.609375 51.859375 
L 11.078125 51.859375 
L 21.875 21.828125 
Q 23.96875 16.109375 25.640625 9.8125 
Q 27.15625 15.875 29.25 21.625 
L 40.328125 51.859375 
L 49.125 51.859375 
L 29.390625 -0.875 
Q 26.21875 -9.421875 24.46875 -12.640625 
Q 22.125 -17 19.09375 -19.015625 
Q 16.0625 -21.046875 11.859375 -21.046875 
Q 9.328125 -21.046875 6.203125 -19.96875 
z
" id="ArialMT-121"/>
     </defs>
     <g style="fill:#262626;" transform="translate(248.190469 385.68875)scale(0.18 -0.18)">
      <use xlink:href="#ArialMT-84"/>
      <use x="61.037109" xlink:href="#ArialMT-105"/>
      <use x="83.253906" xlink:href="#ArialMT-109"/>
      <use x="166.554688" xlink:href="#ArialMT-101"/>
      <use x="222.169922" xlink:href="#ArialMT-32"/>
      <use x="249.953125" xlink:href="#ArialMT-111"/>
      <use x="305.568359" xlink:href="#ArialMT-102"/>
      <use x="333.351562" xlink:href="#ArialMT-32"/>
      <use x="361.134766" xlink:href="#ArialMT-100"/>
      <use x="416.75" xlink:href="#ArialMT-97"/>
      <use x="472.365234" xlink:href="#ArialMT-121"/>
     </g>
    </g>
   </g>
   <g id="matplotlib.axis_2">
    <g id="ytick_1">
     <g id="line2d_11">
      <path clip-path="url(#pd5d5e61723)" d="M 72 338.58 
L 518.4 338.58 
" style="fill:none;stroke:#ffffff;stroke-linecap:round;"/>
     </g>
     <g id="line2d_12"/>
     <g id="text_7">
      <!-- 0.0 -->
      <defs>
       <path d="M 9.078125 0 
L 9.078125 10.015625 
L 19.09375 10.015625 
L 19.09375 0 
z
" id="ArialMT-46"/>
      </defs>
      <g style="fill:#262626;" transform="translate(51.1 342.158906)scale(0.1 -0.1)">
       <use xlink:href="#ArialMT-48"/>
       <use x="55.615234" xlink:href="#ArialMT-46"/>
       <use x="83.398438" xlink:href="#ArialMT-48"/>
      </g>
     </g>
    </g>
    <g id="ytick_2">
     <g id="line2d_13">
      <path clip-path="url(#pd5d5e61723)" d="M 72 301.700858 
L 518.4 301.700858 
" style="fill:none;stroke:#ffffff;stroke-linecap:round;"/>
     </g>
     <g id="line2d_14"/>
     <g id="text_8">
      <!-- 0.5 -->
      <g style="fill:#262626;" transform="translate(51.1 305.279764)scale(0.1 -0.1)">
       <use xlink:href="#ArialMT-48"/>
       <use x="55.615234" xlink:href="#ArialMT-46"/>
       <use x="83.398438" xlink:href="#ArialMT-53"/>
      </g>
     </g>
    </g>
    <g id="ytick_3">
     <g id="line2d_15">
      <path clip-path="url(#pd5d5e61723)" d="M 72 264.821716 
L 518.4 264.821716 
" style="fill:none;stroke:#ffffff;stroke-linecap:round;"/>
     </g>
     <g id="line2d_16"/>
     <g id="text_9">
      <!-- 1.0 -->
      <g style="fill:#262626;" transform="translate(51.1 268.400622)scale(0.1 -0.1)">
       <use xlink:href="#ArialMT-49"/>
       <use x="55.615234" xlink:href="#ArialMT-46"/>
       <use x="83.398438" xlink:href="#ArialMT-48"/>
      </g>
     </g>
    </g>
    <g id="ytick_4">
     <g id="line2d_17">
      <path clip-path="url(#pd5d5e61723)" d="M 72 227.942574 
L 518.4 227.942574 
" style="fill:none;stroke:#ffffff;stroke-linecap:round;"/>
     </g>
     <g id="line2d_18"/>
     <g id="text_10">
      <!-- 1.5 -->
      <g style="fill:#262626;" transform="translate(51.1 231.52148)scale(0.1 -0.1)">
       <use xlink:href="#ArialMT-49"/>
       <use x="55.615234" xlink:href="#ArialMT-46"/>
       <use x="83.398438" xlink:href="#ArialMT-53"/>
      </g>
     </g>
    </g>
    <g id="ytick_5">
     <g id="line2d_19">
      <path clip-path="url(#pd5d5e61723)" d="M 72 191.063432 
L 518.4 191.063432 
" style="fill:none;stroke:#ffffff;stroke-linecap:round;"/>
     </g>
     <g id="line2d_20"/>
     <g id="text_11">
      <!-- 2.0 -->
      <g style="fill:#262626;" transform="translate(51.1 194.642338)scale(0.1 -0.1)">
       <use xlink:href="#ArialMT-50"/>
       <use x="55.615234" xlink:href="#ArialMT-46"/>
       <use x="83.398438" xlink:href="#ArialMT-48"/>
      </g>
     </g>
    </g>
    <g id="ytick_6">
     <g id="line2d_21">
      <path clip-path="url(#pd5d5e61723)" d="M 72 154.18429 
L 518.4 154.18429 
" style="fill:none;stroke:#ffffff;stroke-linecap:round;"/>
     </g>
     <g id="line2d_22"/>
     <g id="text_12">
      <!-- 2.5 -->
      <g style="fill:#262626;" transform="translate(51.1 157.763196)scale(0.1 -0.1)">
       <use xlink:href="#ArialMT-50"/>
       <use x="55.615234" xlink:href="#ArialMT-46"/>
       <use x="83.398438" xlink:href="#ArialMT-53"/>
      </g>
     </g>
    </g>
    <g id="ytick_7">
     <g id="line2d_23">
      <path clip-path="url(#pd5d5e61723)" d="M 72 117.305147 
L 518.4 117.305147 
" style="fill:none;stroke:#ffffff;stroke-linecap:round;"/>
     </g>
     <g id="line2d_24"/>
     <g id="text_13">
      <!-- 3.0 -->
      <g style="fill:#262626;" transform="translate(51.1 120.884054)scale(0.1 -0.1)">
       <use xlink:href="#ArialMT-51"/>
       <use x="55.615234" xlink:href="#ArialMT-46"/>
       <use x="83.398438" xlink:href="#ArialMT-48"/>
      </g>
     </g>
    </g>
    <g id="ytick_8">
     <g id="line2d_25">
      <path clip-path="url(#pd5d5e61723)" d="M 72 80.426005 
L 518.4 80.426005 
" style="fill:none;stroke:#ffffff;stroke-linecap:round;"/>
     </g>
     <g id="line2d_26"/>
     <g id="text_14">
      <!-- 3.5 -->
      <g style="fill:#262626;" transform="translate(51.1 84.004912)scale(0.1 -0.1)">
       <use xlink:href="#ArialMT-51"/>
       <use x="55.615234" xlink:href="#ArialMT-46"/>
       <use x="83.398438" xlink:href="#ArialMT-53"/>
      </g>
     </g>
    </g>
    <g id="text_15">
     <!-- Cost (US$) -->
     <defs>
      <path d="M 58.796875 25.09375 
L 68.265625 22.703125 
Q 65.28125 11.03125 57.546875 4.90625 
Q 49.8125 -1.21875 38.625 -1.21875 
Q 27.046875 -1.21875 19.796875 3.484375 
Q 12.546875 8.203125 8.765625 17.140625 
Q 4.984375 26.078125 4.984375 36.328125 
Q 4.984375 47.515625 9.25 55.828125 
Q 13.53125 64.15625 21.40625 68.46875 
Q 29.296875 72.796875 38.765625 72.796875 
Q 49.515625 72.796875 56.828125 67.328125 
Q 64.15625 61.859375 67.046875 51.953125 
L 57.71875 49.75 
Q 55.21875 57.5625 50.484375 61.125 
Q 45.75 64.703125 38.578125 64.703125 
Q 30.328125 64.703125 24.78125 60.734375 
Q 19.234375 56.78125 16.984375 50.109375 
Q 14.75 43.453125 14.75 36.375 
Q 14.75 27.25 17.40625 20.4375 
Q 20.0625 13.625 25.671875 10.25 
Q 31.296875 6.890625 37.84375 6.890625 
Q 45.796875 6.890625 51.3125 11.46875 
Q 56.84375 16.0625 58.796875 25.09375 
z
" id="ArialMT-67"/>
      <path d="M 3.078125 15.484375 
L 11.765625 16.84375 
Q 12.5 11.625 15.84375 8.84375 
Q 19.1875 6.0625 25.203125 6.0625 
Q 31.25 6.0625 34.171875 8.515625 
Q 37.109375 10.984375 37.109375 14.3125 
Q 37.109375 17.28125 34.515625 19 
Q 32.71875 20.171875 25.53125 21.96875 
Q 15.875 24.421875 12.140625 26.203125 
Q 8.40625 27.984375 6.46875 31.125 
Q 4.546875 34.28125 4.546875 38.09375 
Q 4.546875 41.546875 6.125 44.5 
Q 7.71875 47.46875 10.453125 49.421875 
Q 12.5 50.921875 16.03125 51.96875 
Q 19.578125 53.03125 23.640625 53.03125 
Q 29.734375 53.03125 34.34375 51.265625 
Q 38.96875 49.515625 41.15625 46.5 
Q 43.359375 43.5 44.1875 38.484375 
L 35.59375 37.3125 
Q 35.015625 41.3125 32.203125 43.546875 
Q 29.390625 45.796875 24.265625 45.796875 
Q 18.21875 45.796875 15.625 43.796875 
Q 13.03125 41.796875 13.03125 39.109375 
Q 13.03125 37.40625 14.109375 36.03125 
Q 15.1875 34.625 17.484375 33.6875 
Q 18.796875 33.203125 25.25 31.453125 
Q 34.578125 28.953125 38.25 27.359375 
Q 41.9375 25.78125 44.03125 22.75 
Q 46.140625 19.734375 46.140625 15.234375 
Q 46.140625 10.84375 43.578125 6.953125 
Q 41.015625 3.078125 36.171875 0.953125 
Q 31.34375 -1.171875 25.25 -1.171875 
Q 15.140625 -1.171875 9.84375 3.03125 
Q 4.546875 7.234375 3.078125 15.484375 
z
" id="ArialMT-115"/>
      <path d="M 25.78125 7.859375 
L 27.046875 0.09375 
Q 23.34375 -0.6875 20.40625 -0.6875 
Q 15.625 -0.6875 12.984375 0.828125 
Q 10.359375 2.34375 9.28125 4.8125 
Q 8.203125 7.28125 8.203125 15.1875 
L 8.203125 45.015625 
L 1.765625 45.015625 
L 1.765625 51.859375 
L 8.203125 51.859375 
L 8.203125 64.703125 
L 16.9375 69.96875 
L 16.9375 51.859375 
L 25.78125 51.859375 
L 25.78125 45.015625 
L 16.9375 45.015625 
L 16.9375 14.703125 
Q 16.9375 10.9375 17.40625 9.859375 
Q 17.875 8.796875 18.921875 8.15625 
Q 19.96875 7.515625 21.921875 7.515625 
Q 23.390625 7.515625 25.78125 7.859375 
z
" id="ArialMT-116"/>
      <path d="M 23.390625 -21.046875 
Q 16.109375 -11.859375 11.078125 0.4375 
Q 6.0625 12.75 6.0625 25.921875 
Q 6.0625 37.546875 9.8125 48.1875 
Q 14.203125 60.546875 23.390625 72.796875 
L 29.6875 72.796875 
Q 23.78125 62.640625 21.875 58.296875 
Q 18.890625 51.5625 17.1875 44.234375 
Q 15.09375 35.109375 15.09375 25.875 
Q 15.09375 2.390625 29.6875 -21.046875 
z
" id="ArialMT-40"/>
      <path d="M 54.6875 71.578125 
L 64.15625 71.578125 
L 64.15625 30.21875 
Q 64.15625 19.4375 61.71875 13.078125 
Q 59.28125 6.734375 52.90625 2.75 
Q 46.53125 -1.21875 36.1875 -1.21875 
Q 26.125 -1.21875 19.71875 2.25 
Q 13.328125 5.71875 10.59375 12.28125 
Q 7.859375 18.84375 7.859375 30.21875 
L 7.859375 71.578125 
L 17.328125 71.578125 
L 17.328125 30.28125 
Q 17.328125 20.953125 19.0625 16.53125 
Q 20.796875 12.109375 25.015625 9.71875 
Q 29.25 7.328125 35.359375 7.328125 
Q 45.796875 7.328125 50.234375 12.0625 
Q 54.6875 16.796875 54.6875 30.28125 
z
" id="ArialMT-85"/>
      <path d="M 4.5 23 
L 13.421875 23.78125 
Q 14.0625 18.40625 16.375 14.96875 
Q 18.703125 11.53125 23.578125 9.40625 
Q 28.46875 7.28125 34.578125 7.28125 
Q 39.984375 7.28125 44.140625 8.890625 
Q 48.296875 10.5 50.3125 13.296875 
Q 52.34375 16.109375 52.34375 19.4375 
Q 52.34375 22.796875 50.390625 25.3125 
Q 48.4375 27.828125 43.953125 29.546875 
Q 41.0625 30.671875 31.203125 33.03125 
Q 21.34375 35.40625 17.390625 37.5 
Q 12.25 40.1875 9.734375 44.15625 
Q 7.234375 48.140625 7.234375 53.078125 
Q 7.234375 58.5 10.296875 63.203125 
Q 13.375 67.921875 19.28125 70.359375 
Q 25.203125 72.796875 32.421875 72.796875 
Q 40.375 72.796875 46.453125 70.234375 
Q 52.546875 67.671875 55.8125 62.6875 
Q 59.078125 57.71875 59.328125 51.421875 
L 50.25 50.734375 
Q 49.515625 57.515625 45.28125 60.984375 
Q 41.0625 64.453125 32.8125 64.453125 
Q 24.21875 64.453125 20.28125 61.296875 
Q 16.359375 58.15625 16.359375 53.71875 
Q 16.359375 49.859375 19.140625 47.359375 
Q 21.875 44.875 33.421875 42.265625 
Q 44.96875 39.65625 49.265625 37.703125 
Q 55.515625 34.8125 58.484375 30.390625 
Q 61.46875 25.984375 61.46875 20.21875 
Q 61.46875 14.5 58.203125 9.4375 
Q 54.9375 4.390625 48.796875 1.578125 
Q 42.671875 -1.21875 35.015625 -1.21875 
Q 25.296875 -1.21875 18.71875 1.609375 
Q 12.15625 4.4375 8.421875 10.125 
Q 4.6875 15.828125 4.5 23 
z
" id="ArialMT-83"/>
      <path d="M 24.90625 -10.296875 
L 24.90625 -1.515625 
Q 18.3125 -0.6875 14.1875 1.4375 
Q 10.0625 3.5625 7.046875 8.296875 
Q 4.046875 13.03125 3.5625 19.875 
L 12.40625 21.53125 
Q 13.421875 14.453125 16.015625 11.140625 
Q 19.734375 6.453125 24.90625 5.90625 
L 24.90625 33.890625 
Q 19.484375 34.90625 13.8125 38.09375 
Q 9.625 40.4375 7.34375 44.578125 
Q 5.078125 48.734375 5.078125 54 
Q 5.078125 63.375 11.71875 69.1875 
Q 16.15625 73.09375 24.90625 73.96875 
L 24.90625 78.171875 
L 30.078125 78.171875 
L 30.078125 73.96875 
Q 37.75 73.25 42.234375 69.484375 
Q 48 64.703125 49.171875 56.34375 
L 40.09375 54.984375 
Q 39.3125 60.15625 36.84375 62.90625 
Q 34.375 65.671875 30.078125 66.546875 
L 30.078125 41.21875 
Q 36.71875 39.546875 38.875 38.625 
Q 42.96875 36.8125 45.546875 34.21875 
Q 48.140625 31.640625 49.53125 28.078125 
Q 50.921875 24.515625 50.921875 20.359375 
Q 50.921875 11.234375 45.109375 5.125 
Q 39.3125 -0.984375 30.078125 -1.421875 
L 30.078125 -10.296875 
z
M 24.90625 66.65625 
Q 19.78125 65.875 16.828125 62.546875 
Q 13.875 59.234375 13.875 54.6875 
Q 13.875 50.203125 16.375 47.171875 
Q 18.890625 44.140625 24.90625 42.328125 
z
M 30.078125 5.90625 
Q 35.203125 6.546875 38.546875 10.34375 
Q 41.890625 14.15625 41.890625 19.78125 
Q 41.890625 24.5625 39.515625 27.46875 
Q 37.15625 30.375 30.078125 32.671875 
z
" id="ArialMT-36"/>
      <path d="M 12.359375 -21.046875 
L 6.0625 -21.046875 
Q 20.65625 2.390625 20.65625 25.875 
Q 20.65625 35.0625 18.5625 44.09375 
Q 16.890625 51.421875 13.921875 58.15625 
Q 12.015625 62.546875 6.0625 72.796875 
L 12.359375 72.796875 
Q 21.53125 60.546875 25.921875 48.1875 
Q 29.6875 37.546875 29.6875 25.921875 
Q 29.6875 12.75 24.625 0.4375 
Q 19.578125 -11.859375 12.359375 -21.046875 
z
" id="ArialMT-41"/>
     </defs>
     <g style="fill:#262626;" transform="translate(43.311562 244.486406)rotate(-90)scale(0.18 -0.18)">
      <use xlink:href="#ArialMT-67"/>
      <use x="72.216797" xlink:href="#ArialMT-111"/>
      <use x="127.832031" xlink:href="#ArialMT-115"/>
      <use x="177.832031" xlink:href="#ArialMT-116"/>
      <use x="205.615234" xlink:href="#ArialMT-32"/>
      <use x="233.398438" xlink:href="#ArialMT-40"/>
      <use x="266.699219" xlink:href="#ArialMT-85"/>
      <use x="338.916016" xlink:href="#ArialMT-83"/>
      <use x="405.615234" xlink:href="#ArialMT-36"/>
      <use x="461.230469" xlink:href="#ArialMT-41"/>
     </g>
    </g>
   </g>
   <g id="line2d_27">
    <path clip-path="url(#pd5d5e61723)" d="M 92.290909 338.534518 
L 93.136657 338.275259 
L 93.418573 338.229778 
L 93.559531 337.814144 
L 94.40528 337.554885 
L 94.828154 337.454953 
L 95.532944 337.250145 
L 95.955818 337.204663 
L 96.096776 336.789029 
L 96.942524 336.52977 
L 97.365398 336.484289 
L 97.92923 335.113844 
L 98.634021 334.909036 
L 99.338811 334.809104 
L 100.043601 334.604295 
L 101.030307 334.504363 
L 101.735097 334.299555 
L 102.29893 334.254073 
L 102.439888 333.83844 
L 104.131384 333.27444 
L 104.554258 333.228958 
L 105.11809 331.858514 
L 106.668629 331.348965 
L 107.232461 331.303483 
L 107.655335 330.390128 
L 108.360125 330.18532 
L 109.064915 330.085387 
L 110.615454 329.575838 
L 111.884076 329.475906 
L 113.434614 328.966357 
L 113.857488 328.920875 
L 114.562279 327.093341 
L 115.267069 326.888533 
L 115.830901 326.788601 
L 116.535691 326.583792 
L 117.099523 326.48386 
L 117.804313 326.279052 
L 118.086229 326.23357 
L 118.509104 325.320215 
L 119.213894 325.115407 
L 119.636768 325.015474 
L 120.482516 324.765184 
L 120.90539 323.851829 
L 121.61018 323.647021 
L 121.892096 323.601539 
L 122.31497 322.688184 
L 123.019761 322.483376 
L 123.301677 322.437894 
L 123.724551 321.524539 
L 124.570299 321.274249 
L 124.711257 320.858616 
L 126.402753 320.294616 
L 126.825628 320.194684 
L 127.530418 319.989876 
L 128.658082 319.889943 
L 129.362872 319.685135 
L 130.067662 319.585203 
L 130.772453 319.380394 
L 131.054369 319.334913 
L 131.195327 318.919279 
L 132.182033 318.614539 
L 132.322991 318.198905 
L 133.309697 317.894164 
L 134.155445 315.609541 
L 135.705984 315.099992 
L 135.9879 315.05451 
L 136.833648 312.769887 
L 137.538438 312.565078 
L 138.10227 312.465146 
L 138.807061 312.260338 
L 139.229935 312.160405 
L 140.075683 311.910115 
L 140.216641 311.494482 
L 141.062389 311.235223 
L 141.485263 311.13529 
L 143.035802 310.625741 
L 143.458676 310.525809 
L 144.163466 310.321001 
L 144.58634 310.275519 
L 145.009214 309.362164 
L 145.714004 309.157356 
L 146.418794 309.057424 
L 147.123585 308.852615 
L 147.546459 308.752683 
L 149.096997 308.243134 
L 149.660829 308.197652 
L 150.224661 306.827208 
L 150.929452 306.622399 
L 151.352326 306.576918 
L 151.916158 305.206473 
L 152.620948 305.001665 
L 153.043822 304.956183 
L 153.748612 303.128649 
L 155.299151 302.6191 
L 156.003941 302.519168 
L 156.708731 302.31436 
L 157.413521 302.214427 
L 158.118311 302.009619 
L 158.823101 301.909687 
L 159.66885 301.659397 
L 160.232682 300.288952 
L 160.937472 300.084144 
L 161.501304 300.038662 
L 161.924178 299.125307 
L 162.628968 298.920499 
L 163.051842 298.820566 
L 163.756633 298.615758 
L 164.179507 298.515826 
L 164.884297 298.311017 
L 165.589087 298.265536 
L 165.730045 297.849902 
L 166.716751 297.545162 
L 167.844416 294.346359 
L 168.690164 294.096069 
L 169.113038 293.182714 
L 170.663576 292.673165 
L 171.08645 292.573233 
L 171.932199 292.322943 
L 172.073157 291.907309 
L 172.918905 291.64805 
L 173.200821 291.602569 
L 173.764653 290.232124 
L 174.469443 290.027316 
L 174.892317 289.981834 
L 175.033275 289.566201 
L 175.879024 289.306942 
L 176.301898 289.26146 
L 176.442856 288.845826 
L 177.288604 288.586567 
L 177.711478 288.486635 
L 178.416268 288.281827 
L 179.262016 288.181894 
L 180.812555 287.672345 
L 181.517345 287.626864 
L 181.658303 287.21123 
L 183.349799 286.647231 
L 183.631716 286.601749 
L 184.05459 285.688394 
L 184.75938 285.483586 
L 185.323212 285.383653 
L 186.87375 284.874104 
L 187.296624 284.774172 
L 188.847163 284.264623 
L 191.102491 284.164691 
L 191.807282 283.959882 
L 192.512072 283.85995 
L 193.216862 283.655142 
L 193.921652 283.555209 
L 194.626442 283.350401 
L 195.190274 283.250469 
L 195.895065 283.04566 
L 196.176981 283.000179 
L 196.317939 282.584545 
L 197.163687 282.325286 
L 197.727519 282.279805 
L 198.432309 280.452271 
L 199.137099 280.247462 
L 199.419015 280.201981 
L 199.559973 279.786347 
L 201.25147 279.222347 
L 201.533386 279.176866 
L 202.520092 276.435153 
L 203.36584 276.184863 
L 203.506798 275.769229 
L 204.493505 275.464489 
L 205.762127 271.405958 
L 207.453623 265.920883 
L 208.299372 265.661624 
L 208.581288 265.616143 
L 209.84991 261.557612 
L 210.272784 260.186343 
L 211.118532 259.927084 
L 211.541406 259.827152 
L 212.246197 259.622343 
L 212.669071 259.576862 
L 213.091945 258.663507 
L 214.642483 258.153958 
L 216.052064 258.054025 
L 216.756854 257.849217 
L 217.602602 257.749285 
L 218.307392 257.544476 
L 219.435056 257.498995 
L 219.576014 257.083361 
L 220.421763 256.824102 
L 221.690385 256.72417 
L 222.536133 256.47388 
L 223.522839 253.732167 
L 224.368588 253.481877 
L 224.93242 252.111432 
L 225.778168 251.861142 
L 226.482958 250.033608 
L 227.187748 249.8288 
L 227.610622 249.783318 
L 228.315413 247.955784 
L 229.161161 247.705494 
L 230.288825 244.506692 
L 230.993615 244.301883 
L 232.121279 244.201951 
L 233.671818 243.692402 
L 234.376608 243.59247 
L 235.081398 243.387661 
L 236.068104 243.287729 
L 237.618643 242.77818 
L 239.028223 242.678248 
L 239.733013 242.473439 
L 240.71972 242.427958 
L 240.860678 242.012324 
L 241.706426 241.753065 
L 242.411216 241.707584 
L 242.552174 241.29195 
L 243.397922 241.032691 
L 243.679838 240.987209 
L 244.24367 239.616765 
L 244.948461 239.411957 
L 246.076125 239.312024 
L 246.780915 239.107216 
L 247.062831 239.061734 
L 247.485705 238.148379 
L 248.190495 237.943571 
L 248.895286 237.843639 
L 249.741034 237.593349 
L 249.881992 237.177715 
L 250.72774 236.918456 
L 251.43253 236.818524 
L 252.983069 236.308975 
L 253.828817 236.209042 
L 254.533607 236.004234 
L 255.802229 235.904302 
L 256.507019 235.699494 
L 257.352768 235.599561 
L 258.057558 235.394753 
L 258.480432 235.294821 
L 259.185222 235.090012 
L 259.467138 235.044531 
L 259.608096 234.628897 
L 261.299593 234.064897 
L 261.581509 234.019416 
L 262.286299 232.191882 
L 263.836837 231.682333 
L 264.400669 231.636851 
L 264.823544 230.723496 
L 265.528334 230.518688 
L 265.81025 230.473206 
L 265.951208 230.057573 
L 266.796956 229.798314 
L 267.078872 229.752832 
L 267.21983 229.337199 
L 268.065578 229.077939 
L 268.62941 228.978007 
L 269.334201 228.773199 
L 269.616117 228.727717 
L 270.179949 227.357273 
L 271.025697 227.106983 
L 271.448571 226.193628 
L 272.153361 225.988819 
L 272.717193 225.888887 
L 273.562942 225.638597 
L 274.126774 224.268152 
L 274.972522 224.017863 
L 275.395396 223.104507 
L 276.241144 222.854218 
L 276.664018 221.940862 
L 278.214557 221.431313 
L 278.637431 221.331381 
L 279.342221 221.126573 
L 280.469885 221.02664 
L 282.020424 220.517091 
L 282.866172 220.417159 
L 283.570962 220.212351 
L 285.544375 220.166869 
L 285.685333 219.751236 
L 286.531081 219.491977 
L 286.953955 219.392044 
L 287.799703 219.141754 
L 288.222577 218.228399 
L 288.927367 218.023591 
L 289.350242 217.923659 
L 290.055032 217.71885 
L 290.477906 217.618918 
L 291.323654 217.368628 
L 291.464612 216.952995 
L 293.156108 216.388995 
L 293.719941 216.343513 
L 294.142815 215.430158 
L 294.847605 215.22535 
L 295.129521 215.179868 
L 295.693353 213.809424 
L 297.243892 213.299875 
L 297.525808 213.254393 
L 298.230598 211.426859 
L 298.935388 211.222051 
L 299.217304 211.176569 
L 299.781136 209.806125 
L 300.485926 209.601316 
L 300.767842 209.555835 
L 300.9088 209.140201 
L 302.600297 208.576201 
L 303.023171 208.476269 
L 303.727961 208.271461 
L 304.009877 208.225979 
L 304.150835 207.810346 
L 304.996583 207.551087 
L 305.278499 207.505605 
L 305.419458 207.089972 
L 306.265206 206.830712 
L 306.547122 206.785231 
L 306.68808 206.369597 
L 307.533828 206.110338 
L 308.238618 206.010406 
L 309.084366 205.760116 
L 309.507241 204.846761 
L 310.352989 204.596471 
L 310.493947 204.180838 
L 311.480653 203.876097 
L 311.621611 203.460463 
L 312.608317 203.155723 
L 313.87694 199.499831 
L 315.427478 198.990282 
L 315.850352 198.890349 
L 316.555142 198.685541 
L 316.978016 198.585609 
L 317.823765 198.335319 
L 317.964723 197.919685 
L 319.656219 197.355686 
L 320.642925 197.255753 
L 322.193464 196.746204 
L 322.616338 196.646272 
L 324.166876 196.136723 
L 324.58975 196.036791 
L 325.435498 195.786501 
L 325.576456 195.370867 
L 327.267953 194.806867 
L 327.690827 194.761386 
L 328.395617 192.933852 
L 329.241365 192.683562 
L 329.946156 190.856028 
L 330.791904 190.605738 
L 330.932862 190.190104 
L 332.624358 189.626105 
L 333.047232 189.526172 
L 334.597771 189.016623 
L 335.020645 188.971142 
L 335.725435 187.143608 
L 336.571183 186.893318 
L 337.416931 184.608694 
L 338.121722 184.403886 
L 338.403638 184.358404 
L 339.108428 182.53087 
L 339.813218 182.326062 
L 340.095134 182.28058 
L 341.08184 179.538867 
L 341.927588 179.288577 
L 342.068547 178.872943 
L 343.055253 178.568203 
L 344.182917 175.3694 
L 344.887707 175.164592 
L 345.310581 175.064659 
L 346.15633 174.81437 
L 347.002078 172.529746 
L 347.706868 172.324938 
L 348.129742 172.225005 
L 348.834532 172.020197 
L 349.116448 171.974715 
L 349.539322 171.06136 
L 350.385071 170.81107 
L 350.526029 170.395437 
L 351.371777 170.136178 
L 351.653693 170.090696 
L 351.794651 169.675063 
L 353.486147 169.111063 
L 354.190938 169.065581 
L 354.331896 168.649948 
L 355.177644 168.390689 
L 356.023392 168.345207 
L 356.16435 167.929574 
L 357.855846 167.365574 
L 359.829259 167.265642 
L 360.534049 167.060833 
L 361.097881 166.960901 
L 361.802671 166.756093 
L 362.507462 166.65616 
L 363.212252 166.451352 
L 363.917042 166.35142 
L 364.621832 166.146611 
L 365.044706 166.046679 
L 366.595245 165.53713 
L 367.018119 165.491649 
L 367.722909 163.664114 
L 368.568657 163.413824 
L 368.709615 162.998191 
L 369.696321 162.69345 
L 369.837279 162.277817 
L 370.823986 161.973076 
L 371.24686 161.059721 
L 372.092608 160.809431 
L 373.36123 156.7509 
L 374.06602 154.465453 
L 375.052727 154.160712 
L 376.462307 150.04773 
L 377.308055 149.79744 
L 378.153803 147.512817 
L 379.704342 147.003268 
L 379.986258 146.957786 
L 380.127216 146.542153 
L 381.818712 145.978153 
L 382.100628 145.932671 
L 382.664461 144.562227 
L 383.369251 144.357418 
L 384.074041 144.311937 
L 384.496915 143.398582 
L 385.201705 143.193773 
L 390.276194 143.093841 
L 390.980985 142.889033 
L 393.518229 142.7891 
L 394.223019 142.584292 
L 395.6326 142.53881 
L 396.055474 141.625455 
L 397.606012 141.115906 
L 397.887928 141.070425 
L 398.874635 138.328712 
L 399.720383 138.078422 
L 400.989005 134.019891 
L 401.834753 131.277353 
L 402.821459 130.972613 
L 404.090082 127.316721 
L 405.64062 126.807172 
L 405.922536 126.76169 
L 407.191159 122.703159 
L 407.754991 120.874801 
L 408.741697 120.57006 
L 408.882655 120.154427 
L 409.728403 119.895168 
L 410.010319 119.849686 
L 410.151277 119.434053 
L 411.842774 118.870053 
L 412.406606 118.824571 
L 412.547564 118.408938 
L 413.393312 118.149679 
L 413.957144 118.049746 
L 414.661934 117.844938 
L 415.084808 117.745006 
L 415.930557 117.494716 
L 416.353431 116.581361 
L 417.058221 116.376552 
L 417.622053 116.331071 
L 417.763011 115.915437 
L 419.454508 115.351438 
L 419.877382 115.251505 
L 420.72313 115.001215 
L 420.864088 114.585582 
L 421.709836 114.326323 
L 422.13271 114.226391 
L 422.978458 113.976101 
L 423.119416 113.560467 
L 424.106123 113.255726 
L 424.810913 111.428192 
L 426.361451 110.918643 
L 426.643367 110.873162 
L 427.91199 106.814631 
L 428.193906 105.900452 
L 429.885402 105.336452 
L 430.308276 105.29097 
L 430.73115 104.377615 
L 431.576899 104.127325 
L 431.999773 103.21397 
L 433.550311 102.704421 
L 433.832227 102.65894 
L 433.973185 102.243306 
L 435.664682 101.679307 
L 436.228514 101.579374 
L 436.933304 101.374566 
L 438.060968 101.274634 
L 439.611507 100.765085 
L 441.162045 100.719603 
L 441.584919 99.806248 
L 442.289709 99.60144 
L 442.853541 99.501507 
L 443.558331 99.296699 
L 443.981206 99.251217 
L 444.40408 98.337862 
L 445.10887 98.133054 
L 445.672702 98.033122 
L 446.51845 97.782832 
L 447.505156 95.041119 
L 448.350905 94.790829 
L 449.619527 90.732298 
L 449.760485 90.275208 
L 450.747191 89.970467 
L 451.311023 88.600023 
L 452.861562 88.090474 
L 453.284436 88.044992 
L 454.694016 83.93201 
L 455.398806 83.727202 
L 455.962639 83.62727 
L 456.808387 83.37698 
L 457.231261 82.463625 
L 458.781799 81.954076 
L 459.063715 81.908594 
L 459.204673 81.492961 
L 460.050422 81.233702 
L 460.332338 81.18822 
L 460.89617 79.817776 
L 462.446708 79.308227 
L 462.869582 79.262745 
L 463.01054 78.847111 
L 463.997247 78.542371 
L 464.420121 77.629016 
L 465.124911 77.424207 
L 465.688743 77.324275 
L 466.393533 77.119467 
L 466.957365 77.019534 
L 467.803113 76.769245 
L 467.944071 76.353611 
L 468.78982 76.094352 
L 470.1994 75.99442 
L 470.90419 75.789611 
L 471.60898 75.689679 
L 472.313771 75.484871 
L 473.582393 75.384938 
L 474.287183 75.18013 
L 475.273889 75.080198 
L 475.978679 74.875389 
L 476.965386 74.829908 
L 477.106344 74.414274 
L 477.952092 74.155015 
L 478.656882 74.055083 
L 480.207421 73.545534 
L 480.489337 73.500052 
L 480.912211 72.586697 
L 482.462749 72.077148 
L 482.885623 71.977216 
L 483.590413 71.772408 
L 484.013287 71.672475 
L 484.718078 71.467667 
L 484.999994 71.422185 
L 485.845742 69.137562 
L 487.39628 68.628013 
L 487.819154 68.582531 
L 488.523945 66.754997 
L 489.228735 66.550189 
L 489.651609 66.450256 
L 490.497357 66.199966 
L 490.920231 65.286611 
L 491.625021 65.081803 
L 491.906937 65.036321 
L 492.047895 64.620688 
L 492.893644 64.361429 
L 493.17556 64.315947 
L 493.316518 63.900314 
L 494.162266 63.641055 
L 494.444182 63.595573 
L 494.58514 63.17994 
L 495.571846 62.875199 
L 495.712804 62.459566 
L 496.699511 62.154825 
L 496.840469 61.739191 
L 497.686217 61.479932 
L 498.109091 61.38 
L 498.109091 61.38 
" style="fill:none;stroke:#8172b2;stroke-linecap:round;stroke-width:1.75;"/>
   </g>
   <g id="line2d_28">
    <path clip-path="url(#pd5d5e61723)" d="M 92.290909 338.58 
L 92.431867 338.534518 
L 93.277615 336.249895 
L 93.982406 336.045086 
L 98.211147 335.999605 
L 99.056895 333.714981 
L 99.761685 333.510173 
L 104.131384 333.464691 
L 104.977132 331.180068 
L 105.681922 330.975259 
L 109.910663 330.929778 
L 110.756412 328.645154 
L 111.461202 328.440346 
L 115.548985 328.394864 
L 116.394733 326.11024 
L 117.099523 325.905432 
L 121.187306 325.859951 
L 122.033054 323.575327 
L 122.737845 323.370519 
L 126.825628 323.325037 
L 127.671376 321.040413 
L 128.376166 320.835605 
L 132.604907 320.790123 
L 133.591613 318.04841 
L 134.296403 317.843602 
L 138.948019 317.79812 
L 139.793767 315.513497 
L 140.498557 315.308688 
L 144.58634 315.263207 
L 145.432088 312.978583 
L 146.136878 312.773775 
L 150.224661 312.728293 
L 151.07041 310.443669 
L 151.7752 310.238861 
L 155.862983 310.19338 
L 156.708731 307.908756 
L 157.413521 307.703948 
L 161.501304 307.658466 
L 162.347052 305.373842 
L 163.051842 305.169034 
L 167.139626 305.123552 
L 167.985374 302.838929 
L 168.690164 302.63412 
L 172.777947 302.588639 
L 173.623695 300.304015 
L 174.328485 300.099207 
L 178.416268 300.053725 
L 179.262016 297.769102 
L 179.966807 297.564293 
L 183.913632 297.518812 
L 184.900338 294.777099 
L 185.605128 294.57229 
L 189.974827 294.526809 
L 190.820575 292.242185 
L 191.525365 292.037377 
L 195.47219 291.991895 
L 196.458897 289.250182 
L 197.163687 289.045374 
L 201.392428 288.999892 
L 202.379134 286.258179 
L 203.083924 286.05337 
L 207.312665 286.007889 
L 208.299372 283.266176 
L 209.004162 283.061367 
L 213.373861 283.015886 
L 214.360567 280.274173 
L 215.065357 280.069364 
L 219.435056 280.023883 
L 220.280805 277.739259 
L 220.985595 277.534451 
L 224.93242 277.488969 
L 225.778168 275.204345 
L 226.482958 274.999537 
L 230.570741 274.954056 
L 231.557447 272.212342 
L 232.262238 272.007534 
L 236.913853 271.962052 
L 237.759601 269.677429 
L 238.464391 269.47262 
L 242.552174 269.427139 
L 243.397922 267.142515 
L 244.102712 266.937707 
L 248.331453 266.892225 
L 249.177202 264.607602 
L 249.881992 264.402793 
L 254.251691 264.357312 
L 255.097439 262.072688 
L 255.802229 261.86788 
L 260.03097 261.822398 
L 260.876719 259.537774 
L 261.581509 259.332966 
L 266.51504 259.287485 
L 267.360788 257.002861 
L 268.065578 256.798053 
L 273.140068 256.752571 
L 273.985816 254.467947 
L 274.690606 254.263139 
L 279.906053 254.217657 
L 280.751801 251.933034 
L 281.456592 251.728225 
L 287.094913 251.682744 
L 287.940661 249.39812 
L 288.645451 249.193312 
L 294.283773 249.14783 
L 295.129521 246.863207 
L 295.834311 246.658398 
L 301.190716 246.612917 
L 302.036465 244.328293 
L 302.741255 244.123485 
L 308.09766 244.078003 
L 308.943408 241.793379 
L 309.648199 241.588571 
L 315.145562 241.54309 
L 315.99131 239.258466 
L 316.6961 239.053658 
L 322.334422 239.008176 
L 323.18017 236.723552 
L 323.88496 236.518744 
L 329.523281 236.473262 
L 330.36903 234.188639 
L 331.07382 233.98383 
L 336.712141 233.938349 
L 337.557889 231.653725 
L 338.26268 231.448917 
L 343.901001 231.403435 
L 344.746749 229.118812 
L 345.451539 228.914003 
L 351.371777 228.868522 
L 352.217525 226.583898 
L 352.922315 226.37909 
L 358.983511 226.333608 
L 359.829259 224.048984 
L 360.534049 223.844176 
L 366.313328 223.798695 
L 367.159077 221.514071 
L 367.863867 221.309263 
L 373.502188 221.263781 
L 374.347936 218.979157 
L 375.052727 218.774349 
L 380.691048 218.728867 
L 381.536796 216.444244 
L 382.241586 216.239435 
L 387.597992 216.193954 
L 388.44374 213.90933 
L 389.14853 213.704522 
L 394.504935 213.65904 
L 395.350684 211.374417 
L 396.055474 211.169608 
L 401.411879 211.124127 
L 402.257627 208.839503 
L 402.962418 208.634695 
L 408.318823 208.589213 
L 409.164571 206.304589 
L 409.869361 206.099781 
L 415.084808 206.0543 
L 415.930557 203.769676 
L 416.635347 203.564868 
L 421.709836 203.519386 
L 422.555584 201.234762 
L 423.260374 201.029954 
L 428.334864 200.984472 
L 429.180612 198.699849 
L 429.885402 198.49504 
L 434.959891 198.449559 
L 435.80564 196.164935 
L 436.51043 195.960127 
L 441.584919 195.914645 
L 442.430667 193.630022 
L 443.135457 193.425213 
L 448.068989 193.379732 
L 448.914737 191.095108 
L 449.619527 190.8903 
L 454.694016 190.844818 
L 455.539764 188.560194 
L 456.244555 188.355386 
L 461.319044 188.309905 
L 462.164792 186.025281 
L 462.869582 185.820473 
L 467.944071 185.774991 
L 468.78982 183.490367 
L 469.49461 183.285559 
L 474.569099 183.240077 
L 475.414847 180.955454 
L 476.119638 180.750645 
L 481.194127 180.705164 
L 482.039875 178.42054 
L 482.744665 178.215732 
L 487.678196 178.17025 
L 488.523945 175.885627 
L 489.228735 175.680818 
L 494.303224 175.635337 
L 495.148972 173.350713 
L 495.853762 173.145905 
L 498.109091 173.145905 
L 498.109091 173.145905 
" style="fill:none;stroke:#0000ff;stroke-dasharray:6.475,2.8;stroke-dashoffset:0;stroke-width:1.75;"/>
   </g>
   <g id="patch_3">
    <path d="M 72 352.44 
L 72 47.52 
" style="fill:none;"/>
   </g>
   <g id="patch_4">
    <path d="M 518.4 352.44 
L 518.4 47.52 
" style="fill:none;"/>
   </g>
   <g id="patch_5">
    <path d="M 72 352.44 
L 518.4 352.44 
" style="fill:none;"/>
   </g>
   <g id="patch_6">
    <path d="M 72 47.52 
L 518.4 47.52 
" style="fill:none;"/>
   </g>
   <g id="text_16">
    <!-- 24 Hour HVAC Cost -->
    <defs>
     <path d="M 8.015625 0 
L 8.015625 71.578125 
L 17.484375 71.578125 
L 17.484375 42.1875 
L 54.6875 42.1875 
L 54.6875 71.578125 
L 64.15625 71.578125 
L 64.15625 0 
L 54.6875 0 
L 54.6875 33.734375 
L 17.484375 33.734375 
L 17.484375 0 
z
" id="ArialMT-72"/>
     <path d="M 40.578125 0 
L 40.578125 7.625 
Q 34.515625 -1.171875 24.125 -1.171875 
Q 19.53125 -1.171875 15.546875 0.578125 
Q 11.578125 2.34375 9.640625 5 
Q 7.71875 7.671875 6.9375 11.53125 
Q 6.390625 14.109375 6.390625 19.734375 
L 6.390625 51.859375 
L 15.1875 51.859375 
L 15.1875 23.09375 
Q 15.1875 16.21875 15.71875 13.8125 
Q 16.546875 10.359375 19.234375 8.375 
Q 21.921875 6.390625 25.875 6.390625 
Q 29.828125 6.390625 33.296875 8.421875 
Q 36.765625 10.453125 38.203125 13.9375 
Q 39.65625 17.4375 39.65625 24.078125 
L 39.65625 51.859375 
L 48.4375 51.859375 
L 48.4375 0 
z
" id="ArialMT-117"/>
     <path d="M 6.5 0 
L 6.5 51.859375 
L 14.40625 51.859375 
L 14.40625 44 
Q 17.4375 49.515625 20 51.265625 
Q 22.5625 53.03125 25.640625 53.03125 
Q 30.078125 53.03125 34.671875 50.203125 
L 31.640625 42.046875 
Q 28.421875 43.953125 25.203125 43.953125 
Q 22.3125 43.953125 20.015625 42.21875 
Q 17.71875 40.484375 16.75 37.40625 
Q 15.28125 32.71875 15.28125 27.15625 
L 15.28125 0 
z
" id="ArialMT-114"/>
     <path d="M 28.171875 0 
L 0.4375 71.578125 
L 10.6875 71.578125 
L 29.296875 19.578125 
Q 31.546875 13.328125 33.0625 7.859375 
Q 34.71875 13.71875 36.921875 19.578125 
L 56.25 71.578125 
L 65.921875 71.578125 
L 37.890625 0 
z
" id="ArialMT-86"/>
     <path d="M -0.140625 0 
L 27.34375 71.578125 
L 37.546875 71.578125 
L 66.84375 0 
L 56.0625 0 
L 47.703125 21.6875 
L 17.78125 21.6875 
L 9.90625 0 
z
M 20.515625 29.390625 
L 44.78125 29.390625 
L 37.3125 49.21875 
Q 33.890625 58.25 32.234375 64.0625 
Q 30.859375 57.171875 28.375 50.390625 
z
" id="ArialMT-65"/>
    </defs>
    <g style="fill:#262626;" transform="translate(205.735937 41.52)scale(0.2 -0.2)">
     <use xlink:href="#ArialMT-50"/>
     <use x="55.615234" xlink:href="#ArialMT-52"/>
     <use x="111.230469" xlink:href="#ArialMT-32"/>
     <use x="139.013672" xlink:href="#ArialMT-72"/>
     <use x="211.230469" xlink:href="#ArialMT-111"/>
     <use x="266.845703" xlink:href="#ArialMT-117"/>
     <use x="322.460938" xlink:href="#ArialMT-114"/>
     <use x="355.761719" xlink:href="#ArialMT-32"/>
     <use x="383.544922" xlink:href="#ArialMT-72"/>
     <use x="455.761719" xlink:href="#ArialMT-86"/>
     <use x="522.351562" xlink:href="#ArialMT-65"/>
     <use x="589.050781" xlink:href="#ArialMT-67"/>
     <use x="661.267578" xlink:href="#ArialMT-32"/>
     <use x="689.050781" xlink:href="#ArialMT-67"/>
     <use x="761.267578" xlink:href="#ArialMT-111"/>
     <use x="816.882812" xlink:href="#ArialMT-115"/>
     <use x="866.882812" xlink:href="#ArialMT-116"/>
    </g>
   </g>
   <g id="legend_1">
    <g id="line2d_29">
     <path d="M 339.145312 323.807187 
L 359.145312 323.807187 
" style="fill:none;stroke:#8172b2;stroke-linecap:round;stroke-width:1.75;"/>
    </g>
    <g id="line2d_30"/>
    <g id="text_17">
     <!-- RL Total Cost -->
     <defs>
      <path d="M 7.859375 0 
L 7.859375 71.578125 
L 39.59375 71.578125 
Q 49.171875 71.578125 54.140625 69.640625 
Q 59.125 67.71875 62.109375 62.828125 
Q 65.09375 57.953125 65.09375 52.046875 
Q 65.09375 44.4375 60.15625 39.203125 
Q 55.21875 33.984375 44.921875 32.5625 
Q 48.6875 30.765625 50.640625 29 
Q 54.78125 25.203125 58.5 19.484375 
L 70.953125 0 
L 59.03125 0 
L 49.5625 14.890625 
Q 45.40625 21.34375 42.71875 24.75 
Q 40.046875 28.171875 37.921875 29.53125 
Q 35.796875 30.90625 33.59375 31.453125 
Q 31.984375 31.78125 28.328125 31.78125 
L 17.328125 31.78125 
L 17.328125 0 
z
M 17.328125 39.984375 
L 37.703125 39.984375 
Q 44.1875 39.984375 47.84375 41.328125 
Q 51.515625 42.671875 53.421875 45.625 
Q 55.328125 48.578125 55.328125 52.046875 
Q 55.328125 57.125 51.640625 60.390625 
Q 47.953125 63.671875 39.984375 63.671875 
L 17.328125 63.671875 
z
" id="ArialMT-82"/>
      <path d="M 7.328125 0 
L 7.328125 71.578125 
L 16.796875 71.578125 
L 16.796875 8.453125 
L 52.046875 8.453125 
L 52.046875 0 
z
" id="ArialMT-76"/>
      <path d="M 6.390625 0 
L 6.390625 71.578125 
L 15.1875 71.578125 
L 15.1875 0 
z
" id="ArialMT-108"/>
     </defs>
     <g style="fill:#262626;" transform="translate(367.145312 327.307187)scale(0.1 -0.1)">
      <use xlink:href="#ArialMT-82"/>
      <use x="72.216797" xlink:href="#ArialMT-76"/>
      <use x="127.785156" xlink:href="#ArialMT-32"/>
      <use x="155.552734" xlink:href="#ArialMT-84"/>
      <use x="216.464844" xlink:href="#ArialMT-111"/>
      <use x="272.080078" xlink:href="#ArialMT-116"/>
      <use x="299.863281" xlink:href="#ArialMT-97"/>
      <use x="355.478516" xlink:href="#ArialMT-108"/>
      <use x="377.695312" xlink:href="#ArialMT-32"/>
      <use x="405.478516" xlink:href="#ArialMT-67"/>
      <use x="477.695312" xlink:href="#ArialMT-111"/>
      <use x="533.310547" xlink:href="#ArialMT-115"/>
      <use x="583.310547" xlink:href="#ArialMT-116"/>
     </g>
    </g>
    <g id="line2d_31">
     <path d="M 339.145312 337.9525 
L 359.145312 337.9525 
" style="fill:none;stroke:#0000ff;stroke-dasharray:6.475,2.8;stroke-dashoffset:0;stroke-width:1.75;"/>
    </g>
    <g id="line2d_32"/>
    <g id="text_18">
     <!-- Standard Thermostat Total Cost -->
     <defs>
      <path d="M 6.59375 0 
L 6.59375 51.859375 
L 14.5 51.859375 
L 14.5 44.484375 
Q 20.21875 53.03125 31 53.03125 
Q 35.6875 53.03125 39.625 51.34375 
Q 43.5625 49.65625 45.515625 46.921875 
Q 47.46875 44.1875 48.25 40.4375 
Q 48.734375 37.984375 48.734375 31.890625 
L 48.734375 0 
L 39.9375 0 
L 39.9375 31.546875 
Q 39.9375 36.921875 38.90625 39.578125 
Q 37.890625 42.234375 35.28125 43.8125 
Q 32.671875 45.40625 29.15625 45.40625 
Q 23.53125 45.40625 19.453125 41.84375 
Q 15.375 38.28125 15.375 28.328125 
L 15.375 0 
z
" id="ArialMT-110"/>
      <path d="M 6.59375 0 
L 6.59375 71.578125 
L 15.375 71.578125 
L 15.375 45.90625 
Q 21.53125 53.03125 30.90625 53.03125 
Q 36.671875 53.03125 40.921875 50.75 
Q 45.171875 48.484375 47 44.484375 
Q 48.828125 40.484375 48.828125 32.859375 
L 48.828125 0 
L 40.046875 0 
L 40.046875 32.859375 
Q 40.046875 39.453125 37.1875 42.453125 
Q 34.328125 45.453125 29.109375 45.453125 
Q 25.203125 45.453125 21.75 43.421875 
Q 18.3125 41.40625 16.84375 37.9375 
Q 15.375 34.46875 15.375 28.375 
L 15.375 0 
z
" id="ArialMT-104"/>
     </defs>
     <g style="fill:#262626;" transform="translate(367.145312 341.4525)scale(0.1 -0.1)">
      <use xlink:href="#ArialMT-83"/>
      <use x="66.699219" xlink:href="#ArialMT-116"/>
      <use x="94.482422" xlink:href="#ArialMT-97"/>
      <use x="150.097656" xlink:href="#ArialMT-110"/>
      <use x="205.712891" xlink:href="#ArialMT-100"/>
      <use x="261.328125" xlink:href="#ArialMT-97"/>
      <use x="316.943359" xlink:href="#ArialMT-114"/>
      <use x="350.244141" xlink:href="#ArialMT-100"/>
      <use x="405.859375" xlink:href="#ArialMT-32"/>
      <use x="433.626953" xlink:href="#ArialMT-84"/>
      <use x="494.710938" xlink:href="#ArialMT-104"/>
      <use x="550.326172" xlink:href="#ArialMT-101"/>
      <use x="605.941406" xlink:href="#ArialMT-114"/>
      <use x="639.242188" xlink:href="#ArialMT-109"/>
      <use x="722.542969" xlink:href="#ArialMT-111"/>
      <use x="778.158203" xlink:href="#ArialMT-115"/>
      <use x="828.158203" xlink:href="#ArialMT-116"/>
      <use x="855.941406" xlink:href="#ArialMT-97"/>
      <use x="911.556641" xlink:href="#ArialMT-116"/>
      <use x="939.339844" xlink:href="#ArialMT-32"/>
      <use x="967.107422" xlink:href="#ArialMT-84"/>
      <use x="1028.019531" xlink:href="#ArialMT-111"/>
      <use x="1083.634766" xlink:href="#ArialMT-116"/>
      <use x="1111.417969" xlink:href="#ArialMT-97"/>
      <use x="1167.033203" xlink:href="#ArialMT-108"/>
      <use x="1189.25" xlink:href="#ArialMT-32"/>
      <use x="1217.033203" xlink:href="#ArialMT-67"/>
      <use x="1289.25" xlink:href="#ArialMT-111"/>
      <use x="1344.865234" xlink:href="#ArialMT-115"/>
      <use x="1394.865234" xlink:href="#ArialMT-116"/>
     </g>
    </g>
   </g>
  </g>
 </g>
 <defs>
  <clipPath id="pd5d5e61723">
   <rect height="304.92" width="446.4" x="72" y="47.52"/>
  </clipPath>
 </defs>
</svg>
